<svg width="590" height="446" viewBox="0 0 590 446" fill="none" xmlns="http://www.w3.org/2000/svg">
<path fill-rule="evenodd" clip-rule="evenodd" d="M787.71 417.417C787.338 417.574 786.897 417.634 786.445 417.691C785.804 417.787 785.142 417.862 784.635 418.221C785.111 417.855 785.785 417.774 786.445 417.691L787.262 417.529L787.71 417.417L788.436 416.816C788.942 415.922 787.566 415.975 787.043 415.594C787.735 415.51 788.38 415.678 788.589 416.316C788.844 417.092 788.295 417.281 787.71 417.417ZM737.769 357.314C731.333 358.964 731.333 358.964 726.113 354.176C724.448 353.885 722.892 353.938 721.624 354.917L720.934 355.938C719.98 360.556 717.762 364.41 713.24 366.967C712.653 367.294 712.577 368.418 711.997 368.571C705.717 370.264 705.516 375.445 703.94 379.895C703.261 381.821 702.05 383.393 699.294 383.686C696.225 384.011 693.168 384.588 690.975 386.631C690.107 386.992 689.406 387.614 688.385 387.742C685.692 386.563 686.908 382.796 683.356 382.188L683.375 382.231C682.68 381.405 681.518 380.79 681.618 379.599L681.427 379.098C680.833 378.295 680.238 377.488 681.752 377.101L682.043 377.225L683.024 377.666L683.133 377.697C683.74 378.16 684.51 377.829 685.142 378.169L685.228 378.187C687.426 378.886 688.83 377.777 690.303 376.832C690.952 373.987 690.385 371.365 687.734 369.115C686.062 368.16 684.393 367.195 682.721 366.239C682.046 365.067 682.504 364.059 683.228 363.239C685.284 360.913 684.518 358.82 682.103 356.785L681.521 356.157C680.932 355.383 680.335 354.611 680.891 353.698C685.338 353.197 685.414 353.183 684.222 349.679C683.659 348.027 683.776 346.068 681.64 344.948C681.154 344.413 680.941 343.819 681.009 343.165C683.319 339.653 683.353 335.507 684.132 331.562C684.253 331.122 684.46 330.713 684.753 330.351C684.982 329.896 685.3 329.508 685.775 329.24C686.169 326.083 689.088 324.156 690.187 321.347C692.4 320.824 689.623 319.492 690.482 318.753L690.461 318.748C690.443 317.583 693.995 317.515 691.391 315.506C690.475 314.796 691.224 313.967 691.519 313.229L691.489 313.239C692.793 312.169 694.587 311.549 695.337 309.977L695.365 309.934C698.416 309.511 698.763 312.262 700.451 313.435C702.777 315.418 705.448 317.124 706.93 319.79C707.617 321.015 708.951 321.75 710.437 321.912C716.359 322.58 719.106 326.285 721.422 330.558C722.932 333.337 724.102 336.368 727.426 338.153C731.142 339.418 732.696 342.261 734.271 345.095C735.925 348.093 737.592 351.088 739.224 354.093C740.38 356.224 740.146 356.706 737.769 357.314ZM701.483 420.717C698.529 423.836 694.773 425.389 689.785 424.542C687.794 423.969 686.137 424.534 684.56 425.337C683.977 425.495 683.406 425.785 682.804 425.789C680.874 425.805 680.042 424.936 680.782 423.547C682.621 420.08 683.955 416.426 684.944 412.67C685.328 411.216 686.137 411.254 687.579 411.315C691.212 411.46 694.798 412.129 698.396 412.58C700.586 415.041 700.851 417.917 701.483 420.717ZM637.59 304.778C638.426 303.49 639.993 303.6 641.251 303.446C643.809 303.125 643.925 301.982 643.328 299.93C642.406 296.782 640.423 294.659 637.221 292.971C633.292 290.9 628.698 290.133 625.201 287.156C623.857 286.01 622.319 286.958 620.489 289.664C619.82 291.816 618.406 293.611 617.243 295.525C615.663 297.109 616.451 299.236 616.447 301.068C616.431 304.156 615.179 306.225 611.879 307.525C610.485 306.159 610.21 303.733 607.559 303.327C605.997 302.697 604.721 302.77 604.009 304.201C603.064 307.539 603.064 307.539 596.931 305.496C597.396 303.423 597.867 301.315 598.34 299.212C598.565 298.702 598.868 298.254 599.405 297.962C603.855 293.514 608.345 289.105 612.731 284.61C615.169 282.101 614.219 279.236 610.379 278.019C607.173 276.997 604.289 275.162 600.89 274.657C599.784 274.492 598.762 274.013 598.193 272.973C597.14 271.039 594.677 269.941 593.764 267.635C597.395 266.57 600.707 265.195 600.28 261.037C600.235 260.606 600.532 260.324 601.005 260.149C602.41 259.634 607.555 260.655 608.601 261.725C609.223 262.359 610.164 263.199 608.883 263.733C607.53 264.306 607.132 265.045 607.611 266.333C608.164 267.802 608.428 269.281 610.133 270.366C611.82 271.437 613.769 271.562 615.502 272.363C616.962 272.885 617.848 272.394 618.369 271.277C620.289 270.373 617.242 267.829 619.774 267.134C620.692 267.751 621.778 268.252 622.498 269.011C624.996 271.647 627.901 273.192 631.768 273.083C633.489 273.034 634.968 273.781 635.168 275.517C635.413 277.641 637.342 279.225 637.706 281.45C638.026 283.379 640.813 283.924 642.875 283.711C644.984 283.498 646.006 284.033 647.594 285.582C651.096 289.009 655.116 292.211 660.863 291.809C662.539 291.697 663.18 292.512 663.048 293.904C662.957 294.857 663.137 295.845 662.635 296.735C661.942 297.972 662.502 299.11 663.474 300.185C664.036 300.247 664.542 300.492 665.069 300.657L665.998 300.677C667.097 301.062 668.241 301.313 669.313 301.788L669.292 301.779C670.857 302.278 672.306 303.047 673.841 303.622L675.122 304.004C678.023 303.186 679.337 304.524 679.985 306.853C680.462 307.365 680.684 308.012 681.19 308.511C681.041 309.572 680.651 310.517 679.115 309.924C675.386 308.475 671.672 308.552 667.877 308.765C665.109 308.921 662.353 308.835 659.478 307.926C655.582 306.698 651.905 307.826 648.734 309.424C647.061 310.266 645.767 310.325 644.529 309.159C642.571 307.306 640.06 306.246 637.59 304.778ZM647.01 331.156C644.145 333.765 641.362 336.468 636.944 337.365C635.273 334.612 638.35 332.745 637.103 330.399C637.256 328.395 636.328 326.607 635.263 324.806C634.474 323.474 634.947 322.948 636.619 323.553L636.585 323.522C637.096 323.627 637.486 323.893 637.824 324.24C640.366 325.362 642.146 327.387 644.455 328.783C645.212 329.653 647.936 328.914 647.01 331.156ZM644.806 424.944C643.521 426.564 640.61 426.379 638.29 426.596C637.14 426.706 636.69 425.784 636.402 424.937C635.538 422.399 635.686 419.886 636.72 417.646C638.354 414.114 640.064 413.975 644.077 416.523C646.033 417.765 648.077 418.893 650.317 420.209C648.496 421.931 646.294 423.06 644.806 424.944ZM581.216 279.739L580.215 279.998C579.108 280.39 577.999 280.779 576.891 281.167L575.863 281.516C572.925 282.53 569.75 283.187 567.484 285.239C567.355 285.685 567.156 286.101 566.918 286.503C566.239 287.695 565.783 289.061 564.832 290.046C561.565 293.441 561.048 297.705 560.234 301.998C559.432 306.213 558.292 310.473 556.324 314.26C555.282 316.265 557.351 318.887 555.288 319.885C553.575 320.717 550.655 319.437 549.159 321.424L548.775 321.629C546.234 322.816 546.772 321.034 546.643 319.901C546.115 318.213 546.349 316.309 544.371 315.042C540.294 311.053 534.613 310.666 529.488 309.241C527.016 308.554 524.625 307.911 522.394 306.703C521.165 305.902 520.227 304.888 518.319 305.322C513.858 306.345 509.269 307.054 504.725 307.872C503.033 308.178 502 308.987 501.827 310.538L501.845 310.522C501.382 311.375 502.521 312.399 501.744 313.216C500.407 315.706 500.281 318.649 498.409 320.963C497.382 322.243 498.774 328.889 500.026 330.141C500.53 330.648 501.126 330.627 501.744 330.544C502.969 330.391 504.198 330.238 505.428 330.085L506.093 330.453L506.02 330.854C504.375 333.818 501.394 336.123 501.077 339.764C501.004 340.558 500.44 341.32 500.961 342.144C501.607 343.174 501.068 344.83 503.099 345.142C505.021 345.44 507.247 344.336 507.831 342.845C508.247 341.811 507.689 340.171 509.834 340.221L510.926 340.08C511.808 340.041 512.688 339.998 513.572 339.963C514.486 340.332 514.502 340.844 514.027 341.437C510.291 343.315 507.848 346.303 504.94 348.924C501.517 352.006 501.46 354.916 502.478 358.646L502.584 359.483C502.815 360.808 504.427 362.442 503.024 363.373C501.397 364.448 500.323 362.619 499.14 361.7C497.694 360.589 496.052 361.13 495.264 361.911C491.957 365.213 489.373 368.944 488.862 373.607C488.822 373.994 489.11 374.431 489.242 374.842C488.996 376.583 487.518 377.82 487.131 379.507C486.732 383.167 488.264 385.942 492.396 387.638C493.396 388.05 494.257 388.779 495.182 389.361C495.542 390.227 495.829 391.112 496.126 391.986C494.789 393.294 493.081 394.113 491.184 394.679C490.628 395.085 489.907 395.238 489.279 395.53C480.995 397.202 480.995 397.202 483.534 404.574C483.864 405.531 484.188 406.484 484.544 407.436C484.831 408.194 484.756 408.76 483.895 409.112C481.525 410.065 480.691 412.243 479.236 413.889C477.178 416.224 477.564 419.348 478.007 422.162C478.414 424.754 479.38 427.401 480.745 429.89C481.899 432 483.298 433.9 485.896 434.881C487.437 435.46 488.547 436.569 489.842 437.454C493.024 440.219 489.424 440.692 488.252 441.987C485.769 442.348 484.065 444.306 481.302 444.115C480.255 443.842 479.251 443.418 478.187 443.208C473.71 443.424 469.197 444.022 465.036 441.145L464.151 440.793C460.209 439.822 460.206 439.826 459.507 436.376C459.773 435.356 459.077 434.344 459.169 433.327C458.132 432.226 457.242 430.988 456.046 430.059C453.46 428.046 453.37 428.088 455.234 426.059C456.904 424.238 458.738 422.531 459.998 420.427C461.878 418.602 461.861 416.288 461.542 413.899C461.701 413.334 461.857 412.773 462.013 412.213C462.205 411.76 462.487 411.363 462.796 410.977C463.858 408.538 464.266 406.057 463.045 403.352C462.573 402.308 462.153 401.055 463.889 400.628C468.987 399.37 469.221 395.736 467.968 392.049C466.985 389.169 467.819 387.202 469.463 385.205C469.191 383.296 466.398 381.128 469.64 379.572C474.522 378.164 474.627 377.689 471.058 373.063C470.566 372.748 470.062 372.452 469.508 372.233C468.124 371.781 467.391 372.265 467.105 373.394C467.172 374.593 467.765 375.801 467.51 376.953C467.301 377.89 467.074 379.139 465.321 378.012L464.865 377.564C462.796 376.727 461.399 375.89 462.259 373.479C463.42 370.236 460.39 367.124 460.163 363.857C461.652 362.466 464.64 364.654 465.798 362.458C467.175 359.835 469.083 357.515 469.797 354.515C470.824 350.238 469.964 349.049 464.702 349.155C464.161 346.823 465.41 345.307 467.178 343.975C469.033 342.568 470.148 340.946 468.489 338.608C467.357 337.549 465.704 338.447 464.537 337.508C469.154 335.279 468.565 331.395 467.781 327.449C468.078 326.34 469.235 325.913 470.053 325.219C471.403 324.512 472.76 323.812 474.113 323.113C477.797 321.033 476.044 318.273 474.578 315.554C469.942 310.528 464.148 307.862 457.039 307.517C451.864 307.265 446.672 307.456 441.595 305.174C439.66 304.304 437.011 303.974 436.314 306.731C434.655 309.693 433.836 312.944 432.939 316.172C432.626 316.63 432.426 317.199 431.986 317.533C430.223 318.876 427.234 319.276 426.492 318.128C425.267 316.226 426.968 315.286 428.367 314.262C432.418 311.284 432.543 309.041 429.036 305.163C427.051 302.961 427.074 302.395 430.194 302.094C438.765 301.265 445.996 297.996 453.159 294.508C453.791 294.582 454.311 294.39 454.769 294.07C459.773 292.926 464.57 291.259 469.757 290.563C471.563 290.317 473.269 289.633 474.902 291.428C475.746 292.362 476.943 291.886 477.97 291.647C479.077 291.212 477.727 290.177 478.415 289.641C479.421 288.541 481.04 288.566 482.452 288.198C484.54 287.655 486.294 286.79 486.699 284.694C486.941 284.123 487.393 283.728 487.999 283.457C488.945 283.06 490.056 282.932 490.877 282.348C492.18 281.43 492.593 280.16 491.801 278.735C490.775 276.893 489.28 277.436 487.872 278.082C487.135 278.415 486.48 279.004 485.482 278.511L485.369 278.106C486.022 276.032 483.5 273.422 486.152 271.696C489.614 273.636 494.472 272.916 496.948 276.751C498.699 279.464 500.515 282.103 502.998 284.455C505.187 286.536 507.421 287.174 510.225 286.492C511.405 286.204 512.649 286.078 513.868 285.88C514.6 285.957 515.323 285.922 516.043 285.921C521.403 284.7 526.619 286.649 531.809 287.847C535.75 288.746 537.773 288.262 539.405 285.372C539.926 284.437 540.865 283.712 541.613 282.892C542.187 282.736 542.769 282.592 543.218 282.244C546.04 281.318 549.12 280.771 550.952 278.436C552.002 277.087 552.82 275.815 551.697 273.923C550.918 272.597 549.999 271.103 550.905 269.295C554.479 270.756 556.569 273.876 559.845 275.547C560.535 275.623 561.103 275.928 561.61 276.359C564.202 276.475 566.132 275.616 567.098 273.578C567.48 272.778 568.073 272.256 568.833 271.813C571.916 270.008 572.573 267.512 571.165 264.276C570.358 262.427 569.863 260.501 569.108 258.246C578.163 258.961 584.97 263.454 592.206 267.19C591.473 268.333 589.97 268.414 589.87 269.749C589.485 274.786 585.732 277.545 581.216 279.739ZM540.04 372.336C540.959 372.789 541.055 373.484 540.942 374.243C540.934 375.865 541.625 377.41 542.126 378.977C542.073 379.801 542.477 380.588 542.617 381.398C542.801 382.512 542.985 383.622 543.166 384.741C543.142 385.442 543.221 386.128 543.746 386.753C544.534 391.12 544.3 391.463 539.632 392.359C537.964 392.677 536.282 392.972 534.586 393.194C533.804 393.291 532.968 393.115 532.572 392.326C532.158 391.499 532.641 390.832 533.415 390.724C536.733 390.24 536.748 387.962 536.705 385.712C536.648 381.996 536.8 378.344 538.144 374.861C538.545 373.808 538.704 372.75 540.04 372.336ZM535.465 358.741C535.573 358.109 535.971 357.948 536.653 358.254C541.872 357.526 541.868 357.527 540.806 352.822C540.72 352.412 540.735 351.991 540.705 351.579L540.468 350.521C540.125 349.229 539.782 347.937 539.445 346.648C539.586 346.015 539.438 345.375 539.35 344.733L537.535 339.313C540.766 338.722 543.665 339.124 546.48 339.052L547.419 338.943C548.434 339.458 549.456 338.642 550.466 339.183L550.492 339.191C551.958 339.349 553.168 339.913 554.011 341.067C555.413 342.228 557.205 342.335 558.869 342.803C559.934 343.102 561.017 343.439 561.981 343.942C563.231 344.596 564.566 345.432 564.598 346.793C564.624 348.333 562.819 347.866 561.8 348.255C561.382 348.411 560.962 348.564 560.548 348.72L559.593 349.173C558.361 349.247 557.121 349.301 555.892 349.399C554.318 349.522 553.32 350.212 553.304 351.67C553.244 356.496 549.658 358.516 545.131 359.834C544.428 360.042 543.849 360.507 543.207 360.852C542.783 361.006 542.809 361.676 542.135 361.534C541.42 362.281 540.714 363.026 540.007 363.772C539.252 364.526 541.723 366.209 539.253 366.471C536.291 364.418 536.92 361.26 535.465 358.741ZM522.354 342.889C523.043 342.948 523.685 342.814 524.306 342.616C525.603 341.496 526.572 341.45 526.924 343.415C526.372 344.242 527.049 345.363 526.351 346.162C525.839 346.589 525.848 347.149 525.975 347.742C526.207 349.712 526.402 351.689 528.009 353.379C529.118 354.159 530.695 354.44 531.372 355.886C530.758 357.201 528.744 356.954 527.863 358.106C526.971 359.282 527.848 360.565 527.502 361.641C526.899 363.566 524.49 363.011 522.841 363.444C521.353 363.839 519.887 363.343 519.361 361.882C518.104 358.382 516.979 354.853 515.863 351.322C514.915 348.309 518.243 348.009 519.685 346.508C520.063 346.215 520.358 345.858 520.593 345.464L521.07 344.765C519.99 343.283 519.815 342.311 522.354 342.889ZM610.372 438.335C609.587 441.601 610.055 445.153 608.335 448.186C607.075 449.193 604.966 448.617 603.789 449.773C603.375 449.87 602.955 449.968 602.545 450.064C601.289 450.095 601.547 448.871 600.81 448.47L599.647 447.725C598.429 447.251 597.791 446.203 596.821 445.486C592.849 444.778 588.823 444.835 584.966 442.878C582.606 441.681 580.017 442.079 578.453 444.256C577.9 445.024 577.166 445.686 576.405 446.508C574.636 445.811 574.499 443.895 572.972 443.132C570.946 441.384 569.9 439.162 568.669 437.032L568.631 437.001C566.285 435.215 564.623 432.78 561.826 431.418C560.355 430.442 558.866 429.778 557.061 430.379C556.236 430.656 555.291 430.719 554.395 430.883C549.947 431.693 549.947 431.693 547.035 428.002C544.856 425.573 543.133 427.374 541.275 428.013L540.705 428.843C536.395 430.696 531.746 431.538 526.768 431.394C525.628 430.775 525.382 429.731 524.966 428.769C525.616 427.321 527.259 427.742 528.571 427.54C529.632 427.038 530.777 426.63 531.73 426.004C535.782 423.351 536.073 420.044 532.661 416.026L531.758 415.791C530.235 414.871 531.508 414.579 532.079 414.133C532.474 413.723 532.864 413.314 533.26 412.908L533.998 412.03C534.22 411.555 534.549 411.157 535.06 410.899C535.234 409.998 535.404 409.097 535.576 408.192C536.221 407.095 536.356 405.543 538.417 405.664C540.387 407.16 541.472 408.755 539.525 410.605C537.719 412.315 538.256 414.327 538.911 416.452C539.332 417.806 540.205 418.587 541.61 418.423C547.003 417.791 550.844 421.249 555.15 423.293C558.432 424.853 561.536 425.88 565.164 425.579C568.4 425.312 571.666 425.406 574.935 426.703C576.82 427.451 578.928 427.909 580.994 427.527C582.413 426.841 584.28 427.128 585.58 426.215C587.7 425.515 589.584 424.474 591.894 424.047C594.502 423.565 596.8 423.761 599.021 425.334C600.514 426.023 601.283 427.502 602.846 428.12C604.823 429.75 605.903 431.991 608.387 433.389C610.153 434.374 610.76 436.723 610.372 438.335ZM419.662 338.955C418.902 339.06 418.215 338.388 417.954 337.622L416.583 333.526L416.676 333.509C416.356 332.555 415.984 331.61 415.732 330.648C415.089 328.221 415.441 328.034 418.079 328.29C420.966 328.572 422.61 330.415 424.249 332.09C425.521 333.385 426.607 335.279 425.316 336.726C424.034 338.172 421.78 338.656 419.662 338.955ZM424.347 383.75C424.488 386.818 423.963 389.75 423.22 392.65L422.613 393.693C418.248 394.792 420.34 397.916 420.438 400.404L420.692 401.443C420.658 404.466 419.246 406.86 417.086 409.002C414.911 411.156 412.926 413.469 410.88 415.725C409.585 417.148 409.947 419.073 409.418 420.728C409.116 421.247 409.272 421.797 409.415 422.349C409.759 425.852 411.185 428.903 414.87 430.964C416.123 431.667 416.46 432.745 416.826 433.838C417.375 435.477 418.012 437.099 418.464 438.746C419.16 441.315 420.594 443.138 423.229 444.905C427.09 447.503 430.311 450.88 433.685 454.023C434.835 455.095 434.933 456.639 435.44 457.985C434.933 459.508 434.136 460.869 432.757 461.885C431.23 463.148 429.101 463.892 428.355 465.826C428.523 467.678 428.49 469.579 430.379 471.043C431.807 471.749 431.852 473.205 432.785 474.22C433.891 475.427 433.716 476.564 431.726 476.895C429.778 477.222 428.783 478.708 427.38 479.682C425.85 480.751 423.975 481.537 422.232 480.396C419.802 478.807 417.702 479.44 415.445 479.815C414.53 479.966 413.624 480.144 412.716 480.314C406.876 481.425 406.837 481.42 406.395 487.02C406.201 489.478 403.595 488.546 402.194 489.283C401.75 490.179 400.121 489.646 399.805 490.699L399.838 490.672C399.368 491.125 398.565 491.175 398.132 491.668C397.621 491.842 397.108 492.012 396.601 492.184L395.821 492.572L394.963 492.244L394.26 491.663L394.182 491.627C390.925 492.687 387.38 493.239 384.76 495.385C384.115 495.908 382.92 496.207 382.235 495.539C381.657 494.978 381.501 493.964 381.454 493.163C381.382 492.007 382.538 492.082 383.45 492.105C387.478 492.225 391.149 491.401 394.531 489.786L394.552 489.766L395.164 488.835L395.199 488.757C395.798 487.044 395.386 485.237 395.273 483.464C394.154 480.462 394.1 477.627 395.723 474.921C396.183 474.157 396.032 473.087 396.163 472.156C395.983 471.801 395.931 471.435 396.033 471.066C395.773 470.105 395.498 469.142 395.232 468.178C395.207 467.752 395.465 467.384 395.396 466.954C393.787 461.935 392.152 456.926 390.575 451.906C389.65 448.96 389.668 448.889 392.799 448.266C394.623 447.907 396.424 447.603 397.654 446.297C398.299 445.972 399.027 445.742 399.541 445.251C402.148 441.491 402.712 437.396 400.912 432.919C401.258 432.235 400.831 431.608 400.546 430.968C401.848 424.362 404.351 418.013 404.193 411.1C404.171 410.062 404.6 409.291 405.106 408.468C405.546 407.755 405.799 406.949 404.72 406.273C404.791 405.88 404.871 405.486 404.955 405.09C404.731 402.397 402.036 399.341 405.641 397.196C408.476 396.183 409.9 394.007 411.351 391.842L412.051 390.714L412.704 389.696L412.683 389.759L413.43 388.672C413.838 386.163 415.232 384.152 417.213 382.473C418.652 381.256 420.435 381.069 422.457 381.636C423.704 381.986 424.286 382.529 424.347 383.75ZM359.293 443.991C355.099 445.881 353.589 448.883 355.146 453.152C356.015 455.537 356.302 457.801 355.798 460.122C356.549 461.267 356.285 462.265 355.509 463.184C354.642 463.604 353.678 463.763 352.653 463.698C349.694 464.775 349.478 466.549 350.441 469.356C352.417 475.101 356.9 478.969 361.993 482.663C364.93 484.796 367.749 486.956 371.321 488.189C372.697 488.667 372.842 489.679 371.981 490.554C370.998 491.556 369.898 492.475 368.403 492.947L367.431 493.222C363.246 495.309 358.628 495.765 353.685 494.982C352.197 495.63 350.264 495.313 348.961 496.357C347.088 496.67 346.457 498.161 345.296 499.167C343.869 500.403 342.658 499.979 341.779 498.211C340.228 495.098 341.828 492.227 341.687 489.218C341.655 488.406 342.327 487.485 341.997 486.824C340.22 483.203 342.209 480.409 343.464 477.436L343.305 476.452C343.091 474.955 342.874 473.463 342.654 471.963C342.489 470.824 342.536 469.571 343.373 468.877C345.937 466.746 346.5 463.929 346.983 460.954C347.54 457.497 350.575 454.79 350.153 450.997C349.991 449.529 348.378 448.127 349.426 446.602L349.841 445.889C354.516 442.13 354.858 436.75 355.434 431.522C355.759 428.639 357.145 426.816 360.175 426.046C361.193 426.628 361.287 427.611 361.01 428.007C358.608 431.452 360.529 434.966 361.709 438.463C362.998 442.312 363.024 442.308 359.293 443.991ZM291.425 362.172L291.483 361.473C291.443 361.017 291.707 360.681 291.983 360.352C292.672 356.572 295.735 354.34 298.661 352.024C299.574 349.139 302.892 348.051 304.566 345.723C305.358 344.629 306.436 343.697 307.386 342.696C308.337 341.935 309.156 341.781 309.617 343.242C310.218 346.499 308.352 348.297 305.258 349.378C302.912 350.191 300.92 351.319 300.492 353.752C301.044 355.639 302.041 357.507 298.507 357.867C296.264 358.1 295.824 360.472 294.405 361.749C293.415 361.901 292.984 364.001 291.425 362.172ZM359.592 347.521C359.603 346.894 359.908 346.412 360.431 346.034C361.83 342.305 365.736 340.737 368.884 338.536C370.065 337.717 371.51 337.178 372.451 336.095C372.65 335.421 373.625 335.466 373.922 334.889L374.576 334.663C375.561 335.044 375.659 335.689 375.414 336.434C376.674 339.381 375.51 341.236 372.462 342.245L371.522 342.531C369.208 343.807 366.284 344.722 367.451 348.108C367.278 348.591 367.582 348.979 367.928 349.35C367.827 350.175 368.909 351.099 367.917 351.85L366.862 351.934C365.924 351.903 364.989 351.867 364.055 351.836L363.001 351.978C358.552 351.771 358.425 351.604 359.592 347.521ZM380.575 327.109C381.307 326.637 382.257 326.324 382.964 327.267C383.597 328.117 383.95 329.129 382.756 329.727C381.724 330.245 380.54 330.491 378.847 330.329C378.91 328.844 379.476 327.821 380.575 327.109ZM385.206 313.639L385.912 312.624L386.577 311.629L386.535 311.687L387.186 310.635L387.184 310.699C387.408 310.244 387.725 309.853 388.189 309.566C389.714 309.24 390.321 310.433 390.639 311.202C391.712 313.829 393.579 316.256 394.005 319.047L393.967 319.13C390.88 319.91 388.121 318.267 385.441 317.251C383.617 316.559 385.055 314.874 385.206 313.639ZM330.64 523.498C327.407 523.461 324.069 523.97 321.17 521.542C319.906 520.482 318.246 520.28 316.614 520.452C314.947 519.765 313.439 518.931 312.773 517.293C313.261 516.626 314.301 515.879 314.143 515.295C313.31 512.258 315.525 511.869 317.943 511.524C320.052 511.227 322.2 510.357 323.854 512.822C324.226 513.37 325.163 513.946 325.86 514.017C330.653 514.52 331.241 518.189 332.85 520.971C333.716 522.475 332.735 523.524 330.64 523.498ZM280.989 440.798C281.223 441.611 281.393 442.441 281.708 443.24C282.552 445.382 281.967 446.041 279.361 446.822C275.692 447.92 270.677 448.694 271.335 453.908C269.151 456.43 269.87 460.645 265.687 462.005C264.088 460.251 263.755 458.232 263.556 456.188C263.586 452 265.818 448.908 269.345 446.57C272.555 444.443 275.686 442.245 278.619 439.839C278.786 439.057 279.303 438.857 280.164 439.193C281.033 439.536 281.076 440.144 280.989 440.798ZM280.902 515.749C280.067 518.91 276.913 518.787 274.065 519.097C272.951 518.993 271.794 519.053 270.734 518.757C265.608 517.328 261.088 519.13 256.425 519.818C253.572 520.243 252.432 522.731 251.759 525.77C249.403 522.952 248.675 520.355 248.505 517.824C248.241 513.842 247.719 509.806 248.663 505.916C248.786 505.383 248.82 504.824 248.823 504.27C248.822 502.679 247.074 500.691 248.721 499.592C250.066 498.7 252.228 498.701 254.037 498.337C257.399 497.662 259.383 495.43 261.501 493.4C262.508 492.427 263.16 491.168 265.134 491.001C266.305 500.012 271.708 506.079 281.952 508.686C282.571 508.835 283.057 509.147 283.397 509.642C281.563 511.294 282.896 514.152 280.902 515.749ZM789.846 370.024C789.424 366.485 789.841 363.146 790.486 359.741C791.442 354.692 793.032 349.763 791.014 344.241C787.551 334.742 787.497 334.512 777.175 337.396C773.954 338.298 771.184 338.168 768.437 335.758C764.089 331.942 759.34 328.418 759.14 322.546C759.094 321.17 758.332 319.795 756.998 318.765C755.411 317.793 753.409 317.611 751.938 316.424C751.144 315.894 750.325 315.289 749.4 315.116C743.07 313.932 739.332 310.291 736.761 305.271C736.008 303.809 735.057 302.08 732.777 301.725C732.155 301.514 731.546 301.271 730.946 301.026C730.338 300.758 729.713 300.577 729.053 300.533C728.012 300.251 727.048 301.183 725.942 300.482C727.154 299.348 726.97 298.209 725.85 296.776C723.039 293.189 720.254 290.048 715.367 287.955C710.908 286.045 707.142 282.995 701.907 282.239C696.698 281.492 691.029 280.976 687.701 275.985C687.134 275.135 685.838 274.727 684.69 274.658C680.567 274.413 679.158 272.51 679.182 269.024C679.219 264.717 677.818 263.446 672.999 262.96C670.226 262.683 667.813 261.749 666.334 259.723C663.017 255.174 658.748 254.478 653.379 255.123C650.125 255.515 646.224 255.778 643.413 253.009C640.648 250.278 637.224 249.335 633.507 248.669C629.555 247.961 625.405 248.185 621.669 246.645C618.314 245.262 615.214 244.876 611.957 245.755C608.65 246.651 605.821 245.797 603.128 243.576C600.788 241.65 598.139 240.126 594.823 240.741C586.105 242.961 586.258 241.924 588.233 250.231C585.905 250.775 585.348 248.927 584.518 247.741C583.392 246.137 582.465 244.467 580.37 243.622C578.295 243.065 576.498 241.849 574.414 241.319C573.58 241.176 572.757 241.432 571.918 241.164C571.238 241.537 570.491 241.699 569.653 241.587C565.877 243.531 561.639 244.079 557.149 243.904L556.75 243.935C556.392 244.317 555.909 244.351 555.372 244.209C554.588 244.567 553.759 244.736 552.824 244.489L551.778 243.798C550.457 241.778 548.518 240.475 546.007 239.854C544.605 239.844 543.299 239.417 541.939 239.041C538.729 238.16 535.771 238.271 533.911 240.941C533.306 241.456 534.025 243.182 532.089 242.477C523.666 234.633 513.25 233.694 502.521 233.856C501.577 234.159 500.652 234.518 499.578 234.449C498.767 234.445 497.989 234.596 497.204 234.715C496.421 234.879 495.62 234.865 494.807 234.769C493.601 235.121 492.395 234.755 491.187 234.507C489.931 234.484 488.826 234.923 487.644 235.135C486.82 235.403 486.021 235.111 485.223 234.881C479.858 234.145 475.197 236.243 470.106 236.652C469.539 236.181 468.977 238.217 468.412 236.527C465.732 236.021 463.554 236.969 461.357 237.89C460.724 238.28 460.068 238.64 459.347 238.92C458.814 239.115 458.287 239.312 457.777 239.549C457.259 239.758 456.733 239.96 456.145 240.004C451.325 238.729 446.485 237.552 441.542 238.148C440.603 238.408 439.67 238.689 438.629 238.618C437.217 238.678 435.841 238.968 434.409 238.926C433.753 239.54 432.804 239.055 432.038 239.229C430.438 239.597 428.699 239.65 427.239 240.381C419.506 241.969 411.789 243.618 403.827 244.535C396.377 245.97 389.406 248.385 382.464 250.887C381.623 251.189 380.722 251.353 379.841 251.549C378.309 251.867 376.768 252.145 375.326 252.678C374.375 253.101 373.335 253.313 372.246 253.352C370.318 253.527 368.743 254.381 367.171 255.171C364.14 256.679 361.837 259.084 358.407 260.121C354.676 261.255 351.624 263.084 350.092 266.47C349.225 268.393 347.269 269.528 345.518 270.81C343.31 272.43 340.358 273.164 338.509 275.182C338.475 276.007 338.086 276.293 337.176 275.784C334.332 276.123 331.726 276.988 329.204 278.036C323.718 281.062 318.852 284.784 313.668 288.15C312.906 288.813 311.945 289.149 310.88 289.302C310.275 289.421 309.668 289.549 309.066 289.664C303.322 290.753 300.194 295.207 295.237 297.279C290.291 299.357 287.541 302.819 287.06 307.684C286.89 309.382 286.188 310.523 284.423 311.116C283.696 311.435 283.053 311.848 282.456 312.316L281.678 313.016L281.081 313.779L280.83 314.167L280.346 314.918L280.11 315.282L279.637 316.005L279.401 316.369L278.991 317.128L278.689 317.943C278.515 318.506 278.266 319.042 277.966 319.552L277.724 319.942L277.199 320.722L276.909 321.109L276.248 321.863L275.872 322.231L275.089 322.986C273.23 325.466 270.629 327.149 267.726 328.689C263.096 331.135 259.836 334.479 261.509 340.051C261.967 341.575 261.407 342.741 260.281 343.741C260.061 344.532 259.552 344.684 258.742 344.179C251.275 345.013 249.377 346.842 249.205 353.275C249.108 357.023 249.942 360.795 249.929 364.553C249.918 367.712 249.296 370.582 246.533 372.653C244.716 374.019 244.066 375.932 243.573 377.976C241.87 385.044 240.108 392.101 237.213 398.813L236.847 399.859L236.646 400.356L236.115 401.259L235.788 401.674L235.061 402.444C234.17 403.354 233.393 404.311 233.635 405.68C234.183 406.728 234.068 407.719 233.652 408.686C233.544 409.22 233.443 409.792 233.637 410.33C234.846 413.687 235.279 416.782 232.537 419.604C231.071 421.118 231.615 423.419 232.784 425.18C235.068 428.628 233.879 431.04 231.091 433.149C228.202 435.337 227.268 438.158 227.956 441.619C228.525 444.473 227.941 446.977 226.302 449.45C224.645 451.943 222.851 454.378 221.974 457.37C220.102 463.721 219.157 470.153 219.696 476.869C219.838 477.7 219.764 478.507 219.67 479.309C219.794 482.224 220.54 485.142 220.689 488.035C221.085 495.745 222.935 503.365 222.385 511.218C221.902 518.257 225.897 525.687 229.191 532.714C230.165 533.161 230.253 533.845 230.037 534.606C230.913 536.607 231.195 538.728 232.177 540.705C234.932 546.261 239.175 548.51 245.599 547.824C253.435 546.994 255.129 545.359 255.258 538.486C254.809 536.918 253.928 535.358 254.65 533.786C254.115 534.944 254.598 536.121 255.023 537.293C258.955 543.27 260.655 544.027 267.934 542.872C271.628 542.285 275.281 541.566 278.94 540.888C288.026 539.208 296.925 540.61 305.636 544.291C309.568 545.951 313.072 548.062 314.08 552.211C314.498 553.924 315.754 555.357 317.33 556.491C321.465 559.46 325.006 562.931 328.575 566.392C331.029 568.771 333.664 571.028 337.1 572.302C338.077 572.634 339.072 572.861 340.094 572.932C343.569 572.764 347.464 572.849 349.502 570.299C351.986 567.185 355.132 567.141 358.956 568.058C363.178 569.062 367.179 568.988 370.787 567.062C371.316 566.59 371.522 565.982 371.607 565.321C371.221 562.817 369.186 560.396 370.385 557.818C373.095 550.198 375.034 542.391 376.551 534.429C377.474 529.605 379.396 525.008 379.147 519.918C379.087 518.629 379.978 517.618 380.762 516.626C381.169 516.168 381.612 515.732 382.114 515.349C387.778 513.726 393.782 513.037 399.628 511.904C401.524 511.531 403.353 511.762 405.043 512.9C407.008 514.212 409.088 514.291 411.321 514.068C414.837 513.712 418.156 512.796 421.638 512.324C422.258 511.755 422.96 511.588 423.822 512.093C425.254 512.321 426.625 512.027 428.026 512.02C428.759 512.084 429.497 512.139 430.229 512.157C438.696 512.764 446.76 511.867 454.307 509.021C454.795 508.523 454.94 507.901 454.922 507.229C454.86 506.439 454.646 505.659 454.55 504.867C454.522 503.475 455.614 503.528 456.744 503.684C458.592 503.941 460.425 504.142 462.225 503.838C465.079 503.358 468.013 502.981 469.469 500.436C470.128 499.311 470.252 498.064 470.168 496.772C470.145 496.168 470.126 495.564 470.083 494.956C469.802 492.754 469.71 490.551 467.353 488.855C464.21 486.599 464.44 483.966 465.919 481.365C466.659 480.061 467.562 478.832 467.861 477.334L468.314 476.31C471.405 471.309 477.225 469.379 482.684 467.034C483.323 466.875 483.98 466.755 484.63 466.615C486.244 466.303 487.867 466.014 489.352 465.401C490.206 465.025 491.048 464.63 492.009 464.463C493.5 464.148 495.028 463.915 496.534 463.643C502.696 462.625 508.732 461.2 514.984 460.436C520.346 463.046 525.599 463.026 531.073 461.724C536.896 460.338 543.041 459.745 548.837 458.309C553.34 457.198 557.474 457.691 561.724 459.665C565.779 462.003 569.68 460.306 573.649 460.234C575.408 460.718 576.372 462.036 577.526 463.15L578.469 463.939C580.003 464.992 581.187 466.404 582.866 467.312C583.423 467.624 583.982 467.944 584.545 468.246C589.751 469.492 593.07 472.484 594.879 476.876C595.276 477.415 595.677 477.966 596.115 478.485C599.255 482.506 603.614 484.089 608.614 483.469C612.438 482.989 616.352 482.851 620.078 481.996C623.786 481.397 627.384 480.44 631.202 480.184C635.059 479.453 637.234 477.455 637.266 473.837C638.907 471.676 638.998 469.317 637.698 466.787C636.835 465.109 635.985 463.429 635.13 461.745C634.428 461.139 633.488 460.809 632.834 460.148L632.492 459.409C632.325 458.811 632.074 458.245 631.631 457.722C631.379 457.406 631.121 457.098 630.962 456.722L631.045 456.45L631.352 456.495C631.747 457.043 632.053 457.675 632.571 458.209C633.052 458.661 633.754 458.705 634.283 459.06L634.714 458.901C635.961 459.39 636.98 459.17 637.804 458.353C638.464 457.118 639.129 455.882 639.789 454.647C641.04 452.321 643.151 451.171 646.241 451.386C650.639 450.581 650.643 450.58 649.617 447.025C649.459 446.48 649.269 445.941 649.083 445.401C648.488 443.666 649.546 443.476 651.051 443.922C651.784 444.143 652.428 444.645 653.114 445.022L654.286 445.833L654.224 445.789L655.431 446.455L656.671 447.148L656.602 447.097C657.111 447.295 657.546 447.595 657.982 447.9C658.426 448.046 658.872 448.252 659.326 448.329C665.292 449.339 670.971 448.608 676.429 447.157C679.495 446.343 681.564 447.024 683.203 449.543C683.438 449.905 683.885 450.173 684.236 450.476C685.469 451.711 687.127 452.019 688.665 451.89C693.844 451.449 699.08 451.925 704.274 452.473C708.52 452.92 711.783 450.989 715.587 450.411C724.547 449.054 734.195 448.842 741.089 442.96C741.458 442.276 741.957 441.813 742.964 442.19C749.785 440.495 756.431 438.654 756.74 430.913C756.77 430.202 757.255 429.666 757.845 429.221C758.529 428.83 759.298 428.596 760.097 428.408C763.402 427.689 767.312 427.227 769.018 424.771C770.74 422.291 772.204 422.669 774.5 423.844C776.725 424.243 778.893 424.403 780.729 423.164C781.912 421.816 781.29 420.297 780.769 418.827C780.637 418.446 780.034 418.387 779.535 418.445C779.371 418.462 779.074 418.951 778.987 418.44C778.674 416.674 778.706 416.672 777.08 416.78L776.733 417.025C776.964 417.561 776.226 416.776 776.85 416.712C780.178 416.103 780.178 416.103 780.998 413.151C781.469 411.491 781.713 411.151 783.627 411.623C784.004 411.525 784.409 411.455 784.85 411.421C784.932 411.976 785.018 411.234 785.06 411.796L785.06 412.02L785.148 412.046L784.892 412.544L785.06 412.02C784.495 411.853 784.027 411.719 783.627 411.623C780.872 412.339 779.849 414.784 780.928 418.443C781.15 419.204 781.025 420.337 782.237 420.537C783.723 420.785 783.78 419.521 784.211 418.712L784.295 418.595L784.338 418.486L784.544 418.301L784.295 418.595C783.951 419.481 783.521 420.349 783.546 421.34C785.757 424.835 789.471 426.151 793.444 426.598C796.293 426.92 798.285 425.978 799.008 423.089C799.607 420.727 799.408 418.193 800.446 415.948C800.518 415.559 800.542 415.166 800.511 414.763C800.43 413.482 799.677 412.189 800.224 410.924C800.655 409.651 802.299 409.203 802.744 407.931C803.084 404.81 802.856 401.711 801.302 398.658C801.077 397.956 800.954 397.253 801.182 396.57C801.924 395.029 803.966 394.604 804.89 393.228L805.528 392.221L805.762 391.655C805.894 391.247 805.966 390.829 805.957 390.396C805.784 387.347 804.163 385.204 801.011 383.443C795.311 380.257 790.591 376.344 789.846 370.024Z" fill="#FBDA1D"/>
<path fill-rule="evenodd" clip-rule="evenodd" d="M221.415 292.149C225.351 294.889 230.338 294.58 234.545 296.54C234.952 296.913 235.425 297.215 235.863 297.552C236.93 297.897 238.022 298.179 239.051 298.606C241.91 299.805 244.235 301.502 245.081 304.297C246.229 308.105 248.387 311.82 247.915 315.785C247.567 318.726 247.511 321.767 245.777 324.35C245.84 326.284 244.865 327.775 243.543 329.127C242.711 331.579 241.88 334.035 241.044 336.488C240.514 339.252 238.381 340.069 235.397 340.509C232.454 340.946 230.128 340.963 227.5 338.949C225.555 337.457 223.431 336.107 221.81 334.344C218.889 331.19 214.565 330.078 211.004 327.865C209.556 327.324 209.184 325.877 207.974 325.132C204.991 323.057 203.236 320.403 202.293 317.263C201.13 313.424 199.937 309.579 198.426 305.812C196.149 300.123 197.117 295.093 201.187 291.018C204.017 288.192 208.983 289.001 212.847 287.855C214.689 287.307 216.244 287.9 217.637 289.135C219.109 289.933 220.167 291.136 221.415 292.149Z" fill="#FBDA1D"/>
<path fill-rule="evenodd" clip-rule="evenodd" d="M275.01 209.129C278.626 210.687 281.251 213.435 284.16 215.739C290.127 220.466 295.801 225.501 301.257 230.727C305.454 234.753 310.44 238.111 315.19 241.652C318.647 244.226 322.676 245.629 326.313 247.757C327.502 249.632 328.198 251.598 328.252 253.673C328.087 254.771 327.931 255.867 327.774 256.959C327.271 257.229 326.98 257.653 326.683 258.075C324.799 260.901 321.856 262.731 318.773 264.409C318.156 264.745 317.258 265.087 316.589 264.931C310.113 263.466 304.607 266.064 298.654 266.723C298.032 266.795 297.403 266.842 296.782 266.901C296.288 266.831 295.862 266.584 295.406 266.406L295.469 266.453L294.209 265.756L294.286 265.788L293.024 265.086L293.074 265.149L291.974 264.396C282.861 257.037 273.365 249.997 264.778 242.2C259.722 237.606 254.754 232.809 250.519 227.444C245.726 221.371 240.253 215.574 233.832 210.617C229.695 207.416 226.52 203.574 223.26 199.756C222.517 198.888 222.242 197.968 221.929 197.02C220.322 192.094 218.751 187.162 217.083 182.251C216.841 181.54 216.59 180.847 216.796 180.21C218.022 176.488 219.28 172.721 221.921 169.68C223.348 168.035 226.291 168.568 228.441 167.888C230.975 167.087 232.622 168.165 234.802 169.573C243.8 175.379 248.706 183.237 252.002 192.041C252.255 192.712 252.505 193.417 252.556 194.104C252.875 198.642 252.801 198.929 257.913 200.104C262.305 201.111 265.726 203.409 269.284 205.67C270.901 207.222 273.019 208.088 275.01 209.129Z" fill="#FBDA1D"/>
<path fill-rule="evenodd" clip-rule="evenodd" d="M518.99 151.649C520.62 157.039 522.255 162.429 523.89 167.818C523.998 168.507 524.175 169.205 523.997 169.883C525.117 173.227 526.353 176.483 525.492 180.004C524.929 182.301 525.748 184.86 526.673 187.257C526.491 188.206 527.175 189.136 527.035 190.082C527.758 192.523 528.488 194.972 529.213 197.418C529.062 198.332 529.509 199.162 529.947 199.989C530.815 203.51 533.211 206.983 531.719 210.586C530.633 213.194 531.034 216.599 527.36 217.891C526.323 218.676 525.053 218.82 523.672 218.634C520.566 218.839 517.448 218.992 514.294 218.501C512.052 218.148 510.66 217.17 509.962 215.015C506.651 204.746 503.148 194.507 499.707 184.258C498.872 181.777 498.781 179.283 498.973 176.834C499.141 174.719 498.743 172.715 498.039 170.654C495.385 162.868 492.769 155.08 490.227 147.278C488.612 142.341 488.019 137.533 490.007 132.708C490.758 130.887 490.813 128.843 492.434 127.327C493.476 126.347 493.078 125.019 492.658 123.762C491.707 120.894 490.912 117.984 489.746 115.163C488.977 113.316 489.066 111.557 489.334 109.841C489.595 108.172 490.585 106.725 492.619 106.303C497.748 105.237 502.896 104.211 508.067 103.256C508.966 103.088 509.946 103.524 510.788 104.041C513.171 106.011 513.983 108.424 513.981 111.061C514.52 117.749 515.063 124.435 515.607 131.121C515.497 131.737 515.751 132.382 515.609 132.999C516.976 134.479 516.243 136.2 516.793 137.775C516.873 138.195 516.58 138.544 516.595 138.954C516.772 139.694 516.955 140.437 517.129 141.182C516.92 141.824 517.201 142.494 517.194 143.149C518.678 145.431 518.114 147.994 519.193 150.329C519.148 150.772 518.883 151.175 518.99 151.649Z" fill="#FBDA1D"/>
<path fill-rule="evenodd" clip-rule="evenodd" d="M602.066 197.071C602.367 193.682 600.785 190.406 600.206 187.072C600.004 186.426 599.968 185.77 599.841 185.122C598.467 181.44 598.665 177.897 599.308 174.235C600.202 169.07 601.001 163.89 602.579 158.896C602.809 158.162 603.559 157.59 604.067 156.94C605.147 157.029 606.139 156.856 607.082 156.481C614.499 157.563 621.067 160.205 627.054 164.739C630.066 167.011 632.691 168.987 633.607 172.453C633.916 173.629 633.124 174.596 633.7 175.685C633.673 176.095 633.415 176.438 633.439 176.86C634.904 180.715 633.519 184.315 633.305 188.021C632.796 189.19 633.012 190.509 632.619 191.7C632.774 196.043 632.178 200.339 633.026 204.716C634.529 207.348 634.154 210.109 634.328 212.783C634.477 215.085 632.737 216.749 630.772 218.012C629.199 219.026 627.556 220.179 625.684 220.593C622.88 221.22 623.002 222.654 623.803 224.583C623.752 224.994 623.522 225.361 623.542 225.787C623.75 226.463 624.041 227.135 624.141 227.813C624.434 229.73 624.098 231.244 621.369 231.237C618.8 231.23 616.542 232.926 613.736 231.76C603.007 226.283 601.989 217.32 600.888 208.394C600.607 206.162 600.752 203.962 600.717 201.749L600.712 201.775C601.254 201.229 600.885 200.52 600.976 199.891L600.92 199.923C601.396 199.008 601.552 197.971 602.066 197.071Z" fill="#FBDA1D"/>
<path fill-rule="evenodd" clip-rule="evenodd" d="M377.174 176.341C378.637 173.634 381.026 171.542 383.316 169.465C388.59 164.668 398.414 166.652 402.222 173.061C405.076 177.873 407.01 182.946 409.186 187.954C409.028 188.565 409.152 189.133 409.651 189.654C412.439 196.63 415.273 203.619 416.398 210.861C417.416 217.376 415.976 223.118 410 227.11C407.705 228.218 405.202 228.689 402.468 228.484C399.47 227.843 396.96 226.648 395.914 223.818C395.423 223.279 395.197 222.62 394.751 222.06C393.714 219.975 392.68 217.885 391.646 215.796L391.287 214.836C386.034 208.374 381.793 201.584 379.981 193.88C379.243 190.732 377.967 187.64 376.891 184.524C376.379 183.036 375.815 181.565 376.316 180.064C377.295 178.994 376.666 177.522 377.174 176.341Z" fill="#FBDA1D"/>
<path fill-rule="evenodd" clip-rule="evenodd" d="M180.087 389.784C180.053 390.301 179.847 391.035 180.761 391.036C181.993 391.047 183.301 390.972 183.999 389.891C187.815 389.657 191.411 390.51 194.667 392.585C195.658 393.21 196.593 393.583 197.729 393.43C200.836 395.271 203.267 398.156 207.247 398.651C211.356 400.896 211.958 404.495 211.826 407.857C211.686 411.503 210.382 414.937 208.639 418.269C207.184 421.054 205.28 423.72 204.603 426.861C204.134 427.149 203.812 427.537 203.613 428.012L203.633 427.946L202.958 428.993L203.014 428.949L202.286 430.04C200.863 431.613 200.17 433.496 199.436 435.411C198.068 438.948 195.792 439.66 191.386 438.471C188.615 437.72 185.801 437.134 182.997 436.482C178.938 435.541 176.216 433.051 174.227 430.005C173.043 428.201 172.417 426.121 173.945 423.959C171.267 423.613 169.093 423.45 167.062 422.433C165.342 421.571 163.678 422.466 162.022 422.697C157.618 423.313 157.365 423.191 156.053 419.215C155.694 418.129 155.396 417.027 155.068 415.935L155.392 414.905L155.365 414.965C155.733 414.615 155.947 414.2 155.948 413.697C155.146 412.481 154.247 413.017 153.803 413.647C151.62 416.777 147.973 417.474 144.059 417.793C137.414 415.768 131.37 412.612 125.557 409.046C124.931 408.739 124.31 408.43 123.696 408.116C121.895 407.028 120.638 405.819 122.104 404.006C123.411 403.1 125.045 402.89 126.706 402.772L127.162 402.785C127.824 402.47 126.969 402.546 126.947 402.382C121.845 399.226 115.801 399.669 110.376 397.771C108.746 397.205 106.876 397.302 105.471 396.061L105.448 396.019C101.319 394.42 97.1924 392.811 93.0665 391.22C91.9789 390.799 91.1567 390.101 90.3792 389.34C87.5584 386.569 83.9512 385.444 80.0729 385.099C76.1272 384.749 72.1682 384.401 68.2478 384.38C61.7706 384.346 56.1453 382.046 50.8315 378.692C50.1415 377.954 49.211 377.495 48.3368 376.98C46.1585 375.003 42.3752 374.589 41.4242 371.425C38.1848 367.798 37.0896 363.795 37.5807 359.523C37.913 356.226 37.191 352.733 39.7721 349.893C40.7962 348.76 41.7067 347.598 43.0827 346.785C44.0567 346.206 45.3462 345.894 45.4633 344.598C47.023 344.165 47.8759 343.013 48.9173 342.058C50.619 340.966 52.6797 340.834 54.771 340.793C59.156 341.4 63.4461 342.286 67.521 344.203C70.1151 345.425 72.9989 345.585 75.7798 346.085C76.4978 347.583 78.1858 347.476 79.4522 347.827C86.6248 349.798 93.7681 352.061 101.257 351.838C104.656 351.739 106.938 354.251 109.874 355.228L110.288 355.465C112.84 356.787 115.512 357.72 118.341 358.435C121.88 359.328 125.387 360.475 128.788 361.802C130.662 362.531 132.705 363.36 133.864 365.106C134.815 366.54 136.032 367.25 137.834 366.752C139.013 366.097 140.184 365.431 141.757 366.19C145.022 369.036 147.949 372.066 149.252 375.972C150.746 377.061 152.565 376.108 154.093 376.93C156.445 377.019 158.626 378.346 161.009 378.205L161.867 378.517C164.094 381.89 167.075 380.568 169.624 379.84C173.567 378.722 176.232 380.576 177.616 384.387C178.281 386.232 178.184 388.292 180.087 389.784Z" fill="#FBDA1D"/>
</svg>
