<svg width="1923" height="1979" viewBox="0 0 1923 1979" fill="none" xmlns="http://www.w3.org/2000/svg">
<path d="M3.00008 0H1923V995.662C1923 995.662 3.00023 2460.44 3.00008 1809.04C2.9999 995.662 3.00008 0 3.00008 0Z" fill="#FBDA1D"/>
<path d="M492 1723L508.676 1671M547 1551.5L462.5 1541.5L426 1622.5L519.5 1637.25M547 1551.5L519.5 1637.25M547 1551.5L616.5 1568M547 1551.5L584 1461.5M519.5 1637.25L508.676 1671M508.676 1671L591 1684.5L632 1665V1651M632 1651L596 1632.5L616.5 1568M632 1651L658.5 1577M616.5 1568L658.5 1577M658.5 1577L690.5 1585.5M658.5 1577L680 1491.34M690.5 1585.5L680 1637.25L781 1605M690.5 1585.5L781 1605M781 1605L791.5 1526M781 1605L887.5 1551.5M791.5 1526L887.5 1551.5M791.5 1526L680 1491.34M791.5 1526L802.993 1430M887.5 1551.5L892 1491.34M584 1461.5L680 1491.34M584 1461.5L503.5 1436.55M584 1461.5L639.5 1338.5M680 1491.34L717.5 1355M377.5 1397.5L327.5 1491.34L266.5 1472M377.5 1397.5L303 1375.5M377.5 1397.5L477 1330.5M377.5 1397.5L426 1310M377.5 1397.5L503.5 1436.55M266.5 1472L303 1375.5M266.5 1472L170 1430M266.5 1472L227 1577M303 1375.5L211.5 1338.5M303 1375.5L346.601 1278.5M211.5 1338.5L170 1430M211.5 1338.5L138 1310M211.5 1338.5L253.5 1241.56M170 1430L138 1502L70.5 1461.5L98.5 1397.5M170 1430L98.5 1397.5M98.5 1397.5L138 1310M98.5 1397.5L27 1368M138 1310L62.5 1278.5M138 1310L181.5 1213M62.5 1278.5L27 1368M62.5 1278.5L16.5 1260V1438V1393L27 1368M62.5 1278.5L107.5 1194M107.5 1194L16.5 1150.5L70.5 1106V1081L55.5 963M107.5 1194L188.5 988.5L162 913M55.5 963L16.5 949M55.5 963V884.5M55.5 963L162 913M55.5 884.5L16.5 855.5M55.5 884.5L48.9813 855.5M78.5 697L16.5 653V711L22.9063 739.5M78.5 697L22.9063 739.5M78.5 697L134.5 844M78.5 697L283.5 832.5M22.9063 739.5L48.9813 855.5M134.5 844L48.9813 855.5M134.5 844L162 913M134.5 844L150.5 799.5L283.5 875M181.5 1213L221 1122.5M181.5 1213L253.5 1241.56M221 1122.5L273 1002.5M221 1122.5L292.232 1150.5M273 1002.5L340.5 1037.21M273 1002.5L283.5 875M589 1165L539 1247.5M589 1165L526.5 1132.86M589 1165L650.5 1054M539 1247.5L477 1223.13M539 1247.5L477 1330.5M292.232 1150.5L340.5 1037.21M292.232 1150.5L383 1186.18M292.232 1150.5L253.5 1241.56M340.5 1037.21L425.652 1081M340.5 1037.21C345.333 986.307 354.8 882.6 354 875M425.652 1081L383 1186.18M425.652 1081L526.5 1132.86M425.652 1081L477 949M383 1186.18L477 1223.13M383 1186.18L346.601 1278.5M477 1223.13L526.5 1132.86M477 1223.13L426 1310M526.5 1132.86L583 1013.15M426 1310L346.601 1278.5M426 1310L477 1330.5M253.5 1241.56L346.601 1278.5M503.5 1436.55L577.693 1318M762.5 1223.13L781 1194L812.545 1278.5M762.5 1223.13L747.017 1268.5M762.5 1223.13L700 1191.14M892 1491.34L851.929 1384M892 1491.34V1302L859.5 1260M808.5 1384L717.5 1355M808.5 1384H851.929M808.5 1384L802.993 1430M717.5 1355L639.5 1338.5M717.5 1355L747.017 1268.5M639.5 1338.5L577.693 1318M639.5 1338.5L673.5 1252.2M577.693 1318L625.529 1241.56M747.017 1268.5L673.5 1252.2M747.017 1268.5L812.545 1278.5M625.529 1241.56L667.5 1174.5L700 1191.14M625.529 1241.56L673.5 1252.2M673.5 1252.2L700 1191.14M851.929 1384L812.545 1278.5M851.929 1384L829.5 1430H802.993M812.545 1278.5L859.5 1260M650.5 1054L859.5 1260M650.5 1054L583 1013.15M650.5 1054L700 963M859.5 1260L883 1179.5M883 1179.5L892 1186.18M883 1179.5L808.5 1122.5L812.545 1106L844.5 1067M844.5 1067L892 1081V1037.21H851.929L844.5 1067ZM283.5 875C306.667 871.833 353.2 867.4 354 875M283.5 875V832.5M354 875L283.5 832.5M354 875L419 789.5M354 875L477 949M283.5 832.5L339.518 739.5M425.652 596.5L339.518 739.5M339.518 739.5L312.5 715.5L292.232 739.5M339.518 739.5L419 789.5M419 789.5L486 685M419 789.5L484.973 832.5M477 949L531 862.5M477 949L583 1013.15M531 862.5L484.973 832.5M531 862.5L625.529 726L705.5 820.5M531 862.5L589 896.991M484.973 832.5L505.5 799.5M583 1013.15L615.5 912.75M700 963L711.5 884.5L705.5 820.5M700 963L645.348 930.5M615.5 912.75L705.5 820.5M615.5 912.75L589 896.991M615.5 912.75L645.348 930.5M589 896.991L605 869M589 896.991L645.348 930.5M645.348 930.5L673.5 903M883 820.5L831.5 828.13M883 820.5L892 903M883 820.5L831.5 755.293M781 855.5L802 832.5L831.5 828.13M831.5 828.13L825 896.991L851.929 940L871.964 921.5M892 903L871.964 921.5M892 903V949L871.964 921.5M625.529 494.5L637.376 509.5M637.376 509.5L578.5 552M637.376 509.5L706.087 596.5M706.087 596.5L840 488.5M706.087 596.5L785.461 697M840 488.5L781 416M840 488.5L892 449.5M840 488.5L892 552L851.929 584.5M831.5 755.293L892 711M831.5 755.293L785.461 697M785.461 697L877 629.5" stroke="url(#paint0_linear_2784_1439)" stroke-width="4"/>
<path d="M946 1135.5L998 1283L1060.5 1325L1038.25 1237.75M946 1135.5L1016 1150.5M946 1135.5L893 1081V1186M946 1135.5L935.5 1230M946 1135.5L959.5 1063.99M1016 1150.5V1086.5L959.5 1063.99M1016 1150.5L1038.25 1237.75M959.5 1063.99L893 1037.5V949M1038.25 1237.75L1124 1251.5M1124 1251.5L1129 1357L1210 1347.5M1124 1251.5H1216L1210 1347.5M1210 1347.5L1252.5 1462L1152 1528M700.5 962.5L844.5 1068.5L852 1037.5M852 1037.5L713 884L706 821.5M852 1037.5V941L825.5 897L781 856L706 821.5M706 821.5L816.5 735.5L747.5 649L627 725.5L706 821.5Z" stroke="url(#paint1_linear_2784_1439)" stroke-width="4"/>
<path d="M111 1963.5L32 1911.5L3 1828.5H99.5L111 1963.5ZM111 1963.5L176.75 1976.5M168 1828.5L176.75 1896M176.75 1976.5V1896M176.75 1976.5L298.5 1948.5M176.75 1896L266 1888M266 1888L255 1828.5L317.5 1797.5M266 1888L298.5 1948.5M266 1888L345.5 1861M298.5 1948.5L378 1925.5M345.5 1861L317.5 1797.5M345.5 1861L423 1828.5M345.5 1861L378 1925.5M317.5 1797.5L385 1766L423 1828.5M423 1828.5L493 1791.5M423 1828.5L468.5 1896M493 1791.5L440 1741.5L493 1722.5L592 1757M493 1791.5L543.5 1861M468.5 1896L543.5 1861M468.5 1896L378 1925.5M543.5 1861L592 1757M543.5 1861L633 1820.5M592 1757V1684.5L633 1665.5M592 1757H649M592 1757L633 1820.5M649 1757L633 1665.5M649 1757L696.5 1787.5M649 1757L711.5 1722.5M633 1665.5L681.5 1635L711.5 1722.5M633 1820.5L696.5 1787.5M696.5 1787.5L787.5 1741.5M711.5 1722.5L787.5 1741.5M711.5 1722.5L795.5 1665.5M787.5 1741.5L856.5 1704M856.5 1704L795.5 1665.5M856.5 1704L959 1646.5M795.5 1665.5L780 1604L887.5 1551L904.5 1609M795.5 1665.5L904.5 1609M904.5 1609L959 1646.5M959 1646.5L974.5 1522.75M959 1646.5L1039 1598M893 1303.5L894.176 1304.66M990 1399L974.5 1522.75M990 1399L1055.5 1408.5M990 1399L997.5 1282M990 1399L894.176 1304.66M974.5 1522.75L893 1447M974.5 1522.75L1042.5 1527M1055.5 1408.5L1042.5 1527M1055.5 1408.5L1129 1357L1150.5 1527L1039 1598M1055.5 1408.5L1059 1325L997.5 1282M1042.5 1527L1039 1598M997.5 1282L935 1228.5M935 1228.5L894.176 1304.66M935 1228.5L893 1186" stroke="url(#paint2_linear_2784_1439)" stroke-width="4"/>
<path d="M70.5 1688.5L48 1758.5M48 1758.5L25.5 1828.5H98.5L104.5 1779M48 1758.5L18.5 1747.5M48 1758.5L104.5 1779M104.5 1779L141 1688.5M141 1688.5L208.5 1586.5L170 1557.5M141 1688.5L125 1676.8M48 1620.5L18.5 1702M48 1620.5L18.5 1602.5L48 1557.5M48 1620.5L70.5 1580M48 1620.5L70.5 1636.95M70.5 1636.95L125 1528M70.5 1636.95L125 1676.8M125 1528L71.75 1498.75M125 1528L170 1557.5M71.75 1498.75L18.5 1469.5V1498.75L48 1512L71.75 1498.75ZM170 1557.5L141 1602.5M125 1676.8L170 1593.5" stroke="#FFFBF1" stroke-width="4"/>
<path d="M252.5 1596.5L176 1748L168 1828H252.5L439.5 1741.5L252.5 1596.5ZM252.5 1596.5L115.5 1487L17.5 1437" stroke="#FFFBF1" stroke-width="4"/>
<defs>
<linearGradient id="paint0_linear_2784_1439" x1="454.25" y1="416" x2="454.25" y2="1723" gradientUnits="userSpaceOnUse">
<stop stop-color="#FFFBF1" stop-opacity="0"/>
<stop offset="1" stop-color="#FFFBF1"/>
</linearGradient>
<linearGradient id="paint1_linear_2784_1439" x1="939.75" y1="649" x2="991" y2="1579.5" gradientUnits="userSpaceOnUse">
<stop stop-color="#FFFBF1" stop-opacity="0.02"/>
<stop offset="1" stop-color="#FFFBF1"/>
</linearGradient>
<linearGradient id="paint2_linear_2784_1439" x1="1121" y1="1151.5" x2="379.5" y2="1906" gradientUnits="userSpaceOnUse">
<stop stop-color="#FFFBF1"/>
<stop offset="1" stop-color="#FFFBF1"/>
</linearGradient>
</defs>
</svg>
