<svg width="42" height="42" viewBox="0 0 42 42" fill="none" xmlns="http://www.w3.org/2000/svg">
<g clip-path="url(#clip0_1323_3635)">
<path d="M42 21C42 9.40209 32.5979 0 21 0C9.40209 0 0 9.40209 0 21C0 31.4816 7.67944 40.1696 17.7188 41.7449V27.0703H12.3867V21H17.7188V16.3734C17.7188 11.1103 20.854 8.20313 25.6508 8.20313C27.9484 8.20313 30.3516 8.61328 30.3516 8.61328V13.7813H27.7036C25.0948 13.7813 24.2812 15.4001 24.2812 17.0609V21H30.1055L29.1744 27.0703H24.2812V41.7449C34.3206 40.1696 42 31.4818 42 21Z" fill="#1877F2"/>
<path d="M29.1783 27.0703L30.1094 21H24.2852V17.0609C24.2852 15.3999 25.0987 13.7812 27.7075 13.7812H30.3555V8.61328C30.3555 8.61328 27.9523 8.20312 25.6546 8.20312C20.8579 8.20312 17.7227 11.1103 17.7227 16.3734V21H12.3906V27.0703H17.7227V41.7449C18.8081 41.915 19.9052 42.0003 21.0039 42C22.1026 42.0003 23.1997 41.915 24.2852 41.7449V27.0703H29.1783Z" fill="white"/>
</g>
<defs>
<clipPath id="clip0_1323_3635">
<rect width="42" height="42" fill="white"/>
</clipPath>
</defs>
</svg>
