<svg width="20" height="31" viewBox="0 0 20 31" fill="none" xmlns="http://www.w3.org/2000/svg">
<path d="M10.3216 30.338C9.97342 30.3082 9.63894 30.1885 9.35089 29.9906C9.06284 29.7928 8.8311 29.5235 8.67835 29.2092C1.24785 17.7549 1.11894 11.2548 1.11719 10.983C1.11719 5.54629 5.27869 1.12695 10.3945 1.12695C15.5104 1.12695 19.6713 5.54687 19.6713 10.9806C19.6754 11.2396 19.6754 17.5746 12.1976 29.0348C12.1264 29.1555 11.3944 30.338 10.3216 30.338Z" stroke="black" stroke-width="0.5" stroke-linecap="round" stroke-linejoin="round"/>
<path d="M10.3974 14.949C9.58019 14.949 8.78136 14.7067 8.1019 14.2527C7.42244 13.7987 6.89286 13.1534 6.58014 12.3985C6.26741 11.6435 6.18559 10.8127 6.34502 10.0112C6.50444 9.20975 6.89795 8.47355 7.47579 7.89571C8.05362 7.31787 8.78983 6.92436 9.59131 6.76494C10.3928 6.60551 11.2235 6.68734 11.9785 7.00006C12.7335 7.31278 13.3788 7.84236 13.8328 8.52182C14.2868 9.20128 14.5291 10.0001 14.5291 10.8173C14.528 11.9128 14.0924 12.9631 13.3178 13.7377C12.5432 14.5123 11.4929 14.948 10.3974 14.949Z" stroke="black" stroke-width="0.5" stroke-linecap="round" stroke-linejoin="round"/>
</svg>
