<svg width="133" height="134" viewBox="0 0 133 134" fill="none" xmlns="http://www.w3.org/2000/svg">
<mask id="mask0_2494_5218" style="mask-type:alpha" maskUnits="userSpaceOnUse" x="13" y="14" width="103" height="110">
<path d="M71.4993 77.6352C82.9353 68.7414 99.2727 68.7783 115.885 79.1257L112.31 84.8641C97.3554 75.549 84.2257 76.3014 75.6495 82.971C66.9402 89.7443 61.746 103.509 64.7553 122.628L58.0773 123.68C54.8335 103.073 60.1965 86.4256 71.4993 77.6352ZM16.3036 69.9299C12.0299 61.1676 12.646 52.0743 17.6794 49.6189C22.7132 47.1638 30.2584 52.2768 34.5322 61.0393C38.8058 69.8018 38.1901 78.8952 33.1563 81.3503C28.1225 83.8054 20.5773 78.6924 16.3036 69.9299ZM59.9145 17.231C63.0463 12.5879 72.1377 13.2436 80.2202 18.6953C88.3022 24.1468 92.3154 32.3301 89.184 36.9732C86.0521 41.6163 76.9607 40.9606 68.8783 35.5089C60.796 30.0573 56.7827 21.874 59.9145 17.231Z" fill="black"/>
</mask>
<g mask="url(#mask0_2494_5218)">
<path d="M23.2655 41.587C23.218 40.4701 23.2722 33.8489 24.186 31.5365C25.592 27.9786 26.6107 48.9657 27.3677 57.1986C28.7754 72.5087 29.5549 77.9338 29.8634 78.4903C32.8088 83.8041 28.9706 58.6919 25.862 43.9587C25.2517 41.066 25.2301 39.9437 26.3914 43.57C30.2152 55.5103 32.7287 67.4873 33.542 73.3765C34.1923 78.0859 32.1309 60.8463 28.2609 36.3799C27.6166 32.3069 30.6756 53.8926 33.1101 62.1831C36.0156 72.0777 40.3796 80.2743 43.0966 84.4024C43.9082 85.6356 44.4091 84.45 44.5004 82.5286C44.5916 80.6072 44.4728 77.8148 42.8054 67.5488C41.138 57.2827 37.9255 39.6277 36.4761 31.4191C35.0268 23.2105 35.4378 24.9834 35.9145 28.1793C36.3912 31.3752 36.921 35.9405 38.5865 42.0935C40.2519 48.2466 43.0369 55.849 45.788 67.0388C52.0655 92.5718 54.0293 108.54 52.6533 102.456C51.103 95.6011 47.9411 81.0717 46.081 71.1377C43.3174 56.379 42.2784 47.2618 40.4706 41.9066C40.1082 40.833 38.6411 46.8875 38.5175 57.2975C38.3185 74.0644 40.2904 85.8322 40.3554 85.9651C46.6755 98.8863 34.0988 59.5996 32.3433 51.4871C31.3207 46.7616 33.811 58.971 38.443 78.7884C39.8864 84.9639 39.1803 83.3295 37.5776 73.4694C35.9749 63.6092 33.4184 45.5905 32.5054 32.6543C31.0804 12.4604 32.8961 2.21013 32.4431 0.845941C30.3399 -5.48709 33.868 20.0419 37.6849 35.7639C39.8277 44.5899 43.8783 54.7418 46.125 61.6856C48.3717 68.6294 49.0726 71.9565 50.1609 74.9823C51.2492 78.0081 52.7035 80.6318 51.5422 73.8962C50.381 67.1605 46.5601 50.986 44.0832 41.2206C40.8611 28.5171 39.4701 23.9608 39.6746 24.8218C40.264 27.3042 40.5751 34.1575 42.312 43.3067C46.2187 63.8854 50.1584 76.0404 50.5275 76.7062C53.8296 82.6634 45.1362 50.3548 44.4014 45.8729C43.0671 37.7346 56.7113 65.9555 61.2049 78.4918C61.6135 79.6319 57.0258 64.0229 53.5306 47.2953C49.5549 28.2682 65.8545 80.9034 65.597 82.7827C65.5331 83.249 65.0259 82.5492 62.2116 74.3783C59.3974 66.2074 54.1434 50.5414 50.952 41.5965C47.7607 32.6516 46.7911 30.9025 46.6671 30.9366C44.7339 31.4681 49.6645 40.7425 52.2764 51.6889C56.5446 69.5771 59.0322 82.6583 58.5728 83.6578C58.1106 84.6635 56.4192 79.0226 52.9473 67.5871C49.4754 56.1517 44.079 37.1348 41.7232 28.1035C39.3674 19.0722 40.2157 20.6027 41.2207 24.2203C42.2256 27.838 43.3614 33.4965 45.8713 42.2042C48.3812 50.9119 52.2308 62.4974 53.5841 66.8141C53.8886 67.7851 51.492 54.0552 50.2195 37.4468C49.7419 31.2135 49.9828 29.4104 50.5804 28.9103C51.8671 27.8334 57.9514 36.9891 67.2946 52.5321C72.3822 60.9957 76.5616 71.5471 79.2592 78.2497C81.9568 84.9522 82.634 87.7209 83.129 88.6374C83.6241 89.5539 83.9164 88.5344 82.254 79.5821C80.5916 70.6298 76.9656 53.7756 74.0199 42.1177C71.0743 30.4599 68.919 24.509 67.1315 18.6748C63.6755 7.39487 62.0855 0.16527 61.3875 -1.61744C61.2425 -1.98779 61.343 -1.19 62.1018 7.40569C62.8607 16.0014 64.229 32.3921 65.3925 43.7256C66.556 55.0592 67.4732 60.8388 66.7255 57.49C65.9779 54.1411 63.5376 41.4886 63.4032 41.6367C63.2687 41.7848 65.5141 55.117 67.8091 65.0699C71.5744 81.3992 75.5482 91.0943 77.0138 95.0586C77.2799 95.7785 78.0969 92.661 77.4575 82.6869C76.818 72.7129 75.0861 55.6662 74.0002 46.2774C72.9143 36.8886 72.5269 35.6742 72.7016 37.2706C74.1738 50.7239 76.5188 66.2355 77.061 73.245C78.5718 92.7751 66.71 37.149 65.815 38.6282C61.6757 45.4691 66.3187 65.5062 65.7766 73.4502C65.395 79.042 57.84 44.335 57.8372 43.3535C57.8345 42.372 63.8344 65.0558 66.9491 77.2998C70.0637 89.5439 70.1112 90.6609 67.7548 79.9799C65.3983 69.299 60.6365 46.7863 60.8448 45.1465C61.0531 43.5066 66.3759 63.4218 69.7071 79.6426C73.0383 95.8634 74.2167 107.786 70.695 102.355C67.1732 96.9232 58.9156 73.7759 54.3586 61.3049C49.8017 48.834 49.1958 47.7408 49.0523 48.5132C48.4224 51.9043 49.5176 58.181 50.2351 68.5536C50.7144 75.483 52.6943 85.6778 53.6711 93.7369C55.3192 107.335 54.9089 115.83 54.707 120.411C54.6239 122.295 54.9923 123.293 53.7844 121.122C52.5765 118.95 49.8864 113.582 45.768 99.183C41.6497 84.7843 36.1844 61.5183 33.5139 50.3099C30.8434 39.1015 31.1333 40.6557 31.3645 44.6979C31.5958 48.7401 31.7596 55.2232 32.4344 63.2375C33.1092 71.2519 34.29 80.601 34.8246 86.3156C35.3592 92.0301 35.2118 93.8268 32.1822 85.8142C29.1525 77.8017 23.2451 59.9255 22.0186 55.2831C20.7172 50.3572 29.0861 74.963 30.5232 84.837C31.1176 88.9212 31.1382 91.1653 31.1502 92.7652C31.1691 95.2642 25.5876 81.7612 17.4046 59.4516C14.5291 51.6121 14.7204 50.6716 16.765 59.2432C18.8097 67.8147 22.823 85.8833 24.8656 95.9197C26.9081 105.956 26.8581 107.413 23.6981 97.6106C20.5381 87.8081 14.2695 66.7023 10.3012 54.2385C6.33292 41.7747 4.85484 38.5926 4.27519 37.2812C2.086 32.3286 9.68592 57.152 11.0857 64.9117C11.3509 66.382 11.2493 67.2851 10.969 67.3106C9.83072 67.414 7.16666 53.2477 4.20683 35.6735C3.33018 30.4683 5.55515 32.5746 7.55793 35.6564C12.0099 42.5071 16.4588 54.7922 19.5211 65.5278C22.55 76.1459 10.567 40.5537 11.3237 41.4031C12.7368 42.9895 15.5475 47.4762 19.4803 57.3916C23.4132 67.307 28.2061 82.6569 29.8874 89.1433C31.5687 95.6296 29.9932 92.7873 28.3582 89.0642C26.7232 85.3411 25.0764 80.8233 23.0198 72.4489C18.0229 52.1021 15.5721 38.6454 15.5897 37.9038C15.6465 35.5136 21.2304 44.6813 28.4194 63.0726C33.8843 77.0531 41.5871 101.015 44.0619 104.074C46.5367 107.132 43.1793 88.7001 39.2837 71.6878C35.3882 54.6756 31.0563 39.6417 29.0671 32.3343C27.0779 25.0269 27.5627 25.9015 29.8809 34.2087C32.1992 42.516 36.3362 58.2295 38.6704 69.7845C42.3689 88.0922 42.3854 97.94 42.2583 100.054C42.2097 100.863 39.6361 96.1207 36.2751 88.7682C32.9141 81.4157 28.1899 70.315 24.8485 61.6697C19.3009 47.3161 17.4576 40.4845 18.3598 43.4012C19.4799 47.0222 22.5319 54.795 25.311 63.9728C31.1637 83.3009 33.778 97.5057 31.8593 93.0521C28.5916 85.4674 24.1592 65.7935 23.6228 60.0366C23.188 55.3698 34.7779 78.9968 39.24 90.953C40.8713 95.3241 41.4019 96.1813 41.2999 96.2551C29.1192 105.076 25.2299 58.6781 27.0436 62.9734C36.049 84.3014 33.929 95.7157 33.5314 96.8109C32.7194 99.0476 25.9798 88.6719 21.6342 81.09C13.4158 66.7513 33.4404 113.569 32.2777 110.987C29.633 105.114 25.4763 88.9511 22.8263 79.4202C20.1762 69.8894 19.8389 67.2182 21.8941 70.8946C23.9493 74.5711 28.4073 84.6761 31.2967 91.9825C35.7863 103.335 37.4419 109.35 37.8789 110.139C39.987 113.942 33.6853 100.511 33.3559 96.7913C33.0155 92.9467 37.7201 107.758 37.0061 108.033C32.0013 109.957 30.9532 94.5504 29.6787 87.3058C29.4734 86.1387 35.3672 98.2791 40.176 111.65C39.6465 107.608 35.9335 94.6912 37.3003 90.3912C40.069 92.7454 47.0508 104.31 54.2441 116.224" stroke="#FBDA1D" stroke-width="2" stroke-linecap="round"/>
<path d="M64.7527 52.3721C82.2326 105.563 92.1096 135.054 89.5683 127.641C86.2941 118.09 78.4295 96.9835 74.2074 85.6478C69.9853 74.3121 69.5005 73.4375 69.5537 73.5336C70.213 74.7229 74.1522 88.0169 78.9228 103.163C79.9187 106.324 79.8751 99.5601 78.1412 89.1273C74.0489 64.5036 70.033 48.8822 72.3061 52.4595C75.2455 57.0854 80.6864 68.0858 85.3761 79.1321C90.0657 90.1784 93.5517 101.108 95.5293 107.066C97.5069 113.025 97.8705 113.681 96.3471 100.104C94.8237 86.5276 91.4024 58.6987 89.0958 42.0919C86.7891 25.4851 85.7008 20.9436 86.2416 22.1379C86.7823 23.3322 88.9851 30.3999 91.1832 39.3108C93.3813 48.2217 95.508 58.7615 96.6273 64.7496C97.7466 70.7377 97.7941 71.8546 95.6775 64.1847C93.561 56.5148 89.2791 40.0242 87.6542 33.3506C86.0294 26.677 87.1914 30.3202 88.7035 41.8373C90.2155 53.3544 92.0425 72.6349 91.1944 74.6987C90.3463 76.7625 86.7677 61.0252 84.5394 49.13C82.311 37.2348 81.5413 29.6585 80.951 25.1484C80.3608 20.6383 79.9735 19.4239 81.8851 32.9195C83.7966 46.415 88.0188 74.6574 89.1175 84.9443C90.2161 95.2311 88.0632 86.7065 85.3979 72.0308C82.7326 57.355 79.62 36.7864 77.4355 24.3688C75.2511 11.9512 74.0891 8.30805 73.6841 7.03845C73.2792 5.76885 73.6665 6.98324 75.8666 23.0775C78.0667 39.1718 82.0678 70.1091 84.5044 86.9816C86.941 103.854 87.6919 105.725 87.897 106.36C87.9461 106.512 85.9857 99.5681 82.6135 74.6092C80.0738 55.8118 78.0514 24.3002 76.4017 6.99578C74.7521 -10.3087 74.0986 -12.5188 76.852 5.06591C79.6055 22.6506 85.7856 60.0972 88.2422 78.076C90.6987 96.0549 89.2444 93.4312 85.2385 82.5949C81.2326 71.7586 74.7192 52.7893 70.3123 38.0265C65.9055 23.2637 63.8026 13.2824 64.796 20.1371C65.7894 26.9918 69.9428 50.985 71.8994 64.304C73.856 77.6231 73.4899 79.5409 73.0103 80.2615C72.5306 80.9821 71.9484 80.4474 68.4048 69.6796C64.8613 58.9118 58.3741 37.9272 55.214 27.4449C52.0539 16.9626 52.4175 17.6185 55.1355 24.8424C57.8536 32.0662 62.9151 45.8382 66.8508 60.4853C70.7865 75.1325 73.443 90.2376 75.037 103.324C76.6311 116.411 77.0824 127.022 77.6297 133.315C78.177 139.607 78.8067 141.258 76.5234 126.834C74.24 112.41 69.0245 81.8602 66.5801 66.5596C64.1357 51.2591 64.6205 52.1336 67.0849 59.9311C69.5493 67.7287 73.9787 82.4227 76.631 96.0749C79.2834 109.727 80.0245 121.893 80.1151 127.892C80.2058 133.892 79.6236 133.357 74.3145 115.279C69.0055 97.2011 58.9872 61.5962 54.0687 43.6916C49.1502 25.7869 49.635 26.6615 50.4657 28.9336C51.2964 31.2057 52.4584 34.8489 53.9693 47.6529C55.4801 60.4568 57.3046 82.3111 58.1459 95.1961C58.9871 108.081 58.7897 111.334 58.3245 112.355C57.8151 113.471 55.0759 106.291 51.1165 87.257C48.0916 72.7159 44.5054 47.9706 42.4306 34.4226C40.3557 20.8746 40.2845 19.1992 39.9317 18.7971C39.1971 17.9599 39.821 24.5662 44.2792 46.0389C47.8209 63.0973 51.5052 93.1303 53.742 107.814C55.9787 122.498 56.0287 121.041 56.3599 118.264C57.1763 111.416 58.0123 98.635 57.5447 80.9005C57.3041 71.7722 55.8152 62.4364 55.9222 58.6528C56.0292 54.8691 57.4598 56.9344 59.2982 61.5321C63.8816 72.9954 66.526 86.2593 65.8128 85.035C62.1927 78.8214 59.9765 58.0684 58.0523 48.2219C56.1281 38.3753 56.6128 39.2499 57.2376 53.7835C57.8625 68.3172 58.6126 96.4834 58.8172 110.665C59.0219 124.847 58.6583 124.191 57.1939 113.557C55.7296 102.923 53.1754 82.3307 51.8834 72.281C50.5914 62.2313 50.6389 63.3482 49.4203 68.9C48.2017 74.4517 45.7156 84.4044 41.0058 82.5719C36.2961 80.7394 29.4379 66.82 24.7548 56.2855C20.0717 45.751 17.7714 39.0231 16.9013 36.383C16.0312 33.7429 16.6609 35.3946 18.2767 44.2472C19.8925 53.0997 22.4753 69.1031 24.029 85.2266C25.5826 101.35 26.029 117.109 25.7978 124.91C25.5667 132.712 24.6447 132.08 22.744 124.542C20.8433 117.004 17.9919 102.578 15.8446 93.6651C13.6973 84.7521 12.3404 81.7885 11.9444 80.8085C11.5484 79.8284 12.1543 80.9216 13.7829 88.7581C15.4114 96.5945 18.0441 111.141 19.4835 120.59C20.9229 130.038 21.0891 133.947 21.0892 136.58C21.0892 139.213 20.9181 140.451 18.1427 119.999C15.3674 99.5464 9.99299 57.3659 7.03071 35.0293C4.06842 12.6928 3.68109 11.4784 3.6265 11.6299C3.04283 13.2498 4.70668 27.7819 5.41185 48.3122C5.67573 55.9947 5.32597 58.134 4.17704 49.6549C3.02812 41.1759 0.982522 22.0165 -0.542947 10.2644C-2.06841 -1.48781 -3.01177 -5.25221 -0.570225 3.7619C1.87132 12.776 7.72635 34.6827 11.4411 51.8688C15.1558 69.0549 16.5529 80.8567 17.5755 87.4829C18.5982 94.1092 19.2042 95.2024 19.3345 95.4376C22.1343 100.488 17.1499 75.918 16.1918 62.5175C15.5595 53.6735 13.202 40.8111 14.7878 39.1482C16.3735 37.4854 21.6086 47.4455 26.3072 66.7582C31.0059 86.0709 35.0094 114.434 37.0338 130.782C39.0582 147.13 38.982 150.602 34.7059 139.59C30.4297 128.579 21.9559 102.979 17.2876 89.2448C12.6193 75.5104 12.0134 74.4172 11.883 74.182C11.7526 73.9468 12.1162 74.6027 13.0708 85.0907C14.0254 95.5786 15.56 115.879 16.2151 128.412C17.0861 145.079 16.4885 150.71 16.4411 152.187C16.4328 152.446 15.619 151.236 13.084 139.186C10.549 127.136 6.10323 104.162 3.77983 88.9156C0.43564 66.9706 1.64029 56.7818 3.58913 55.0866C5.18116 53.7018 8.15186 62.232 12.3558 79.8789C16.5598 97.5257 21.9464 126.837 24.8319 140.59C27.7174 154.343 27.9385 151.648 26.11 137.474C24.2815 123.3 20.3967 97.7287 18.3479 83.4387C16.2991 69.1487 16.2041 66.9148 18.2393 70.0394C20.2744 73.164 24.4425 81.7147 27.3869 90.3938C30.3313 99.0729 31.9257 107.621 32.6958 114.769C34.0514 127.348 33.5243 134.053 33.5759 135.185C33.5874 135.439 32.6578 134.567 29.1813 128.046C25.7047 121.524 19.4763 109.256 15.19 99.9609C5.0744 78.0242 6.90155 74.0548 6.86373 73.2053C6.85798 73.0761 7.33443 73.7888 9.39903 78.8025C11.4636 83.8162 15.2182 93.1679 18.9142 109.156C22.6102 125.144 26.1339 147.486 27.3649 147.886C28.5958 148.287 27.4272 126.069 26.0768 110.179C24.7263 94.2894 23.2294 85.4013 21.4293 77.6772C19.6292 69.9532 17.5714 63.6625 16.6443 60.9198C14.7552 55.3306 15.5018 87.3982 13.9643 92.5074C13.8344 92.9391 13.1703 91.0984 12.7963 82.4236C12.4224 73.7488 12.0735 57.6504 11.4721 46.0183C10.8706 34.3862 10.0271 27.7083 8.69678 21.6207C6.17688 10.0899 3.00151 3.471 1.32816 2.51473C-1.4466 0.929046 -3.20577 11.4762 -5.16815 25.0535C-6.48215 34.1447 -5.94969 47.9799 -3.86855 66.8986C-1.78741 85.8174 2.46344 109.471 5.0062 120.746C7.54897 132.021 8.25484 130.2 10.343 115.873C12.4312 101.546 15.8803 74.7682 17.6952 59.2373C19.51 43.7065 19.5862 40.2344 19.9796 36.2487C20.373 32.263 21.0813 27.8689 23.7595 31.3256C26.4378 34.7822 31.0645 46.2228 36.7984 65.1219C42.5323 84.021 49.2332 110.032 51.4438 113.973C53.6544 117.914 51.1715 98.9971 48.6948 84.7711C46.2181 70.5451 43.8229 61.5832 42.8314 57.4038C41.8399 53.2244 42.3246 54.099 46.6176 66.7422C50.9106 79.3855 58.9971 103.771 64.6966 124.772C70.3962 145.773 73.4637 162.651 75.6131 172.888C77.7625 183.125 78.9007 186.21 79.9137 185.991C80.9267 185.771 81.78 182.154 80.7455 160.1C79.7111 138.046 76.7631 97.6647 75.1719 76.4736C73.5807 55.2824 73.4358 54.5053 73.0332 54.2868C72.6305 54.0682 71.9746 54.4318 71.7817 55.3963C69.8064 65.269 71.1705 83.6848 71.0209 92.0088C70.9937 93.5252 65.4918 79.7996 60.7916 60.9295C58.6977 52.5228 58.3941 46.2135 59.8762 48.2935C61.3583 50.3735 64.9417 60.9632 70.094 87.5944C75.2463 114.226 81.8588 156.577 85.8463 180.216C89.8337 203.856 90.9957 207.499 91.7098 202.881C92.4238 198.262 92.6547 185.273 88.3423 153.313C84.0298 121.353 75.167 70.8162 70.4371 51.4472C65.7072 32.0781 65.3789 45.4079 65.742 54.2662C66.2712 67.1759 68.1666 74.1249 68.0877 78.928C67.9839 85.2505 57.5382 47.2163 57.1962 50.1385C55.9847 60.4912 62.4047 88.8556 64.6608 104.074C66.9169 119.293 67.3042 120.507 67.4313 120.744C67.5583 120.982 67.4134 120.204 65.9966 101.398C64.5797 82.5918 61.8954 45.7798 60.7205 25.1288C59.5457 4.47771 59.9617 1.10311 60.4421 0.360432C60.9225 -0.382244 61.4548 1.60927 62.4939 15.359C63.5329 29.1087 65.0626 54.5562 65.9956 68.4427C66.9286 82.3291 67.2185 83.8834 67.0292 83.2997C66.8399 82.7161 66.1627 79.9474 64.0176 65.2258C61.8725 50.5042 58.28 23.9135 56.5018 10.6038C54.7236 -2.70585 54.8686 -1.92873 54.6992 12.4691C54.5299 26.867 54.0419 54.8621 53.0334 73.8478C52.025 92.8336 50.5109 101.962 49.8496 109.456C49.1884 116.951 49.4259 122.536 48.9304 124.04C48.2642 126.063 43.3596 112.248 38.3972 93.7098C35.5329 83.0094 33.8532 69.2229 32.881 61.3907C31.9088 53.5585 32.1774 51.9806 33.4667 66.3927C34.756 80.8048 37.0579 111.255 38.5099 127.937C39.9619 144.619 40.4942 146.611 40.4772 147.369C40.463 148.009 36.3745 136.647 31.5175 116.721C29.2134 107.268 28.6495 98.8358 29.7526 98.6618C38.7752 97.238 38.7477 121.569 41.6493 132.788C42.9265 137.727 44.3108 140.996 44.368 139.31C45.0603 118.889 37.7712 106.338 39.2553 104.32C52.2139 86.7013 49.4854 137.331 50.2817 137.478C51.0594 137.623 50.7169 134.396 50.3494 126.991C49.982 119.586 49.1197 107.202 48.8347 99.305C48.4406 88.3803 48.9091 81.1185 49.0652 78.2517C50.2284 56.8959 53.2351 113.876 54.0085 113.482C62.2148 109.301 53.7537 94.0147 53.5095 89.6678C53.3749 87.2718 57.7199 97.4979 61.017 103.188C61.3008 103.678 57.8492 91.528 55.3683 81.3101C55.1234 80.3014 58.0677 87.6565 61.4348 100.215C64.8019 112.774 68.7915 130.284 71.0285 139.633C73.2656 148.981 73.6292 149.637 73.5765 146.964C73.405 138.254 70.6391 123.977 67.369 110.788C65.616 103.718 63.9525 99.8981 64.686 98.8853C68.5659 93.5272 74.5999 116.966 78.4108 130.872C79.7702 135.833 80.1901 136.473 79.6871 135.05C79.1841 133.627 77.8034 130.105 75.8958 122.522C71.1147 103.519 68.7665 90.8637 69.1983 90.6113C72.0852 88.9242 75.8017 97.3055 78.8366 100.976C86.3358 110.045 79.7491 72.6762 79.6584 69.3875C79.6441 68.8665 81.7231 72.0497 84.1909 80.8847C86.6587 89.7197 89.9711 104.461 91.7856 113.282C93.6001 122.102 93.8163 124.554 94.1213 126.425C94.4263 128.296 94.8137 129.51 94.847 126.226C94.8803 122.943 94.5478 115.124 91.8756 98.3343C89.2035 81.5447 84.2017 56.021 82.2548 44.5241C80.3078 33.0272 81.5673 36.3306 84.1859 47.5158C86.8045 58.701 90.7442 77.6679 92.4601 85.326C93.2474 88.84 90.8945 76.6578 87.225 60.6938C83.4344 44.2033 82.6527 34.6636 83.3743 35.9655C87.0046 42.5148 89.7718 48.0225 89.7977 48.5928C89.8663 50.1 87.5666 35.794 85.6565 18.8245C84.8882 11.9994 85.2695 8.72779 85.9771 8.14499C87.9079 6.55486 90.4474 21.5691 92.4296 38.9187C93.9627 52.3373 93.899 60.1557 94.7337 62.4429C95.0267 63.2456 92.0478 45.4877 91.072 25.4928C90.8344 20.6236 94.3496 26.5775 96.1907 36.1021C98.0317 45.6266 98.9177 58.569 99.1081 64.2406C99.3864 72.5349 95.0084 35.6098 95.9909 37.6246C97.3285 40.3674 98.6415 47.2893 100.045 54.7742C102.935 70.1912 104.012 79.9622 104.383 80.6398C106.237 84.0231 100.838 63.3769 99.4589 55.1077C99.0952 52.9268 102.523 72.3859 102.607 77.5924C102.647 80.0774 96.3137 68.6997 95.4228 67.8424C86.5762 59.3299 99.2964 91.2371 99.162 93.3383C99.1094 94.1601 93.9751 82.1997 89.6502 72.5536C89.5039 72.2272 92.7845 83.0675 94.9173 91.3606C98.5224 105.378 99.388 114.84 101.024 120.135C101.676 122.245 102.225 123.098 100.652 112.269C99.0792 101.439 95.4344 78.879 93.7385 67.5851C92.0426 56.2911 92.4062 56.9471 93.2957 59.3252C99.3488 75.5087 102.202 90.7609 104.223 94.4134C104.78 95.4202 102.133 77.7126 99.7276 62.6629C97.881 51.1071 107.066 88.0822 108.328 89.8426C108.603 90.227 108.694 88.9556 107.017 77.1488C105.34 65.3421 102.035 42.8794 101.755 41.0941C101.476 39.3088 104.322 58.8817 106.346 70.2279C108.37 81.574 109.484 84.1002 110.143 86.0694C110.801 88.0386 110.97 89.3742 110.672 86.2741C110.374 83.174 109.604 75.5977 108.192 67.5418C105.304 51.0727 102.465 38.1546 101.983 30.778C101.793 27.8608 101.304 26.6548 101.286 26.3572C101.257 25.8601 107.021 40.0462 115.345 60.5323C118.546 68.4088 120.11 70.987 119.482 64.956C118.854 58.925 116.1 44.1598 114.1 34.7318C112.101 25.3039 110.939 21.6607 110.377 19.3348C109.815 17.0088 109.889 16.1105 111.895 26.418C113.902 36.7256 117.839 58.2663 120.131 72.9325C122.423 87.5987 122.951 94.7377 118.419 81.4993C113.887 68.261 104.28 34.4289 99.4504 18.5058C94.6212 2.58267 94.8611 5.5937 94.6912 9.45121C94.3168 17.947 93.3504 25.8062 95.3063 37.6316C96.7595 46.4181 101.088 60.4841 102.161 66.1385C103.234 71.7928 101.416 68.5132 98.1483 54.1106C94.8809 39.708 90.2189 14.2817 87.6355 0.8554C85.0522 -12.5709 84.6886 -13.2269 84.9467 -9.66729C85.2049 -6.10773 86.0959 1.6872 87.3889 9.52776C88.6819 17.3683 90.35 25.0183 91.6785 33.4151C94.4065 50.6572 95.8082 62.5532 94.2962 58.2942C91.8492 51.4015 86.1496 34.8472 82.7822 24.5534C78.2864 10.8103 77.382 6.40479 76.7943 5.86012C76.0222 5.14465 79.2718 22.2206 82.8878 31.4628C84.7968 36.342 82.244 1.05076 81.0811 -11.7035C79.9182 -24.4579 79.0436 -23.9731 78.2746 -20.6886C77.5055 -17.4041 76.8684 -11.3345 77.3006 -3.48449C77.7327 4.36555 79.2534 13.8122 81.0288 22.2731C82.8043 30.734 84.7884 37.9229 85.9187 42.8526C87.5956 50.1668 81.2193 31.6559 74.4111 18.1939C70.9528 11.3558 79.2508 62.8708 82.0457 82.5069C84.8406 102.143 84.888 103.26 85.0968 101.59C85.3055 99.9192 85.674 95.4276 85.492 88.318C85.3101 81.2084 84.5665 71.6169 80.7474 54.2894C76.9283 36.9619 70.0562 12.1891 67.1696 1.63753C64.417 -8.42385 71.7361 38.3762 69.7293 34.8029C59.8142 17.147 62.112 0.716665 60.6397 4.52952C59.295 8.01213 59.355 15.3839 59.751 23.7001C60.1471 32.0162 61.5465 41.2441 63.0421 48.4267C65.5739 60.5852 67.997 67.5844 68.2904 70.4576C68.3677 71.2143 67.9066 70.5621 64.4045 58.0564C60.9023 45.5508 54.2726 21.2153 55.631 31.4707C56.9894 41.7261 66.5368 87.31 71.637 111.12C76.7371 134.931 77.1007 135.587 76.5657 129.466C76.0308 123.344 74.5862 110.425 71.4137 91.3971C68.2411 72.3687 63.3843 47.6221 60.6399 34.4366C57.8955 21.2511 57.4107 20.3765 56.9055 20.4964C45.3807 23.2296 57.0277 54.0298 56.2685 57.3478C56.0849 58.1503 54.8821 56.4404 50.0145 42.2448C45.1469 28.0493 36.2857 1.23506 31.684 -12.1292C27.0824 -25.4934 27.0087 -24.5951 28.5815 -7.30435C30.1543 9.98642 33.3758 43.6424 35.5963 58.3829C37.8168 73.1233 38.9387 67.9283 38.3218 45.0495C37.705 22.1707 35.3154 -18.2345 35.0241 -31.4243C34.9667 -34.0249 38.6172 -9.40278 39.2894 -0.135409C40.0719 10.6536 42.1488 17.828 41.9769 19.0882C41.9456 19.3174 41.6625 16.9976 42.2504 8.49549C42.8383 -0.00657532 44.2123 -15.0592 45.2088 -19.9725C45.557 -21.6892 51.7118 -0.889144 56.9152 9.59952C57.8726 11.5295 55.0565 -9.1524 53.4195 -16.6681C52.2146 -22.2004 51.1905 -3.50165 51.8664 19.0932C51.9552 22.061 49.1636 4.01385 43.6159 -16.1664C41.9714 -22.1486 41.5969 -19.1527 41.8341 -14.8106C42.3826 -4.76829 44.2105 5.39091 45.9276 15.231C48.0184 27.2124 47.5527 35.9053 47.5362 38.227C47.5318 38.8372 49.0225 30.8379 49.4442 16.7938C49.9488 -0.00731444 46.9928 -11.9494 46.0228 -14.7463C45.9681 -14.9039 46.7233 -12.4669 49.9139 14.9614C53.1046 42.3898 58.6878 94.7441 58.5472 115.241C58.4067 135.738 52.3731 122.79 46.6499 108.567C40.9266 94.3431 35.6964 79.2356 32.4341 68.6237C29.1719 58.0118 28.0361 52.3533 27.148 48.8918C26.2599 45.4302 25.6539 44.337 27.4221 51.9098C29.1903 59.4826 33.3511 75.7546 35.8438 87.0876C38.3364 98.4205 39.0349 104.321 39.3579 107.81C39.6809 111.299 39.6072 112.198 33.8792 95.95C28.1513 79.7022 16.7712 46.2813 15.4131 41.5732C14.0549 36.8652 23.0634 61.8828 29.0824 80.8664C35.1013 99.85 37.8577 112.041 37.6669 101.494C37.4761 90.9464 34.2545 57.2904 32.6687 39.0542C31.0828 20.8179 31.2302 19.0213 32.2626 20.8525C33.295 22.6838 35.2079 28.1973 36.8075 36.2706C40.4524 54.6669 41.2883 66.8078 40.8082 67.2385C37.3179 70.3695 31.9034 49.9238 27.7492 44.1716C24.7772 40.0564 30.2173 70.4761 31.3211 79.9286C32.425 89.381 31.6266 86.3938 29.2847 72.3485C26.9429 58.3032 23.0819 33.2905 20.8992 19.798C18.7165 6.30547 18.3291 5.09107 18.5632 8.08369C19.3654 18.3405 20.5768 31.4745 20.5198 40.7389C20.4979 44.2982 20.2728 45.5356 18.5546 36.7874C16.8364 28.0392 13.5764 9.26722 11.5691 -0.221423C9.56174 -9.71007 8.90582 -9.34648 8.9315 -8.50326C9.001 -6.22153 11.9542 4.45002 13.9672 18.4957C14.5439 22.5199 12.2677 11.4218 11.2132 -6.598C10.779 -14.0179 12.1191 -17.9873 15.6219 -9.69141C19.1248 -1.39551 25.151 19.273 28.4977 30.3577C31.8445 41.4425 32.3293 42.317 32.3391 39.7565C32.372 31.1612 29.849 20.6703 28.191 16.3667C26.5484 12.1028 30.8783 29.246 31.312 35.4972C31.4751 37.8487 31.943 38.495 30.8103 35.4202C23.0933 14.4728 22.5639 3.88696 23.1758 1.09233C23.4113 0.0170001 24.4174 -0.0506181 25.9454 1.39333C30.2077 5.42139 36.1726 16.4376 44.1377 30.0335C50.7351 41.2948 56.2589 46.9553 58.8391 47.985C61.9151 49.2124 62.9954 40.3891 62.9621 28.9227C62.9393 21.0428 61.6744 9.0055 63.6894 6.55471C65.7045 4.10392 70.7234 11.6114 76.7212 27.3068C82.719 43.0022 89.5436 66.658 93.1068 79.9613C96.67 93.2646 96.765 95.4985 95.9741 86.1107C95.1833 76.723 93.5038 55.6458 92.4567 44.4599C91.4097 33.274 91.0461 32.6181 91.9852 35.0856C98.1345 51.244 99.4363 60.239 100.536 60.6992C113.734 66.2226 95.7603 31.7632 94.1815 26.5711C93.9213 25.7153 100.924 40.5157 107.504 53.7145C107.939 54.588 101.366 36.2347 102.331 43.8281C103.297 51.4215 111.715 83.6256 112.46 86.7728C113.204 89.9201 106.018 63.0346 105.199 56.4471C104.38 49.8597 110.145 64.385 117.131 86.0757C124.118 107.766 132.152 136.182 135.423 144.871C138.693 153.56 136.956 141.661 133.81 128.633C130.664 115.606 126.161 101.81 122.12 91.0837C115.261 72.8722 110.272 62.1145 111.001 61.0781C118.17 50.8861 124.225 93.4594 124.585 92.9049C131.787 81.7998 110.934 41.8092 106.205 23.1844C101.477 4.55961 102.689 6.74603 104.281 10.9084C108.15 21.0192 110.17 28.0546 110.345 28.1133C110.939 28.3119 109.406 25.6457 108.805 19.6559C108.205 13.6661 107.777 3.61353 111.704 17.0014C115.63 30.3893 123.923 67.5222 124.797 72.5289C125.671 77.5356 118.875 49.2908 114.418 31.9837C109.96 14.6765 108.047 9.163 107.025 6.77186C106.003 4.38072 105.929 5.27903 107.892 21.2105C109.854 37.1419 113.855 68.0792 115.735 83.6886C117.614 99.2981 117.25 98.6421 114.014 87.1323C110.778 75.6224 104.681 53.2784 100.985 37.931C97.2892 22.5836 96.1796 14.9099 95.3525 11.5271C94.7324 8.99079 95.7096 23.234 99.0389 43.0373C100.364 50.9216 103.412 61.1448 108.609 75.7248C110.858 82.0336 110.852 83.9742 110.652 83.0977C109.392 77.5765 106.581 71.0808 104.845 63.2778C102.189 51.3371 98.4483 39.2375 99.0527 40.5309C101.882 46.5869 104.466 65.4538 106.241 74.4997C108.016 83.5455 107.531 82.671 106.471 78.9539C103.566 68.7653 101.133 54.5177 99.502 42.7243C98.9013 38.3799 98.5936 37.3901 98.7095 38.8806C99.1386 44.3962 99.7268 53.4348 99.7532 62.0684C99.7991 77.1213 104.303 91.9262 103.047 92.7917C91.7154 100.596 96.8314 67.5553 97.4406 63.7011C98.4245 57.4761 103.463 80.5348 105.278 83.3008C105.551 83.7177 105.253 79.655 105.247 78.3159C105.241 76.9768 105.726 77.8514 106.109 78.7998C107.681 82.6952 107.466 86.7088 107.712 89.7552C107.83 91.2172 105.775 94.5661 104.622 96.6733C101.946 101.564 103.619 83.9732 104.303 81.5587C105.048 78.9294 107.455 94.4404 106.28 100.938C105.839 103.379 100.439 87.1568 98.9734 81.6073C97.5083 76.0578 98.7939 77.3459 100.111 78.9328C102.872 82.2591 104.571 85.1433 105.416 85.1209C109.054 85.0246 105.962 75.1829 105.986 70.5398C106.01 66.0062 110 79.8126 111.673 86.2213C114.453 96.8713 118.338 105.791 118.387 108.232C118.441 110.893 115.226 98.6468 111.552 90.4549C108.4 83.4286 104.411 72.916 102.963 71.016C99.5422 66.5246 106.225 95.6591 107.498 105.126C108.77 114.594 108.407 113.938 107.336 109.945C106.266 105.952 104.501 98.6418 103.894 95.4225C103.288 92.2033 103.894 93.2965 104.435 95.3046C105.737 100.131 105.979 104.855 106.015 107.005C106.066 110.138 106.056 98.7757 106.911 97.717C107.962 96.4164 111.233 103.927 113.458 108.206C115.634 112.393 108.409 92.6298 107.24 86.5913C107.115 85.9449 109.384 95.2942 110.464 100.407C111.545 105.521 111.737 107.415 108.08 100.326C104.424 93.2367 96.912 77.1072 94.1413 74.9057C91.3707 72.7042 93.5686 84.9194 94.4584 90.7748C95.3483 96.6303 94.8635 95.7557 92.3397 86.562C89.8159 77.3683 85.2678 59.8819 82.0102 42.5204C78.7525 25.1588 76.9231 8.45201 79.3394 16.9908C81.7556 25.5296 88.4729 59.8202 91.5698 76.8291C94.6667 93.8381 93.9395 92.5262 92.0655 85.536C86.831 66.0105 84.3005 49.6522 86.7323 48.8282C98.5415 44.827 99.4188 73.2232 102.315 81.5737C103.38 84.6435 103.784 85.2853 104.117 85.1134C104.451 84.9416 104.743 83.9221 101.567 70.9499C98.3908 57.9777 91.7373 33.0837 87.4495 18.4498C83.1618 3.81595 81.4413 0.196495 84.6269 5.93564C87.8125 11.6748 95.9563 26.8822 97.6576 27.3812C111.617 31.4754 89.161 -3.58024 90.1806 -4.60016C91.0805 -5.50021 93.5267 -0.907418 98.1508 11.0283C102.775 22.9641 109.699 43.7063 110.436 43.0985C111.173 42.4908 105.513 19.9044 102.417 6.65416C99.3205 -6.59607 98.9594 -9.82574 98.9551 -11.1615C98.9509 -12.4973 99.3145 -11.8414 101.86 -2.09254C104.406 7.65635 109.123 26.4783 112.243 37.9355C115.363 49.3926 116.744 52.9146 117.527 55.1176C118.311 57.3205 118.456 58.0976 116.906 43.9645C115.355 29.8313 112.105 0.764314 110.298 -14.7075C108.49 -30.1793 108.224 -31.175 109.489 -25.0338C110.754 -18.8925 113.558 -5.58406 119.581 11.5954C125.605 28.7749 134.763 49.4222 138.124 57.0951C141.485 64.768 138.772 58.841 135.887 48.4656C133.003 38.0903 130.03 23.4462 128.343 13.5591C126.657 3.67198 126.345 -1.01447 126.583 -0.648192C126.821 -0.281917 127.617 5.2791 128.437 11.0086" stroke="#FBDA1D" stroke-width="2" stroke-linecap="round"/>
</g>
</svg>
