<svg width="42" height="42" viewBox="0 0 42 42" fill="none" xmlns="http://www.w3.org/2000/svg">
<g clip-path="url(#clip0_1323_3625)">
<path d="M38.0625 0.984527H3.9375C3.16323 0.976647 2.41745 1.27624 1.86381 1.81758C1.31017 2.35892 0.993894 3.09777 0.984375 3.87203V38.1348C0.995616 38.908 1.31265 39.6451 1.8661 40.1851C2.41955 40.725 3.16435 41.0237 3.9375 41.0158H38.0625C38.8368 41.0219 39.5821 40.7213 40.1354 40.1796C40.6888 39.638 41.0052 38.8993 41.0156 38.125V3.86218C41.0018 3.0902 40.6839 2.35486 40.1309 1.81601C39.5779 1.27716 38.8346 0.978351 38.0625 0.984527Z" fill="#0076B2"/>
<path d="M6.91 15.9893H12.8523V35.1091H6.91V15.9893ZM9.88282 6.47363C10.5644 6.47363 11.2306 6.67578 11.7973 7.0545C12.3639 7.43322 12.8055 7.9715 13.0662 8.60124C13.3269 9.23098 13.3949 9.92389 13.2617 10.5923C13.1285 11.2607 12.8 11.8746 12.3179 12.3563C11.8357 12.838 11.2215 13.1659 10.5529 13.2985C9.88441 13.431 9.19157 13.3623 8.56208 13.1011C7.93258 12.8398 7.39473 12.3977 7.01655 11.8307C6.63836 11.2637 6.43685 10.5972 6.4375 9.91566C6.43837 9.00248 6.80174 8.12699 7.44777 7.48158C8.0938 6.83617 8.96963 6.47363 9.88282 6.47363ZM16.5798 15.9893H22.2761V18.6143H22.3548C23.1489 17.1114 25.0849 15.5266 27.9756 15.5266C33.9934 15.5135 35.1091 19.4739 35.1091 24.6091V35.1091H29.1667V25.8068C29.1667 23.5919 29.1274 20.7405 26.0791 20.7405C23.0308 20.7405 22.5124 23.1555 22.5124 25.6624V35.1091H16.5798V15.9893Z" fill="white"/>
</g>
<defs>
<clipPath id="clip0_1323_3625">
<rect width="42" height="42" fill="white"/>
</clipPath>
</defs>
</svg>
