<svg width="52" height="52" viewBox="0 0 52 52" fill="none" xmlns="http://www.w3.org/2000/svg">
<path d="M25.9465 24.8821C24.5346 24.8821 23.1805 24.3212 22.1821 23.3228C21.1837 22.3244 20.6228 20.9703 20.6228 19.5583C20.6228 18.1464 21.1837 16.7923 22.1821 15.7939C23.1805 14.7955 24.5346 14.2346 25.9465 14.2346C27.3585 14.2346 28.7126 14.7955 29.711 15.7939C30.7094 16.7923 31.2703 18.1464 31.2703 19.5583C31.2703 20.2575 31.1326 20.9497 30.865 21.5956C30.5975 22.2416 30.2053 22.8284 29.711 23.3228C29.2166 23.8172 28.6297 24.2093 27.9838 24.4768C27.3379 24.7444 26.6456 24.8821 25.9465 24.8821ZM25.9465 4.65186C21.9931 4.65186 18.2016 6.22236 15.406 9.01786C12.6105 11.8134 11.04 15.6049 11.04 19.5583C11.04 30.7382 25.9465 47.2418 25.9465 47.2418C25.9465 47.2418 40.853 30.7382 40.853 19.5583C40.853 15.6049 39.2825 11.8134 36.487 9.01786C33.6915 6.22236 29.9 4.65186 25.9465 4.65186Z" fill="#FFFBF1"/>
</svg>
