<svg width="42" height="42" viewBox="0 0 42 42" fill="none" xmlns="http://www.w3.org/2000/svg">
<path d="M3.619 9.59374L19.1502 25.1267C19.6097 25.5865 20.2234 25.8595 20.8726 25.8928C21.5217 25.9261 22.1602 25.7174 22.6642 25.307L22.8637 25.1267L38.3845 9.60424C38.4347 9.79674 38.4685 9.99333 38.486 10.194L38.5 10.5002V31.5002C38.5003 32.3833 38.1668 33.2337 37.5664 33.8812C36.966 34.5287 36.143 34.9253 35.2625 34.9915L35 35.0002H7C6.11699 35.0005 5.26651 34.667 4.61904 34.0666C3.97157 33.4662 3.57498 32.6433 3.50875 31.7627L3.5 31.5002V10.5002C3.5 10.2902 3.5175 10.0861 3.5525 9.88774L3.619 9.59374ZM35 7.00024C35.2123 7.00024 35.4194 7.01833 35.6213 7.05449L35.9188 7.12274L21.0088 22.0327L6.0935 7.11924C6.28717 7.06674 6.4855 7.03174 6.6885 7.01424L7 7.00024H35Z" fill="#FFFBF1"/>
</svg>
