<svg width="43" height="44" viewBox="0 0 43 44" fill="none" xmlns="http://www.w3.org/2000/svg">
<path d="M12.2693 19.8532C14.8082 24.8429 18.8987 28.9158 23.8884 31.4723L27.7673 27.5934C28.2433 27.1174 28.9486 26.9587 29.5657 27.1703C31.5404 27.8226 33.6738 28.1753 35.8601 28.1753C36.8298 28.1753 37.6232 28.9687 37.6232 29.9384V36.0917C37.6232 37.0615 36.8298 37.8549 35.8601 37.8549C19.3042 37.8549 5.88672 24.4374 5.88672 7.88155C5.88672 6.91182 6.68013 6.11841 7.64986 6.11841H13.8208C14.7906 6.11841 15.584 6.91182 15.584 7.88155C15.584 10.0855 15.9366 12.2012 16.589 14.1759C16.7829 14.793 16.6419 15.4807 16.1482 15.9743L12.2693 19.8532Z" fill="#FFFBF1"/>
</svg>
