<svg width="99" height="83" viewBox="0 0 99 83" fill="none" xmlns="http://www.w3.org/2000/svg">
<path d="M25.1506 82.4398C20.5159 82.5701 16.6971 81.7248 13.6941 79.9037C10.6912 78.0827 8.20006 75.718 6.22072 72.8095C4.01285 69.2723 2.43402 65.6116 1.48422 61.8273C0.739145 57.8254 0.330899 54.5552 0.259485 52.0165C-0.0321223 41.6503 2.33642 32.1619 7.36511 23.5515C12.3938 14.9411 20.4165 7.83438 31.4332 2.23137L34.4379 7.86339C27.9845 10.7973 22.4184 15.2943 17.7397 21.3541C13.2716 27.4081 11.1238 33.5027 11.2964 39.6378C11.3678 42.1765 11.7463 44.3889 12.4319 46.2752C15.7252 43.4301 19.5839 41.9453 24.008 41.8209C29.4854 41.6668 34.276 43.3317 38.3799 46.8156C42.4838 50.2994 44.625 55.2147 44.8036 61.5614C44.9702 67.485 43.1057 72.4071 39.2101 76.3277C35.3145 80.2483 30.628 82.2857 25.1506 82.4398ZM78.8713 80.9286C74.2366 81.0589 70.4177 80.2136 67.4148 78.3926C64.4119 76.5715 61.9207 74.2068 59.9414 71.2983C57.7335 67.7611 56.1547 64.1004 55.2049 60.3161C54.4598 56.3143 54.0516 53.044 53.9802 50.5054C53.6886 40.1391 56.0571 30.6507 61.0858 22.0403C66.1145 13.4299 74.1372 6.3232 85.1539 0.72019L88.1586 6.35221C81.7052 9.28616 76.1391 13.7831 71.4604 19.843C66.9923 25.8969 64.8445 31.9915 65.0171 38.1266C65.0885 40.6653 65.467 42.8777 66.1526 44.764C69.4459 41.9189 73.3046 40.4342 77.7287 40.3097C83.2061 40.1556 87.9967 41.8205 92.1006 45.3044C96.2045 48.7883 98.3457 53.7035 98.5242 60.0502C98.6909 65.9738 96.8264 70.8959 92.9308 74.8165C89.0352 78.7371 84.3487 80.7745 78.8713 80.9286Z" fill="#37473C"/>
</svg>
