<svg width="340" height="633" viewBox="0 0 340 633" fill="none" xmlns="http://www.w3.org/2000/svg">
<path d="M4.67409 119.223C142.766 241.236 321.757 229.57 448.27 101.159C473.434 75.6177 498.868 49.4199 522.609 22.5505C553.522 -12.4368 536.399 3.3107 520.736 41.3514C478.658 143.541 432.76 265.988 426.292 378.542C424.262 413.866 440.247 445.512 466.438 468.712C475.505 476.742 540.224 513.139 495.793 506.291C369.668 486.851 280.909 503.777 161.989 551.27C128.452 564.664 84.679 575.209 58.1445 602.142C55.1148 605.217 26.1386 645.072 36.5017 624.109C87.3031 521.346 160.283 412.496 117.12 292.389C94.05 228.196 56.7397 170.663 2.73624 129.302" stroke="#FBDA1D" stroke-width="4.29698" stroke-linecap="round"/>
</svg>
