<svg width="65" height="79" viewBox="0 0 65 79" fill="none" xmlns="http://www.w3.org/2000/svg">
<path d="M2.61328 24.3693C18.9881 34.3145 37.0858 29.8226 47.6648 14.3475C49.769 11.2694 51.8888 8.11915 53.8229 4.93137C56.3414 0.78049 54.8796 2.70788 53.9775 6.89036C51.5542 18.1258 49.113 31.5053 50.5238 43.1456C50.9666 46.7987 53.1847 49.7436 56.2915 51.6358C57.3669 52.2908 64.6585 54.824 59.9867 54.9416C46.7249 55.2754 37.9557 58.6433 26.6635 65.6957C23.479 67.6846 19.1948 69.5705 16.976 72.8162C16.7226 73.1868 14.492 77.8003 15.1662 75.4636C18.4715 64.0086 23.9337 51.522 17.3061 40.023C13.7638 33.8772 8.88727 28.6755 2.60061 25.4366" stroke="#FBDA1D" stroke-width="5" stroke-linecap="round"/>
</svg>
