<svg width="320" height="655" viewBox="0 0 320 655" fill="none" xmlns="http://www.w3.org/2000/svg">
<path d="M315.242 122.848C172.164 249.266 -13.2874 237.179 -144.367 104.132C-170.44 77.6687 -196.792 50.5251 -221.39 22.6858C-253.419 -13.5645 -235.679 2.7514 -219.45 42.1654C-175.853 148.044 -128.298 274.911 -121.596 391.529C-119.493 428.127 -136.055 460.916 -163.192 484.953C-172.586 493.274 -239.641 530.984 -193.607 523.889C-62.928 503.747 29.0347 521.285 152.248 570.492C186.995 584.369 232.349 595.296 259.841 623.201C262.98 626.387 293.003 667.681 282.265 645.961C229.63 539.487 154.015 426.708 198.737 302.265C222.64 235.755 261.297 176.145 317.25 133.291" stroke="#FBDA1D" stroke-width="4.29698" stroke-linecap="round"/>
</svg>
