<svg width="38" height="48" viewBox="0 0 38 48" fill="none" xmlns="http://www.w3.org/2000/svg">
<path d="M34.7985 15.8053C26.0601 21.4908 16.3952 18.9112 10.7397 10.0477C9.61474 8.28474 8.4815 6.48045 7.44734 4.65474C6.10073 2.27745 6.88214 3.38144 7.3657 5.77608C8.66471 12.2089 9.97425 19.8689 9.2263 26.5317C8.99157 28.6227 7.80861 30.3075 6.15066 31.3892C5.57676 31.7637 1.68473 33.2105 4.17918 33.2799C11.2602 33.4771 15.9439 35.409 21.9763 39.4513C23.6775 40.5913 25.9659 41.6728 27.152 43.5318C27.2875 43.7441 28.4806 46.3861 28.1195 45.0481C26.3495 38.4893 23.4274 31.3389 26.9608 24.7594C28.8493 21.2429 31.4506 18.2674 34.8058 16.4163" stroke="#FBDA1D" stroke-width="5" stroke-linecap="round"/>
</svg>
