<svg width="310" height="683" viewBox="0 0 310 683" fill="none" xmlns="http://www.w3.org/2000/svg">
<path d="M181.001 3.2896C296.221 207.705 516.427 268.28 722.216 166.469C763.148 146.218 804.679 125.29 844.453 102.848C896.244 73.6253 869.073 85.4404 834.354 124.695C741.09 230.145 634.775 358.384 580.027 491.153C562.845 532.821 568.87 577.572 590.699 616.413C598.255 629.858 660.929 700.642 610.334 673.878C466.708 597.904 352.862 581.275 189.974 588.862C144.038 591.002 86.9754 585.446 43.8138 606.8C38.8857 609.238 -12.6058 645.127 8.60931 624.217C112.609 521.712 245.831 421.128 244.021 258.579C243.053 171.702 222.174 86.9049 174.464 14.6123" stroke="#FBDA1D" stroke-width="6" stroke-linecap="round"/>
</svg>
