<svg width="168" height="169" viewBox="0 0 168 169" fill="none" xmlns="http://www.w3.org/2000/svg">
<mask id="mask0_2494_5219" style="mask-type:alpha" maskUnits="userSpaceOnUse" x="18" y="19" width="127" height="129">
<path d="M76.9092 99.4092C95.784 103.465 109.741 120.175 113.407 145.996L104.487 147.263C101.186 124.017 89.171 111.259 75.0161 108.217C60.6415 105.128 42.1404 111.617 25.2015 131.065L18.4082 125.148C36.6664 104.185 58.2539 95.4007 76.9092 99.4092ZM37.4929 36.4656C42.7771 24.5974 52.5873 17.4374 59.4053 20.4727C66.2233 23.5083 67.4675 35.59 62.1835 47.4584C56.8993 59.327 47.0881 66.4876 40.27 63.452C33.4519 60.4164 32.2087 48.3342 37.4929 36.4656ZM128.647 35.8405C136.07 35.0604 143.188 44.9022 144.546 57.8228C145.904 70.7433 140.988 81.8504 133.565 82.6307C126.143 83.4108 119.024 73.5688 117.666 60.6484C116.308 47.728 121.225 36.6209 128.647 35.8405Z" fill="black"/>
</mask>
<g mask="url(#mask0_2494_5219)">
<path d="M72.3912 19.2918C73.4907 18.2866 80.2962 12.6703 83.4395 11.6224C88.276 10.01 67.7243 29.027 59.9682 36.8519C45.545 51.4033 40.6747 56.846 40.3708 57.6376C37.4694 65.1961 59.8169 39.7674 72.1942 23.9739C74.6244 20.8731 75.7516 19.8897 73.0445 24.1814C64.1308 38.3126 54.0573 51.1377 48.7421 57.0125C44.4917 61.7104 60.3246 44.839 81.9857 19.9309C85.5917 15.7844 66.1766 37.3969 59.7988 46.9835C52.1869 58.4252 47.5576 69.901 45.6708 76.2106C45.1072 78.0955 46.7466 77.5913 48.7861 76.0386C50.8257 74.4859 53.5745 71.9728 62.6261 61.477C71.6777 50.9812 86.9488 32.5788 94.0869 24.0679C101.225 15.5571 99.7673 17.4953 96.9131 20.7195C94.0589 23.9437 89.8524 28.395 84.9978 35.3657C80.1431 42.3364 74.7679 51.6916 65.7016 64.0849C45.0138 92.3642 30.3955 108.047 35.4276 101.43C41.097 93.9765 53.2206 78.3031 61.7682 67.895C74.4671 52.4319 82.8843 43.5617 86.8025 37.129C87.588 35.8394 80.1507 39.528 69.418 48.3188C52.1313 62.4777 41.8075 74.5708 41.7275 74.751C33.9508 92.2708 63.283 45.78 70.0607 37.0388C74.0087 31.9472 63.6782 44.9477 47.4156 66.6513C42.3479 73.4146 43.4114 71.2938 52.1042 61.2117C60.7969 51.1296 77.001 33.0854 89.4247 21.0726C108.819 2.32018 120.838 -4.60642 121.842 -6.23744C126.506 -13.8092 103.467 11.66 90.687 29.0236C83.5126 38.7711 76.6189 51.602 71.4549 59.8434C66.2909 68.0848 63.4949 71.6503 61.3382 75.3531C59.1816 79.0559 57.749 82.7879 63.6303 75.8329C69.5115 68.8778 82.7501 51.1225 90.5972 40.2292C100.805 26.0584 104.265 20.7357 103.561 21.682C101.532 24.4101 94.8025 30.598 86.9505 40.2081C69.2895 61.8235 60.256 76.2569 59.8925 77.204C56.6397 85.6777 82.1747 49.1283 86.1206 44.5391C93.2855 36.206 76.1641 74.3077 67.2157 89.6333C66.4019 91.0269 78.4064 72.9734 92.4884 55.077C108.506 34.7202 68.7367 96.4455 66.5977 97.7924C66.0669 98.1266 66.3468 97.0094 72.2772 87.1375C78.2077 77.2656 89.6996 58.483 96.0972 47.5632C102.495 36.6433 103.45 34.1553 103.309 34.0579C101.11 32.5397 95.8661 45.5173 86.9289 57.56C72.3242 77.2398 61.1013 90.9843 59.6876 91.3715C58.265 91.7611 62.5746 85.2026 71.2743 71.863C79.974 58.5235 94.7645 36.7252 101.966 26.5842C109.168 16.4433 108.332 18.6203 105.5 22.745C102.667 26.8697 97.864 32.8761 91.1248 42.8971C84.3856 52.9181 75.8562 66.7718 72.609 71.8509C71.8785 72.9934 83.8415 58.7862 99.7059 43.2608C105.66 37.4339 107.707 36.1354 108.729 36.317C110.931 36.7081 106.796 50.7618 98.9325 73.6133C94.6505 86.0567 87.4593 99.3612 82.9278 107.856C78.3963 116.351 76.1501 119.414 75.6386 120.705C75.127 121.995 76.4182 121.42 84.1329 112.055C91.8477 102.689 105.947 84.5509 115.325 71.558C124.702 58.5652 128.931 51.2677 133.355 44.4455C141.91 31.2552 147.928 23.4395 149.15 21.1999C149.404 20.7346 148.676 21.5205 140.551 29.6581C132.426 37.7956 116.866 53.2324 106.293 64.1282C95.7202 75.024 90.6057 80.911 93.3839 77.2792C96.1621 73.6474 106.988 60.3184 106.722 60.3081C106.455 60.2977 94.7686 74.01 86.5743 84.8781C73.13 102.709 66.6369 115.07 63.8454 119.962C63.3385 120.851 67.2208 119.014 76.8548 109.818C86.4889 100.622 102.407 84.2517 111.061 75.101C119.716 65.9502 120.623 64.5146 119.143 66.0604C106.671 79.087 92.8449 94.7678 86.1538 101.325C67.511 119.597 114.135 59.8397 111.859 60.1931C101.33 61.8274 84.8522 83.7305 76.2783 89.9818C70.2433 94.382 99.2017 56.9403 100.201 56.0967C101.201 55.2532 83.1841 80.8086 73.3529 94.4761C63.5217 108.144 62.4222 109.149 71.3071 97.5943C80.192 86.0398 99.0948 61.8949 100.947 60.7029C102.8 59.5109 87.029 82.0034 73.3238 99.2984C59.6186 116.593 48.4567 128.009 50.9847 119.762C53.5127 111.514 70.0689 83.2568 78.8963 67.9226C87.7236 52.5884 88.3205 51.0333 87.4091 51.5485C83.4079 53.8102 77.9386 60.3048 67.9645 69.9221C61.3013 76.347 52.59 87.1008 45.1997 95.0012C32.7299 108.332 23.707 115.189 18.8575 118.907C16.8626 120.436 16.1599 121.667 17.3418 118.574C18.5236 115.481 21.6998 108.136 32.8707 91.5985C44.0415 75.0608 63.1108 49.5525 72.2652 37.2255C81.4196 24.8985 80.0813 26.5257 76.153 30.2242C72.2246 33.9228 65.7468 39.6432 58.1435 47.197C50.5403 54.7508 42.0078 63.9645 36.6322 69.4052C31.2565 74.8459 29.2962 76.2344 34.8805 66.2783C40.4649 56.3221 53.6532 34.9793 57.3418 29.7506C61.2555 24.2027 43.3058 53.8227 34.4571 63.7477C30.797 67.8529 28.5238 69.7961 26.9008 71.1789C24.366 73.3387 33.3693 56.0746 49.1341 28.6112C54.6739 18.9606 55.7978 18.3503 48.7991 27.7798C41.8004 37.2092 26.7932 56.7833 18.2973 67.4654C9.8013 78.1475 8.27138 79.3443 15.5712 67.7219C22.8711 56.0995 39.047 31.6216 48.3712 16.8944C57.6955 2.16726 59.6779 -2.06739 60.52 -3.78237C63.7006 -10.2595 44.87 18.7619 38.1477 26.8377C36.8739 28.3679 35.865 29.0377 35.5989 28.7734C34.5182 27.7 46.6977 12.8459 62.1027 -5.22932C66.6653 -10.5829 66.4211 -6.50737 64.9905 -1.823C61.8106 8.5899 53.0805 23.6545 44.7443 35.9766C36.4995 48.1637 62.5688 5.44363 62.3498 6.94368C61.9408 9.74506 59.7683 16.4575 53.0151 28.9656C46.262 41.4737 34.6978 59.5149 29.5165 66.7873C24.3352 74.0597 25.8872 70.0167 28.2874 65.1585C30.6875 60.3002 33.8888 54.7493 40.6759 45.4766C57.1664 22.9469 68.804 8.91842 69.5762 8.30114C72.0649 6.31174 67.4892 19.8647 54.8728 42.9571C45.2821 60.5112 27.4187 88.9002 26.4164 94.0463C25.4142 99.1924 41.3544 79.9764 55.3842 61.4274C69.4141 42.8783 81.0504 25.5786 86.8062 17.2885C92.5619 8.99854 92.0844 10.2425 85.5898 19.7249C79.0952 29.2073 66.5981 46.8903 56.8019 59.171C41.2808 78.6284 31.2421 87.0807 28.9747 88.7622C28.1075 89.4052 30.7442 82.7157 35.3709 72.9867C39.9976 63.2577 47.283 48.9265 53.2461 38.1102C63.1467 20.152 68.5418 12.4185 66.3371 15.8379C63.6001 20.083 58.2797 29.8565 51.2912 40.555C36.5738 63.0857 24.3124 77.922 27.2153 72.1484C32.159 62.3158 48.4461 40.9388 53.8634 35.46C58.2549 31.0186 44.0634 63.0883 35.6803 77.8848C32.6155 83.2943 32.1949 84.5702 32.0322 84.5293C12.5938 79.6508 56.6268 35.9369 53.7955 41.4677C39.7371 68.9297 26.2691 76.5429 24.8105 77.0751C21.8317 78.162 26.6505 62.3946 30.6679 51.4639C38.2657 30.7921 7.62549 91.3367 9.26523 87.9383C12.9952 80.2078 25.9342 62.1196 33.3936 51.2505C40.8531 40.3814 43.2909 37.7489 41.2983 42.996C39.3058 48.2432 32.8089 61.4498 27.8253 70.6579C20.0817 84.9657 15.3598 91.8078 14.9293 92.9293C12.8527 98.3389 21.1656 80.4013 24.6803 76.8792C28.3133 73.2384 17.2232 90.7282 16.3314 90.2345C10.0801 86.7737 24.9097 72.5069 31.2135 65.0004C32.2291 63.791 24.8843 80.2068 15.3542 96.5688C19.0261 92.5664 29.0319 77.7116 34.5923 75.4235C34.5607 80.2664 28.736 97.2993 22.7348 114.848" stroke="#55BBD3" stroke-width="2" stroke-linecap="round"/>
<path d="M96.9189 70.8781C57.5926 134.285 35.9481 169.628 41.3385 160.684C48.2835 149.161 63.0934 123.053 71.0487 109.033C79.004 95.0129 79.4815 93.7689 79.429 93.9056C78.7797 95.5972 68.5829 111.006 57.2082 128.849C54.8337 132.574 61.7014 126.736 70.8663 116.029C92.4976 90.7595 105.004 73.279 103.3 78.6637C101.095 85.6267 94.5263 100.604 87.267 114.853C80.0076 129.102 71.8364 142.023 67.4479 149.146C63.0594 156.268 62.7012 157.201 75.2557 144.017C87.8101 130.832 113.288 103.502 128.265 86.9224C143.242 70.3426 146.946 65.3415 146.19 66.9165C145.434 68.4916 140.106 76.7944 132.892 86.6711C125.678 96.5478 116.741 107.747 111.587 114.019C106.433 120.291 105.333 121.296 111.35 112.565C117.366 103.835 130.533 85.3384 135.954 77.9632C141.374 70.5881 138.651 74.895 128.189 86.3038C117.727 97.7127 99.6098 116.093 96.7766 116.995C93.9433 117.897 106.943 100.764 117.177 88.2998C127.412 75.8358 134.486 68.5604 138.585 64.0946C142.683 59.6288 143.591 58.1931 131.452 71.7046C119.313 85.216 94.0986 113.718 84.5385 123.651C74.9785 133.584 81.8365 124.084 94.5349 108.792C107.233 93.5007 125.564 72.7046 136.369 59.838C147.174 46.9714 149.898 42.6645 150.847 41.1637C151.796 39.6628 150.889 41.0984 136.344 57.1303C121.799 73.1622 93.6441 103.747 78.5073 120.687C63.3704 137.627 62.1044 139.996 61.6312 140.749C61.518 140.93 66.9274 132.98 89.5177 108.159C106.531 89.4646 136.967 60.408 153.219 43.9014C169.471 27.3947 171.167 24.8344 155.574 42.7079C139.982 60.5814 107.049 98.9663 90.8001 116.874C74.5509 134.782 75.9835 131.05 83.6142 117.679C91.2448 104.307 105.03 81.4094 116.326 64.2653C127.621 47.1212 136.009 36.4247 129.862 43.3104C123.716 50.1961 102.781 74.988 90.8601 88.3942C78.9396 101.8 76.6683 103.069 75.5218 103.197C74.3753 103.325 74.4224 102.272 82.3792 89.4315C90.3359 76.5907 106.201 51.9933 114.195 39.7885C122.188 27.5837 121.83 28.5167 116.784 37.4792C111.738 46.4416 102.015 63.4053 90.4338 79.9695C78.8528 96.5336 65.7085 112.184 53.7144 125.021C41.7204 137.859 31.2748 147.408 25.3204 153.357C19.366 159.305 18.2193 161.363 30.988 146.677C43.7568 131.99 70.4756 100.498 84.0011 84.8963C97.5266 69.2948 97.0491 70.5388 91.2001 79.7338C85.3511 88.9287 74.1451 106.037 62.4804 120.439C50.8157 134.841 39.0318 146.018 32.9849 151.249C26.9379 156.481 26.9851 155.429 40.892 134.524C54.7988 113.619 82.564 72.8937 96.6285 52.5359C110.693 32.1782 110.216 33.4222 108.608 36.2165C107 39.0108 104.276 43.3177 92.4995 55.8276C80.723 68.3375 59.9763 88.92 47.5435 100.816C35.1107 112.711 31.6205 115.297 30.1807 115.696C28.6041 116.132 33.588 107.185 49.6268 86.8394C61.8797 71.296 84.0687 46.4387 96.1216 32.7158C108.175 18.9928 109.824 17.4849 109.932 16.7804C110.158 15.3133 103.948 21.609 85.8468 44.5532C71.4668 62.7805 43.9641 92.2673 30.8904 107.128C17.8167 121.99 19.3466 120.793 22.4657 118.752C30.1558 113.719 43.9187 103.625 61.622 87.9567C70.7343 79.892 78.9893 70.3753 82.9434 67.2435C86.8974 64.1117 86.0146 67.3411 82.8958 73.1562C75.1198 87.6543 63.8448 101.715 64.4836 99.9385C67.7257 90.9206 87.0128 70.8817 95.4161 60.4831C103.82 50.0844 103.342 51.3284 89.0408 64.4155C74.7396 77.5025 46.6292 102.395 32.3272 114.752C18.0251 127.108 18.3833 126.175 27.9845 115.572C37.5858 104.968 56.4193 84.7215 65.5717 74.7942C74.7241 64.8669 73.6245 65.8722 66.9133 69.3837C60.2021 72.8952 47.9126 78.8826 45.749 72.505C43.5853 66.1274 51.9201 47.2034 58.6626 33.3991C65.4051 19.5948 70.3028 11.4836 72.2526 8.33398C74.2023 5.18432 73.0556 7.24195 65.4027 16.4743C57.7498 25.7067 43.6254 42.0514 28.4969 57.4484C13.3685 72.8455 -2.336 86.7995 -10.4984 93.2466C-18.6609 99.6936 -18.8053 98.2108 -12.738 89.8134C-6.67073 81.4159 5.61275 66.1486 12.8721 56.3219C20.1314 46.4951 21.9944 42.5714 22.6557 41.3277C23.3169 40.0839 22.72 41.6389 16.1153 50.0139C9.51052 58.3889 -3.08395 73.5368 -11.4962 83.0994C-19.9085 92.662 -23.7568 96.1804 -26.4446 98.4358C-29.1324 100.691 -30.5429 101.577 -12.0417 81.2248C6.45944 60.8725 44.915 19.2552 65.1795 -2.90178C85.4439 -25.0588 86.3518 -26.4944 86.1504 -26.4204C83.9967 -25.6286 70.5871 -11.4822 50.2332 6.82349C42.6168 13.6735 40.1333 15.149 47.8048 6.7131C55.4764 -1.72275 73.2826 -20.2224 83.9729 -31.8463C94.6632 -43.4702 97.6979 -47.6577 90.5874 -37.444C83.4769 -27.2304 66.1292 -2.48856 51.767 16.0248C37.4049 34.5382 26.554 46.0734 20.6657 52.7933C14.7774 59.5132 14.1805 61.0682 14.0521 61.4028C11.2942 68.5873 32.107 42.4525 44.9659 29.9959C53.4525 21.7748 64.5635 8.3506 67.6193 8.54502C70.675 8.73943 64.9918 22.6152 49.3015 43.9545C33.6113 65.2939 8.08627 93.6765 -6.8678 109.746C-21.8219 125.815 -25.4315 128.712 -17.8537 114.915C-10.2759 101.117 8.59875 70.5388 18.6205 54.0086C28.6422 37.4785 29.2391 35.9235 29.3676 35.5889C29.496 35.2544 29.1378 36.1874 19.2491 46.1456C9.36045 56.1038 -10.0479 75.059 -22.2814 86.4636C-38.5493 101.629 -44.81 105.843 -46.3584 107.06C-46.629 107.272 -46.0909 105.405 -35.9614 92.4957C-25.8318 79.5861 -6.18769 55.369 7.38611 39.9374C26.9236 17.726 38.3565 10.2282 41.7564 10.7656C44.5338 11.2046 38.3705 21.544 23.9571 40.9514C9.5437 60.3588 -15.7646 90.9655 -27.332 105.691C-38.8994 120.417 -35.959 118.334 -23.0561 104.327C-10.1532 90.319 12.623 64.4495 25.4557 50.1176C38.2885 35.7857 40.4875 33.7752 39.0411 38.5291C37.5947 43.2831 32.4362 54.8624 26.0984 65.3025C19.7606 75.7425 12.4 84.6924 5.76349 91.6008C-5.91691 103.76 -13.2125 108.965 -14.324 109.987C-14.5734 110.216 -14.4804 108.521 -10.8006 99.3859C-7.12082 90.2503 0.067229 73.384 5.88445 61.0465C19.6133 31.9297 25.2305 30.3947 26.0653 29.6285C26.1922 29.512 25.8728 30.6088 22.5231 37.0111C19.1734 43.4133 12.8431 55.2565 -0.312254 72.7247C-13.4676 90.1929 -33.2562 112.927 -32.6105 114.527C-31.9648 116.126 -10.2851 95.902 4.77878 80.9126C19.8426 65.9233 27.6337 56.7818 33.9767 48.328C40.3198 39.8742 44.9787 32.385 46.9845 29.0893C51.0719 22.3733 18.9759 50.6038 12.4433 53.4108C11.8913 53.648 13.2015 51.3932 21.7367 43.5808C30.2718 35.7685 46.4067 21.6228 57.7659 11.045C69.1251 0.467246 75.2197 -6.11399 80.2946 -12.6866C89.907 -25.136 93.9439 -34.0471 93.4867 -36.5744C92.7286 -40.7652 80.4549 -33.5266 64.9139 -23.8999C54.5077 -17.4538 40.8404 -5.05941 23.3102 13.2705C5.78001 31.6004 -14.7249 56.2008 -24.0565 68.4543C-33.3882 80.7079 -30.9253 79.8692 -14.5113 69.7287C1.90273 59.5883 32.1932 40.1716 49.6021 28.7209C67.0111 17.2701 70.6207 14.3738 75.0264 11.3613C79.4321 8.34884 84.5245 5.30802 83.2899 11.0029C82.0554 16.6979 74.3396 31.2207 59.9584 53.2626C45.5772 75.3045 24.7644 104.425 22.6347 110.058C20.505 115.69 37.6893 96.9519 50.0902 82.2379C62.491 67.524 69.5878 57.4023 73.005 52.8101C76.4222 48.218 75.9446 49.462 66.7153 64.6743C57.4859 79.8867 39.5192 109.03 22.9627 132.837C6.40618 156.644 -8.19574 174.233 -16.8049 185.196C-25.4141 196.159 -27.5881 199.963 -26.4964 200.81C-25.4047 201.656 -20.9815 199.429 0.645841 179.482C22.2732 159.535 60.9706 121.935 81.2402 102.159C101.51 82.3829 102.179 81.5693 102.057 80.9711C101.935 80.3729 101.002 80.0147 99.8526 80.6438C88.0822 87.0842 70.4513 104.251 61.8257 111.229C60.2544 112.5 69.5531 95.1264 84.7902 74.1645C91.5784 64.8259 97.7591 59.1117 96.9053 62.4063C96.0515 65.701 88.3107 78.43 65.5381 106.501C42.7655 134.573 5.19577 177.6 -15.5202 201.92C-36.2362 226.239 -38.9599 230.546 -33.6339 227.319C-28.308 224.092 -14.8497 213.201 14.0821 181.422C43.0138 149.644 87.0112 97.3081 102.732 75.8886C118.453 54.4691 104.565 65.5519 95.8327 73.5104C83.1074 85.1088 77.6372 92.9961 72.6665 97.0297C66.1233 102.339 96.0023 59.0969 92.7263 61.2509C81.1201 68.882 57.6642 99.7321 44.061 115.071C30.4577 130.41 29.5498 131.846 29.4167 132.179C29.2835 132.511 29.9527 131.698 47.9371 114.142C65.9215 96.587 101.201 62.3144 121.276 43.4258C141.351 24.5372 145.152 22.0713 146.322 21.9256C147.491 21.7798 145.914 24.0291 132.768 36.8675C119.622 49.7059 94.9547 73.0653 81.5782 85.9125C68.2016 98.7598 66.8633 100.387 67.297 99.6939C67.7307 99.0007 69.9769 95.9378 83.1677 81.1378C96.3585 66.3378 120.426 39.8935 132.49 26.6775C144.553 13.4615 143.884 14.2751 129.041 26.4351C114.199 38.5952 85.2023 62.077 64.9573 77.3103C44.7123 92.5436 34.0971 98.8169 25.8799 104.562C17.6626 110.306 12.1649 115.333 10.2046 116.116C7.56903 117.168 17.4705 100.328 32.1445 79.3825C40.6143 67.2928 53.2492 53.7689 60.4118 46.0676C67.5743 38.3662 69.4152 37.2888 55.8073 50.9501C42.1993 64.6114 13.0867 93.0441 -2.69919 108.816C-18.4851 124.588 -20.0622 126.837 -20.851 127.469C-21.516 128.003 -13.4201 114.097 2.76109 92.0703C10.4373 81.621 18.5621 73.8227 19.6847 74.7996C28.8666 82.7906 4.00509 103.604 -4.96217 116.176C-8.90953 121.71 -11.0612 125.924 -9.29115 124.538C12.148 107.753 18.7166 89.5608 22.0478 89.3474C51.1341 87.4837 -2.88735 128.067 -2.35585 129.006C-1.83676 129.923 1.16327 126.81 8.40797 120.092C15.6527 113.374 27.5559 101.885 35.3733 94.8302C46.188 85.0699 54.0023 79.328 57.0626 77.0317C79.8596 59.9262 24.2676 111.804 25.3323 112.256C36.6299 117.052 44.9873 95.32 49.2155 91.3473C51.5462 89.1575 44.8288 102.353 41.8442 110.593C41.5873 111.302 51.0339 97.3708 59.3396 86.0858C60.1595 84.9718 55.1732 94.2777 45.2369 108.473C35.3006 122.667 20.8432 141.739 13.2163 152.03C5.58946 162.321 5.23131 163.254 7.91503 160.911C16.6593 153.275 28.8647 138.222 39.527 123.587C45.2427 115.741 47.7175 110.771 49.3796 110.652C58.1728 110.023 39.4146 136.26 28.4828 152.062C24.5834 157.699 24.2896 158.676 25.3115 156.943C26.3334 155.211 28.7461 150.785 34.8522 142.343C50.1558 121.184 61.0636 107.947 61.6911 108.171C65.8862 109.673 60.5139 120.646 59.3667 126.888C56.5319 142.312 89.0374 103.579 92.3169 100.669C92.8365 100.208 91.3678 105.057 84.4627 115.144C77.5576 125.231 65.3463 141.24 57.8965 150.648C50.4466 160.055 48.1281 162.377 46.4798 164.291C44.8315 166.204 43.9236 167.64 47.3043 164.861C50.6849 162.082 58.3817 155.046 73.2321 137.936C88.0826 120.827 109.854 93.8577 119.922 82.0223C129.991 70.1868 127.698 74.302 118.522 86.5562C109.347 98.8104 93.3599 119.079 87.0121 127.39C84.0993 131.204 94.5198 118.367 107.673 100.947C121.26 82.9517 130.329 73.9821 129.618 75.834C126.042 85.15 122.79 92.6925 122.23 93.2075C120.75 94.5685 133.384 79.9667 149.071 63.4811C155.38 56.8506 159.047 54.4374 160.248 54.6606C163.525 55.2695 150.373 70.7228 134.36 87.6076C121.975 100.667 113.939 107.299 112.319 110.11C111.751 111.097 127.327 92.8447 146.903 74.7214C151.67 70.308 148.603 78.9964 140.457 89.0343C132.311 99.0722 119.858 111.063 114.231 116.115C106.003 123.504 139.947 87.4057 138.732 90.1346C137.077 93.8494 131.136 101.119 124.697 108.963C111.435 125.12 102.383 134.588 102.009 135.547C100.143 140.338 116.595 117.141 123.855 108.65C125.77 106.411 108.841 126.579 103.599 131.124C101.096 133.294 107.286 117.082 107.398 115.439C108.51 99.116 86.8337 139.432 84.5735 141.095C83.6896 141.745 91.5012 126.259 97.6437 113.581C97.8515 113.152 89.5955 125.787 82.9566 135.068C71.7351 150.755 62.8174 159.744 58.8135 165.949C57.2181 168.421 56.8171 169.713 66.5251 158.831C76.2331 147.949 96.141 124.904 106.218 113.499C116.294 102.093 115.936 103.026 114.27 105.971C102.935 126.013 89.8091 141.991 87.811 147.182C87.2603 148.613 103.069 130.743 116.372 115.396C126.587 103.613 96.7099 144.662 95.9934 147.457C95.837 148.068 97.2123 147.071 107.828 135.246C118.445 123.42 138.544 100.805 140.127 98.991C141.711 97.1766 124.168 116.848 114.319 128.633C104.47 140.417 102.846 143.719 101.4 146.078C99.9535 148.437 98.7346 149.753 101.644 146.793C104.553 143.834 111.628 136.558 118.642 128.216C132.981 111.161 143.736 97.197 150.853 90.3868C153.668 87.6936 154.481 86.162 154.77 85.8889C155.252 85.4328 145.707 103.469 131.925 129.514C126.626 139.528 125.334 143.333 130.953 137.526C136.571 131.719 149.285 116.26 157.197 106.143C165.108 96.0263 167.832 91.7194 169.725 89.1536C171.618 86.5878 172.599 85.8935 163.795 96.7711C154.992 107.649 136.375 130.119 123.366 145.022C110.358 159.924 103.522 166.578 113.154 150.612C122.786 134.646 149.094 95.8585 161.212 77.2893C173.33 58.7202 170.462 61.5443 166.378 64.675C157.385 71.5702 148.534 77.3157 138.138 89.4417C130.413 98.4515 119.762 114.919 114.909 120.857C110.056 126.796 111.846 122.131 123.75 106.458C135.654 90.786 157.617 64.2474 169.11 50.1094C180.603 35.9715 180.961 35.0385 177.548 38.3511C174.136 41.6637 166.942 49.2502 160.045 57.2862C153.149 65.3222 146.769 73.5778 139.335 82.1266C124.07 99.6806 113.127 111.301 116.18 106.11C121.12 97.7076 133.137 77.7092 140.761 65.4542C150.939 49.0928 154.662 44.3958 154.714 43.3293C154.783 41.9283 140.135 59.8725 133.798 71.4805C130.452 77.6086 164.292 44.7729 176.316 32.6607C188.34 20.5485 187.096 20.071 183.084 22.0994C179.072 24.1277 172.331 28.6764 164.687 35.8417C157.044 43.007 148.703 52.6511 141.587 61.711C134.47 70.7709 128.831 78.9543 124.767 84.3307C118.737 92.3078 132.172 69.9425 140.082 51.4613C144.1 42.0736 98.6202 94.671 80.9691 114.344C63.318 134.017 62.2185 135.022 64.1025 133.804C65.9864 132.587 70.8872 129.116 77.989 122.84C85.0909 116.564 94.2453 107.589 108.662 88.8482C123.079 70.1072 142.482 41.8722 150.78 29.8871C158.694 18.4588 117.188 66.0183 119.117 60.9089C128.647 35.6636 147.388 23.9354 142.235 25.6985C137.528 27.3089 130.054 33.6847 121.904 41.2123C113.754 48.74 105.532 58.0731 99.4812 65.7523C89.238 78.7515 84.1686 87.2205 81.487 89.9811C80.7807 90.7081 81.0516 89.6788 90.8178 75.3916C100.584 61.1044 119.748 33.4914 110.442 43.6627C101.137 53.8339 62.7815 102.626 42.8436 128.228C22.9058 153.83 22.5476 154.763 28.3383 148.974C34.1291 143.184 46.0795 130.644 62.7866 111.106C79.4938 91.5678 100.596 65.4124 111.705 51.3164C122.814 37.2205 123.292 35.9764 122.737 35.5633C110.075 26.1396 88.6095 64.4121 84.5721 66.4793C83.5956 66.9792 84.3109 64.2866 94.6326 47.158C104.954 30.0294 124.737 -1.98481 134.438 -18.1299C144.139 -34.2749 143.159 -33.5807 126.855 -17.1642C110.551 -0.747765 78.9536 31.3699 65.8081 46.263C52.6627 61.1561 58.9268 57.8514 81.7538 37.6242C104.581 17.397 143.781 -19.6526 156.996 -31.248C159.601 -33.5343 137.593 -8.71687 128.709 -0.0925071C118.365 9.94795 112.821 18.2135 111.387 19.1175C111.126 19.2819 113.252 17.0058 122.434 10.3232C131.617 3.64067 148.16 -7.85044 154.03 -11.0418C156.08 -12.1568 140.119 11.9431 133.869 26.2392C132.719 28.8698 151.419 8.27924 157.689 0.170454C162.305 -5.79846 142.339 9.17303 119.853 29.2174C116.899 31.8501 132.931 13.5415 148.78 -9.40765C153.478 -16.2106 150.099 -14.0267 145.869 -10.0653C136.088 -0.903227 127.283 9.66485 118.708 19.8465C108.268 32.2439 98.9956 39.2147 96.6113 41.1865C95.9847 41.7047 105.427 36.3744 120.125 24.7751C137.709 10.8987 147.367 -2.34823 149.392 -5.73421C149.506 -5.92503 147.665 -3.06667 122.398 23.685C97.1316 50.4367 48.4692 100.982 27.4251 118.395C6.38094 135.809 14.4298 118.559 24.0472 100.533C33.6646 82.5071 44.6067 64.2271 52.6453 51.807C60.6839 39.3869 65.4873 33.3805 68.2603 29.5088C71.0332 25.6371 71.6301 24.0821 65.4142 32.3738C59.1982 40.6656 46.1513 58.8512 36.7175 71.1034C27.2836 83.3556 21.8582 89.1232 18.5732 92.4415C15.2882 95.7598 14.308 96.4541 25.9877 76.6893C37.6674 56.9246 62.0367 16.6798 65.6794 11.2605C69.3222 5.84125 51.4999 36.467 37.2766 58.8723C23.0532 81.2776 12.9689 94.5343 23.5726 85.3047C34.1764 76.0752 65.774 43.9575 83.0317 26.7178C100.289 9.47814 102.25 8.08966 101.265 10.7121C100.28 13.3346 96.2898 20.0102 89.4185 28.5585C73.7611 48.0373 62.0834 59.2902 61.2324 59.169C55.0465 58.2879 71.2802 35.2473 73.5938 26.0793C75.2489 19.5205 48.8555 51.1307 40.1516 60.3544C31.4478 69.578 33.8134 66.2041 46.1453 51.7826C58.4771 37.3611 80.7035 11.9943 92.6075 -1.79127C104.511 -15.5769 105.419 -17.0125 102.565 -14.2101C92.7815 -4.60537 80.4117 7.88145 70.9054 15.759C67.2532 18.7854 65.7972 19.6155 73.2559 10.3681C80.7145 1.12065 97.0852 -18.287 105.052 -28.4639C113.019 -38.6408 112.086 -38.999 111.247 -38.2505C108.977 -36.225 100.613 -24.0693 87.9991 -9.98318C84.3851 -5.94738 93.7646 -17.7775 111.257 -34.2893C118.459 -41.0883 123.659 -43.1203 118.191 -32.4384C112.723 -21.7565 96.7854 2.09943 88.3366 15.0109C79.8877 27.9223 79.4102 29.1663 82.0324 26.983C90.835 19.654 99.3833 8.09226 102.356 2.71328C105.302 -2.6159 91.5106 16.4887 85.5006 22.2861C83.2399 24.4668 82.9809 25.4981 85.1495 21.708C99.9231 -4.11292 110.276 -13.7209 113.653 -15.4901C114.952 -16.1708 115.883 -15.2016 115.718 -12.405C115.257 -4.60351 109.121 10.9219 102.064 30.6988C96.2197 47.0798 95.1729 57.5675 96.3319 61.0833C97.7137 65.2748 107.646 58.8197 119.323 48.9639C127.347 42.1909 138.552 30.5887 142.78 30.5464C147.008 30.5042 143.643 42.0584 132.758 61.6255C121.873 81.1926 103.571 108.422 93.0424 123.455C82.5142 138.488 80.3151 140.498 89.221 131.65C98.127 122.801 118.205 103.032 128.727 92.3817C139.249 81.7313 139.607 80.7983 137.892 83.8706C126.665 103.989 118.597 113.023 119.069 114.539C124.736 132.743 144.518 84.8784 148.465 78.8193C149.116 77.8206 140.006 97.6466 132.168 115.669C131.649 116.862 144.754 94.4306 137.83 101.921C130.905 109.41 105.242 145.59 102.666 149.046C100.091 152.501 121.381 122.136 127.404 115.657C133.427 109.178 123.537 127.505 107.38 153.218C91.2219 178.93 69.0958 211.472 63.0272 222.253C56.9586 233.034 67.6178 221.069 78.2219 206.698C88.8259 192.326 99.0517 175.913 106.541 162.6C119.256 139.998 125.964 125.69 127.647 125.547C144.192 124.136 105.919 166.784 106.793 166.676C124.299 164.516 147.26 108.974 162.222 88.1927C177.184 67.4119 175.99 70.5219 173.106 75.7131C166.098 88.3233 160.646 96.4112 160.736 96.6405C161.042 97.4168 162.451 93.5682 168.051 87.8244C173.651 82.0806 183.547 73.0334 173.243 88.5091C162.94 103.985 132.137 144.258 127.775 149.439C123.412 154.62 146.424 123.488 160.274 104.113C174.123 84.738 178.113 78.0625 179.678 74.9707C181.244 71.8789 180.264 72.5731 165.681 88.2231C151.099 103.873 122.945 134.458 108.62 149.747C94.2952 165.036 94.6534 164.103 103.631 150.941C112.609 137.778 130.195 112.414 142.697 95.4952C155.198 78.5761 162.081 70.8702 164.826 67.1283C166.884 64.3227 153.181 77.5207 135.817 97.8824C128.904 105.989 121.078 117.857 110.646 135.652C106.133 143.351 104.146 145.007 104.87 144.052C109.427 138.037 113.649 129.603 120.128 121.147C130.043 108.208 139.19 94.0248 138.387 95.7495C134.629 103.826 117.582 122.624 109.869 132.185C102.155 141.745 102.632 140.501 105.519 136.235C113.431 124.542 125.891 109.854 136.533 98.087C140.453 93.7526 141.2 92.5906 139.778 93.9856C134.515 99.1482 125.792 107.491 117.001 114.913C101.674 127.854 90.4192 145.134 88.4591 144.592C70.7866 139.709 108.897 116.63 113.354 113.951C120.551 109.623 101.328 134.518 100.059 138.74C99.8675 139.376 103.76 135.592 105.121 134.439C106.483 133.286 106.006 134.53 105.365 135.733C102.736 140.675 98.4539 143.893 95.5552 146.754C94.1641 148.127 88.9852 148.898 85.8463 149.526C78.5613 150.983 97.9519 137.623 101.003 136.253C104.325 134.761 90.5525 150.505 82.913 154.871C80.043 156.512 91.9773 137.103 96.3874 130.854C100.797 124.605 100.584 127.02 100.092 129.724C99.0611 135.392 97.5727 139.597 98.3194 140.441C101.533 144.071 108.932 132.485 113.693 128.533C118.341 124.674 107.665 140.573 102.556 147.771C94.0652 159.731 88.2867 171.337 85.8373 173.478C83.1672 175.813 92.9148 162.041 98.1297 151.273C102.602 142.037 109.917 128.96 110.617 125.855C112.271 118.515 88.2548 150.293 79.6801 159.702C71.1054 169.11 71.4636 168.177 74.6231 163.664C77.7827 159.152 83.7328 151.088 86.4996 147.711C89.2663 144.334 88.6694 145.889 87.0833 148.162C83.271 153.625 78.656 157.919 76.4916 159.797C73.3378 162.533 84.9283 152.79 86.7417 152.756C88.9693 152.715 84.1041 162.487 81.6413 168.424C79.2318 174.232 93.2178 149.928 98.3808 143.562C98.9334 142.881 91.3326 153.205 87.0384 158.688C82.7441 164.17 80.9754 165.989 85.0799 156.184C89.1843 146.379 99.2155 124.895 99.0896 120.181C98.9636 115.467 88.3766 128.173 83.1614 134.098C77.9463 140.022 78.4238 138.778 85.6472 128.326C92.8706 117.875 106.825 98.2532 121.758 80.0562C136.691 61.8592 152.179 45.681 145.532 55.4617C138.885 65.2424 109.634 101.472 94.9233 119.203C80.2128 136.934 80.9291 135.068 86.4597 127.167C101.908 105.099 116.44 88.5032 119.364 90.2799C133.564 98.9076 105.328 124.127 99.2843 134.237C97.0627 137.953 96.7532 138.915 97.2143 139.108C97.6754 139.301 98.9665 138.726 109.488 124.372C120.01 110.018 139.723 81.9027 150.989 64.9906C162.255 48.0784 164.476 43.2218 161.346 51.3898C158.216 59.5577 149.668 80.8975 150.616 83.0618C158.394 100.819 174.944 47.8672 176.859 48.0344C178.548 48.182 175.955 54.6134 167.732 69.5576C159.508 84.5018 144.265 109.338 145.517 109.57C146.769 109.802 164.978 84.6766 175.851 70.1658C186.725 55.655 189.713 52.5199 191.073 51.3714C192.433 50.2228 192.075 51.1558 184.303 62.1052C176.532 73.0546 161.358 93.9922 152.335 106.991C143.312 119.99 140.899 124.417 139.322 127.104C137.744 129.791 137.075 130.604 150.175 116.915C163.274 103.227 190.163 75.0106 204.408 59.9127C218.654 44.8148 219.443 43.6902 214.257 50.2419C209.071 56.7935 197.887 71.0555 185.51 91.9202C173.132 112.785 159.9 139.82 154.946 149.824C149.992 159.827 153.718 151.98 161.839 140.148C169.96 128.316 182.363 112.738 191.011 102.547C199.659 92.3559 204.176 88.024 204.006 88.5803C203.836 89.1367 198.841 94.7127 193.694 100.458" stroke="#55BBD3" stroke-width="2" stroke-linecap="round"/>
</g>
</svg>
