<svg width="621" height="27" viewBox="0 0 621 27" fill="none" xmlns="http://www.w3.org/2000/svg">
<path d="M3 14.4725C47.2728 12.3903 91.609 10.9173 135.9 9.017C172.499 7.44669 209.738 6.78784 246.093 3.27442C247.224 3.1651 248.619 2.74577 247.313 3.7769C243.206 7.01814 237.896 9.76174 233.148 12.5343C227.85 15.6273 222.915 18.6935 218.08 22.0814C217.272 22.6476 216.536 23.1204 215.958 23.8041C215.598 24.2305 215.867 24.0855 216.701 24.0195C240.118 22.1666 263.574 20.5426 287.05 19.0665C376.131 13.4653 464.684 11.0076 554.123 11.9601C574.581 12.1779 597.693 14.0306 618 10.5962" stroke="#FE6600" stroke-width="5" stroke-linecap="round"/>
</svg>
