<svg width="16" height="16" viewBox="0 0 16 16" fill="none" xmlns="http://www.w3.org/2000/svg">
<path fill-rule="evenodd" clip-rule="evenodd" d="M9.97489 10.3305L9.97322 10.3287L9.97266 10.3281L9.97489 10.3305Z" fill="#FBDA1D"/>
<path fill-rule="evenodd" clip-rule="evenodd" d="M13.5914 4.72213C13.5831 4.70669 13.5739 4.69168 13.573 4.67386C13.5723 4.65576 13.558 4.64919 13.5391 4.6476C13.5498 4.60799 13.5801 4.61247 13.6082 4.62921C13.6397 4.64811 13.6294 4.69637 13.5914 4.72213Z" fill="#FBDA1D"/>
<path fill-rule="evenodd" clip-rule="evenodd" d="M11.0102 8.43481L11.0089 8.43593L11.0078 8.43724L11.0102 8.43481Z" fill="#FBDA1D"/>
<path fill-rule="evenodd" clip-rule="evenodd" d="M8.30339 9.35889L8.30115 9.36075L8.30078 9.36094L8.30339 9.35889Z" fill="#FBDA1D"/>
<path fill-rule="evenodd" clip-rule="evenodd" d="M12.1296 10.2458C12.1231 10.2474 12.1161 10.247 12.109 10.2466C12.0987 10.2462 12.0883 10.2454 12.0788 10.25C12.0879 10.2452 12.0985 10.2459 12.109 10.2466L12.1222 10.2464L12.1296 10.2458L12.1437 10.2378C12.1559 10.2241 12.1347 10.2207 12.1287 10.2126C12.1397 10.2133 12.1486 10.2182 12.1485 10.2298C12.1485 10.2438 12.1392 10.2453 12.1296 10.2458ZM11.6764 9.06207C11.5702 9.07015 11.5702 9.07015 11.5152 8.97196C11.4914 8.96178 11.4675 8.95782 11.4432 8.97059L11.4275 8.98588C11.3895 9.06185 11.3362 9.12079 11.2545 9.15037C11.2439 9.15413 11.237 9.1731 11.2274 9.17389C11.1233 9.1832 11.0939 9.27115 11.0473 9.34228C11.0272 9.37309 11.0008 9.39618 10.9574 9.39257C10.9091 9.38853 10.8597 9.38882 10.816 9.41688C10.801 9.42035 10.7872 9.42879 10.771 9.42778C10.7361 9.39921 10.7737 9.33861 10.7228 9.31711L10.7229 9.3179C10.7165 9.30159 10.702 9.28745 10.7096 9.2674L10.7092 9.25823C10.7043 9.24265 10.6993 9.22699 10.7243 9.22512L10.7281 9.22815L10.7408 9.23875L10.7423 9.23962C10.7491 9.24943 10.7625 9.24619 10.7704 9.25398L10.7716 9.25455C10.8015 9.27338 10.8285 9.25881 10.8557 9.24727C10.88 9.20066 10.8847 9.15405 10.8559 9.1073C10.8353 9.08573 10.8149 9.06402 10.7943 9.04244C10.79 9.02029 10.8021 9.00449 10.8173 8.99273C10.8604 8.9594 10.8594 8.92124 10.833 8.87889L10.8274 8.86633C10.8224 8.85126 10.8172 8.83618 10.8303 8.82232C10.9005 8.82766 10.9017 8.82766 10.9014 8.76403C10.9012 8.73402 10.913 8.7009 10.8862 8.67507C10.8816 8.6644 10.8813 8.65357 10.8857 8.64261C10.9387 8.5898 10.9603 8.51902 10.9922 8.45402C10.9963 8.44687 11.0015 8.44052 11.0078 8.43526C11.0136 8.42819 11.0204 8.42256 11.029 8.41946C11.051 8.36672 11.1052 8.34291 11.1362 8.29832C11.1725 8.2963 11.1371 8.26485 11.1539 8.25489L11.1536 8.25475C11.1593 8.23476 11.2136 8.24472 11.1842 8.20222C11.1739 8.18722 11.1895 8.17539 11.1978 8.1637L11.1973 8.16377C11.2225 8.14956 11.253 8.14458 11.2723 8.12005L11.273 8.1194C11.3215 8.12171 11.3128 8.16983 11.3325 8.19515C11.3577 8.23635 11.3897 8.27387 11.3986 8.32408C11.4028 8.34717 11.4194 8.3639 11.4411 8.37134C11.5277 8.40128 11.5506 8.47321 11.5641 8.55351C11.5729 8.60574 11.5752 8.66122 11.6167 8.70213C11.6667 8.73539 11.6759 8.78885 11.6854 8.84224C11.6953 8.89866 11.7054 8.95507 11.7149 9.01156C11.7216 9.05161 11.7156 9.05911 11.6764 9.06207ZM10.8023 10.0325C10.7415 10.0766 10.6765 10.0914 10.605 10.0613C10.5777 10.0453 10.5496 10.0498 10.5215 10.0586C10.5119 10.0594 10.5017 10.0626 10.4926 10.0608C10.4631 10.055 10.4549 10.0376 10.4732 10.0161C10.5188 9.9626 10.5577 9.90431 10.5918 9.8432C10.6051 9.81953 10.6172 9.82271 10.6388 9.82826C10.6933 9.84212 10.7444 9.86477 10.7967 9.88374C10.8175 9.93266 10.8069 9.98266 10.8023 10.0325ZM10.4211 7.85051C10.4404 7.8311 10.4636 7.83788 10.4835 7.83918C10.5241 7.84171 10.5316 7.82252 10.533 7.78558C10.535 7.72887 10.5157 7.68638 10.4756 7.64749C10.4264 7.5998 10.3605 7.57231 10.3225 7.51048C10.3079 7.48667 10.2797 7.49807 10.2381 7.53862C10.217 7.57332 10.1864 7.59958 10.159 7.62866C10.1269 7.65081 10.128 7.68962 10.1187 7.72093C10.1027 7.77367 10.0731 7.80513 10.0164 7.81703C10.0021 7.78933 10.0103 7.74698 9.97208 7.73176C9.95154 7.7161 9.93178 7.71336 9.91368 7.73558C9.88233 7.78969 9.88233 7.78969 9.79952 7.73558C9.81712 7.7016 9.83502 7.66704 9.85291 7.63255C9.85892 7.62455 9.86579 7.61784 9.87546 7.61452C9.96571 7.5524 10.0564 7.49108 10.1459 7.42795C10.1957 7.39267 10.1959 7.34072 10.1437 7.3079C10.1002 7.28041 10.0657 7.24001 10.0166 7.22074C10.0006 7.21447 9.98754 7.20307 9.98418 7.18351C9.97802 7.14715 9.94617 7.12068 9.94402 7.0784C10.0046 7.07154 10.062 7.05841 10.0766 6.98598C10.0782 6.97847 10.0841 6.97458 10.0922 6.97306C10.1162 6.96866 10.1892 7.00221 10.1996 7.02378C10.2058 7.03655 10.2159 7.05387 10.1937 7.05899C10.1702 7.06455 10.1604 7.07594 10.1611 7.09946C10.162 7.1263 10.1585 7.15242 10.1789 7.1763C10.1991 7.19989 10.2281 7.20812 10.2504 7.22724C10.2699 7.24073 10.2859 7.2351 10.2995 7.21764C10.3332 7.20819 10.2999 7.15516 10.3419 7.15119C10.3527 7.16461 10.3667 7.17659 10.3737 7.19181C10.3983 7.24469 10.4346 7.28019 10.4939 7.29044C10.5203 7.29498 10.539 7.31237 10.5332 7.34267C10.5261 7.37975 10.5474 7.41287 10.5416 7.45204C10.5366 7.48603 10.5762 7.50406 10.6087 7.50688C10.6418 7.50983 10.6546 7.52217 10.6708 7.55363C10.7066 7.62318 10.7514 7.69049 10.8408 7.7016C10.8669 7.70492 10.8725 7.72086 10.8634 7.74424C10.8572 7.76025 10.8549 7.77771 10.8427 7.79135C10.8259 7.81032 10.8286 7.83154 10.8379 7.85296C10.8461 7.85578 10.8526 7.86155 10.8597 7.86602L10.8738 7.86927C10.8885 7.8793 10.9046 7.88716 10.9185 7.89863L10.9182 7.89842C10.9395 7.91183 10.9576 7.92951 10.978 7.94416L10.9955 7.95469C11.0437 7.94978 11.0569 7.97677 11.0549 8.01861C11.0596 8.02886 11.0596 8.04062 11.0648 8.05072C11.0571 8.06839 11.0464 8.08333 11.0261 8.06839C10.9768 8.03196 10.9199 8.02164 10.8612 8.01342C10.8183 8.00743 10.7768 7.99733 10.7378 7.9728C10.6848 7.93961 10.6232 7.9474 10.5669 7.96479C10.5372 7.97395 10.5172 7.97092 10.5043 7.94711C10.484 7.90931 10.4512 7.88334 10.4211 7.85051ZM10.4301 8.33093C10.3732 8.36657 10.3172 8.40409 10.2455 8.40561C10.2341 8.3533 10.2904 8.33101 10.2834 8.287C10.2959 8.25323 10.2909 8.21976 10.2839 8.18563C10.2786 8.16038 10.2885 8.15288 10.3108 8.16846L10.3105 8.16781C10.3177 8.1712 10.3223 8.17697 10.3257 8.18397C10.3586 8.2111 10.3753 8.25128 10.4033 8.28238C10.4104 8.29962 10.4556 8.29551 10.4301 8.33093ZM9.91933 9.92747C9.89156 9.95113 9.84826 9.93886 9.8119 9.93533C9.79386 9.9336 9.79172 9.91643 9.79164 9.90106C9.79143 9.85496 9.80646 9.81246 9.83359 9.7774C9.87639 9.72214 9.90308 9.72509 9.95111 9.78122C9.97451 9.80857 9.99985 9.83425 10.0272 9.86376C9.99076 9.8875 9.95154 9.89991 9.91933 9.92747ZM9.69173 7.24607L9.6752 7.24736C9.65637 7.25061 9.63755 7.25379 9.61872 7.25696L9.60133 7.2597C9.55152 7.26785 9.49991 7.26915 9.45504 7.29715C9.45081 7.30436 9.44566 7.31085 9.44001 7.31699C9.42362 7.33524 9.40973 7.35717 9.39026 7.37102C9.32334 7.41886 9.29378 7.49014 9.25957 7.56099C9.22593 7.63053 9.18692 7.6998 9.13775 7.75838C9.1117 7.7894 9.12981 7.8407 9.09338 7.8513C9.0631 7.86018 9.02524 7.82915 8.99239 7.85845L8.98552 7.86075C8.94085 7.87309 8.9581 7.84431 8.9619 7.82454C8.96247 7.79402 8.97571 7.7622 8.95209 7.73435C8.91044 7.65341 8.82605 7.62902 8.75541 7.58862C8.72134 7.56914 8.68827 7.55067 8.6605 7.52304C8.6459 7.50551 8.63681 7.48523 8.60561 7.48667C8.5326 7.49021 8.45924 7.48797 8.38602 7.48776C8.35875 7.48768 8.33892 7.49829 8.3284 7.52426L8.32876 7.52405C8.31738 7.53718 8.32948 7.55824 8.31352 7.56979C8.28052 7.60817 8.26363 7.6581 8.22341 7.69179C8.20129 7.71047 8.18862 7.82843 8.20129 7.85376C8.20637 7.864 8.21553 7.86552 8.22534 7.86602C8.24473 7.86725 8.2642 7.86847 8.28367 7.8697L8.2919 7.87807L8.28875 7.88471C8.24867 7.93023 8.19163 7.96032 8.16829 8.02157C8.16314 8.03492 8.15069 8.04617 8.15441 8.0619C8.15899 8.08152 8.14239 8.10815 8.17166 8.11983C8.19936 8.13094 8.23879 8.11904 8.25526 8.09538C8.26685 8.079 8.26671 8.0492 8.29906 8.05678L8.31638 8.05779C8.32998 8.05988 8.34358 8.0619 8.35718 8.06406C8.3692 8.07323 8.36684 8.08203 8.3566 8.09069C8.29026 8.1111 8.23794 8.15454 8.18039 8.19025C8.11268 8.23224 8.09701 8.2818 8.0935 8.34875L8.09085 8.3634C8.08763 8.38678 8.10381 8.41975 8.07775 8.43129C8.04755 8.44456 8.04054 8.40993 8.02722 8.39053C8.01091 8.36701 7.98321 8.37112 7.96725 8.38201C7.90018 8.42812 7.84192 8.48381 7.81043 8.56195C7.80785 8.56844 7.81 8.57681 7.80993 8.58424C7.79733 8.61324 7.76856 8.62977 7.7541 8.6574C7.72941 8.71872 7.73857 8.77096 7.79275 8.81287C7.80585 8.82305 7.81522 8.8382 7.82632 8.85104C7.82739 8.86698 7.82725 8.883 7.82732 8.89887C7.80034 8.91705 7.77021 8.92571 7.7385 8.92946C7.72798 8.93466 7.71624 8.93502 7.70522 8.93805C7.5708 8.94072 7.5708 8.94072 7.57188 9.07469C7.57202 9.09208 7.57209 9.1094 7.57266 9.12678C7.57316 9.14063 7.56916 9.15009 7.55427 9.1534C7.5134 9.16228 7.48964 9.19691 7.45915 9.2205C7.41599 9.25398 7.40597 9.30859 7.39838 9.35808C7.39137 9.40368 7.39259 9.45195 7.40067 9.49877C7.40747 9.53845 7.41907 9.57532 7.45357 9.60021C7.47404 9.61493 7.48527 9.63736 7.50045 9.65656C7.53473 9.71377 7.47761 9.71059 7.45321 9.72906C7.41363 9.72748 7.37777 9.75561 7.33676 9.74371C7.32223 9.73577 7.30913 9.72538 7.29403 9.71846C7.22489 9.70814 7.15324 9.70424 7.10465 9.64205L7.09298 9.63325C7.03801 9.60432 7.03794 9.60439 7.04488 9.54321C7.05412 9.52662 7.04868 9.50714 7.05526 9.49004C7.0451 9.46796 7.03787 9.44401 7.02441 9.42439C6.99535 9.38189 6.99378 9.38233 7.03243 9.35347C7.06707 9.32757 7.10364 9.30412 7.13349 9.27209C7.17135 9.24676 7.18288 9.20715 7.19018 9.16531C7.19547 9.15615 7.2007 9.14706 7.20592 9.13797C7.21115 9.13082 7.21745 9.12491 7.2241 9.11928C7.25266 9.0809 7.27148 9.03977 7.26669 8.9897C7.26483 8.97037 7.26483 8.94764 7.29339 8.94577C7.37727 8.94021 7.39931 8.87882 7.39903 8.81186C7.39874 8.75956 7.42143 8.72853 7.45657 8.69953C7.46215 8.66605 7.43073 8.62024 7.48792 8.60379C7.5693 8.59499 7.57331 8.5872 7.5426 8.49694C7.53673 8.49002 7.53058 8.48338 7.52328 8.4779C7.50453 8.46585 7.49093 8.47184 7.48083 8.49023C7.47575 8.51094 7.47862 8.53345 7.46888 8.55235C7.46094 8.56772 7.45113 8.58835 7.43023 8.56361L7.42558 8.55452C7.39838 8.53374 7.38142 8.51505 7.40676 8.47653C7.4409 8.42472 7.41069 8.36203 7.42386 8.30547C7.45357 8.28635 7.48785 8.3331 7.51662 8.29919C7.5509 8.25864 7.5917 8.22495 7.61783 8.17589C7.65519 8.10598 7.64817 8.08297 7.56765 8.06832C7.5713 8.02676 7.598 8.00476 7.63164 7.98752C7.667 7.96926 7.69219 7.94502 7.67888 7.89986C7.66707 7.87821 7.63737 7.88839 7.62441 7.86869C7.70593 7.84503 7.71674 7.77678 7.7249 7.70687C7.73506 7.68883 7.75482 7.68515 7.77078 7.67584C7.7949 7.66798 7.81909 7.66026 7.84321 7.65254C7.90977 7.62851 7.89718 7.57585 7.88873 7.52477C7.84385 7.42434 7.76935 7.36063 7.66306 7.3325C7.58569 7.31201 7.50581 7.29902 7.44025 7.24412C7.41527 7.2232 7.3767 7.20927 7.35208 7.25422C7.31178 7.29967 7.28279 7.3527 7.25273 7.40508C7.24565 7.41193 7.23971 7.42102 7.23133 7.42535C7.19769 7.44281 7.15024 7.44028 7.1448 7.41835C7.13585 7.38199 7.16649 7.37124 7.19297 7.35811C7.26969 7.31987 7.28301 7.28192 7.24944 7.20465C7.23047 7.16079 7.23369 7.15119 7.28265 7.15581C7.41714 7.16844 7.54368 7.13518 7.67029 7.09795C7.67952 7.1012 7.6884 7.09954 7.69699 7.0955C7.77887 7.0916 7.86024 7.07811 7.94262 7.08244C7.97133 7.08388 8.00074 7.07753 8.01642 7.11332C8.0245 7.13193 8.04512 7.12753 8.06194 7.12666C8.08098 7.1227 8.06573 7.10076 8.0789 7.09376C8.0998 7.07811 8.12428 7.08359 8.14761 7.08172C8.18211 7.07897 8.21317 7.06967 8.22999 7.03511C8.23658 7.02609 8.24545 7.02075 8.25604 7.01801C8.27243 7.01419 8.28997 7.01549 8.30543 7.00805C8.32991 6.99644 8.34265 6.97602 8.33785 6.94918C8.33162 6.91448 8.30614 6.9191 8.28145 6.92574C8.26857 6.92913 8.25561 6.93713 8.24295 6.92559L8.2433 6.9183C8.26377 6.8849 8.23872 6.83238 8.28782 6.81117C8.33055 6.85518 8.40806 6.85806 8.42617 6.93136C8.43898 6.98324 8.45316 7.03403 8.47892 7.082C8.50161 7.12443 8.53232 7.14232 8.57841 7.13943C8.5978 7.13821 8.61734 7.13994 8.63688 7.14037C8.64762 7.14398 8.65879 7.14564 8.66974 7.14787C8.75741 7.14376 8.82677 7.1934 8.89956 7.23012C8.95488 7.25783 8.98809 7.25588 9.0276 7.21158C9.04027 7.19722 9.05823 7.18777 9.07377 7.17608C9.08329 7.17522 9.09288 7.17457 9.10146 7.17002C9.14906 7.16303 9.19866 7.16331 9.23838 7.12912C9.26122 7.10935 9.28011 7.09016 9.27267 7.0543C9.26759 7.02919 9.26122 7.00077 9.28419 6.9727C9.33107 7.00885 9.34696 7.06873 9.38826 7.10754C9.39835 7.11101 9.40544 7.11801 9.41095 7.12695C9.44974 7.13705 9.48345 7.12839 9.5085 7.09658C9.51838 7.0841 9.53004 7.07703 9.54386 7.07183C9.5999 7.05062 9.62259 7.01 9.61765 6.95026C9.61479 6.91614 9.61708 6.88165 9.61708 6.84075C9.75106 6.88129 9.83165 6.97941 9.92262 7.06592C9.90566 7.08316 9.8824 7.07984 9.8741 7.10235C9.84261 7.18727 9.77153 7.22269 9.69173 7.24607ZM8.59473 8.70032C8.60639 8.71093 8.60432 8.72312 8.59874 8.73575C8.59036 8.76345 8.59301 8.79202 8.59265 8.82038C8.58764 8.8343 8.58979 8.84902 8.58778 8.8633C8.58492 8.88293 8.58206 8.90248 8.57912 8.92218C8.57519 8.93408 8.5729 8.94606 8.57769 8.95839C8.56746 9.03552 8.56216 9.04064 8.48665 9.04136C8.45967 9.04158 8.43261 9.04136 8.4057 9.03985C8.39332 9.03905 8.38151 9.03343 8.37951 9.01871C8.37743 9.00327 8.38817 8.99338 8.40048 8.99396C8.45337 8.99605 8.46518 8.95717 8.47599 8.91857C8.49402 8.85486 8.51492 8.79289 8.55307 8.73755C8.56452 8.72081 8.57233 8.70321 8.59473 8.70032ZM8.59437 8.45358C8.59924 8.44312 8.60611 8.44161 8.61491 8.44897C8.69794 8.45286 8.69786 8.45286 8.70567 8.3691C8.70645 8.36181 8.70881 8.35467 8.71046 8.34753L8.71225 8.3287C8.71361 8.30554 8.71497 8.28238 8.7164 8.25929C8.72177 8.2489 8.72277 8.2375 8.7247 8.22625V8.12791C8.77681 8.12791 8.81882 8.14386 8.86198 8.15143L8.8768 8.15252C8.88961 8.16449 8.90929 8.15374 8.92189 8.16615L8.92225 8.16637C8.94372 8.17365 8.95925 8.18707 8.96619 8.20944C8.98158 8.23368 9.00828 8.24111 9.03118 8.25431C9.04585 8.26276 9.0606 8.27192 9.07269 8.28353C9.08837 8.29861 9.1044 8.31708 9.09796 8.34046C9.09051 8.36686 9.06546 8.35323 9.048 8.35669C9.04084 8.35806 9.03369 8.35936 9.0266 8.36073L9.00978 8.36549C8.99067 8.36289 8.97156 8.35994 8.95238 8.35777C8.92783 8.35496 8.90915 8.36362 8.90149 8.38851C8.87601 8.47083 8.81124 8.49413 8.73573 8.5025C8.72399 8.50387 8.71282 8.51 8.7013 8.5139C8.69407 8.5152 8.69106 8.52674 8.68155 8.52219C8.66687 8.53273 8.65234 8.54326 8.63781 8.55379C8.6225 8.56433 8.65148 8.60083 8.61262 8.59759C8.57805 8.55322 8.60367 8.5012 8.59437 8.45358ZM8.47577 8.14155C8.48594 8.14472 8.49639 8.14444 8.50684 8.14299C8.53224 8.12791 8.5472 8.13015 8.54255 8.16485C8.52995 8.17726 8.53453 8.19855 8.51986 8.21002C8.50991 8.21572 8.50719 8.22531 8.50612 8.23584C8.49961 8.27026 8.49252 8.30467 8.50834 8.33858C8.52122 8.35539 8.54377 8.36513 8.5467 8.39197C8.53067 8.41253 8.50132 8.402 8.48207 8.41895C8.46253 8.43627 8.46933 8.46094 8.4586 8.47826C8.43963 8.50928 8.40585 8.49225 8.37858 8.49449C8.35396 8.49658 8.3342 8.48352 8.33363 8.4569C8.33234 8.39312 8.3332 8.32927 8.3342 8.26542C8.33513 8.21095 8.38724 8.21622 8.4168 8.19508C8.42403 8.19126 8.43032 8.18606 8.43591 8.18008L8.44671 8.16961C8.43784 8.1409 8.44013 8.12373 8.47577 8.14155ZM9.32785 10.0487C9.29929 10.1021 9.28834 10.1643 9.24676 10.2107C9.2225 10.224 9.19336 10.2075 9.1696 10.2236C9.1628 10.224 9.15593 10.2243 9.1492 10.2247C9.12995 10.2213 9.14011 10.2012 9.13095 10.192L9.11707 10.1756C9.10096 10.1637 9.0966 10.1438 9.0855 10.1285C9.02875 10.104 8.96727 10.0924 8.9186 10.0469C8.88882 10.019 8.84745 10.0177 8.8126 10.05C8.80029 10.0614 8.78576 10.0705 8.77001 10.0821C8.74668 10.0647 8.75434 10.0315 8.73501 10.0137C8.71311 9.97746 8.70853 9.9362 8.70066 9.89594L8.70023 9.89529C8.67367 9.85741 8.66079 9.81059 8.62522 9.77855C8.60783 9.75727 8.58857 9.74126 8.55808 9.74587C8.54413 9.74804 8.52945 9.74616 8.51499 9.74616C8.44328 9.74609 8.44328 9.74609 8.4178 9.67387C8.39704 9.62553 8.36169 9.65093 8.33019 9.65605L8.31731 9.66846C8.24237 9.68664 8.16744 9.6865 8.0925 9.66846C8.07833 9.65432 8.0799 9.6357 8.07847 9.61796C8.09572 9.59523 8.11855 9.60757 8.13952 9.60822C8.1582 9.60295 8.17767 9.59956 8.19535 9.59184C8.27043 9.55916 8.29169 9.50353 8.26027 9.42417L8.24774 9.41732C8.22927 9.39683 8.2501 9.39582 8.26105 9.38997C8.26914 9.3842 8.27716 9.37843 8.28525 9.37273L8.30092 9.36003C8.30672 9.3526 8.31373 9.34683 8.32282 9.34402C8.33005 9.32915 8.33721 9.31429 8.34444 9.29936C8.35982 9.28262 8.36977 9.2565 8.40048 9.26502C8.42281 9.29676 8.43118 9.32742 8.39218 9.35296C8.35603 9.37655 8.35396 9.41263 8.3531 9.45101C8.3526 9.47547 8.3619 9.49156 8.38409 9.49314C8.46926 9.4992 8.51006 9.57034 8.5651 9.61875C8.60704 9.65569 8.64898 9.68296 8.70567 9.68917C8.7562 9.69472 8.80537 9.70655 8.84845 9.73895C8.87329 9.75763 8.90299 9.77206 8.93635 9.77199C8.9614 9.7647 8.98831 9.77545 9.01271 9.76391C9.0485 9.75857 9.08243 9.74667 9.11972 9.74659C9.1618 9.74652 9.19573 9.75706 9.22149 9.79089C9.24067 9.80734 9.24483 9.83505 9.26544 9.85048C9.2872 9.88454 9.29221 9.92624 9.32284 9.95791C9.34467 9.98028 9.34195 10.0223 9.32785 10.0487ZM6.93502 7.75304C6.92292 7.75246 6.91591 7.73883 6.91584 7.7249V7.65059H6.91734C6.91734 7.63328 6.91648 7.61596 6.91755 7.59872C6.92013 7.55521 6.92643 7.55312 6.96522 7.56575C7.00767 7.5796 7.02327 7.61625 7.03966 7.65001C7.0524 7.67613 7.05927 7.71192 7.03229 7.73262C7.00545 7.75333 6.96873 7.75455 6.93502 7.75304ZM6.77827 8.53352C6.76482 8.5864 6.74191 8.63489 6.71586 8.68214L6.70133 8.69809C6.6294 8.70321 6.64529 8.76316 6.63413 8.80602L6.63269 8.82456C6.6168 8.87615 6.58316 8.91265 6.53943 8.94252C6.49542 8.97253 6.45347 9.00587 6.41089 9.03804C6.38398 9.05832 6.37968 9.09237 6.36322 9.11899C6.35599 9.12693 6.35556 9.13681 6.35492 9.1467C6.34232 9.20766 6.34848 9.26429 6.394 9.31105C6.40946 9.32699 6.4091 9.34647 6.4091 9.36631C6.4091 9.39603 6.41053 9.42576 6.40903 9.45534C6.40652 9.50144 6.41905 9.53708 6.45011 9.57553C6.49556 9.63203 6.52734 9.69984 6.56262 9.76413C6.57465 9.78606 6.56828 9.81275 6.56914 9.83735C6.55368 9.86181 6.53464 9.88259 6.50851 9.89565C6.47888 9.91246 6.44274 9.91852 6.42155 9.94925C6.41468 9.98143 6.40452 10.0138 6.42578 10.0448C6.44388 10.0613 6.43716 10.0863 6.44617 10.1066C6.45684 10.1307 6.44839 10.1496 6.41647 10.149C6.38519 10.1485 6.36251 10.1708 6.33624 10.1831C6.30754 10.1966 6.27504 10.2041 6.25436 10.1792C6.22551 10.1444 6.19037 10.1487 6.15416 10.148C6.13948 10.1477 6.12481 10.1479 6.11014 10.148C6.01573 10.1487 6.01516 10.1485 5.97995 10.2429C5.96449 10.2843 5.92963 10.2602 5.90458 10.2684C5.89327 10.2824 5.87123 10.2681 5.86106 10.2852L5.86171 10.2848C5.85226 10.2911 5.83981 10.2894 5.83072 10.2965C5.82206 10.2979 5.8134 10.2992 5.80481 10.3005L5.79099 10.3047L5.77961 10.2964L5.77188 10.2843L5.77088 10.2834C5.71599 10.2914 5.6593 10.2897 5.60855 10.3182C5.5961 10.3251 5.57642 10.3265 5.5694 10.3129C5.56346 10.3015 5.56625 10.2837 5.56962 10.2699C5.57441 10.2499 5.59159 10.2548 5.60533 10.258C5.66596 10.2727 5.72593 10.2701 5.78555 10.2531L5.78598 10.2528L5.80001 10.2388L5.80094 10.2376C5.81876 10.2101 5.8217 10.178 5.829 10.1473C5.82728 10.0925 5.84088 10.0438 5.87932 10.0026C5.89019 9.99103 5.89334 9.97227 5.90007 9.95676C5.89914 9.95012 5.90021 9.9437 5.90365 9.93771C5.90458 9.92047 5.9053 9.90315 5.90615 9.88584C5.90794 9.87848 5.91374 9.873 5.91489 9.86542C5.91596 9.77459 5.9166 9.68383 5.91818 9.59307C5.91911 9.53982 5.91975 9.53867 5.9705 9.5378C6.00006 9.53737 6.02897 9.5378 6.05431 9.51933C6.06576 9.5158 6.078 9.51414 6.08831 9.50736C6.14707 9.45123 6.17649 9.38298 6.17191 9.3008C6.18064 9.29019 6.17735 9.27815 6.17627 9.26631C6.22967 9.15745 6.30002 9.05673 6.3328 8.93805C6.33774 8.92023 6.34819 8.9084 6.36007 8.89591C6.37038 8.88509 6.37832 8.87211 6.36537 8.85717C6.36845 8.85068 6.37167 8.84418 6.37496 8.83769C6.38527 8.79094 6.35986 8.73027 6.42556 8.70487C6.4738 8.69643 6.50651 8.66367 6.53958 8.63121L6.55597 8.61411L6.57107 8.59874L6.57043 8.59975L6.58732 8.58352C6.60628 8.54189 6.6377 8.51188 6.67635 8.48937C6.70441 8.47306 6.73247 8.47544 6.76031 8.49146C6.77749 8.50134 6.78357 8.51245 6.77827 8.53352ZM5.48302 9.35989C5.40965 9.37908 5.37143 9.42569 5.37337 9.50353C5.37444 9.54704 5.36728 9.58665 5.34781 9.62474C5.3534 9.64667 5.34431 9.6629 5.32784 9.67618C5.31253 9.68065 5.29707 9.68036 5.28182 9.67603C5.23136 9.6852 5.21905 9.71485 5.21941 9.76586C5.2202 9.87025 5.26865 9.95041 5.32727 10.0295C5.36105 10.0751 5.3929 10.1209 5.44093 10.1531C5.4594 10.1656 5.45646 10.1834 5.43893 10.1956C5.41889 10.2097 5.39748 10.222 5.37236 10.2254L5.35619 10.227C5.28197 10.2496 5.20946 10.243 5.13832 10.2141C5.11241 10.2205 5.08464 10.2091 5.05952 10.2228C5.02946 10.2223 5.01228 10.2458 4.98952 10.2594C4.96153 10.2761 4.94529 10.265 4.94092 10.2321C4.93319 10.174 4.97213 10.1299 4.9853 10.078C4.98895 10.064 5.00383 10.0504 5.00219 10.0381C4.9936 9.97061 5.03804 9.92905 5.07226 9.88216L5.07483 9.86484C5.0792 9.83858 5.08349 9.81239 5.08779 9.78606C5.09108 9.76607 5.09817 9.74479 5.11441 9.73556C5.16423 9.70713 5.18713 9.66074 5.20961 9.61139C5.23566 9.55404 5.29557 9.51724 5.30845 9.45108C5.31346 9.42547 5.29607 9.39647 5.31976 9.37367L5.32971 9.36277C5.41989 9.31314 5.45245 9.22223 5.48781 9.13465C5.50742 9.08638 5.53777 9.05954 5.58773 9.05586C5.60025 9.06899 5.59667 9.08609 5.59045 9.09201C5.53641 9.14338 5.54772 9.20946 5.54786 9.27295C5.54786 9.34279 5.54829 9.34279 5.48302 9.35989ZM4.86784 7.74878L4.87228 7.73702C4.874 7.72909 4.87973 7.72418 4.88559 7.71942C4.9153 7.65694 4.9732 7.62837 5.02946 7.59792C5.05801 7.55146 5.11398 7.54324 5.15127 7.50868C5.16888 7.49245 5.18999 7.47989 5.20953 7.46575C5.22786 7.45572 5.2411 7.45565 5.24067 7.48206C5.23322 7.53963 5.19572 7.56452 5.14319 7.57332C5.10339 7.57989 5.06739 7.59295 5.04849 7.6332C5.04728 7.66719 5.05293 7.70225 4.99739 7.69734C4.96211 7.69431 4.94335 7.73349 4.9153 7.75088C4.89948 7.75037 4.88223 7.78493 4.86784 7.74878ZM5.97844 7.71156C5.98181 7.70088 5.98889 7.69359 5.99877 7.68876C6.03899 7.62938 6.10634 7.61481 6.16539 7.58703C6.18751 7.57671 6.2122 7.57202 6.23203 7.55644C6.23847 7.54555 6.25307 7.54937 6.26051 7.54042L6.27161 7.53862C6.28463 7.54822 6.28284 7.55954 6.27533 7.57152C6.27948 7.62585 6.25235 7.65391 6.20089 7.66163L6.18515 7.66358C6.14349 7.67815 6.09439 7.68464 6.09489 7.74619C6.08981 7.75391 6.09246 7.76148 6.09582 7.76891C6.0901 7.78269 6.10184 7.80188 6.08294 7.81162L6.06648 7.80975C6.05238 7.80628 6.03835 7.80275 6.02432 7.79929L6.00757 7.79842C5.94101 7.78096 5.93994 7.77771 5.97844 7.71156ZM6.40123 7.42824C6.41475 7.42246 6.43079 7.42008 6.43673 7.43841C6.44202 7.45493 6.44224 7.47333 6.42105 7.47982C6.40273 7.48545 6.38348 7.48595 6.35857 7.47787C6.36709 7.45269 6.3809 7.43697 6.40123 7.42824ZM6.54015 7.21245L6.55604 7.19729L6.57121 7.18236L6.57028 7.18323L6.58553 7.16728L6.58517 7.16836C6.5909 7.16129 6.59769 7.15559 6.60621 7.15213C6.63105 7.15134 6.6342 7.17363 6.63513 7.18777C6.63806 7.23604 6.65409 7.28337 6.64636 7.33243L6.64536 7.33372C6.59447 7.3374 6.56091 7.30068 6.52533 7.27492C6.50114 7.25739 6.53156 7.23308 6.54015 7.21245ZM4.64296 10.6295C4.594 10.6188 4.54068 10.617 4.50898 10.5665C4.49516 10.5444 4.47097 10.5357 4.44528 10.5336C4.42345 10.5166 4.40477 10.4976 4.40298 10.4676C4.41378 10.4577 4.4334 10.4481 4.43397 10.4377C4.43676 10.3831 4.4724 10.3834 4.51091 10.3851C4.54448 10.3866 4.58155 10.3785 4.59415 10.4258C4.59701 10.4363 4.60832 10.4491 4.61855 10.4525C4.68884 10.4761 4.67911 10.5406 4.68941 10.5932C4.69492 10.6217 4.67467 10.6365 4.64296 10.6295ZM4.30914 9.06034C4.30857 9.07498 4.30693 9.0897 4.30764 9.10435C4.30957 9.14359 4.29733 9.15304 4.25375 9.15824C4.19241 9.16553 4.11225 9.16307 4.09571 9.25427C4.04969 9.29056 4.03917 9.36487 3.96867 9.37504C3.95328 9.34005 3.95851 9.30448 3.96588 9.26891C3.98764 9.19741 4.03731 9.15153 4.1028 9.1226C4.16242 9.09626 4.22118 9.06849 4.27801 9.03653C4.28452 9.02369 4.2934 9.02188 4.30478 9.03032C4.31623 9.03891 4.3138 9.04944 4.30914 9.06034ZM3.92644 10.3414C3.89767 10.3929 3.85036 10.3809 3.80548 10.3773C3.78909 10.372 3.7712 10.3694 3.7566 10.3611C3.68596 10.3206 3.60809 10.3373 3.53372 10.3344C3.4882 10.3328 3.45821 10.3717 3.43252 10.4216C3.41105 10.366 3.41319 10.3194 3.4235 10.2756C3.43975 10.2067 3.45234 10.136 3.48648 10.0725C3.49106 10.0638 3.49443 10.0543 3.49729 10.0448C3.50538 10.0176 3.48892 9.97818 3.51955 9.96455C3.54453 9.95351 3.57738 9.96029 3.60673 9.95971C3.66126 9.9587 3.70278 9.92674 3.74529 9.89868C3.76555 9.88519 3.78187 9.86571 3.81271 9.86903C3.78466 10.0267 3.8359 10.1474 3.97833 10.224C3.98699 10.2285 3.99279 10.2353 3.99544 10.2448C3.95915 10.2673 3.96488 10.3204 3.92644 10.3414ZM12.4032 9.44228C12.4148 9.38045 12.4381 9.32468 12.4653 9.26848C12.5055 9.18515 12.5547 9.10586 12.5521 9.00514C12.5479 8.83192 12.5482 8.82781 12.3767 8.84483C12.3231 8.85017 12.2817 8.83928 12.2522 8.7895C12.2055 8.71064 12.1513 8.63554 12.1781 8.53453C12.1844 8.51087 12.1798 8.48497 12.1648 8.46318C12.1456 8.44161 12.1161 8.43223 12.0998 8.40734C12.0904 8.39579 12.0811 8.38288 12.0679 8.37704C11.9777 8.33699 11.9394 8.26304 11.9259 8.16918C11.9219 8.14184 11.9162 8.1093 11.8834 8.0961C11.875 8.09054 11.867 8.08448 11.8591 8.07842C11.8512 8.07193 11.8426 8.06688 11.8328 8.06406C11.8185 8.05598 11.7991 8.0689 11.7858 8.05346C11.81 8.03787 11.813 8.01782 11.8033 7.98982C11.7788 7.9197 11.7525 7.85729 11.6888 7.80621C11.6308 7.75961 11.5891 7.69568 11.5133 7.66639C11.438 7.63732 11.3544 7.61077 11.3292 7.51503C11.325 7.49872 11.3073 7.48768 11.2902 7.48292C11.2288 7.46582 11.2171 7.42889 11.2352 7.36936C11.2577 7.29585 11.2429 7.26973 11.1721 7.24635C11.1313 7.23294 11.0994 7.20942 11.0873 7.17017C11.06 7.082 10.9987 7.05675 10.9138 7.05098C10.8623 7.04752 10.8017 7.0398 10.7731 6.98367C10.7449 6.92833 10.6977 6.90149 10.6446 6.87848C10.5881 6.85402 10.5239 6.84486 10.475 6.80684C10.431 6.77271 10.3858 6.75641 10.3319 6.76124C10.2771 6.76622 10.2384 6.74277 10.2088 6.69638C10.183 6.65612 10.1505 6.62178 10.097 6.62193C9.95319 6.6326 9.96077 6.61536 9.94853 6.76355C9.91038 6.76557 9.91132 6.73224 9.90473 6.70937C9.89578 6.67842 9.8902 6.64696 9.86265 6.62597C9.83394 6.60995 9.81283 6.58354 9.78384 6.56796C9.77189 6.56291 9.75808 6.56471 9.7467 6.5575C9.73446 6.56176 9.72229 6.56219 9.71012 6.55764C9.64284 6.57907 9.57564 6.57517 9.50829 6.55815L9.50206 6.55743C9.49469 6.56284 9.48717 6.5619 9.47973 6.55779C9.46599 6.56147 9.45253 6.56176 9.43958 6.55461L9.42719 6.53953C9.41739 6.50086 9.39456 6.47251 9.35956 6.45404C9.3383 6.4495 9.32062 6.4381 9.30187 6.42742C9.25757 6.40231 9.21205 6.39495 9.17017 6.43478C9.15837 6.4417 9.16051 6.47345 9.13468 6.45534C9.04657 6.29489 8.89304 6.24626 8.72914 6.21545C8.71325 6.21769 8.69736 6.22094 8.6814 6.21639C8.66909 6.21379 8.65649 6.21394 8.64397 6.2135C8.63123 6.21386 8.61913 6.21112 8.60725 6.20694C8.58714 6.20918 8.57068 6.19915 8.55357 6.19114C8.53461 6.18681 8.51557 6.19085 8.49653 6.19078C8.48264 6.1928 8.47198 6.18529 8.46103 6.17887C8.38323 6.14951 8.30171 6.17079 8.22226 6.16185C8.21603 6.15204 8.19714 6.18508 8.19714 6.15442C8.15899 6.13739 8.12106 6.14677 8.08298 6.15564C8.07138 6.16033 8.05958 6.16444 8.04719 6.16697C8.0381 6.16863 8.02908 6.17036 8.02014 6.17281C8.01119 6.17476 8.00217 6.17656 7.99301 6.17548C7.92623 6.13862 7.85867 6.10334 7.78051 6.09807C7.76491 6.09958 7.74931 6.10146 7.73385 6.09699C7.71209 6.0936 7.68969 6.09425 7.66814 6.08905C7.65504 6.09749 7.64309 6.08624 7.63057 6.08681C7.60437 6.08811 7.57767 6.08357 7.55176 6.0915C7.42615 6.09446 7.30047 6.0985 7.17479 6.08927C7.05426 6.09049 6.93602 6.10997 6.81778 6.13104C6.80347 6.13357 6.78894 6.13357 6.77455 6.13414C6.74964 6.13479 6.72481 6.13472 6.70019 6.13934C6.68358 6.14359 6.66669 6.14395 6.64994 6.14121C6.61974 6.13818 6.59147 6.14785 6.56355 6.15644C6.5098 6.17274 6.46256 6.20665 6.40516 6.21365C6.34268 6.22137 6.287 6.24308 6.24649 6.29618C6.22351 6.32634 6.18801 6.33962 6.15487 6.35607C6.11307 6.37684 6.06447 6.38016 6.02611 6.40888C6.02139 6.42287 6.01402 6.42655 6.00278 6.41501C5.95783 6.41191 5.91381 6.41854 5.87015 6.42857C5.77138 6.46313 5.67848 6.51154 5.58257 6.55288C5.56761 6.56183 5.5513 6.56457 5.53433 6.56385C5.52453 6.56399 5.51465 6.56428 5.50492 6.56435C5.41209 6.565 5.34187 6.63138 5.25598 6.65129C5.17024 6.67135 5.11083 6.72192 5.07877 6.80359C5.06753 6.83209 5.05107 6.8494 5.02123 6.85402C5.00856 6.8572 4.99668 6.86225 4.98522 6.86838L4.96984 6.8779L4.95688 6.88908L4.95108 6.89493L4.93992 6.90626L4.93448 6.91174L4.9236 6.92263L4.91816 6.92812L4.90807 6.9398L4.89934 6.95279C4.89382 6.96188 4.88731 6.97025 4.88015 6.97804L4.8745 6.98396L4.86255 6.99564L4.85618 7.00134L4.84229 7.01217L4.83471 7.01729L4.81896 7.02775C4.77809 7.06433 4.72999 7.08496 4.67803 7.10221C4.59522 7.12955 4.52866 7.17652 4.52572 7.27702C4.52494 7.3045 4.51048 7.32269 4.48829 7.33625C4.48092 7.34909 4.4724 7.3501 4.46267 7.33892C4.34493 7.32983 4.30678 7.35515 4.27143 7.4646C4.25088 7.52838 4.24437 7.59547 4.22505 7.65968C4.2088 7.71365 4.18475 7.76076 4.13222 7.78753C4.09765 7.8052 4.07803 7.83586 4.06014 7.86927C3.9983 7.98477 3.9356 8.09992 3.85745 8.20562L3.84657 8.22235L3.84098 8.23022L3.82832 8.244L3.82123 8.25006L3.80627 8.26095C3.78809 8.27372 3.77142 8.28765 3.76812 8.31182C3.77113 8.33144 3.76433 8.34803 3.75309 8.36326C3.74873 8.37206 3.74429 8.38151 3.7445 8.39132C3.74579 8.4525 3.73663 8.50676 3.68059 8.54644C3.6506 8.56772 3.64716 8.60877 3.65597 8.64253C3.67315 8.70862 3.6428 8.74614 3.58969 8.77348C3.53465 8.80183 3.50609 8.84714 3.49894 8.90847C3.49307 8.95904 3.47145 9.00002 3.43395 9.03718C3.39609 9.07462 3.35643 9.11062 3.32788 9.15903C3.26711 9.26177 3.22002 9.36876 3.19404 9.48528C3.19196 9.49992 3.18673 9.51349 3.18122 9.52691C3.16827 9.57712 3.16476 9.62936 3.15231 9.67928C3.1191 9.81232 3.10843 9.94839 3.06012 10.0809C3.01696 10.1997 3.03987 10.3393 3.05418 10.4697C3.06671 10.4804 3.06456 10.4924 3.0574 10.5047C3.06055 10.5416 3.05404 10.5788 3.05891 10.6157C3.0725 10.7193 3.12554 10.771 3.22667 10.7794C3.34999 10.7897 3.38406 10.767 3.42099 10.6499C3.42214 10.6217 3.4167 10.5923 3.43567 10.5677C3.42164 10.5858 3.423 10.6074 3.4235 10.6288C3.45284 10.7433 3.47482 10.7616 3.59134 10.7646C3.65046 10.7661 3.70965 10.7652 3.7687 10.7651C3.91535 10.7648 4.04346 10.8166 4.15712 10.9068C4.20844 10.9475 4.25096 10.9945 4.24516 11.0686C4.2428 11.0992 4.25461 11.1276 4.27279 11.1519C4.32052 11.2156 4.35667 11.2861 4.39331 11.3564C4.41851 11.4047 4.44707 11.4516 4.4928 11.4841C4.50597 11.4928 4.51993 11.4998 4.5351 11.5042C4.58878 11.5122 4.64754 11.5259 4.69149 11.4886C4.7451 11.4432 4.79312 11.4523 4.84659 11.4799C4.90563 11.5103 4.96683 11.5215 5.03146 11.4999C5.04191 11.4935 5.04814 11.4837 5.05279 11.4727C5.05966 11.4287 5.04105 11.3809 5.0724 11.3406C5.15235 11.2188 5.22156 11.0914 5.28512 10.96C5.32369 10.8804 5.3763 10.8079 5.39842 10.7201C5.40407 10.6978 5.42275 10.6833 5.43971 10.6688C5.44823 10.6623 5.45718 10.6562 5.46677 10.6512C5.5611 10.6412 5.65586 10.6482 5.75048 10.6471C5.78119 10.6467 5.80781 10.6564 5.82771 10.6811C5.8509 10.7097 5.88211 10.7175 5.91718 10.7207C5.97243 10.7256 6.02754 10.7204 6.08287 10.7232C6.09518 10.7154 6.1067 10.7147 6.11722 10.7261C6.13784 10.7344 6.16017 10.7337 6.1815 10.738C6.1923 10.7414 6.20325 10.7446 6.21428 10.7472C6.33989 10.7841 6.467 10.7939 6.59619 10.7689C6.60614 10.7619 6.61151 10.7517 6.61466 10.7402C6.61773 10.7265 6.61845 10.7125 6.62103 10.6986C6.62768 10.6748 6.644 10.6791 6.66039 10.6853C6.68716 10.6955 6.714 10.7046 6.74292 10.7051C6.78872 10.7058 6.83525 10.7085 6.87032 10.6696C6.88606 10.6524 6.89429 10.6315 6.89959 10.6091C6.90231 10.5987 6.9051 10.5883 6.90753 10.5778C6.91448 10.5393 6.92428 10.5013 6.89708 10.465C6.8608 10.4165 6.87769 10.3722 6.9134 10.3324C6.9313 10.3124 6.95127 10.2943 6.96343 10.2696L6.97553 10.2535C7.04796 10.1777 7.14623 10.1629 7.24114 10.1399C7.25166 10.1391 7.26225 10.1391 7.27284 10.1388C7.29897 10.1385 7.32509 10.1386 7.35079 10.1328C7.36567 10.129 7.38049 10.1249 7.39595 10.1251C7.42021 10.1244 7.44462 10.1251 7.46888 10.1252C7.56772 10.1271 7.66671 10.1216 7.76562 10.1281C7.83383 10.1895 7.91378 10.2056 8.00361 10.2005C8.09916 10.195 8.19556 10.2041 8.29097 10.1977C8.36505 10.1927 8.42539 10.2141 8.47992 10.2611C8.52967 10.3138 8.59759 10.297 8.65828 10.3082C8.68255 10.322 8.69049 10.3475 8.70237 10.3702L8.71268 10.3866C8.73064 10.4094 8.74145 10.4373 8.76235 10.458C8.76922 10.4651 8.77609 10.4723 8.78311 10.4792C8.8559 10.5168 8.89111 10.5784 8.89626 10.6591C8.89956 10.6696 8.90285 10.6802 8.90686 10.6905C8.93413 10.7691 8.99232 10.8097 9.07148 10.8148C9.13203 10.8185 9.19222 10.8284 9.2532 10.8255C9.31261 10.8268 9.37215 10.8217 9.43149 10.8293C9.49383 10.8289 9.53706 10.8015 9.55595 10.7398C9.59188 10.7079 9.60527 10.6679 9.5984 10.6206C9.59382 10.5892 9.58945 10.5578 9.58501 10.5264C9.57743 10.5138 9.56483 10.5052 9.55824 10.4919L9.55681 10.4782C9.55731 10.4674 9.55638 10.4569 9.5523 10.4466C9.55009 10.4404 9.54772 10.4344 9.54722 10.4274L9.54987 10.423L9.55431 10.4248C9.55753 10.4354 9.55896 10.4471 9.56411 10.4579C9.56912 10.4671 9.57957 10.4701 9.5858 10.4778L9.59317 10.4764C9.60963 10.4887 9.62624 10.4881 9.64292 10.4767C9.65923 10.4577 9.67562 10.4386 9.69194 10.4196C9.72279 10.3837 9.76072 10.3707 9.8066 10.384C9.87753 10.384 9.8776 10.384 9.88011 10.32C9.88047 10.3102 9.88032 10.3004 9.88025 10.2906C9.88004 10.2591 9.89707 10.2591 9.91769 10.2715C9.92771 10.2775 9.93493 10.2881 9.94345 10.2967L9.95712 10.3142L9.95641 10.3133L9.97136 10.3285L9.98668 10.3442L9.98589 10.3431C9.99262 10.3481 9.9977 10.3546 10.0028 10.3611C10.0088 10.365 10.0145 10.3699 10.021 10.3727C10.1066 10.4086 10.1966 10.4139 10.2869 10.4062C10.3377 10.4018 10.3657 10.4199 10.3778 10.4681C10.3795 10.4751 10.3849 10.481 10.3887 10.4873C10.4012 10.5123 10.4248 10.5227 10.4488 10.5253C10.5298 10.534 10.6069 10.5585 10.6831 10.5841C10.7454 10.6051 10.8048 10.5823 10.8655 10.5843C11.0086 10.5891 11.1563 10.6157 11.291 10.5367C11.3001 10.5261 11.3101 10.5198 11.3235 10.5294C11.4358 10.5217 11.5461 10.5111 11.5902 10.3797C11.5943 10.3676 11.6044 10.36 11.6156 10.3542C11.628 10.3497 11.6409 10.3481 11.654 10.3474C11.7079 10.3454 11.7696 10.3497 11.8081 10.3131C11.8469 10.2761 11.8672 10.2871 11.8961 10.3144C11.9279 10.3282 11.96 10.3377 11.9942 10.3223C12.0191 10.3029 12.0174 10.275 12.0169 10.2482C12.0169 10.2413 12.008 10.2384 12.0001 10.2378C11.9975 10.2376 11.9905 10.2451 11.9918 10.236C11.996 10.2049 11.9965 10.2049 11.9713 10.2017L11.9647 10.2048C11.9655 10.2147 11.9583 10.199 11.9681 10.1998C12.0218 10.1998 12.0218 10.1998 12.0493 10.1519C12.0649 10.125 12.0703 10.12 12.097 10.134C12.1032 10.1335 12.1098 10.1336 12.1166 10.1344C12.1151 10.1441 12.1201 10.1317 12.1179 10.1415L12.1168 10.1453L12.118 10.146L12.1115 10.1537L12.1168 10.1453C12.109 10.1407 12.1026 10.1369 12.097 10.134C12.0515 10.1376 12.0235 10.1762 12.0213 10.2422C12.0208 10.2559 12.0131 10.2749 12.0305 10.2821C12.0519 10.2909 12.0592 10.2695 12.0698 10.257L12.0717 10.2553L12.0729 10.2536L12.077 10.251L12.0717 10.2553C12.0619 10.2694 12.051 10.2829 12.0463 10.2999C12.0622 10.3665 12.1119 10.4007 12.17 10.4207C12.2117 10.4352 12.2467 10.4253 12.2724 10.3782C12.2936 10.3396 12.3034 10.2957 12.3306 10.2606C12.3337 10.2541 12.3361 10.2475 12.3376 10.2405C12.3429 10.2184 12.3381 10.1939 12.3528 10.174C12.3658 10.1536 12.3931 10.151 12.4064 10.1307C12.4274 10.0784 12.4397 10.0247 12.4316 9.96765C12.4318 9.95495 12.4335 9.94254 12.4404 9.93158C12.4595 9.90755 12.4927 9.90669 12.5138 9.88605L12.5286 9.87083L12.535 9.86188C12.5391 9.85532 12.5423 9.84839 12.5444 9.84096C12.5573 9.78829 12.5436 9.74659 12.5046 9.70662C12.4342 9.63433 12.3824 9.55266 12.4032 9.44228Z" fill="#FBDA1D"/>
<path fill-rule="evenodd" clip-rule="evenodd" d="M7.13075 8.35545C7.10152 8.35132 7.07308 8.34579 7.05859 8.31516C7.09098 8.31376 7.11995 8.31823 7.13075 8.35545Z" fill="#FBDA1D"/>
<path fill-rule="evenodd" clip-rule="evenodd" d="M9.73633 9.97453C9.74291 9.96232 9.7502 9.94451 9.76591 9.95372C9.77811 9.96092 9.77785 9.98444 9.76793 9.99199C9.75344 10.003 9.74949 9.9769 9.73633 9.97453Z" fill="#FBDA1D"/>
<path fill-rule="evenodd" clip-rule="evenodd" d="M6.95194 8.24023C6.94325 8.24892 6.93456 8.25761 6.92578 8.2663C6.92859 8.25165 6.93719 8.24287 6.95194 8.24023Z" fill="#FBDA1D"/>
<path fill-rule="evenodd" clip-rule="evenodd" d="M4.46875 7.35054L4.48789 7.34888C4.48227 7.35853 4.47586 7.3588 4.46875 7.35054Z" fill="#FBDA1D"/>
<path fill-rule="evenodd" clip-rule="evenodd" d="M8.19954 6.17356L8.1875 6.17967L8.19286 6.16772L8.19954 6.17356Z" fill="#FBDA1D"/>
<path fill-rule="evenodd" clip-rule="evenodd" d="M14.997 8.89332C14.9761 8.94866 14.943 8.9993 14.9459 9.0633C14.9478 9.10399 14.9167 9.13746 14.9073 9.17657L14.9072 9.17786C14.9019 9.19128 14.8922 9.2003 14.8797 9.20665L14.8778 9.20745C14.8039 9.26754 14.7171 9.2565 14.6323 9.2498C14.5942 9.24684 14.5551 9.24114 14.5202 9.21985C14.4974 9.32108 14.4301 9.37158 14.3089 9.38449C14.2522 9.39055 14.194 9.39099 14.1409 9.4171C14.0795 9.4013 14.0249 9.42324 13.9709 9.44834C13.9619 9.45123 13.9551 9.457 13.9496 9.46443L13.9506 9.46378L13.935 9.47951L13.9354 9.47864L13.9191 9.49019C13.8998 9.49192 13.8806 9.49358 13.8612 9.49531C13.8502 9.5018 13.8386 9.50022 13.827 9.49755C13.7856 9.50029 13.7454 9.51356 13.7029 9.50974C13.6709 9.50685 13.6469 9.52886 13.6279 9.55093C13.6063 9.57597 13.5823 9.58744 13.5505 9.58376C13.5223 9.58037 13.4956 9.58917 13.473 9.60245C13.4279 9.629 13.3802 9.63282 13.3304 9.62921C13.2851 9.62597 13.2447 9.63737 13.2038 9.65901C13.0779 9.72575 12.9435 9.75821 12.8003 9.74862C12.7712 9.74667 12.7516 9.74205 12.7462 9.70417C12.7355 9.62972 12.6916 9.5645 12.6797 9.48947C12.6776 9.4759 12.6695 9.46638 12.6558 9.46559C12.6343 9.46436 12.6183 9.46061 12.6173 9.43298C12.6163 9.40347 12.6219 9.37461 12.6478 9.36206C12.7005 9.33666 12.7456 9.29647 12.8046 9.28349C12.8591 9.27158 12.9124 9.25319 12.9674 9.24453C13.0472 9.23197 13.1132 9.19302 13.1769 9.14727C13.2317 9.12433 13.2894 9.14042 13.3455 9.13566C13.3692 9.14186 13.3926 9.15074 13.4168 9.15355C13.4511 9.15759 13.4813 9.15406 13.5083 9.12238C13.5512 9.0721 13.5544 9.07498 13.6099 9.10918C13.6432 9.12967 13.6779 9.12974 13.7016 9.09966C13.7441 9.0454 13.8086 9.03242 13.864 9.00233C13.9336 8.96453 14.0091 8.95522 14.0865 8.95479C14.0966 8.95479 14.1057 8.95161 14.1127 8.94368L14.1253 8.94591L14.1418 8.94635C14.2258 8.91503 14.3181 8.9097 14.3963 8.85948C14.4483 8.82601 14.5078 8.8115 14.5693 8.80653C14.5988 8.79159 14.6321 8.8084 14.6619 8.79527C14.6778 8.78907 14.6979 8.78705 14.7091 8.77601C14.7634 8.72269 14.8306 8.73113 14.8959 8.73387C14.9311 8.73539 14.9627 8.74903 14.9708 8.79051C14.9755 8.79823 14.9867 8.8009 14.9868 8.81201C14.9914 8.83531 14.9872 8.86013 14.999 8.88221L14.997 8.89332Z" fill="#FBDA1D"/>
<path fill-rule="evenodd" clip-rule="evenodd" d="M12.4937 8.24414C12.4832 8.27343 12.4621 8.28361 12.4317 8.287C12.3806 8.2927 12.3425 8.26384 12.3037 8.24097C12.2796 8.22676 12.2862 8.15569 12.3089 8.12416C12.3239 8.10331 12.35 8.08758 12.337 8.04834C12.3046 8.07756 12.2671 8.08073 12.2286 8.07611C12.1952 8.07207 12.16 8.05808 12.153 8.02575C12.1422 7.97583 12.1089 7.97338 12.0717 7.96847C12.0625 7.96724 12.0541 7.96061 12.0453 7.95649C12.0273 7.93514 12.0132 7.91176 12.0096 7.88327C11.9948 7.80398 12.0255 7.73926 12.0734 7.67988C12.0958 7.65211 12.1214 7.63551 12.1557 7.65701C12.2299 7.70355 12.2924 7.69035 12.3629 7.63912C12.4246 7.59439 12.4968 7.55947 12.5815 7.57549C12.6282 7.58429 12.6638 7.59807 12.6827 7.64634C12.6979 7.68515 12.7122 7.72397 12.7242 7.76372C12.7328 7.77707 12.7219 7.79633 12.7373 7.80766C12.8093 7.8117 12.8102 7.8117 12.8101 7.74027C12.8099 7.70059 12.8055 7.66062 12.8552 7.64612C12.884 7.63515 12.9126 7.6231 12.9428 7.64129C12.9561 7.66401 12.9556 7.69879 13.0034 7.67397C13.0324 7.65889 13.0601 7.70189 13.0883 7.71855L13.107 7.72166C13.1456 7.7249 13.1853 7.72678 13.1885 7.77995L13.2033 7.79113C13.2238 7.79936 13.2451 7.81314 13.262 7.78666C13.2799 7.75881 13.2516 7.7565 13.2385 7.74431C13.214 7.72151 13.2273 7.66206 13.2619 7.62794C13.2923 7.598 13.3142 7.61481 13.3352 7.64013C13.3463 7.65341 13.3577 7.66639 13.3742 7.6731C13.4166 7.70405 13.442 7.77526 13.4231 7.81819C13.4153 7.83608 13.3985 7.8464 13.3777 7.85166C13.3364 7.86198 13.3098 7.89445 13.2973 7.9311C13.273 8.00202 13.2252 8.03218 13.1545 8.03398C13.1469 8.03715 13.1391 8.03788 13.1311 8.03607C13.0276 8.05642 12.9236 8.05764 12.8205 8.03715C12.759 8.02496 12.7567 8.02323 12.7498 8.08838C12.7476 8.10887 12.7455 8.1277 12.7246 8.1378C12.6997 8.14501 12.6748 8.14927 12.6504 8.13535C12.6255 8.0979 12.5858 8.07618 12.5554 8.0443C12.5355 8.0233 12.5224 8.0334 12.5145 8.05836C12.4973 8.11247 12.5029 8.16904 12.4954 8.22409C12.4936 8.23065 12.493 8.23736 12.4937 8.24414Z" fill="#FBDA1D"/>
<path fill-rule="evenodd" clip-rule="evenodd" d="M13.095 7.73383C13.0856 7.74552 13.0735 7.74855 13.0682 7.73318C13.0621 7.71551 13.053 7.70216 13.0362 7.6974C13.0218 7.69336 12.9999 7.66132 12.9939 7.70865C12.9921 7.7238 12.9697 7.70692 12.9575 7.70382C12.9248 7.69545 12.9529 7.672 12.9478 7.65642C12.9752 7.62092 13.0055 7.64682 13.0344 7.65295C13.0534 7.65692 13.071 7.66623 13.089 7.67424C13.1787 7.71421 13.1785 7.71392 13.2316 7.63434C13.2396 7.62229 13.2493 7.61097 13.26 7.60094C13.2895 7.60361 13.2981 7.58838 13.2978 7.56082C13.2971 7.50448 13.2951 7.44791 13.3067 7.39222L13.3068 7.37339C13.3363 7.24432 13.3419 7.22758 13.4954 7.22527C13.5201 7.22491 13.5447 7.22462 13.5692 7.22513C13.6233 7.22621 13.6453 7.24107 13.6604 7.29222C13.6991 7.42302 13.6207 7.55267 13.4853 7.55404C13.4358 7.55462 13.409 7.59697 13.3647 7.60058C13.354 7.6075 13.3337 7.60887 13.3483 7.63001C13.3642 7.64033 13.3683 7.6588 13.3782 7.67323C13.3379 7.67712 13.3255 7.63218 13.2898 7.62056C13.2658 7.65303 13.2485 7.68744 13.237 7.72481L13.2517 7.7326C13.2801 7.73751 13.3086 7.74191 13.292 7.78303C13.2756 7.82365 13.2547 7.83101 13.2147 7.81168C13.2039 7.80641 13.1907 7.80562 13.1839 7.7935C13.1905 7.78729 13.1961 7.77979 13.2041 7.77596L13.2096 7.77423C13.2009 7.77885 13.2118 7.77192 13.2026 7.77633C13.1951 7.78087 13.1898 7.78758 13.1837 7.79335L13.1694 7.79075C13.1501 7.77654 13.1956 7.75497 13.1654 7.74328C13.1506 7.73751 13.1324 7.7492 13.1163 7.73802C13.1108 7.73426 13.1022 7.73506 13.095 7.73383Z" fill="#FBDA1D"/>
<path fill-rule="evenodd" clip-rule="evenodd" d="M13.0064 7.45074C13.0706 7.42231 13.1335 7.43285 13.1947 7.4594C13.2184 7.46964 13.2297 7.49114 13.2283 7.51913C13.2267 7.55081 13.2276 7.58277 13.2274 7.61451C13.2337 7.62584 13.2274 7.63413 13.2211 7.6425C13.2144 7.65073 13.2071 7.65838 13.1992 7.66537C13.1576 7.69611 13.1177 7.70152 13.0857 7.65282C13.0668 7.62403 13.0467 7.62555 13.0168 7.63601C12.9852 7.64698 12.9408 7.65333 12.9245 7.61877C12.9061 7.57966 12.91 7.53161 12.9244 7.48862C12.93 7.47209 12.9479 7.47087 12.9621 7.47902C12.9956 7.49821 12.9951 7.4656 13.0064 7.45074Z" fill="#FBDA1D"/>
<path fill-rule="evenodd" clip-rule="evenodd" d="M12.7427 7.81762C12.7129 7.80708 12.7245 7.78417 12.7266 7.76416C12.7494 7.7768 12.7417 7.79848 12.7427 7.81762Z" fill="#FBDA1D"/>
<path fill-rule="evenodd" clip-rule="evenodd" d="M4.15967 6.3325C4.20555 6.39166 4.28292 6.40198 4.33689 6.44866C4.34118 6.45631 4.34684 6.46294 4.35178 6.47009C4.36623 6.47932 4.38141 6.48755 4.39486 6.49808C4.43222 6.52751 4.45892 6.5638 4.45756 6.61423C4.45563 6.68292 4.46951 6.75319 4.44217 6.81949C4.42192 6.8687 4.4056 6.9205 4.36609 6.95924C4.35722 6.9925 4.33481 7.01494 4.30783 7.03391C4.28271 7.07323 4.25759 7.11262 4.23239 7.15194C4.21028 7.19754 4.1737 7.20483 4.12611 7.20302C4.07915 7.20129 4.04373 7.19429 4.01402 7.15165C3.99205 7.12005 3.96664 7.09033 3.95097 7.05512C3.92262 6.99207 3.86257 6.95953 3.8197 6.91054C3.80045 6.89676 3.80217 6.87086 3.78757 6.85434C3.75278 6.80954 3.73961 6.75867 3.74126 6.70204C3.74312 6.63278 3.74455 6.5633 3.74076 6.49418C3.7351 6.38979 3.7754 6.30682 3.85799 6.24989C3.9154 6.21043 3.98675 6.23979 4.05131 6.23229C4.08209 6.22868 4.1027 6.24369 4.11759 6.26916C4.13591 6.28741 4.14586 6.31129 4.15967 6.3325Z" fill="#FBDA1D"/>
<path fill-rule="evenodd" clip-rule="evenodd" d="M12.0443 6.79818C12.0283 6.84644 11.9987 6.8841 11.9578 6.91361C11.9441 6.92342 11.9272 6.93482 11.9219 6.94925C11.9005 7.00668 11.8524 7.02486 11.8012 7.03056C11.7597 7.03525 11.7467 7.05538 11.7444 7.0916C11.7428 7.09816 11.7396 7.10408 11.7352 7.10927C11.7347 7.14607 11.7251 7.17803 11.6884 7.19441C11.6638 7.20545 11.6377 7.20379 11.619 7.18575C11.5609 7.12991 11.4871 7.10148 11.4181 7.06469C11.3766 7.04261 11.3365 7.01909 11.322 6.96931C11.3081 6.95091 11.3111 6.93208 11.3203 6.91289L11.3196 6.91354C11.3273 6.90813 11.333 6.90128 11.335 6.89175C11.3503 6.87999 11.373 6.881 11.3842 6.86253C11.3403 6.78382 11.3519 6.65316 11.4054 6.58152C11.4364 6.54011 11.4659 6.49899 11.5087 6.46796C11.5382 6.44661 11.5422 6.40613 11.5702 6.37872C11.6202 6.32987 11.6592 6.26963 11.7028 6.21422C11.71 6.20845 11.7164 6.20196 11.7205 6.19352C11.7749 6.14063 11.8102 6.06979 11.8761 6.02751C11.8904 6.0182 11.8958 6.00175 11.8998 5.98343C11.9156 5.91265 11.9453 5.84844 11.9969 5.79606C12.0125 5.78098 12.0244 5.76143 12.0456 5.75256C12.086 5.7211 12.1304 5.74282 12.1746 5.74145C12.1946 5.67255 12.2379 5.61685 12.2825 5.55964C12.3688 5.44925 12.491 5.38302 12.5894 5.2888C12.6438 5.23678 12.7013 5.20612 12.7741 5.19234C12.8137 5.18484 12.8497 5.15821 12.8872 5.14025C12.8945 5.13397 12.901 5.12705 12.9033 5.11724C12.9378 5.06947 12.9868 5.03585 13.0219 4.98701C13.0501 4.94747 13.0786 4.90556 13.098 4.86422C13.1343 4.7863 13.1936 4.72194 13.2203 4.63876C13.236 4.58992 13.2644 4.57563 13.3118 4.5879C13.407 4.6125 13.4898 4.66221 13.533 4.75232C13.5776 4.84517 13.5724 4.94654 13.5265 5.03831C13.4974 5.09631 13.4517 5.14588 13.4134 5.19927C13.4019 5.20251 13.3944 5.20994 13.391 5.22149C13.3774 5.22906 13.3639 5.23657 13.3504 5.24407C13.3432 5.24804 13.3369 5.25323 13.3322 5.26009L13.3331 5.25915L13.3173 5.2748L13.3183 5.2743L13.3007 5.28844C13.2495 5.34435 13.2075 5.40813 13.1472 5.4569C13.1128 5.48475 13.108 5.53511 13.0932 5.57666C13.064 5.65913 13.0506 5.67024 12.9663 5.6711C12.9202 5.67154 12.8726 5.67269 12.8317 5.64701C12.8064 5.63099 12.7912 5.63987 12.7924 5.66375C12.7937 5.68972 12.777 5.71064 12.7804 5.73568C12.7775 5.74412 12.7779 5.754 12.7699 5.76013C12.76 5.78062 12.7587 5.79808 12.7677 5.82225C12.7782 5.84996 12.7803 5.88148 12.7443 5.90551C12.6223 5.98689 12.5083 6.07779 12.438 6.21235L12.4227 6.22793C12.4114 6.23089 12.404 6.23803 12.4005 6.24922C12.3424 6.36451 12.2699 6.47099 12.1995 6.57864C12.1555 6.64588 12.1183 6.71788 12.0652 6.77892C12.0564 6.78324 12.0496 6.78995 12.0443 6.79818Z" fill="#FBDA1D"/>
<path fill-rule="evenodd" clip-rule="evenodd" d="M5.39753 5.08072C5.44455 5.11867 5.47046 5.17386 5.50295 5.22234C5.56959 5.32183 5.63021 5.42565 5.68654 5.53207C5.72984 5.61403 5.78853 5.68704 5.84271 5.76243C5.88215 5.81726 5.93626 5.85384 5.9807 5.9016C5.98922 5.93739 5.98979 5.97317 5.98006 6.00881C5.97197 6.02707 5.96403 6.04532 5.95608 6.0635C5.94706 6.06653 5.94048 6.07288 5.93382 6.07916C5.89081 6.12158 5.83677 6.14366 5.78137 6.1627C5.77028 6.16653 5.75489 6.16956 5.74552 6.16479C5.65455 6.11949 5.55764 6.14669 5.4638 6.13933C5.454 6.1386 5.44419 6.13745 5.43446 6.13651C5.4273 6.13377 5.42208 6.12822 5.41606 6.12374L5.41678 6.12475L5.40118 6.10888L5.40218 6.10967L5.38658 6.09373L5.38701 6.09496L5.37412 6.07865C5.27306 5.92433 5.16456 5.77426 5.07373 5.6141C5.02026 5.51973 4.96916 5.42219 4.93209 5.31722C4.89015 5.19839 4.83646 5.08216 4.7641 4.97733C4.71751 4.90966 4.68881 4.83405 4.65868 4.75859C4.65181 4.74141 4.65231 4.72482 4.65238 4.70765C4.65302 4.6184 4.65424 4.52916 4.65388 4.43999C4.65381 4.42707 4.65352 4.41445 4.65989 4.4042C4.69747 4.34439 4.73576 4.28393 4.79137 4.24021C4.82143 4.21655 4.86345 4.23487 4.89959 4.22997C4.94218 4.2242 4.96172 4.24779 4.9877 4.27867C5.09492 4.40608 5.12949 4.55578 5.13478 4.7166C5.13521 4.72886 5.13543 4.7417 5.13271 4.75361C5.11446 4.83217 5.11188 4.83686 5.18359 4.87294C5.24522 4.90389 5.28551 4.95389 5.3281 5.00367C5.34478 5.03527 5.37255 5.05669 5.39753 5.08072Z" fill="#FBDA1D"/>
<path fill-rule="evenodd" clip-rule="evenodd" d="M9.3991 4.8615C9.39645 4.95876 9.39388 5.05601 9.3913 5.15326C9.38944 5.16538 9.38858 5.17787 9.38243 5.1889C9.38243 5.24958 9.38464 5.3091 9.35365 5.3666C9.3334 5.40412 9.33282 5.45044 9.33469 5.4943C9.3271 5.50996 9.33275 5.52799 9.32581 5.54372C9.32438 5.58773 9.32302 5.63188 9.32159 5.67597C9.31464 5.69112 9.31722 5.7067 9.31965 5.72221C9.31493 5.78512 9.33368 5.852 9.29267 5.90893C9.2629 5.95012 9.25166 6.00957 9.18925 6.02018C9.16949 6.03035 9.14945 6.02883 9.12941 6.02133C9.08117 6.01513 9.033 6.00798 8.98756 5.98973C8.95528 5.97667 8.9391 5.95561 8.93946 5.91657C8.94139 5.73065 8.94025 5.54466 8.9401 5.35866C8.94003 5.31365 8.95134 5.27072 8.96673 5.22945C8.98004 5.19381 8.98419 5.15831 8.98398 5.12087C8.98326 4.97946 8.98312 4.83813 8.98419 4.69679C8.98476 4.60733 9.00022 4.52328 9.05498 4.44702C9.07566 4.41823 9.0869 4.38346 9.11925 4.36261C9.14008 4.34912 9.14079 4.32517 9.14079 4.30237C9.14094 4.25035 9.14366 4.19811 9.14029 4.14624C9.138 4.11226 9.14831 4.08246 9.16112 4.05397C9.17357 4.02626 9.19598 4.00462 9.22904 4.00375C9.31243 4.00159 9.39588 4.00014 9.47933 4C9.49386 3.99993 9.50653 4.01046 9.5167 4.02193C9.54289 4.06306 9.54296 4.10685 9.52951 4.15194C9.50367 4.26795 9.4779 4.38396 9.45214 4.49998C9.44734 4.51015 9.44791 4.52198 9.44262 4.53208C9.45586 4.56166 9.43596 4.58879 9.43632 4.61743C9.43539 4.62486 9.42916 4.62991 9.4273 4.63698C9.42623 4.65019 9.42523 4.66346 9.42408 4.67674C9.41764 4.68705 9.4185 4.69939 9.41506 4.71057C9.42601 4.75422 9.4044 4.79628 9.40891 4.83957C9.40597 4.847 9.39989 4.85306 9.3991 4.8615Z" fill="#FBDA1D"/>
<path fill-rule="evenodd" clip-rule="evenodd" d="M10.4282 5.8981C10.45 5.8411 10.4427 5.78014 10.4508 5.72134C10.451 5.70965 10.4538 5.69833 10.4552 5.68685C10.453 5.61961 10.4741 5.55966 10.5025 5.49906C10.5424 5.41356 10.5809 5.32749 10.6303 5.24705C10.6375 5.23522 10.6518 5.22779 10.6628 5.21826C10.6788 5.22317 10.6947 5.22331 10.711 5.21985C10.8182 5.26155 10.9046 5.32728 10.9725 5.42352C11.0067 5.47178 11.0366 5.51377 11.0329 5.57589C11.0316 5.59696 11.0146 5.61103 11.0178 5.63145C11.0153 5.63837 11.0097 5.64342 11.0079 5.65071C11.0105 5.7212 10.9712 5.77841 10.949 5.8411C10.9354 5.8595 10.9319 5.88273 10.9199 5.90185C10.9002 5.97659 10.8692 6.04816 10.8599 6.12565C10.8693 6.17536 10.8496 6.22139 10.8386 6.26763C10.8292 6.30746 10.7942 6.33047 10.7579 6.34591C10.7289 6.35832 10.698 6.3729 10.6675 6.37412C10.6217 6.37607 10.6162 6.40096 10.6186 6.43646C10.6157 6.44331 10.6104 6.44887 10.6085 6.45622C10.6082 6.46842 10.6092 6.48083 10.6073 6.49273C10.602 6.52642 10.5892 6.55124 10.5477 6.54258C10.5087 6.53443 10.4658 6.55636 10.4291 6.52765C10.2939 6.40046 10.324 6.24404 10.3527 6.08799C10.3598 6.04896 10.3732 6.0118 10.3839 5.97385L10.3837 5.97429C10.3947 5.96664 10.3927 5.95336 10.3973 5.9429L10.3963 5.94326C10.4082 5.92912 10.4158 5.91188 10.4282 5.8981Z" fill="#FBDA1D"/>
<path fill-rule="evenodd" clip-rule="evenodd" d="M7.11748 4.83996C7.15348 4.79825 7.20043 4.76997 7.24581 4.74162C7.35038 4.67611 7.48959 4.74075 7.51485 4.86225C7.53375 4.95344 7.53733 5.04622 7.54492 5.13864C7.5394 5.1486 7.5384 5.1587 7.54334 5.16916C7.55021 5.29715 7.55773 5.4255 7.53797 5.55284C7.52029 5.6674 7.46919 5.76105 7.35804 5.81062C7.31753 5.82238 7.27709 5.82259 7.23658 5.81054C7.19428 5.7902 7.16221 5.76192 7.16071 5.71026C7.15599 5.69951 7.15592 5.68753 7.15198 5.67657C7.14683 5.63768 7.14174 5.59872 7.13666 5.55976L7.13609 5.54223C7.08914 5.41532 7.05922 5.28597 7.07089 5.1486C7.07568 5.09247 7.07203 5.03562 7.07153 4.97898C7.07132 4.95193 7.07024 4.92502 7.08549 4.90092C7.10581 4.8857 7.10374 4.85857 7.11748 4.83996Z" fill="#FBDA1D"/>
<path fill-rule="evenodd" clip-rule="evenodd" d="M3.03554 7.87259C3.03239 7.88132 3.02552 7.89322 3.0394 7.89611C3.05808 7.90015 3.07834 7.90296 3.09444 7.88665C3.15363 7.89459 3.20395 7.92042 3.24289 7.96609C3.25477 7.97987 3.26708 7.98918 3.28511 7.99011C3.32298 8.03131 3.34524 8.08823 3.40321 8.10915C3.45424 8.16038 3.44508 8.2238 3.42597 8.28086C3.40529 8.34277 3.368 8.39738 3.32455 8.44889C3.28826 8.49196 3.24575 8.53157 3.21948 8.58316C3.21089 8.58662 3.20402 8.59225 3.19858 8.59975L3.19923 8.59867L3.18362 8.61447L3.1847 8.61389L3.16809 8.63027C3.13846 8.65271 3.11835 8.68272 3.09745 8.71317C3.05866 8.76937 3.02044 8.77442 2.95953 8.74029C2.92124 8.71879 2.88144 8.69996 2.84215 8.68005C2.78525 8.65126 2.75655 8.60018 2.7418 8.54189C2.733 8.50733 2.73407 8.46982 2.76829 8.43764C2.72935 8.42335 2.69714 8.41376 2.67145 8.39002C2.64969 8.36989 2.61984 8.37999 2.5935 8.37877C2.52343 8.37552 2.52021 8.37263 2.5205 8.30056C2.52057 8.28086 2.52164 8.2611 2.52222 8.2414L2.53238 8.22481L2.53166 8.22574C2.53904 8.22091 2.5444 8.21449 2.54698 8.2059C2.54097 8.1826 2.52458 8.18895 2.51463 8.19833C2.46553 8.24501 2.40655 8.24551 2.34543 8.23873C2.25475 8.18332 2.17895 8.11045 2.10874 8.03131C2.10079 8.02409 2.09292 8.01688 2.08519 8.00959C2.06336 7.98535 2.05041 7.96075 2.0819 7.93434C2.10638 7.92294 2.13229 7.92446 2.15812 7.92763L2.165 7.92929C2.17666 7.92597 2.16328 7.9246 2.16378 7.92172C2.1023 7.85181 2.00818 7.84048 1.93539 7.79106C1.91349 7.77627 1.88457 7.77209 1.86954 7.74647L1.8694 7.74568C1.81479 7.70542 1.76025 7.66502 1.70564 7.62491C1.69125 7.6143 1.68231 7.5998 1.67436 7.58436C1.64559 7.52816 1.59649 7.49764 1.5393 7.4796C1.48111 7.46128 1.42271 7.44295 1.36323 7.43033C1.26496 7.40948 1.19117 7.35255 1.12747 7.2786C1.12074 7.26381 1.10893 7.25306 1.09827 7.24152C1.07522 7.2009 1.01983 7.182 1.02147 7.12493C0.990696 7.05278 0.994417 6.98093 1.02362 6.90943C1.04545 6.85409 1.05225 6.79212 1.10593 6.75164C1.12726 6.73548 1.14701 6.71846 1.17206 6.70886C1.18981 6.70201 1.211 6.70071 1.21937 6.67892C1.24528 6.6764 1.2641 6.65937 1.28479 6.64631C1.31621 6.63296 1.3482 6.63715 1.3802 6.64299C1.44375 6.66709 1.50445 6.69566 1.55662 6.74118C1.58983 6.77019 1.63285 6.78195 1.67257 6.79919C1.67586 6.82704 1.70206 6.8305 1.71952 6.84046C1.81851 6.89659 1.91556 6.95762 2.03051 6.97725C2.08269 6.98619 2.10459 7.03626 2.14424 7.06216L2.14932 7.0675C2.18139 7.09809 2.21724 7.12241 2.25661 7.14347C2.30585 7.16981 2.3533 7.2004 2.39825 7.23373C2.42302 7.25205 2.44986 7.27262 2.45859 7.30609C2.46575 7.33358 2.48063 7.34952 2.51055 7.34664C2.53181 7.33913 2.55299 7.33141 2.57303 7.34931C2.60818 7.40818 2.63723 7.46914 2.63716 7.53999C2.65434 7.56329 2.68684 7.55269 2.70587 7.57152C2.74116 7.58039 2.76757 7.6099 2.8045 7.61495L2.81595 7.62296C2.83263 7.6876 2.88466 7.67433 2.92711 7.66985C2.99274 7.66307 3.0238 7.70311 3.02545 7.77259C3.02616 7.80621 3.01421 7.84113 3.03554 7.87259Z" fill="#FBDA1D"/>
<path fill-rule="evenodd" clip-rule="evenodd" d="M3.18359 8.61761C3.18588 8.60708 3.1922 8.60067 3.20273 8.59839C3.20238 8.61077 3.19588 8.617 3.18359 8.61761Z" fill="#FBDA1D"/>
<path fill-rule="evenodd" clip-rule="evenodd" d="M3.19922 8.60295C3.20264 8.58979 3.21221 8.58434 3.22476 8.58276C3.21871 8.59251 3.2123 8.6019 3.19922 8.60295Z" fill="#FBDA1D"/>
<path fill-rule="evenodd" clip-rule="evenodd" d="M3.16992 8.63394C3.17291 8.62332 3.17896 8.61594 3.19029 8.61401C3.18897 8.6263 3.18133 8.6321 3.16992 8.63394Z" fill="#FBDA1D"/>
<path fill-rule="evenodd" clip-rule="evenodd" d="M1.94368 10.2508C1.92328 10.2203 1.88871 10.2114 1.85901 10.1954C1.78908 10.1577 1.74449 10.0916 1.69546 10.0342C1.65867 9.99111 1.63534 9.92993 1.62868 9.86818C1.62639 9.86103 1.6211 9.85541 1.61831 9.84848C1.60378 9.75411 1.60965 9.66573 1.65789 9.57764C1.68573 9.52685 1.72008 9.47786 1.7374 9.42116C1.78028 9.37931 1.83002 9.36019 1.8905 9.3695C1.91448 9.37325 1.93953 9.37145 1.964 9.36986C2.00308 9.36726 2.03357 9.37765 2.06106 9.40932C2.09563 9.44915 2.14079 9.4718 2.1969 9.46192C2.21115 9.45947 2.22653 9.46408 2.24085 9.46192C2.35401 9.44453 2.43725 9.50037 2.51576 9.57158C2.55169 9.60412 2.5897 9.63543 2.63357 9.65722C2.65519 9.66804 2.67544 9.68521 2.67451 9.7057C2.67172 9.76804 2.70894 9.77785 2.75653 9.77922C2.78466 9.79704 2.81 9.81775 2.82374 9.84956C2.83584 9.89703 2.8027 9.92445 2.77743 9.95526C2.76584 9.9585 2.75832 9.96586 2.75503 9.97762C2.74472 9.99414 2.73442 10.0107 2.72404 10.0272C2.72017 10.0353 2.71395 10.042 2.71015 10.0503C2.68761 10.0967 2.65905 10.1405 2.65025 10.1927L2.64874 10.2113C2.64688 10.2183 2.6428 10.2255 2.64352 10.2322C2.65118 10.293 2.62641 10.3373 2.57638 10.3693L2.57581 10.3704L2.56386 10.3712L2.56372 10.3708C2.4867 10.3663 2.41678 10.3464 2.36825 10.2798L2.3626 10.2754C2.26289 10.2728 2.18302 10.1995 2.08353 10.1963C2.07122 10.1959 2.05555 10.1945 2.04982 10.2054C2.02899 10.2446 1.9882 10.2392 1.9557 10.2521L1.94976 10.2505L1.94368 10.2508Z" fill="#FBDA1D"/>
<path fill-rule="evenodd" clip-rule="evenodd" d="M3.1543 8.80713L3.16201 8.81155C3.1605 8.81804 3.15759 8.81635 3.1543 8.80713Z" fill="#FBDA1D"/>
</svg>
