<svg width="254" height="196" viewBox="0 0 254 196" fill="none" xmlns="http://www.w3.org/2000/svg">
<mask id="mask0_1_509" style="mask-type:alpha" maskUnits="userSpaceOnUse" x="0" y="0" width="254" height="196">
<rect width="254" height="196" fill="#D9D9D9"/>
</mask>
<g mask="url(#mask0_1_509)">
<path d="M8.96732 153.073C8.50292 153.803 9.46889 155.607 9.64419 156.26C10.2409 158.482 10.7345 160.731 11.2518 162.973" stroke="#37473C" stroke-width="0.408075" stroke-linecap="round"/>
<path d="M9.47339 152.821C9.6742 155.833 10.5141 159.223 11.7578 161.959" stroke="#37473C" stroke-width="0.408075" stroke-linecap="round"/>
<path d="M10.7439 153.079C10.6631 151.788 11.1228 155.42 11.1669 155.618C11.3131 156.274 12.1457 160.948 12.7745 160.948" stroke="#37473C" stroke-width="0.408075" stroke-linecap="round"/>
<path d="M11.7582 151.047C11.3933 147.763 13.1583 157.509 14.0427 160.692" stroke="#37473C" stroke-width="0.408075" stroke-linecap="round"/>
<path d="M7.18992 175.665C7.01126 175.71 5.35887 176.171 6.28742 175.778C8.26268 174.942 10.275 174.177 12.2665 173.38" stroke="#37473C" stroke-width="0.408075" stroke-linecap="round"/>
<path d="M8.45866 174.139C7.68125 174.417 6.79099 174.829 8.35995 174.069C9.62597 173.455 10.8347 172.858 12.0123 172.109" stroke="#37473C" stroke-width="0.408075" stroke-linecap="round"/>
<path d="M6.42762 172.365C4.93816 172.831 4.92782 172.661 6.42762 171.942C8.25561 171.066 10.1316 170.325 12.0118 169.573" stroke="#37473C" stroke-width="0.408075" stroke-linecap="round"/>
<path d="M8.45939 170.331C7.9977 170.556 6.94067 170.814 6.62619 171.234C6.1514 171.867 8.19271 171.002 8.96705 170.839" stroke="#37473C" stroke-width="0.408075" stroke-linecap="round"/>
<path d="M79.1433 202.415C76.2916 182.567 59.5694 142.598 15.4938 141.503L74.6947 80.5911C83.2497 81.2755 102.755 86.1347 112.337 100.097C121.918 114.058 126.595 125.534 127.736 129.526M79.1433 202.415L127.736 129.526M79.1433 202.415C107.067 171.206 155.796 171.16 176.671 175.039L226.974 108.994M127.736 129.526C150.777 118.233 202.883 98.3171 226.974 108.994M226.974 108.994C235.187 111.114 245.91 123.565 250.244 129.526M193.781 210.285V223.289L76.4057 221.578V210.285H193.781ZM193.781 210.285L250.244 129.526M250.244 129.526V148.005L197.203 225M236.214 117.207L240.32 119.944L184.884 192.833C164.524 190.831 115.581 190.521 79.1433 204.732M76.4057 205.837L75.3475 218.995L5.22778 179.487V164.088M76.4057 205.837L5.22778 164.088M76.4057 205.837C77.3098 205.459 78.2226 205.091 79.1433 204.732M5.22778 164.088L7.62319 150.4M79.1433 204.732C67.9647 185.252 38.0107 147.115 7.62319 150.4M7.62319 150.4L15.4938 143.214M76.4057 103.519C84.3904 106.028 100.907 114.743 103.097 129.526" stroke="#37473C" stroke-width="3.4522" stroke-linecap="round"/>
<path d="M61.3479 123.712C69.2185 126.906 85.302 136.099 86.6708 147.324" stroke="#37473C" stroke-width="3.4522" stroke-linecap="round"/>
<path d="M144.846 137.057C152.488 133.635 171.811 126.928 187.963 127.475" stroke="#37473C" stroke-width="3.4522" stroke-linecap="round"/>
<path d="M133.554 157.28C141.196 153.858 160.519 147.15 176.671 147.698" stroke="#37473C" stroke-width="3.4522" stroke-linecap="round"/>
<path d="M38.4117 121.347C37.1695 118.553 39.272 122.878 39.6526 123.576C41.3658 126.713 42.8846 129.98 44.7574 133.024" stroke="#37473C" stroke-width="0.408075" stroke-linecap="round"/>
<path d="M38.9194 118.051C41.8288 121.542 46.2661 134.463 45.519 129.981" stroke="#37473C" stroke-width="0.408075" stroke-linecap="round"/>
<path d="M40.443 116.525C40.3555 115.825 41.8051 118.943 41.825 118.979C43.592 122.192 45.481 125.684 47.2964 128.709" stroke="#37473C" stroke-width="0.408075" stroke-linecap="round"/>
<path d="M42.4734 116.273C42.4734 116.553 42.5106 116.746 42.6426 117.007C43.8425 119.376 45.1778 121.683 46.4218 124.029C47.208 125.512 50.0059 129.644 48.8191 128.457" stroke="#37473C" stroke-width="0.408075" stroke-linecap="round"/>
<path d="M44.5033 116.523C43.4054 115.181 44.0485 116.27 44.6443 117.299C46.6441 120.753 48.4161 124.324 50.0875 127.946" stroke="#37473C" stroke-width="0.408075" stroke-linecap="round"/>
<path d="M45.5194 114.756C44.3037 112.324 46.5949 117.082 46.7321 117.322C48.5943 120.581 51.1768 123.859 52.3728 127.447" stroke="#37473C" stroke-width="0.408075" stroke-linecap="round"/>
<path d="M47.2952 111.704C44.8908 107.238 51.5892 120.937 54.4024 125.157" stroke="#37473C" stroke-width="0.408075" stroke-linecap="round"/>
<path d="M49.3279 109.677C47.5346 105.834 53.2831 117.182 55.4198 120.845" stroke="#37473C" stroke-width="0.408075" stroke-linecap="round"/>
<path d="M51.6118 108.912C50.675 106.476 52.4934 111.038 52.7682 111.591C54.0864 114.246 55.3626 116.921 56.6884 119.573" stroke="#37473C" stroke-width="0.408075" stroke-linecap="round"/>
<path d="M53.1325 108.149C53.079 107.941 52.6466 106.503 52.8081 106.879C53.3265 108.089 53.8952 109.274 54.4016 110.489C54.7747 111.385 57.6855 116.287 57.1937 116.779" stroke="#37473C" stroke-width="0.408075" stroke-linecap="round"/>
<path d="M54.1482 104.09C53.8163 103.841 53.9439 104.321 54.0071 104.513C54.5941 106.299 55.5974 107.986 56.4044 109.674C57.0855 111.1 58.4632 113.176 58.4632 114.751" stroke="#37473C" stroke-width="0.408075" stroke-linecap="round"/>
<path d="M55.9244 104.598C54.9308 101.742 56.6652 106.502 56.9397 107.136C57.8998 109.355 59.0928 111.504 59.9856 113.736" stroke="#37473C" stroke-width="0.408075" stroke-linecap="round"/>
<path d="M57.4489 100.785C56.9128 99.4149 57.3489 101.325 57.5053 101.716C58.8888 105.174 60.763 108.427 62.5254 111.7" stroke="#37473C" stroke-width="0.408075" stroke-linecap="round"/>
<path d="M59.7334 100.024C59.6815 99.9204 59.1712 98.8846 59.2539 99.4037C59.5247 101.102 60.3701 102.733 61.1576 104.24C62.1326 106.107 63.2373 108.021 64.5561 109.67" stroke="#37473C" stroke-width="0.408075" stroke-linecap="round"/>
<path d="M61.0021 96.7292C60.9911 96.6744 60.7107 96.099 60.6637 96.3626C60.4939 97.3133 61.7699 99.0288 62.1302 99.6906C63.6335 102.452 65.0957 105.281 66.8401 107.898" stroke="#37473C" stroke-width="0.408075" stroke-linecap="round"/>
<path d="M63.0325 93.9388C62.974 93.9132 62.5265 93.6316 62.6236 93.9388C63.1796 95.6997 64.5792 97.5333 65.4298 99.1423C66.5619 101.284 67.526 103.598 68.8706 105.615" stroke="#37473C" stroke-width="0.408075" stroke-linecap="round"/>
<path d="M65.0627 92.1594C65.1959 94.6892 67.4736 97.5288 68.6304 99.6897C69.3141 100.967 70.1114 102.243 70.647 103.582" stroke="#37473C" stroke-width="0.408075" stroke-linecap="round"/>
<path d="M67.0936 92.6667C67.0469 92.5267 66.4421 90.9219 66.9526 92.1308C67.6805 93.8548 68.5209 95.5312 69.4062 97.1792C70.1811 98.6215 71.056 100.034 71.6625 101.551" stroke="#37473C" stroke-width="0.408075" stroke-linecap="round"/>
<path d="M68.6172 89.623C66.9865 87.9923 69.0828 91.6162 69.3646 92.0907C70.5431 94.0756 71.8181 95.9735 72.9323 97.9993" stroke="#37473C" stroke-width="0.408075" stroke-linecap="round"/>
<path d="M69.8854 86.3179C69.8008 86.0641 69.6733 85.8207 69.6316 85.5564C69.4351 84.3121 70.7007 87.8377 71.2251 88.9831C72.149 91.0011 73.0567 93.0417 74.2005 94.9481" stroke="#37473C" stroke-width="0.408075" stroke-linecap="round"/>
<path d="M71.409 84.5471C70.798 82.9857 71.7446 85.7199 71.9026 86.0278C73.372 88.8913 74.961 91.6494 75.9779 94.7002" stroke="#37473C" stroke-width="0.408075" stroke-linecap="round"/>
<path d="M73.6939 81.5002C72.9054 79.8247 74.6407 83.8724 74.6528 83.8975C75.7752 86.2312 77.444 88.4354 78.2628 90.8919" stroke="#37473C" stroke-width="0.408075" stroke-linecap="round"/>
<path d="M75.2163 79.2141C76.4287 80.7902 77.0761 83.0473 77.9238 84.8265C78.6422 86.3344 79.348 87.8469 80.039 89.3672" stroke="#37473C" stroke-width="0.408075" stroke-linecap="round"/>
<path d="M76.739 80.2241C76.4688 79.9876 76.8534 80.943 77.0069 81.2676C78.1199 83.6208 79.2214 85.9747 80.2926 88.3466" stroke="#37473C" stroke-width="0.408075" stroke-linecap="round"/>
<path d="M36.38 123.888C36.2985 122.42 36.2203 122.723 36.7466 124.057C38.5301 128.575 41.3679 132.61 43.2333 137.087" stroke="#37473C" stroke-width="0.408075" stroke-linecap="round"/>
<path d="M34.3499 124.14C35.1119 124.309 35.8269 126.549 36.0702 127.017C37.8494 130.439 39.5932 133.835 41.2032 137.339" stroke="#37473C" stroke-width="0.408075" stroke-linecap="round"/>
<path d="M32.573 125.917C34.3794 129.625 36.1481 133.356 37.9034 137.086" stroke="#37473C" stroke-width="0.408075" stroke-linecap="round"/>
<path d="M31.5581 128.199C32.046 128.362 32.3821 129.468 32.5734 129.835C33.9448 132.467 35.1643 135.141 36.3808 137.845" stroke="#37473C" stroke-width="0.408075" stroke-linecap="round"/>
<path d="M31.5586 130.233C30.6041 128.42 31.0465 130.573 31.4458 131.432C32.7377 134.21 34.3228 136.846 35.6199 139.625" stroke="#37473C" stroke-width="0.408075" stroke-linecap="round"/>
<path d="M28.2585 131.249C30.4236 133.611 31.5777 137.217 32.8275 140.133" stroke="#37473C" stroke-width="0.408075" stroke-linecap="round"/>
<path d="M28.7664 133.783C28.5279 136.209 29.9603 138.198 30.7971 140.383" stroke="#37473C" stroke-width="0.408075" stroke-linecap="round"/>
<path d="M25.7203 133.533C23.7789 132.023 27.5444 138.165 29.0201 140.133" stroke="#37473C" stroke-width="0.408075" stroke-linecap="round"/>
<path d="M24.4509 135.056C22.9883 135.381 25.8707 140.648 26.2277 141.402" stroke="#37473C" stroke-width="0.408075" stroke-linecap="round"/>
<path d="M26.2277 134.043C25.95 134.043 25.7306 134.076 25.4662 134.17C25.0112 134.333 26.3879 133.88 26.8481 133.733C31.4949 132.25 36.0865 130.562 40.6959 128.967" stroke="#37473C" stroke-width="0.408075" stroke-linecap="round"/>
<path d="M19.1223 138.61C24.8712 136.868 30.9296 135.571 36.3826 133.026" stroke="#37473C" stroke-width="0.408075" stroke-linecap="round"/>
<path d="M24.4515 133.784C22.4061 133.784 25.3612 133.287 25.8475 133.178C30.6846 132.094 35.6967 131.4 40.4426 129.977" stroke="#37473C" stroke-width="0.408075" stroke-linecap="round"/>
<path d="M20.3894 137.085C24.9616 135.615 29.7667 134.942 34.35 133.531" stroke="#37473C" stroke-width="0.408075" stroke-linecap="round"/>
<path d="M21.4043 137.853C26.7415 136.635 32.0373 135.117 37.3955 134.045" stroke="#37473C" stroke-width="0.408075" stroke-linecap="round"/>
<path d="M21.15 138.861C19.7837 139.544 21.3323 139.106 22.0243 138.945C27.3047 137.715 32.5786 136.571 37.9027 135.561" stroke="#37473C" stroke-width="0.408075" stroke-linecap="round"/>
<path d="M24.4512 139.628C30.0378 139.255 35.7455 137.541 41.2038 136.328" stroke="#37473C" stroke-width="0.408075" stroke-linecap="round"/>
<path d="M28.0044 140.392C26.8684 140.392 30.2519 140.047 31.3606 139.8C34.6417 139.067 37.9198 138.314 41.2035 137.6" stroke="#37473C" stroke-width="0.408075" stroke-linecap="round"/>
<path d="M32.0646 140.646C31.459 140.713 32.1603 140.68 32.5018 140.575C35.898 139.53 39.3041 138.562 42.7254 137.6" stroke="#37473C" stroke-width="0.408075" stroke-linecap="round"/>
<path d="M29.0208 130.483C34.8302 130.036 40.6818 127.977 46.2811 126.422" stroke="#37473C" stroke-width="0.408075" stroke-linecap="round"/>
<path d="M30.2891 129.47C29.9568 129.47 30.8758 129.151 31.1916 129.047C36.3711 127.353 41.5866 125.765 46.7879 124.14" stroke="#37473C" stroke-width="0.408075" stroke-linecap="round"/>
<path d="M35.3644 125.916C34.7651 125.916 36.5128 125.573 37.0848 125.395C40.4747 124.335 43.8798 123.338 47.2943 122.363" stroke="#37473C" stroke-width="0.408075" stroke-linecap="round"/>
<path d="M37.3958 122.868C36.6069 123.263 39.0812 122.346 39.9341 122.121C43.9828 121.054 48.056 120.076 52.1178 119.061" stroke="#37473C" stroke-width="0.408075" stroke-linecap="round"/>
<path d="M40.4417 120.331C44.3543 119.027 48.3828 118.072 52.3716 117.031" stroke="#37473C" stroke-width="0.408075" stroke-linecap="round"/>
<path d="M42.219 118.305C37.8043 119.286 50.8312 115.539 55.1643 114.244" stroke="#37473C" stroke-width="0.408075" stroke-linecap="round"/>
<path d="M45.2647 115.002C44.7233 115.128 44.2295 115.206 45.2083 114.889C49.3378 113.554 53.5388 112.417 57.7022 111.195" stroke="#37473C" stroke-width="0.408075" stroke-linecap="round"/>
<path d="M46.5348 112.467C46.0143 112.363 47.4914 111.994 48.0013 111.846C52.2877 110.606 56.6657 109.697 61.003 108.659" stroke="#37473C" stroke-width="0.408075" stroke-linecap="round"/>
<path d="M48.3105 109.418C53.0247 108.054 57.7706 106.822 62.5249 105.61" stroke="#37473C" stroke-width="0.408075" stroke-linecap="round"/>
<path d="M51.1023 106.877C51.7559 106.078 51.221 106.673 53.6406 106.003C58.5491 104.644 62.5769 103.655 67.6011 102.308" stroke="#37473C" stroke-width="0.408075" stroke-linecap="round"/>
<path d="M52.6245 103.832C52.7168 103.693 52.6565 103.766 52.9912 103.663C54.0785 103.327 56.5366 102.653 57.278 102.45C62.2315 101.093 67.2012 99.8026 72.1693 98.5015" stroke="#37473C" stroke-width="0.408075" stroke-linecap="round"/>
<path d="M56.9418 100.283C50.4 101.217 69.7672 97.0799 76.2327 95.714" stroke="#37473C" stroke-width="0.408075" stroke-linecap="round"/>
<path d="M59.9867 98.5057C58.6661 98.2416 62.5171 97.5682 63.8223 97.2365C68.5311 96.0399 73.2702 95.0029 78.0085 93.9368" stroke="#37473C" stroke-width="0.408075" stroke-linecap="round"/>
<path d="M61.0025 94.9476C60.5072 95.381 62.291 94.6773 62.9344 94.5386C68.2928 93.3835 73.6621 92.2776 79.0243 91.1401" stroke="#37473C" stroke-width="0.408075" stroke-linecap="round"/>
<path d="M62.7792 91.9075C62.32 92.3093 63.9493 91.559 64.5419 91.414C70.081 90.0582 75.704 89.1253 81.3087 88.1001" stroke="#37473C" stroke-width="0.408075" stroke-linecap="round"/>
<path d="M64.81 89.3647C64.5241 89.0788 65.5715 89.0851 65.9663 88.9981C69.3218 88.2587 72.7143 87.6809 76.0913 87.0521C79.4317 86.43 82.7585 85.7003 86.1316 85.3035" stroke="#37473C" stroke-width="0.408075" stroke-linecap="round"/>
<path d="M64.8101 87.3381C67.4912 86.506 70.6679 86.5946 73.4402 86.3228" stroke="#37473C" stroke-width="0.408075" stroke-linecap="round"/>
<path d="M14.043 151.046C14.043 149.775 14.0756 150.612 14.1981 151.483C14.6696 154.836 15.3548 158.146 16.0736 161.453" stroke="#37473C" stroke-width="0.408075" stroke-linecap="round"/>
<path d="M15.8203 153.838C16.4348 156.691 17.2129 159.449 18.1048 162.214" stroke="#37473C" stroke-width="0.408075" stroke-linecap="round"/>
<path d="M17.8504 150.293C17.7777 149.057 17.6625 150.361 17.7517 150.956C18.3166 154.721 19.0572 158.461 19.6272 162.223" stroke="#37473C" stroke-width="0.408075" stroke-linecap="round"/>
<path d="M20.1367 154.1C20.6521 156.637 21.1709 159.173 21.6597 161.715" stroke="#37473C" stroke-width="0.408075" stroke-linecap="round"/>
<path d="M22.4199 150.796C21.8517 148.46 22.2438 153.598 22.2929 154.067C22.5383 156.412 22.8898 158.659 23.4352 160.949" stroke="#37473C" stroke-width="0.408075" stroke-linecap="round"/>
<path d="M23.6895 150.29C23.5883 149.481 23.6188 151.347 23.619 151.348C24.2108 154.808 24.8035 158.267 25.4663 161.713" stroke="#37473C" stroke-width="0.408075" stroke-linecap="round"/>
<path d="M25.9731 151.304C25.8899 149.973 26.1663 154.125 26.1987 154.294C26.7334 157.074 26.9784 160.422 28.2575 162.98" stroke="#37473C" stroke-width="0.408075" stroke-linecap="round"/>
<path d="M28.7651 154.342C28.7511 153.952 28.6419 152.802 28.5676 153.186C28.3537 154.291 28.796 155.7 29.0189 156.768C29.5391 159.258 29.9261 161.779 30.5419 164.242" stroke="#37473C" stroke-width="0.408075" stroke-linecap="round"/>
<path d="M30.0338 154.855C29.162 153.983 29.652 155.829 29.7377 156.237C30.4466 159.615 31.5415 162.911 32.3183 166.277" stroke="#37473C" stroke-width="0.408075" stroke-linecap="round"/>
<path d="M32.0661 154.605C31.2984 154.989 32.2582 157.908 32.3481 158.3C32.9793 161.053 33.7035 163.785 34.3505 166.535" stroke="#37473C" stroke-width="0.408075" stroke-linecap="round"/>
<path d="M34.3496 157.645C33.439 158.214 34.8341 162.505 34.9982 163.257C35.3723 164.97 35.8271 166.646 36.3802 168.306" stroke="#37473C" stroke-width="0.408075" stroke-linecap="round"/>
<path d="M35.873 159.927C35.0782 160.609 36.4662 165.085 36.6345 165.906C36.9557 167.474 37.4513 169 37.6498 170.588" stroke="#37473C" stroke-width="0.408075" stroke-linecap="round"/>
<path d="M37.9043 160.697C37.9043 159.849 38.0614 162.387 38.2145 163.221C38.6973 165.85 39.203 168.474 39.6811 171.104" stroke="#37473C" stroke-width="0.408075" stroke-linecap="round"/>
<path d="M40.189 163.734C40.5845 167.074 41.1289 170.329 41.7119 173.633" stroke="#37473C" stroke-width="0.408075" stroke-linecap="round"/>
<path d="M42.728 163.23C41.9281 162.786 42.3404 165.065 42.5023 165.966C42.9961 168.711 43.7053 171.372 43.9971 174.145" stroke="#37473C" stroke-width="0.408075" stroke-linecap="round"/>
<path d="M42.7256 163.992C42.6751 163.134 42.5852 163.541 42.782 164.274C43.5286 167.055 44.2108 169.805 44.7562 172.622" stroke="#37473C" stroke-width="0.408075" stroke-linecap="round"/>
<path d="M45.772 166.271C45.0975 164.079 45.7334 168.559 45.8002 168.993C46.1293 171.132 46.5191 173.263 46.7873 175.409" stroke="#37473C" stroke-width="0.408075" stroke-linecap="round"/>
<path d="M47.2948 168.561C46.4969 166.079 46.9837 169.167 47.1961 170.084C47.8236 172.792 48.3945 175.456 48.8177 178.206" stroke="#37473C" stroke-width="0.408075" stroke-linecap="round"/>
<path d="M49.3255 169.319C48.6454 167.355 49.0143 170.314 49.0716 170.87C49.2981 173.068 49.7631 175.256 50.0869 177.442" stroke="#37473C" stroke-width="0.408075" stroke-linecap="round"/>
<path d="M6.93569 163.229C6.48322 163.632 6.61753 163.367 7.16132 163.173C11.0149 161.797 14.9674 160.666 18.8656 159.422" stroke="#37473C" stroke-width="0.408075" stroke-linecap="round"/>
<path d="M5.66675 162.727C7.32927 162.588 9.15181 161.781 10.701 161.289C13.4558 160.413 16.1688 159.449 18.8658 158.412" stroke="#37473C" stroke-width="0.408075" stroke-linecap="round"/>
<path d="M7.69922 159.93C9.73824 159.774 11.9477 158.826 13.8616 158.252C16.6478 157.416 19.4233 156.576 22.1674 155.615" stroke="#37473C" stroke-width="0.408075" stroke-linecap="round"/>
<path d="M9.47613 157.394C8.90387 157.728 10.7683 157.09 11.3939 156.872C14.7372 155.708 18.0725 154.523 21.4061 153.333" stroke="#37473C" stroke-width="0.408075" stroke-linecap="round"/>
<path d="M8.71362 155.359C12.4736 154.487 16.1724 153.373 19.8821 152.313" stroke="#37473C" stroke-width="0.408075" stroke-linecap="round"/>
<path d="M8.71508 153.845C8.40315 153.783 9.30846 153.61 9.61758 153.535C13.479 152.597 17.3088 151.552 21.1527 150.545" stroke="#37473C" stroke-width="0.408075" stroke-linecap="round"/>
<path d="M8.20512 154.094C7.51759 154.458 6.57341 154.918 8.31793 154.715C10.9238 154.411 13.4995 153.826 16.0738 153.333" stroke="#37473C" stroke-width="0.408075" stroke-linecap="round"/>
<path d="M6.4292 165.007C8.30233 164.894 10.1109 164.341 11.9288 163.907C15.6032 163.03 19.2645 162.115 22.928 161.199" stroke="#37473C" stroke-width="0.408075" stroke-linecap="round"/>
<path d="M8.71362 165.768C10.2543 166.385 14.2084 164.454 15.4683 164.076C18.712 163.103 21.9615 162.148 25.2125 161.199" stroke="#37473C" stroke-width="0.408075" stroke-linecap="round"/>
<path d="M11.5042 165.772C11.0453 166.035 12.569 165.752 13.0836 165.631C17.7307 164.542 22.3577 163.376 26.9878 162.219" stroke="#37473C" stroke-width="0.408075" stroke-linecap="round"/>
<path d="M14.5509 167.287C14.5348 167.296 14.218 167.463 14.2125 167.54C14.1707 168.125 15.3819 167.413 15.947 167.258C19.8074 166.206 23.6493 165.086 27.4962 163.987" stroke="#37473C" stroke-width="0.408075" stroke-linecap="round"/>
<path d="M14.5528 168.818C14.0921 169.233 14.0483 169.234 14.9054 169.001C18.7535 167.958 22.6144 166.993 26.4827 166.026" stroke="#37473C" stroke-width="0.408075" stroke-linecap="round"/>
<path d="M16.075 170.841C20.4805 169.495 25.0519 168.61 29.5278 167.541" stroke="#37473C" stroke-width="0.408075" stroke-linecap="round"/>
<path d="M20.8966 170.839C20.5999 170.916 20.2333 171.007 19.9377 171.093C18.9151 171.39 21.997 170.55 23.026 170.275C26.2828 169.407 29.5515 168.59 32.8266 167.794" stroke="#37473C" stroke-width="0.408075" stroke-linecap="round"/>
<path d="M20.6445 172.622C23.641 172 26.5723 171.123 29.5285 170.338" stroke="#37473C" stroke-width="0.408075" stroke-linecap="round"/>
<path d="M23.9437 174.139C23.7506 174.59 24.9318 174.133 25.4103 174.026C28.6635 173.299 31.8818 172.42 35.1122 171.601" stroke="#37473C" stroke-width="0.408075" stroke-linecap="round"/>
<path d="M26.7346 175.412C25.8132 175.889 26.2618 175.734 27.1013 175.497C30.6881 174.485 34.2991 173.569 37.9031 172.62" stroke="#37473C" stroke-width="0.408075" stroke-linecap="round"/>
<path d="M27.7507 176.68C28.2798 176.878 28.7857 176.705 29.3301 176.581C31.5242 176.082 33.6958 175.467 35.8732 174.903" stroke="#37473C" stroke-width="0.408075" stroke-linecap="round"/>
<path d="M29.0208 179.225C31.2991 178.529 33.5951 177.89 35.8741 177.194" stroke="#37473C" stroke-width="0.408075" stroke-linecap="round"/>
<path d="M15.8203 161.967C16.507 164.499 17.611 166.908 18.6124 169.328" stroke="#37473C" stroke-width="0.408075" stroke-linecap="round"/>
<path d="M17.8523 160.185C18.0664 159.328 18.3398 161.882 18.5574 162.737C19.3032 165.669 20.1741 168.501 21.1521 171.353" stroke="#37473C" stroke-width="0.408075" stroke-linecap="round"/>
<path d="M20.3894 163.987C21.4297 166.571 22.301 169.214 23.1815 171.855" stroke="#37473C" stroke-width="0.408075" stroke-linecap="round"/>
<path d="M21.9141 163.734C23.0329 166.283 23.5135 169.173 24.1985 171.857" stroke="#37473C" stroke-width="0.408075" stroke-linecap="round"/>
<path d="M23.9441 163.99C24.4207 163.275 24.5547 165.6 24.7761 166.43C25.5073 169.172 26.2433 171.913 26.99 174.651" stroke="#37473C" stroke-width="0.408075" stroke-linecap="round"/>
<path d="M26.7363 166.279C26.9119 169.527 28.326 173.172 29.5284 176.178" stroke="#37473C" stroke-width="0.408075" stroke-linecap="round"/>
<path d="M30.5415 168.306C30.461 166.938 30.3964 168.858 30.4851 169.307C30.9713 171.771 31.7527 174.188 32.0644 176.682" stroke="#37473C" stroke-width="0.408075" stroke-linecap="round"/>
<path d="M33.0818 171.861C32.5119 170.911 32.7786 172.514 32.828 172.792C33.2429 175.128 33.7759 177.43 34.351 179.73" stroke="#37473C" stroke-width="0.408075" stroke-linecap="round"/>
<path d="M35.367 171.601C34.2849 172.007 36.5565 179.262 36.89 180.485" stroke="#37473C" stroke-width="0.408075" stroke-linecap="round"/>
<path d="M37.3951 174.404C37.1227 171.953 37.9111 179.311 38.1566 181.765" stroke="#37473C" stroke-width="0.408075" stroke-linecap="round"/>
<path d="M39.4269 176.173C39.3902 175.842 39.0508 175.574 38.9757 176.089C38.6333 178.436 39.9457 181.554 40.4422 183.788" stroke="#37473C" stroke-width="0.408075" stroke-linecap="round"/>
<path d="M40.9499 177.958C40.8969 177.215 40.8352 178.422 40.8512 178.551C41.1401 180.862 41.8854 183.076 42.4729 185.319" stroke="#37473C" stroke-width="0.408075" stroke-linecap="round"/>
<path d="M42.2188 179.732C42.2188 177.923 42.8693 183.29 43.2341 185.062" stroke="#37473C" stroke-width="0.408075" stroke-linecap="round"/>
<path d="M43.2339 179.981C43.3799 181.587 44.0806 183.255 44.503 184.804" stroke="#37473C" stroke-width="0.408075" stroke-linecap="round"/>
<path d="M5.92188 179.477C9.19336 177.967 12.6853 176.866 16.075 175.669" stroke="#37473C" stroke-width="0.408075" stroke-linecap="round"/>
<path d="M8.96752 176.941C8.50918 176.941 8.89399 176.947 10.0674 176.433C12.4519 175.39 14.6842 174.433 17.09 173.387" stroke="#37473C" stroke-width="0.408075" stroke-linecap="round"/>
<path d="M4.14467 178.969C3.58546 179.039 4.58881 178.94 4.68052 178.913C8.30925 177.832 11.936 176.743 15.5669 175.669" stroke="#37473C" stroke-width="0.408075" stroke-linecap="round"/>
<path d="M8.20548 178.205C6.44044 179.317 8.80555 178.356 9.57333 178.135C11.8263 177.486 14.0739 176.819 16.328 176.175" stroke="#37473C" stroke-width="0.408075" stroke-linecap="round"/>
<path d="M8.71408 179.727C5.20299 180.956 15.8252 177.54 19.3749 176.427" stroke="#37473C" stroke-width="0.408075" stroke-linecap="round"/>
<path d="M13.0276 179.732C12.4606 179.9 9.48274 180.874 11.9982 180.155C15.0057 179.296 17.9438 178.221 20.8963 177.194" stroke="#37473C" stroke-width="0.408075" stroke-linecap="round"/>
<path d="M16.0736 180.232C15.4366 180.524 11.2719 181.921 13.8456 180.994C16.0962 180.183 18.365 179.438 20.6425 178.709" stroke="#37473C" stroke-width="0.408075" stroke-linecap="round"/>
<path d="M16.5825 180.994C15.2175 181.551 13.8456 182.081 12.4508 182.559C9.31844 183.634 12.3732 182.395 13.1417 182.122C16.7057 180.858 20.3934 179.988 23.9435 178.709" stroke="#37473C" stroke-width="0.408075" stroke-linecap="round"/>
<path d="M18.3576 182.262C16.9042 182.767 15.4469 183.328 13.9438 183.673C13.754 183.716 13.5496 183.821 13.3657 183.757C12.9487 183.612 14.1376 183.322 14.5502 183.165C17.191 182.161 19.9481 181.473 22.6727 180.739" stroke="#37473C" stroke-width="0.408075" stroke-linecap="round"/>
<path d="M19.1221 183.792C18.0128 184.228 17.7496 184.338 16.6402 184.751C16.3309 184.866 16.02 184.977 15.7095 185.09C15.2489 185.256 15.0789 185.309 15.7801 185.075C17.9024 184.368 20.0318 183.694 22.1681 183.031" stroke="#37473C" stroke-width="0.408075" stroke-linecap="round"/>
<path d="M20.1357 185.563C19.2224 185.915 18.6327 186.156 17.7102 186.465C17.4212 186.562 17.13 186.653 16.8359 186.733C16.2321 186.898 16.4659 186.775 16.8641 186.634C19.1323 185.831 21.4244 185.111 23.6893 184.294" stroke="#37473C" stroke-width="0.408075" stroke-linecap="round"/>
<path d="M22.6736 185.569C21.5611 185.971 18.2376 187.213 19.3598 186.839C21.47 186.135 23.5984 185.478 25.7196 184.808" stroke="#37473C" stroke-width="0.408075" stroke-linecap="round"/>
<path d="M24.1982 186.585C22.5641 187.266 17.6754 189.34 19.2909 188.616C20.5726 188.041 21.8625 187.559 23.1829 187.093" stroke="#37473C" stroke-width="0.408075" stroke-linecap="round"/>
<path d="M23.9437 187.848C22.7944 188.352 21.8002 188.775 20.6721 189.315C20.1977 189.542 18.7647 190.054 19.2902 190.076C20.8053 190.139 23.3102 188.625 24.7052 188.102" stroke="#37473C" stroke-width="0.408075" stroke-linecap="round"/>
<path d="M24.4512 189.625C24.1953 189.753 22.1602 190.891 22.1808 190.909C22.569 191.232 24.9531 190.06 25.4665 189.879" stroke="#37473C" stroke-width="0.408075" stroke-linecap="round"/>
<path d="M23.4355 191.655C23.1835 191.783 21.8276 192.642 21.8279 192.642C22.8832 192.488 23.951 191.991 24.9584 191.655" stroke="#37473C" stroke-width="0.408075" stroke-linecap="round"/>
<path d="M27.2425 191.15C26.5382 191.557 24.5943 192.267 24.2248 193.04C24.0654 193.373 24.951 192.888 25.2965 192.758C26.1857 192.421 27.1246 192.009 28.004 191.658" stroke="#37473C" stroke-width="0.408075" stroke-linecap="round"/>
<path d="M29.781 191.403C28.7614 191.856 27.7261 192.285 26.721 192.771C25.8147 193.208 28.5928 192.03 29.5272 191.656" stroke="#37473C" stroke-width="0.408075" stroke-linecap="round"/>
<path d="M29.5264 191.655C28.6243 192.068 27.7254 192.459 26.7625 192.712C25.1305 193.142 26.5563 192.644 26.4804 192.416" stroke="#37473C" stroke-width="0.408075" stroke-linecap="round"/>
<path d="M94.1716 184.11C95.5213 183.84 96.9482 183.14 98.2121 182.689C101.409 181.549 104.61 180.417 107.808 179.28" stroke="#37473C" stroke-width="0.408075" stroke-linecap="round"/>
<path d="M92.1836 183.831C91.6661 184.556 93.9063 183.369 94.7405 183.058C99.7792 181.178 104.795 179.265 109.798 177.297" stroke="#37473C" stroke-width="0.408075" stroke-linecap="round"/>
<path d="M99.0008 179.566C96.5183 180.695 99.348 179.362 100.327 178.998C103.836 177.694 107.391 176.516 110.933 175.305" stroke="#37473C" stroke-width="0.408075" stroke-linecap="round"/>
<path d="M100.139 177.578C96.6055 179.295 103.451 176.458 103.579 176.411C107.192 175.074 110.899 173.903 114.344 172.181" stroke="#37473C" stroke-width="0.408075" stroke-linecap="round"/>
<path d="M99.2861 175.586C98.4921 176.049 101.07 175.133 101.938 174.829C106.357 173.28 110.772 171.723 115.196 170.188" stroke="#37473C" stroke-width="0.408075" stroke-linecap="round"/>
<path d="M101.843 173.319C101.628 173.38 101.03 173.411 101.212 173.54C101.969 174.081 103.03 173.13 103.91 172.83C108.017 171.431 112.034 169.83 116.048 168.205" stroke="#37473C" stroke-width="0.408075" stroke-linecap="round"/>
<path d="M104.115 170.478C102.532 171.228 104.575 170.412 105.126 170.21C108.794 168.866 112.415 167.37 116.048 165.932" stroke="#37473C" stroke-width="0.408075" stroke-linecap="round"/>
<path d="M105.82 167.354C102.144 168.909 113.223 164.364 116.9 162.808" stroke="#37473C" stroke-width="0.408075" stroke-linecap="round"/>
<path d="M108.092 164.51C107.406 164.795 105.851 165.538 107.729 164.842C111.943 163.279 116.116 161.582 120.309 159.965" stroke="#37473C" stroke-width="0.408075" stroke-linecap="round"/>
<path d="M109.798 162.24C106.273 163.75 117.015 159.639 120.594 158.262" stroke="#37473C" stroke-width="0.408075" stroke-linecap="round"/>
<path d="M110.366 160.82C107.689 161.776 112.111 160.467 112.244 160.426C115.252 159.497 118.219 158.514 121.162 157.411" stroke="#37473C" stroke-width="0.408075" stroke-linecap="round"/>
<path d="M111.217 158.541C109.069 159.863 113.179 158.086 113.285 158.052C116.274 157.1 119.136 156.081 122.013 154.848" stroke="#37473C" stroke-width="0.408075" stroke-linecap="round"/>
<path d="M114.343 155.983C110.099 157.87 123.114 152.915 127.411 151.154" stroke="#37473C" stroke-width="0.408075" stroke-linecap="round"/>
<path d="M113.206 154.567C113.026 154.653 111.967 155.083 113.001 154.693C117.141 153.134 121.283 151.58 125.423 150.022" stroke="#37473C" stroke-width="0.408075" stroke-linecap="round"/>
<path d="M114.627 152.291C113.512 152.356 114.675 152.219 115.416 151.959C118.968 150.716 122.48 149.38 125.991 148.029" stroke="#37473C" stroke-width="0.408075" stroke-linecap="round"/>
<path d="M117.184 149.163C117.062 149.222 115.671 149.789 116.774 149.321C120.272 147.837 123.868 146.553 127.412 145.186" stroke="#37473C" stroke-width="0.408075" stroke-linecap="round"/>
<path d="M118.32 146.323C117.342 146.559 117.714 146.451 118.541 146.197C122.503 144.98 126.355 143.465 130.252 142.062" stroke="#37473C" stroke-width="0.408075" stroke-linecap="round"/>
<path d="M120.024 144.901C118.045 145.241 120.973 144.307 121.16 144.239C124.23 143.114 127.227 141.874 130.252 140.64" stroke="#37473C" stroke-width="0.408075" stroke-linecap="round"/>
<path d="M119.457 142.07C123.587 140.789 127.63 139.041 131.673 137.525" stroke="#37473C" stroke-width="0.408075" stroke-linecap="round"/>
<path d="M119.74 139.792C118.138 140.18 119.254 139.789 120.593 139.318C124.926 137.793 129.298 136.396 133.661 134.962" stroke="#37473C" stroke-width="0.408075" stroke-linecap="round"/>
<path d="M119.172 137.516C113.656 139.24 130.142 133.871 135.65 132.119" stroke="#37473C" stroke-width="0.408075" stroke-linecap="round"/>
<path d="M120.876 135.247C120.876 134.718 131.802 131.969 132.24 131.838" stroke="#37473C" stroke-width="0.408075" stroke-linecap="round"/>
<path d="M123.149 133.257C123.834 133.16 124.481 132.891 125.138 132.689" stroke="#37473C" stroke-width="0.408075" stroke-linecap="round"/>
<path d="M99.854 174.734C101.208 175.186 102.255 179.651 102.695 180.7" stroke="#37473C" stroke-width="0.408075" stroke-linecap="round"/>
<path d="M104.115 169.903C104.115 167.652 105.356 174.234 105.819 176.437" stroke="#37473C" stroke-width="0.408075" stroke-linecap="round"/>
<path d="M102.695 169.627C102.92 172.783 103.953 175.873 104.4 179.002" stroke="#37473C" stroke-width="0.408075" stroke-linecap="round"/>
<path d="M103.263 171.329C102.153 171.884 104.21 178.238 104.4 179.284" stroke="#37473C" stroke-width="0.408075" stroke-linecap="round"/>
<path d="M105.819 167.915C105.819 165.545 105.842 172.662 106.103 175.017" stroke="#37473C" stroke-width="0.408075" stroke-linecap="round"/>
<path d="M105.536 168.205C106.155 165.655 106.463 169.979 106.657 170.841C107.012 172.415 107.325 173.994 107.525 175.592" stroke="#37473C" stroke-width="0.408075" stroke-linecap="round"/>
<path d="M106.388 165.927C106.038 162.77 107.732 172.147 108.093 175.303" stroke="#37473C" stroke-width="0.408075" stroke-linecap="round"/>
<path d="M107.809 164.795C107.961 161.767 109.447 170.637 110.082 173.602" stroke="#37473C" stroke-width="0.408075" stroke-linecap="round"/>
<path d="M109.513 161.956C109.39 160.842 109.538 163.196 109.577 163.36C110.249 166.2 110.735 169.085 111.502 171.899" stroke="#37473C" stroke-width="0.408075" stroke-linecap="round"/>
<path d="M110.364 160.251C110.331 159.651 110.102 158.575 110.538 159.951C111.49 162.955 112.279 165.977 112.921 169.058" stroke="#37473C" stroke-width="0.408075" stroke-linecap="round"/>
<path d="M112.638 155.7C113.5 159.432 114.436 163.266 114.911 167.063" stroke="#37473C" stroke-width="0.408075" stroke-linecap="round"/>
<path d="M114.06 152.865C115.696 156.733 116.368 160.995 117.185 165.081" stroke="#37473C" stroke-width="0.408075" stroke-linecap="round"/>
<path d="M117.184 153.427C117.44 156.76 118.475 160.116 119.173 163.37" stroke="#37473C" stroke-width="0.408075" stroke-linecap="round"/>
<path d="M118.889 148.88C119.153 153.726 120.385 158.582 121.161 163.369" stroke="#37473C" stroke-width="0.408075" stroke-linecap="round"/>
<path d="M123.717 141.214C123.082 140.658 123.743 142.911 123.907 143.739C124.397 146.215 124.893 148.69 125.422 151.157" stroke="#37473C" stroke-width="0.408075" stroke-linecap="round"/>
<path d="M121.445 143.199C120.369 142.243 121.119 145.756 121.129 145.819C121.606 148.783 122.96 152.147 122.297 155.131" stroke="#37473C" stroke-width="0.408075" stroke-linecap="round"/>
<path d="M125.707 138.369C125.16 135.088 126.275 144.998 126.559 148.312" stroke="#37473C" stroke-width="0.408075" stroke-linecap="round"/>
<path d="M127.126 137.235C126.709 133.899 128.219 143.872 128.831 147.179" stroke="#37473C" stroke-width="0.408075" stroke-linecap="round"/>
<path d="M131.671 131.271C131.485 130.61 131.162 129.752 131.261 131.066C131.409 133.042 131.702 134.989 131.955 136.953" stroke="#37473C" stroke-width="0.408075" stroke-linecap="round"/>
<path d="M129.115 136.955C129.286 138.284 129.484 139.607 129.683 140.932" stroke="#37473C" stroke-width="0.408075" stroke-linecap="round"/>
<path d="M129.683 134.682C129.979 137.245 130.444 139.799 130.819 142.352" stroke="#37473C" stroke-width="0.408075" stroke-linecap="round"/>
<path d="M131.673 130.416C131.673 132.976 132.192 135.559 132.525 138.087" stroke="#37473C" stroke-width="0.408075" stroke-linecap="round"/>
<path d="M132.241 128.995C133.339 129.406 133.522 134.977 133.662 135.813" stroke="#37473C" stroke-width="0.408075" stroke-linecap="round"/>
<path d="M134.798 129.845C134.686 129.719 134.386 129.051 134.293 129.53C133.958 131.25 134.795 133.577 135.082 135.243" stroke="#37473C" stroke-width="0.408075" stroke-linecap="round"/>
<path d="M136.203 68.444C132.212 52.1731 131.659 19.4471 161.376 18.7103C168.949 18.5056 184.463 22.7627 185.936 41.4281C185.936 42.3491 185.629 54.015 169.051 72.4349L165.674 75.5049L154.008 91.7758C146.149 95.2142 137.796 93.1076 134.668 84.7148L136.203 68.444Z" fill="#FBDA1D"/>
<path d="M136.203 68.444C132.212 52.1731 131.659 19.4471 161.376 18.7103C168.949 18.5056 184.463 22.7627 185.936 41.4281C185.936 42.3491 185.629 54.015 169.051 72.4349L165.674 75.5049M136.203 68.444C143.325 76.5487 158.818 76.5282 165.674 75.5049M136.203 68.444L134.668 84.7148C137.796 93.1076 146.149 95.2142 154.008 91.7758L165.674 75.5049M109.187 16.2543L124.537 26.6922" stroke="#37473C" stroke-width="3.09706" stroke-linecap="round"/>
<path d="M139.273 -8L147.562 8.2709" stroke="#37473C" stroke-width="3.09706" stroke-linecap="round"/>
<path d="M190.235 -1.55542L177.034 12.5665" stroke="#37473C" stroke-width="3.09706" stroke-linecap="round"/>
<path d="M214.486 27.6097L196.066 34.0567" stroke="#37473C" stroke-width="3.09706" stroke-linecap="round"/>
<path d="M138.045 64.7625C143.878 65.0694 157.632 66.7272 165.982 70.9024" stroke="#37473C" stroke-width="0.619412" stroke-linecap="round"/>
<path d="M148.482 68.1357C152.166 58.7211 157.938 39.8305 151.552 39.5849C145.166 39.3393 146.845 42.9619 148.482 44.8038C151.347 46.5435 158.367 50.0842 163.525 50.3298C168.682 50.5754 171.2 49.6134 171.814 49.1018C172.121 47.6691 171.691 44.8038 167.516 44.8038C163.341 44.8038 159.227 61.9957 157.692 70.5916" stroke="#37473C" stroke-width="0.619412" stroke-linecap="round"/>
</g>
</svg>
