<svg width="296" height="229" viewBox="0 0 296 229" fill="none" xmlns="http://www.w3.org/2000/svg">
<mask id="mask0_1_711" style="mask-type:alpha" maskUnits="userSpaceOnUse" x="0" y="0" width="296" height="229">
<rect width="295.98" height="228.394" fill="#D9D9D9"/>
</mask>
<g mask="url(#mask0_1_711)">
<path d="M47.335 136.87L50.5687 263.67L155.5 259.069M47.335 136.87L106.04 134.297M47.335 136.87L34.006 137.454L51.246 96.0778L145.241 91.958M155.5 259.069L152.958 200.55L179.475 199.388M155.5 259.069L182.016 257.909M106.04 134.297L247.271 128.107M106.04 134.297L145.241 91.958M145.241 91.958L174.434 60.4291M307.394 125.472L312.896 252.171L208.533 256.746M307.394 125.472L247.271 128.107M307.394 125.472L318.455 124.988L292.871 85.4877L205.523 89.316M208.533 256.746L205.991 198.226L179.475 199.388M208.533 256.746L182.016 257.909M247.271 128.107L205.523 89.316M205.523 89.316L174.434 60.4291M174.434 60.4291L173.139 30.6006M173.139 30.6006L172.189 8.72636L201.967 7.42125L202.917 29.2955L173.139 30.6006ZM96.1823 159.207L125.535 157.92L126.522 180.647L97.1692 181.933M96.1823 159.207L66.8298 160.493L67.8169 183.22L97.1692 181.933M96.1823 159.207L97.1692 181.933M259.534 152.047L290.02 150.711L291.009 173.437L260.522 174.774M259.534 152.047L229.048 153.383L230.035 176.11L260.522 174.774M259.534 152.047L260.522 174.774M98.2181 206.08L127.57 204.793L128.582 228.088L99.2297 229.375M98.2181 206.08L68.8655 207.366L69.8772 230.661L99.2297 229.375M98.2181 206.08L99.2297 229.375M261.57 198.921L292.058 197.584L293.07 220.879L262.582 222.215M261.57 198.921L231.084 200.257L232.095 223.551L262.582 222.215M261.57 198.921L262.582 222.215M179.475 199.388L182.016 257.909" stroke="#37473C" stroke-width="2.31371"/>
<path d="M177.909 160.174C192.946 159.515 204.604 146.771 203.95 131.709C203.296 116.647 190.577 104.972 175.541 105.631C160.504 106.29 148.845 119.034 149.5 134.096C150.154 149.157 162.873 160.833 177.909 160.174Z" fill="#FBDA1D" stroke="#37473C" stroke-width="1.6196"/>
<path d="M190.147 121.217L176.152 132.646L176.855 148.838" stroke="#37473C" stroke-width="2.31371"/>
<path d="M47.929 109.771C47.4591 110.359 48.4612 109.784 48.5929 109.695C52.1302 107.295 55.797 105.074 59.3448 102.683" stroke="#37473C" stroke-width="0.462742" stroke-linecap="round"/>
<path d="M45.0895 116.765C50.4158 114.317 55.2433 110.728 60.1287 107.513" stroke="#37473C" stroke-width="0.462742" stroke-linecap="round"/>
<path d="M40.036 125.589C47.2372 121.58 53.9142 116.344 60.5845 111.513" stroke="#37473C" stroke-width="0.462742" stroke-linecap="round"/>
<path d="M37.4533 131.996C38.3522 131.792 39.3759 130.863 40.068 130.386C45.8077 126.427 51.3094 122.184 56.8601 117.97" stroke="#37473C" stroke-width="0.462742" stroke-linecap="round"/>
<path d="M40.7316 134.996C42.4742 134.231 44.0508 133.063 45.6218 132.013C50.2654 128.912 54.7901 125.664 59.3444 122.437" stroke="#37473C" stroke-width="0.462742" stroke-linecap="round"/>
<path d="M44.7906 136.273C51.5318 132.365 58.0294 127.934 64.545 123.663" stroke="#37473C" stroke-width="0.462742" stroke-linecap="round"/>
<path d="M49.9724 137.177C51.8615 136.652 54.01 134.743 55.5574 133.734C60.2005 130.707 64.811 127.627 69.4413 124.58" stroke="#37473C" stroke-width="0.462742" stroke-linecap="round"/>
<path d="M57.3718 136.284C60.2132 135.22 62.7576 133.092 65.2635 131.451C68.5779 129.28 71.9001 127.13 75.1779 124.906" stroke="#37473C" stroke-width="0.462742" stroke-linecap="round"/>
<path d="M64.1982 135.419C63.8132 136.485 64.8286 135.968 65.4156 135.652C70.9031 132.701 76.0125 128.933 81.2104 125.508" stroke="#37473C" stroke-width="0.462742" stroke-linecap="round"/>
<path d="M72.1585 134.488C72.9911 134.368 73.9141 133.645 74.5666 133.237C79.2328 130.315 83.7423 127.145 88.2895 124.042" stroke="#37473C" stroke-width="0.462742" stroke-linecap="round"/>
<path d="M78.972 133.335C78.7893 133.374 78.8928 133.44 79.072 133.443C80.0452 133.454 81.5829 132.283 82.2135 131.888C86.3892 129.275 90.4623 126.492 94.5695 123.773" stroke="#37473C" stroke-width="0.462742" stroke-linecap="round"/>
<path d="M84.9788 133.352C86.4447 133.041 87.8345 132.002 89.0819 131.263C92.3487 129.327 95.637 127.452 98.9383 125.58" stroke="#37473C" stroke-width="0.462742" stroke-linecap="round"/>
<path d="M92.117 133.051C94.3673 132.642 96.7381 130.588 98.5844 129.441C100.95 127.972 103.252 126.399 105.791 125.291" stroke="#37473C" stroke-width="0.462742" stroke-linecap="round"/>
<path d="M97.8197 132.796C98.1806 132.78 98.4359 132.729 98.762 132.547C101.237 131.169 103.545 129.428 105.898 127.859" stroke="#37473C" stroke-width="0.462742" stroke-linecap="round"/>
<path d="M52.0225 98.7129C51.7691 98.7976 54.2428 108.147 54.4798 109.203" stroke="#37473C" stroke-width="0.462742" stroke-linecap="round"/>
<path d="M49.9844 104.527C50.3991 108.899 51.8688 113.3 52.8388 117.577" stroke="#37473C" stroke-width="0.462742" stroke-linecap="round"/>
<path d="M46.7197 108.401C46.8428 109.314 47.3541 110.219 47.6304 111.082C48.7475 114.569 49.5712 118.146 50.4428 121.7" stroke="#37473C" stroke-width="0.462742" stroke-linecap="round"/>
<path d="M44.3784 113.661C44.8707 117.535 46.2848 121.472 47.1707 125.282" stroke="#37473C" stroke-width="0.462742" stroke-linecap="round"/>
<path d="M41.9937 118.061C42.1879 122.533 43.455 127.035 44.2896 131.422" stroke="#37473C" stroke-width="0.462742" stroke-linecap="round"/>
<path d="M38.1616 121.942C38.4983 124.592 39.9289 127.362 40.7924 129.847" stroke="#37473C" stroke-width="0.462742" stroke-linecap="round"/>
<path d="M52.446 128.194C52.7364 128.56 52.7351 128.944 52.8473 129.386C53.3128 131.221 54.2687 132.944 55.0147 134.669" stroke="#37473C" stroke-width="0.462742" stroke-linecap="round"/>
<path d="M56.8909 125.137C57.0354 128.465 59.0252 132.065 60.4648 135.005" stroke="#37473C" stroke-width="0.462742" stroke-linecap="round"/>
<path d="M60.262 123.841C61.9186 126.967 63.3906 130.204 64.9651 133.373" stroke="#37473C" stroke-width="0.462742" stroke-linecap="round"/>
<path d="M65.8706 121.301C66.0308 122.414 67.027 123.64 67.5376 124.57C69.0694 127.357 70.508 130.171 71.8145 133.071" stroke="#37473C" stroke-width="0.462742" stroke-linecap="round"/>
<path d="M72.4695 121.875C72.9817 125.677 75.7921 129.344 77.2347 132.837" stroke="#37473C" stroke-width="0.462742" stroke-linecap="round"/>
<path d="M78.314 124.773C79.9273 127.681 81.4688 130.637 83.2654 133.435" stroke="#37473C" stroke-width="0.462742" stroke-linecap="round"/>
<path d="M84.0774 125.658C84.034 125.356 83.5615 124.055 84.1146 125.052C85.4971 127.544 86.3718 130.361 87.5397 132.953" stroke="#37473C" stroke-width="0.462742" stroke-linecap="round"/>
<path d="M88.8499 123.736C89.0686 126.453 90.9337 129.177 92.0514 131.615" stroke="#37473C" stroke-width="0.462742" stroke-linecap="round"/>
<path d="M94.906 124.904C94.8358 123.288 95.5579 125.017 95.8919 125.656C97.1733 128.111 98.2662 130.712 99.8326 132.995" stroke="#37473C" stroke-width="0.462742" stroke-linecap="round"/>
<path d="M101.415 123.471C103.226 125.299 103.955 128.762 104.89 131.052" stroke="#37473C" stroke-width="0.462742" stroke-linecap="round"/>
<path d="M47.7952 126.394C48.2413 126.43 48.2825 127.308 48.4039 127.608C49.4458 130.18 50.889 132.626 52.1757 135.081" stroke="#37473C" stroke-width="0.462742" stroke-linecap="round"/>
<path d="M50.2012 162.096C51.2866 162.868 59.1242 152.018 60.2769 150.484" stroke="#37473C" stroke-width="0.462742" stroke-linecap="round"/>
<path d="M49.786 146.067C51.2844 146.002 53.4268 143.54 54.5013 142.71" stroke="#37473C" stroke-width="0.462742" stroke-linecap="round"/>
<path d="M50.5832 151.195C50.4288 151.364 49.5424 152.115 49.8809 151.846C53.215 149.205 56.4029 146.338 59.6911 143.635" stroke="#37473C" stroke-width="0.462742" stroke-linecap="round"/>
<path d="M50.0109 157.802C50.5755 157.714 50.9345 156.969 51.2449 156.586C53.6433 153.628 56.2046 150.812 58.7342 147.968" stroke="#37473C" stroke-width="0.462742" stroke-linecap="round"/>
<path d="M50.8205 169.804C54.4147 165.875 58.0999 162.029 61.7521 158.154" stroke="#37473C" stroke-width="0.462742" stroke-linecap="round"/>
<path d="M50.3564 165.807C50.432 166.212 51.0393 165.492 51.1333 165.407C53.8646 162.934 56.3152 160.076 58.8562 157.415" stroke="#37473C" stroke-width="0.462742" stroke-linecap="round"/>
<path d="M51.7678 178.354C48.5798 182.278 58.741 171.031 62.1538 167.301" stroke="#37473C" stroke-width="0.462742" stroke-linecap="round"/>
<path d="M50.0402 178.14C53.1478 174.578 56.0546 170.846 58.9989 167.149" stroke="#37473C" stroke-width="0.462742" stroke-linecap="round"/>
<path d="M49.8294 186.461C50.1649 187.159 51.2769 185.833 51.8443 185.306C54.8125 182.551 57.6528 179.643 60.5625 176.825" stroke="#37473C" stroke-width="0.462742" stroke-linecap="round"/>
<path d="M50.714 193.582C53.8316 189.673 57.4548 186.213 60.8144 182.541" stroke="#37473C" stroke-width="0.462742" stroke-linecap="round"/>
<path d="M51.4077 196.41C52.6608 195.78 53.5222 194.682 54.4656 193.666C56.2498 191.746 58.0677 189.879 59.9075 188.017" stroke="#37473C" stroke-width="0.462742" stroke-linecap="round"/>
<path d="M51.852 200.107C51.4395 200.615 51.0348 201.563 51.9678 200.579C54.8584 197.53 57.7364 194.468 60.6248 191.416" stroke="#37473C" stroke-width="0.462742" stroke-linecap="round"/>
<path d="M52.0747 205.255C55.0417 201.579 58.1917 198.066 61.3312 194.538" stroke="#37473C" stroke-width="0.462742" stroke-linecap="round"/>
<path d="M52.2398 208.985C51.4594 210.861 52.6047 209.3 53.2075 208.593C56.5039 204.723 59.9774 201.02 63.457 197.323" stroke="#37473C" stroke-width="0.462742" stroke-linecap="round"/>
<path d="M52.9823 212.947C56.4418 209.166 59.8405 205.334 63.3558 201.608" stroke="#37473C" stroke-width="0.462742" stroke-linecap="round"/>
<path d="M53.6757 215.773C52.939 217.544 54.0999 216.366 54.8118 215.596C57.3977 212.797 59.8757 209.894 62.4485 207.082" stroke="#37473C" stroke-width="0.462742" stroke-linecap="round"/>
<path d="M52.2616 222.725C54.4481 220.335 56.4518 217.786 58.5155 215.291" stroke="#37473C" stroke-width="0.462742" stroke-linecap="round"/>
<path d="M52.5333 229.022C52.6302 229.48 53.1758 228.34 53.4728 227.978C55.6594 225.315 57.9102 222.71 60.1521 220.095" stroke="#37473C" stroke-width="0.462742" stroke-linecap="round"/>
<path d="M50.6392 237.978C54.919 233.024 59.0063 227.905 63.1344 222.823" stroke="#37473C" stroke-width="0.462742" stroke-linecap="round"/>
<path d="M54.0851 244.988C57.8802 239.626 61.9579 234.473 65.9847 229.286" stroke="#37473C" stroke-width="0.462742" stroke-linecap="round"/>
<path d="M53.0505 142.206C53.5718 144.673 55.4412 147.212 56.5126 149.502" stroke="#37473C" stroke-width="0.462742" stroke-linecap="round"/>
<path d="M50.5115 142.899C52.0966 148.249 54.1323 153.462 56.0585 158.695" stroke="#37473C" stroke-width="0.462742" stroke-linecap="round"/>
<path d="M49.9631 150.069C50.5582 153.069 52.1769 156.149 53.2422 158.996C54.587 162.589 55.9556 166.148 57.1113 169.806" stroke="#37473C" stroke-width="0.462742" stroke-linecap="round"/>
<path d="M50.8325 156.909C51.1153 159.008 52.2609 161.163 53.0078 163.1C54.24 166.294 55.4786 169.482 56.6651 172.694" stroke="#37473C" stroke-width="0.462742" stroke-linecap="round"/>
<path d="M49.4028 170.148C50.8001 170.907 52.2397 175.798 52.7299 176.892C54.3822 180.582 55.8395 184.29 57.047 188.145" stroke="#37473C" stroke-width="0.462742" stroke-linecap="round"/>
<path d="M50.2585 183.283C52.7775 188.061 54.1547 193.394 55.7808 198.509" stroke="#37473C" stroke-width="0.462742" stroke-linecap="round"/>
<path d="M49.2827 193.639C53.1372 200.92 56.6384 208.355 59.4087 216.109" stroke="#37473C" stroke-width="0.462742" stroke-linecap="round"/>
<path d="M51.0222 207.309C53.3482 213.402 55.6446 219.482 57.8225 225.629" stroke="#37473C" stroke-width="0.462742" stroke-linecap="round"/>
<path d="M51.3958 215.885C54.4559 221.617 56.6205 227.862 59.0399 233.882" stroke="#37473C" stroke-width="0.462742" stroke-linecap="round"/>
<path d="M51.8025 225.329C52.0413 226.532 52.7382 227.872 53.1676 228.961C55.2638 234.276 57.5485 239.492 59.7942 244.743" stroke="#37473C" stroke-width="0.462742" stroke-linecap="round"/>
</g>
</svg>
