<svg width="26" height="13" viewBox="0 0 26 13" fill="none" xmlns="http://www.w3.org/2000/svg">
<path fill-rule="evenodd" clip-rule="evenodd" d="M0.03125 5.64806V6.96149H18.0382C19.9018 6.96149 21.1689 6.59084 22.9268 6.59084V6.67625C19.41 8.1605 17.9325 9.81722 16.7375 11.3587L18.1083 12.4151C19.8672 9.90262 21.8711 8.0469 25.4235 6.64723V5.93413C21.872 4.53446 19.8672 2.70775 18.1083 0.195312L16.7375 1.22351C17.9325 2.79316 19.41 4.44905 22.9268 5.9333V6.01953C21.1689 6.01953 19.9018 5.64806 18.0382 5.64806H0.03125Z" fill="black"/>
<path fill-rule="evenodd" clip-rule="evenodd" d="M17.9415 6.91233C18.7336 6.92311 18.943 6.92726 18.7761 6.97452C18.6092 7.02013 18.0531 7.06325 17.3371 7.06242C17.0171 7.06407 16.8463 7.07651 16.8088 7.08895C16.5263 7.08895 16.2458 7.09061 15.991 7.09144C15.592 7.09061 15.3619 7.05993 14.9639 7.045C14.7595 7.03671 14.4839 7.03671 14.2301 7.0392C13.6989 7.02792 13.1675 7.02432 12.6361 7.02842C11.6278 7.03671 10.2768 7.07071 9.31287 7.0392C8.22354 7.00271 8.07837 7.02013 6.91003 7.01681C6.29278 7.01432 5.3516 7.02262 4.89434 6.99442C4.45782 6.96706 3.89193 6.85014 5.70121 6.87502C5.92004 6.88158 6.13915 6.87549 6.35698 6.85678C7.49568 6.84019 8.49908 6.86507 9.64865 6.87004C10.1411 6.86825 10.6336 6.86631 11.1261 6.86424L12.1127 6.84766C12.3438 6.85595 12.5799 6.86258 12.7892 6.86839C13.122 6.87668 13.525 6.86258 13.8578 6.86258C14.1442 6.86175 14.5728 6.87336 14.8819 6.86424L17.6354 6.89989C17.6996 6.9057 17.7934 6.90985 17.9415 6.91233Z" fill="black"/>
<path fill-rule="evenodd" clip-rule="evenodd" d="M5.16564 5.60176C5.39082 5.58103 5.57747 5.56196 6.02881 5.55699C6.42681 5.55201 6.78136 5.56196 7.17936 5.56445C7.57835 5.56942 7.99611 5.55533 8.39411 5.58352C8.79211 5.60508 9.06173 5.57274 9.46072 5.55699C9.85971 5.5404 10.3328 5.55782 10.7318 5.5744L11.4152 5.59347C11.6147 5.6001 11.8033 5.60425 12.0028 5.60176C12.4008 5.6001 12.8028 5.57689 13.2008 5.56445C13.5998 5.55201 13.8625 5.56694 14.2605 5.57606L14.9133 5.58767C15.1128 5.59181 15.3725 5.57108 15.572 5.57108C15.971 5.56942 16.4539 5.5802 16.8529 5.57191L17.9887 5.55035C18.3727 5.54906 18.7565 5.56956 19.1372 5.61171L20.3935 5.75599C20.7855 5.80823 21.1648 5.86379 21.5578 5.90276C21.9529 5.94173 22.3311 5.96412 22.7301 5.96495L22.7983 5.96661L22.741 6.01387C22.7588 5.94753 22.7173 5.93924 22.6225 5.89281L22.3815 5.77838C22.2037 5.70292 21.9953 5.60011 21.8215 5.51802C21.456 5.35241 21.0992 5.17369 20.752 4.98236C20.4215 4.80965 20.1066 4.61676 19.8098 4.40524C19.5056 4.18468 19.3693 4.02713 19.0888 3.78916C18.8024 3.55367 18.437 3.20624 18.1753 2.95334C17.9185 2.69629 17.642 2.41934 17.407 2.14736L17.085 1.7933L16.77 1.42597L16.5724 1.16892L16.5398 1.12415C16.5438 1.11171 16.5675 1.10093 16.5793 1.08849L16.6712 1.01884C16.7107 0.989817 16.7502 0.960795 16.7917 0.928457L17.2163 0.626633L17.7101 0.276715L17.8395 0.178871L18.0519 0.0130331C18.0736 -0.0159885 18.0854 0.00971629 18.0983 0.0296168L18.1378 0.0843433L18.2138 0.192138L18.3057 0.323979C18.4963 0.615853 18.6731 0.865439 18.8884 1.14488C18.997 1.28418 19.0819 1.39363 19.1985 1.52713C19.314 1.66312 19.392 1.77589 19.5224 1.90192L19.7515 2.10922C19.9688 2.33642 20.195 2.56445 20.4349 2.78169C20.5297 2.87373 20.6157 2.97324 20.7164 3.06196L21.1213 3.421C21.2576 3.5404 21.4354 3.68136 21.5845 3.78999C21.7326 3.90027 21.863 4.00558 22.0161 4.11171C22.3282 4.32896 22.6778 4.57108 23.0155 4.7618C23.3365 4.94422 23.7217 5.14073 24.0594 5.29828C24.411 5.45168 24.6569 5.54704 25.0125 5.69132C25.1172 5.73609 25.2199 5.77838 25.3246 5.82399L25.3878 5.85135C25.4045 5.86213 25.3927 5.88866 25.3957 5.90608V6.01802L25.3927 6.14488L25.3848 6.71702L24.7547 6.99563L24.2016 7.25268C23.8688 7.41022 23.5814 7.52797 23.2595 7.70541C22.9257 7.87954 22.58 8.09845 22.2719 8.30326C21.9549 8.51056 21.5894 8.75102 21.309 8.99314C21.0285 9.2278 20.7875 9.46164 20.5317 9.71454C20.2631 9.98817 20.0972 10.1548 19.8434 10.4144C19.5965 10.6739 19.3535 10.9368 19.1155 11.2038C19 11.3389 18.8834 11.4575 18.7718 11.596C18.7175 11.6656 18.6405 11.7941 18.5891 11.8655C18.5387 11.9368 18.3975 12.1333 18.358 12.2104C18.3511 12.222 18.3521 12.227 18.3521 12.227L18.0825 12.6374C18.0035 12.596 17.9116 12.5114 17.8326 12.455L17.6756 12.3356L17.641 12.3074C17.4874 12.181 17.329 12.0588 17.166 11.9409L16.8055 11.6548L16.5586 11.4558L16.7453 11.2129C16.9299 10.9774 17.1304 10.7419 17.3457 10.5023C17.4672 10.3713 17.6657 10.1391 17.7516 10.0329C17.8603 9.8895 17.9975 9.73941 18.1427 9.57938C18.3304 9.39696 18.5229 9.21039 18.7136 9.04372C18.7945 8.96827 18.8785 8.89945 18.9614 8.83062C19.4256 8.45666 19.9115 8.14654 20.2394 7.97905C20.3322 7.93344 20.4744 7.84057 20.6443 7.74439C21.1035 7.46661 21.5243 7.21371 21.9213 6.99314C22.0329 6.93593 22.1445 6.87954 22.259 6.8273L22.4408 6.7419C22.4704 6.73361 22.505 6.71039 22.4724 6.6938L22.3716 6.7021L22.3222 6.70624L22.1731 6.71453L21.8759 6.73361C21.4867 6.75848 21.1421 6.77838 20.75 6.8215L20.6828 6.82979C19.7841 6.89364 20.5446 6.69712 21.7662 6.54206L21.9223 6.53045C22.1405 6.51719 22.2511 6.50226 22.5988 6.50309L22.8911 6.55284C22.9365 6.55948 22.9079 6.65235 22.9109 6.6739C22.903 6.69215 22.8575 6.72946 22.8318 6.75682C22.4151 6.98153 22.1899 7.05865 21.9252 7.20293C21.564 7.34692 21.2178 7.51611 20.8902 7.70873C20.7559 7.78833 20.592 7.8812 20.511 7.94671C19.9603 8.34258 19.4279 8.7561 18.915 9.18635L18.8824 9.21537C18.6869 9.38535 18.4676 9.57523 18.1763 9.83062C18.0262 9.95998 17.8079 10.2038 17.6864 10.3588L17.0643 11.1822L16.8667 11.4243C16.8825 11.4376 16.8638 11.4235 16.9092 11.4608L17.0257 11.5537L17.2687 11.7444L17.7477 12.1092L17.9847 12.2883C18.038 12.3257 18.0114 12.3132 18.0252 12.3107C18.0331 12.3024 18.0321 12.3397 18.0459 12.3315C18.0361 12.3514 18.121 12.2295 18.1931 12.1275C18.2652 12.0222 18.3412 11.9185 18.3718 11.8854C18.4331 11.8182 18.4123 11.8688 18.4667 11.7983L18.6326 11.5744L19.0335 11.052C19.2478 10.7684 19.3239 10.6076 19.5639 10.3364C19.8039 10.0653 20.0725 9.82565 20.347 9.57938C20.6167 9.33062 21.0077 8.99066 21.307 8.76595C21.6161 8.54289 21.8709 8.37789 22.1879 8.16478C22.499 7.95417 22.8299 7.74024 23.1587 7.5487C23.4748 7.35798 23.7345 7.20873 24.0673 7.03626C24.3834 6.8754 24.7468 6.72614 25.0856 6.5885C25.128 6.56943 25.1172 6.60259 25.126 6.54704L25.1458 6.35964C25.1537 6.27921 25.1596 6.14405 25.1616 6.00807C25.1616 5.96661 25.1655 5.9749 25.0767 5.93924L24.8742 5.8613C24.5739 5.75322 24.2793 5.63426 23.9913 5.50475C23.9064 5.46578 23.8283 5.42183 23.7543 5.38286C23.4224 5.2079 23.139 5.03957 22.817 4.85135C22.4862 4.64571 22.2097 4.44256 21.8926 4.22365L21.4324 3.90359L20.9831 3.56362C20.8362 3.45508 20.6935 3.34253 20.5554 3.22614C20.4132 3.10674 20.2196 2.92597 20.0873 2.79828C19.9599 2.66727 19.8365 2.51967 19.714 2.38617C19.5955 2.25018 19.5649 2.17307 19.4543 2.03294L19.0987 1.60093C18.9822 1.46411 18.8874 1.31403 18.7748 1.17556C18.5565 0.89529 18.3551 0.663117 18.1477 0.376218L18.0459 0.240231C18.038 0.221159 18.0262 0.227793 18.0124 0.244377L17.9699 0.283349L17.5442 0.647362C17.4028 0.766238 17.2565 0.88101 17.1057 0.991475L16.8924 1.14902C16.8776 1.16892 16.8549 1.14073 16.9102 1.21784L17.1847 1.61751C17.2875 1.76013 17.5502 2.03791 17.6627 2.17307C17.8859 2.4467 18.0835 2.67639 18.3333 2.93343C18.5881 3.18634 18.8765 3.48899 19.1728 3.71204C19.4631 3.93592 19.6933 4.06859 20.0043 4.2734C20.3115 4.4807 20.7322 4.72697 21.0502 4.92266C21.3732 5.11337 21.5302 5.25433 21.8679 5.42846C22.0358 5.51802 22.2363 5.62581 22.4111 5.70375L22.66 5.81818L22.8042 5.88286L22.8457 5.90193C22.8496 5.91271 22.8467 5.92681 22.8476 5.93841V6.05616H22.7983L22.7449 6.0545C22.335 6.05372 21.9253 6.03601 21.5173 6.00143C21.1203 5.96744 20.7036 5.90773 20.3105 5.86296C19.9165 5.81652 19.6251 5.81321 19.2311 5.78916C18.836 5.76594 18.3797 5.73941 17.9857 5.73775L16.686 5.73609C16.286 5.72697 15.9858 5.70707 15.5858 5.70541H14.9636L14.4264 5.72697C14.0274 5.73775 13.7489 5.72117 13.3499 5.70873C12.9529 5.69629 12.3662 5.70127 11.9672 5.70044C11.7687 5.69795 11.6789 5.69215 11.4804 5.69795L10.8187 5.71702C10.4207 5.7336 9.85576 5.74687 9.45677 5.72946C9.05877 5.71287 8.59459 5.67307 8.19659 5.69463C7.79859 5.722 7.56848 5.7137 7.16949 5.71868C6.77148 5.72117 6.40212 5.73941 6.00412 5.73526C5.68531 5.73346 5.36658 5.72627 5.04812 5.7137C4.83875 5.70209 4.87233 5.67888 4.80319 5.66229C4.70641 5.63825 4.94837 5.62083 5.16564 5.60176Z" fill="black"/>
<mask id="mask0_1456_3011" style="mask-type:luminance" maskUnits="userSpaceOnUse" x="0" y="5" width="1" height="2">
<path d="M0.4375 6.98047V5.62972H-7.17426e-06V6.98047H0.4375Z" fill="black"/>
</mask>
<g mask="url(#mask0_1456_3011)">
<path fill-rule="evenodd" clip-rule="evenodd" d="M0.108214 6.6803L0.0983382 6.83287L0.0845118 6.9216C0.186235 6.93652 0.30771 6.95725 0.152656 6.97135L0.0124169 6.98047C-0.00437227 6.71845 -0.00437229 6.30883 0.00945412 6.04597C0.0252557 5.73917 0.066735 5.48959 0.091425 5.71844C0.115174 6.03866 0.120448 6.35966 0.107227 6.6803" fill="black"/>
</g>
<path fill-rule="evenodd" clip-rule="evenodd" d="M0.0939576 5.70259C-0.0443065 5.66693 -0.00480247 5.63791 0.742811 5.62547C1.38673 5.61635 1.92003 5.61967 2.2568 5.65284C2.56592 5.68269 2.3921 5.71088 1.79461 5.72498C1.11909 5.74156 0.289503 5.75317 0.0939576 5.70259ZM1.16155 6.92398C1.0223 6.95881 1.06279 6.98866 1.80942 7.0011C2.45334 7.01022 2.98763 7.0069 3.3244 6.97374C3.63352 6.94388 3.45871 6.91569 2.8622 6.9016C2.18668 6.88501 1.3571 6.8734 1.16155 6.92398Z" fill="black"/>
</svg>
