<svg width="25" height="24" viewBox="0 0 25 24" fill="none" xmlns="http://www.w3.org/2000/svg">
<path fill-rule="evenodd" clip-rule="evenodd" d="M0.513702 13.1844L10.8766 13.226C12.6257 13.2331 14.0915 13.0625 15.536 12.8944L15.536 12.8944C16.9389 12.7311 18.3216 12.5702 19.9241 12.5767L19.9234 12.7347C13.4057 15.4546 10.6598 18.5088 8.43738 21.3519L10.9657 23.3166C14.2387 18.6812 17.9599 15.2627 24.5429 12.6996L24.5482 11.3802C17.9879 8.76415 14.2922 5.36953 11.0566 0.708008L8.51279 2.60014C10.7121 5.51315 13.4333 8.58781 19.929 11.3601L19.9283 11.5196C18.3258 11.5132 16.9445 11.3408 15.5429 11.1659C14.0999 10.9858 12.6355 10.803 10.8863 10.796L0.513702 10.7543V13.1844Z" fill="black"/>
</svg>
