<svg width="151" height="256" viewBox="0 0 151 256" fill="none" xmlns="http://www.w3.org/2000/svg">
<path d="M127.927 2C122.469 3.6374 117.751 14.8754 115.087 19.538C111.457 25.8895 106.869 31.6096 103.656 38.955C101.672 43.488 99.382 47.0411 98.3316 52.0302C97.2461 57.1865 93.9828 61.3131 92.851 66.1232C91.9229 70.0677 91.5109 75.4477 91.2851 79.5115C91.0567 83.624 88.4665 86.4456 88.4665 90.7859C88.4665 101.117 90.8105 105.029 96.9223 113.178C100.191 117.536 108.37 126.018 113.834 126.018C132.434 126.018 149.066 114.209 149.066 93.6045C149.066 73.6723 123.602 76.293 109.606 76.6929C98.8366 77.0006 93.7788 84.4867 84.9433 88.672C73.268 94.2024 67.8809 107.49 59.1844 116.467C47.9703 128.042 40.0664 140.934 31.3899 154.283C23.2416 166.819 14.9547 180.154 8.44957 193.665C-0.555847 212.368 2.49919 233.958 2.49919 254.265" stroke="#D1D1D1" stroke-width="3" stroke-linecap="round" stroke-dasharray="12 12"/>
</svg>
