<svg width="10" height="8" viewBox="0 0 10 8" fill="none" xmlns="http://www.w3.org/2000/svg">
<path fill-rule="evenodd" clip-rule="evenodd" d="M4.46292 0V1.70028C4.46292 2.47395 4.54098 3.12198 4.6179 3.76057C4.6926 4.38078 4.76624 4.99207 4.76624 5.70087H4.69634C3.48171 2.82287 2.12594 1.6138 0.864492 0.635881L0 1.75766C2.05605 3.19707 3.57468 4.83691 4.72009 7.74401H5.30366C6.44907 4.83772 7.94395 3.19707 10 1.75766L9.15858 0.635882C7.87406 1.6138 6.51897 2.82287 5.30434 5.70087H5.23377C5.23377 4.99207 5.30756 4.38078 5.38244 3.76057L5.38244 3.76056C5.45953 3.12198 5.53776 2.47394 5.53776 1.70028V0H4.46292Z" fill="black"/>
</svg>
