<svg width="475" height="108" viewBox="0 0 475 108" fill="none" xmlns="http://www.w3.org/2000/svg">
<path d="M2 43.9603C11.8448 44.8289 23.5525 45.6511 32.6914 49.5975C35.7253 50.9075 38.8099 53.0446 42.0868 53.6688C56.8927 56.489 69.6616 65.0998 85.1487 65.0998C100.781 65.0998 118.869 68.1529 131.969 57.7401C146.251 46.3873 156.782 37.3428 154.126 18.7494C153.473 14.1763 150.582 10.8656 147.863 7.24016C141.441 -1.32195 118.048 1.42742 111.143 9.58899C106.992 14.4939 103.791 21.376 102.374 27.675C98.1754 46.3335 109.045 58.5119 121.791 70.4238C129.916 78.0176 139.608 86.1312 148.724 92.3463C171.537 107.901 207.916 105.505 233.438 105.969C264.746 106.539 295.063 88.0163 323.321 76.061C343.686 67.4448 364.977 59.9313 386.426 54.4517C415.466 47.0326 444.88 51.5964 472.706 60.8719" stroke="#CFCFCF" stroke-width="3" stroke-linecap="round" stroke-dasharray="12 12"/>
</svg>
