<svg width="415" height="25" viewBox="0 0 415 25" fill="none" xmlns="http://www.w3.org/2000/svg">
<path d="M2 13.375C31.5872 11.2929 61.2167 9.81989 90.816 7.91959C115.275 6.34928 140.162 5.69042 164.457 2.17701C165.213 2.06769 166.146 1.64836 165.273 2.67949C162.528 5.92073 158.98 8.66432 155.806 11.4369C152.265 14.5299 148.968 17.5961 145.737 20.984C145.196 21.5502 144.704 22.023 144.318 22.7067C144.078 23.1331 144.258 22.988 144.815 22.9221C160.465 21.0692 176.14 19.4452 191.829 17.9691C251.361 12.3679 310.54 9.91017 370.312 10.8627C383.983 11.0805 399.429 12.9332 413 9.4988" stroke="#F6AC27" stroke-width="3" stroke-linecap="round"/>
</svg>
