<svg width="42" height="42" viewBox="0 0 42 42" fill="none" xmlns="http://www.w3.org/2000/svg">
<path d="M21.26 21.052C23.5876 21.052 25.4746 19.165 25.4746 16.8374C25.4746 14.5097 23.5876 12.6228 21.26 12.6228C18.9323 12.6228 17.0454 14.5097 17.0454 16.8374C17.0454 19.165 18.9323 21.052 21.26 21.052Z" fill="white"/>
<path d="M30.6678 16.9809C30.6678 11.5471 26.5068 7.1272 21.391 7.1272C16.2752 7.1272 12.1143 11.5471 12.1143 16.9832C12.1154 17.2544 12.2443 23.7551 19.6743 35.2094C19.8271 35.5237 20.059 35.7929 20.3472 35.9907C20.6353 36.1884 20.9699 36.308 21.3181 36.3376C22.3914 36.3376 23.1229 35.1558 23.1941 35.0356C30.6718 23.5749 30.6718 17.2393 30.6678 16.9809ZM21.391 20.9499C20.5738 20.9499 19.775 20.7075 19.0955 20.2535C18.4161 19.7995 17.8865 19.1542 17.5738 18.3993C17.261 17.6443 17.1792 16.8135 17.3386 16.012C17.4981 15.2106 17.8916 14.4744 18.4694 13.8965C19.0473 13.3187 19.7835 12.9252 20.5849 12.7658C21.3864 12.6063 22.2172 12.6882 22.9722 13.0009C23.7271 13.3136 24.3724 13.8432 24.8264 14.5226C25.2804 15.2021 25.5228 16.0009 25.5228 16.8181C25.5217 17.9136 25.086 18.9639 24.3114 19.7385C23.5368 20.5131 22.4865 20.9488 21.391 20.9499Z" fill="#D22F27"/>
<path d="M30.6676 16.9809C30.6676 11.5471 26.5066 7.1272 21.3908 7.1272C20.6292 7.13072 19.8712 7.23367 19.1362 7.43345C24.0333 7.69595 27.9446 11.9969 27.9446 17.2626C27.9481 17.521 27.9481 23.856 20.4703 35.3168C20.3694 35.4809 20.255 35.6364 20.1285 35.7817C20.4318 36.1224 20.8617 36.323 21.3185 36.3382C22.3912 36.3382 23.1227 35.1558 23.1939 35.0356C30.6716 23.5749 30.6716 17.2393 30.6676 16.9809Z" fill="#EA5A47"/>
<path d="M21.3177 36.3382C20.9695 36.3084 20.635 36.1887 20.347 35.9909C20.0589 35.793 19.8272 35.5238 19.6744 35.2094C12.2439 23.7551 12.115 17.255 12.1133 16.9832C12.1133 11.5465 16.2748 7.1272 21.3906 7.1272C26.5064 7.1272 30.6674 11.5471 30.6674 16.9809C30.6714 17.2399 30.6714 23.5749 23.1937 35.035C23.1225 35.1558 22.3904 36.3382 21.3177 36.3382Z" stroke="black" stroke-width="0.5" stroke-linecap="round" stroke-linejoin="round"/>
<path d="M21.3905 20.9498C20.5734 20.9498 19.7745 20.7075 19.0951 20.2535C18.4156 19.7995 17.886 19.1542 17.5733 18.3992C17.2606 17.6442 17.1788 16.8134 17.3382 16.012C17.4976 15.2105 17.8911 14.4743 18.469 13.8964C19.0468 13.3186 19.783 12.9251 20.5845 12.7657C21.386 12.6062 22.2167 12.6881 22.9717 13.0008C23.7267 13.3135 24.372 13.8431 24.826 14.5226C25.28 15.202 25.5223 16.0008 25.5223 16.818C25.5212 17.9135 25.0856 18.9638 24.3109 19.7384C23.5363 20.513 22.486 20.9487 21.3905 20.9498Z" stroke="black" stroke-width="0.5" stroke-linecap="round" stroke-linejoin="round"/>
</svg>
