<svg width="178" height="150" viewBox="0 0 178 150" fill="none" xmlns="http://www.w3.org/2000/svg">
<mask id="mask0_398_2069" style="mask-type:alpha" maskUnits="userSpaceOnUse" x="26" y="31" width="103" height="94">
<path d="M27.3794 61.5433C28.3188 75.633 31.2544 83.7853 43.3862 90.8089C47.3507 96.26 52.1507 98.1909 55.752 103.93C58.981 109.077 62.6472 121.698 68.8047 123.922C71.3418 124.838 81.7208 110.006 83.5063 107.571C87.628 101.951 93.3253 98.6312 97.7956 93.5569C104.598 85.8351 110.642 78.6694 116.963 70.5428C121.992 64.0764 127.81 57.7838 127.473 49.0401C127.054 38.1432 119.576 32.6899 109.2 32.6899C105.921 32.6899 96.9229 31.1248 95.185 33.5142C90.8646 39.4549 87.4481 44.595 84.3993 51.5133C82.2828 56.3163 83.0137 59.7541 81.4453 55.223C79.0211 48.2199 75.6499 41.7218 69.0795 36.8805C66.4409 34.9362 58.9107 36.3996 55.752 36.3996C45.396 36.3996 37.5502 39.4637 31.2953 47.8036C27.8214 52.4354 26.9935 55.7541 27.3794 61.5433Z" fill="#D9D9D9"/>
<path d="M43.3862 90.8089C31.2544 83.7853 28.3188 75.633 27.3794 61.5433C26.9935 55.7541 27.8214 52.4354 31.2953 47.8036C37.5502 39.4637 45.396 36.3996 55.752 36.3996C58.9107 36.3996 66.4409 34.9362 69.0795 36.8805C75.6499 41.7218 79.0211 48.2199 81.4453 55.223C83.0137 59.7541 82.2828 56.3163 84.3993 51.5133C87.4481 44.595 90.8646 39.4549 95.185 33.5142C96.9228 31.1248 105.921 32.6899 109.2 32.6899C119.576 32.6899 127.054 38.1432 127.473 49.0401C127.81 57.7838 121.992 64.0764 116.963 70.5428C110.642 78.6694 104.598 85.8351 97.7956 93.5569C93.3253 98.6312 87.628 101.951 83.5063 107.571C81.7208 110.006 71.3418 124.838 68.8047 123.922C62.6472 121.698 58.981 109.077 55.752 103.93C52.1507 98.1909 47.3507 96.26 43.3862 90.8089ZM43.3862 90.8089C41.4954 88.2091 35.5952 78.9034 34.1478 76.0085" stroke="#F4456E" stroke-width="2" stroke-linecap="round"/>
</mask>
<g mask="url(#mask0_398_2069)">
<path d="M76.0525 45.2275C78.0687 45.7076 91.8459 52.164 92.2104 48.4591C92.398 46.5517 88.6801 43.6356 87.7907 42.9939C85.5849 41.4027 80.6393 39.2294 77.8584 40.9821C74.5758 43.0511 78.9665 47.5338 79.9177 48.5225C82.3158 51.0151 85.0671 53.1762 87.9333 55.1123C90.6585 56.9533 93.5671 58.5637 96.6142 59.8013C97.7436 60.26 100.04 61.3175 100.258 60.1181C100.499 58.7881 98.278 58.1341 96.9943 57.7103C91.6864 55.9577 84.9523 55.4639 79.7276 58.0271C71.7593 61.9362 71.4776 71.0955 76.4643 77.4165C79.9569 81.8436 84.5157 84.2069 90.2619 83.2302C98.4016 81.8466 102.594 72.9478 100.036 65.409C96.8746 56.0933 86.3172 54.3501 77.9534 54.9223C70.449 55.4356 61.1455 58.0469 57.4551 65.4724C52.4346 75.574 61.5333 86.568 71.0309 88.9805C76.4407 90.3546 83.1041 89.4813 87.3947 85.5905C91.6892 81.6961 92.2764 75.5767 91.2124 70.2564C89.2919 60.6539 81.504 53.1795 71.3635 53.5916C62.7833 53.9403 54.5877 59.7759 54.3027 68.8307C53.7005 87.968 90.1557 89.7754 89.6124 69.5277C89.4004 61.6278 82.6581 55.6672 75.4505 53.7975C66.9432 51.5908 58.8499 56.8234 59.4986 66.1219C60.0699 74.3101 67.3623 80.6325 75.1654 81.9788C84.7276 83.6285 96.304 76.7667 97.1844 66.5496C97.9252 57.9535 90.9136 51.344 83.5136 48.5225C79.1996 46.8776 70.633 45.0097 68.2904 50.7402C65.7488 56.9572 69.6482 62.7834 75.1337 65.5041C78.6122 67.2293 82.9293 68.2322 86.6343 66.4545C90.1301 64.7773 92.288 61.0785 93.3668 57.536C95.2396 51.3861 93.8826 44.4301 88.2818 40.6653C81.457 36.0779 75.2024 40.8824 71.5536 46.875C68.9629 51.1298 65.3415 59.2346 70.4764 63.1438C77.3826 68.4013 90.792 63.7736 95.9964 58.0271C101.809 51.6088 99.7484 41.4677 94.1113 35.5962C90.368 31.6972 84.7465 28.6944 79.7593 26.9786C76.4434 25.8378 72.9943 25.0563 69.526 24.5391C65.102 23.8795 58.6402 23.0876 54.477 26.0757C51.4842 28.2238 52.0694 31.3467 53.6532 34.0279C56.5586 38.9461 63.0561 41.4867 68.5755 41.2673C73.6332 41.0662 77.3908 37.9081 78.4445 33.0299C79.3768 28.7139 77.2923 25.4967 72.916 24.5391C63.0771 22.3864 49.4291 27.6114 43.7526 35.9288C40.9605 40.0199 40.6537 45.5514 43.1348 49.9165C46.1427 55.2086 51.9487 57.7701 57.8036 57.9637C62.2884 58.1121 66.046 57.1812 70.0329 55.1757C73.6934 53.3344 78.76 49.3987 77.7633 44.4672C76.6097 38.7589 68.7132 35.9871 64.1717 34.5823C57.7254 32.5884 49.2928 31.0148 42.7863 33.9487C32.8982 38.4074 31.8728 53.4924 36.3548 61.9082C41.8325 72.1933 56.0011 75.7916 66.7379 73.488C69.9713 72.7942 73.9776 70.9198 75.9258 68.007C78.5846 64.0314 77.2185 59.0961 73.5654 56.4113C68.6124 52.7712 61.1113 52.2514 55.2373 52.7996C48.7077 53.4089 42.0572 55.7518 37.9864 61.1795C30.3516 71.3593 37.3391 84.0246 47.5069 89.0439C55.2849 92.8834 64.8723 93.8977 73.3437 92.3863C77.2284 91.6932 84.6926 89.4906 83.3394 83.6896C82.555 80.327 78.2249 76.195 75.799 74.4701C68.1972 69.0648 58.7129 66.1865 49.5346 65.2031C42.6582 64.4663 33.6311 64.4464 27.7056 68.8624C23.4791 72.0121 23.1147 77.4009 24.6641 81.9788C29.1696 95.2903 46.0424 102.423 58.564 105.202C64.9524 106.619 72.8045 107.109 79.3157 105.994C85.061 105.009 93.5278 102.167 95.6795 95.8872C96.7243 92.838 95.7398 90.5808 93.4301 88.5053C88.5153 84.0887 80.6366 83.7804 74.4684 84.3866C67.8994 85.0322 60.2552 87.0506 55.5542 92.0378C51.8146 96.0051 51.15 101.709 54.0017 106.469C56.2432 110.21 61.0868 113.86 64.9638 115.53C67.6324 116.679 70.4958 117.382 73.3595 117.875C77.0213 118.504 86.9774 119.567 90.9431 117.225C92.0504 116.571 92.716 114.541 91.9569 113.502C89.1966 109.727 78.1554 105.494 74.4684 104.41C72.7006 103.89 70.7036 103.195 68.9715 103.824C66.2474 104.812 72.9231 108.295 75.5614 109.495C81.4661 112.179 86.4289 113.157 92.9232 113.772C96.1052 114.073 99.315 114.235 102.507 114.073C106.291 113.88 114.571 112.613 118.031 110.303C126.182 104.861 121.638 95.4237 116.479 89.8993C111.386 84.4455 100.337 77.2594 93.446 84.9569C90.617 88.1169 90.1163 94.9979 91.6401 98.7069C95.329 107.686 105.796 109.045 114.071 107.451C119.606 106.385 125.195 104.27 128.09 99.0079C132.005 91.8944 125.418 84.5328 120.154 80.6798C115.55 77.3099 107.734 74.0099 102.254 72.5692C96.2831 70.9997 88.1568 69.8648 82.7216 73.7889C78.6576 76.7231 77.9855 81.9771 80.1078 86.3509C82.8615 92.0261 88.8756 95.0127 94.6816 96.41C104.383 98.7446 119.03 98.0596 125.825 89.424C131.908 81.6936 125.829 67.95 117.746 64.0467C110.656 60.6227 102.39 65.8312 98.3567 71.5553C96.1626 74.6695 94.8182 78.8483 96.5825 82.549C98.5851 86.7497 103.214 88.5017 107.576 88.4736C116.711 88.4147 125.912 81.2944 129.754 73.2345C133.729 64.8959 128.559 56.9506 120.978 53.1956C113.264 49.375 104.305 50.1224 99.7507 58.1538C94.9674 66.5893 96.7696 78.6917 107.703 80.5531C117.997 82.3056 128.319 76.2417 132.653 66.9931C137.501 56.6468 132.16 45.3226 121.247 41.9801C114.739 39.9868 107.698 43.0236 105.485 49.663C103.228 56.4354 106.368 65.3766 114.61 64.5219C122.13 63.742 132.293 59.3419 133.967 51.1046C135.148 45.2957 130.967 39.3712 125.92 36.8635C120.854 34.3461 115.414 37.2319 111.378 40.3643C108.553 42.5564 102.472 49.6073 109.303 51.2313C116.225 52.8772 122.7 47.1272 124.083 40.6019C125.01 36.2244 124.922 27.7794 120.471 24.9035C116.399 22.2723 110.067 27.2222 107.544 29.7984C105.259 32.1324 102.781 35.9268 102.951 39.4614C103.175 44.1542 107.764 45.8362 111.631 44.8315C119.742 42.7248 122.354 32.8407 118.38 26.1708C113.792 18.4715 104.046 13.8093 95.1885 14.3058C87.499 14.7369 80.5087 20.6347 82.1513 28.8479C85.2196 44.1896 109.466 35.805 105.327 21.7511C100.315 4.73509 65.6834 8.60999 67.4983 27.2638C68.1179 33.6319 73.4603 34.8591 79.0623 34.3923C84.2944 33.9562 99.3997 30.0886 94.9033 21.561C93.5106 18.9196 90.0052 16.3763 87.5848 15.0979C80.8609 11.5463 73.0305 9.82686 65.4707 9.68023C55.2764 9.48249 43.0957 12.9329 39.2062 23.557C35.5436 33.5613 45.3029 39.5662 53.3047 42.3761C59.2252 44.4552 66.4965 46.0511 72.6942 43.9602C76.3062 42.7416 79.207 39.5646 78.1752 35.5962C75.8597 26.6903 61.3306 25.4161 54.1918 26.3133C47.4715 27.1579 41.0672 30.0885 37.432 36.008C34.779 40.3283 34.3611 45.7666 36.3231 50.4551C39.3701 57.7361 47.4844 62.2246 55.2373 61.1478C62.7342 60.1066 66.7607 52.0241 59.752 47.0017C51.5168 41.1004 37.0678 41.1067 29.163 47.6987C21.4918 54.0959 18.3411 69.7744 28.8937 75.2938C35.03 78.5034 42.2441 78.2491 48.7742 76.8621C52.0151 76.1737 55.4078 75.3397 58.0887 73.3929C63.099 69.7545 60.4539 65.5189 56.473 62.9061C53.6219 61.0349 50.2604 60.0104 46.9683 59.1201C41.0761 57.5266 33.387 56.3098 27.4838 59.2152C18.8251 63.4768 20.4729 74.7915 23.9671 81.8203C26.6866 87.2907 31.7259 91.8759 37.0835 94.6516C44.2684 98.374 53.9144 100.239 61.9064 98.5326C66.36 97.5815 71.3055 94.4585 70.1279 89.0439C68.6998 82.4769 61.2018 78.3404 55.6492 76.1968C49.2117 73.7115 43.5993 72.6849 36.6875 72.9969C30.0199 73.2979 21.2446 75.4474 18.1693 82.3589C15.2083 89.0135 19.3564 96.8978 23.1275 102.065C29.5164 110.82 38.4053 117.432 48.3623 121.645C56.1318 124.932 75.1565 131.164 80.5989 120.504C85.9891 109.947 71.4017 101.297 63.4747 98.5802C58.7893 96.9741 52.7604 96.1899 47.7921 96.6159C43.6586 96.9703 36.6702 98.4273 35.2776 103.269C33.6975 108.763 39.3153 114.698 43.1665 117.526C52.0537 124.052 63.3741 126.578 74.0882 127.823C80.602 128.58 87.155 128.906 93.636 127.664C98.5312 126.727 103.169 124.33 103.489 118.73C103.817 113.004 100.009 107.733 96.0122 104.14C90.0252 98.7592 82.0524 94.8993 74.0882 93.6061C69.4328 92.8502 63.6689 93.1149 59.1976 94.8417C54.4543 96.6735 49.0952 101.06 49.0752 106.643C49.0539 112.581 55.0444 116.444 59.9263 118.255C68.4992 121.435 78.6269 121.572 87.5689 120.472C96.145 119.418 113.438 114.63 107.481 102.16C103.249 93.3003 91.4713 87.3804 81.8978 88.8063C74.3616 89.9287 66.7623 97.3088 69.3359 105.55C71.3869 112.118 78.5919 115.889 84.4007 118.223C93.5782 121.911 104.207 123.884 114.039 121.708C118.33 120.759 124.353 117.94 127.124 114.168C131.311 108.468 128.635 101.581 124.7 96.7901C119.728 90.7356 112.349 86.3608 104.788 84.4183C99.5596 83.075 93.1826 82.9401 88.8996 86.7628C86.2249 89.15 85.1642 91.711 85.066 95.3011C84.8494 103.22 90.966 108.835 97.4062 112.457C101.148 114.561 105.162 116.184 109.224 117.574C117.917 120.549 128.027 123.235 137.389 121.581C141.144 120.918 145.122 119.687 147.907 117.083C153.195 112.14 153.233 102.796 150.886 96.7426C145.064 81.7314 123.308 74.9777 111.362 86.7628C108.752 89.3378 106.675 92.8631 108.273 96.6317C110.67 102.286 118.939 100.787 123.227 99.2772C132.247 96.1019 140.011 87.5516 138.609 77.4957C136.788 64.4347 122.852 60.5583 112.249 66.106C104.17 70.3331 99.51 79.4774 103.774 88.2518C106.785 94.4457 113.297 97.4258 119.552 99.1505C126.65 101.108 135.019 101.986 142.046 99.0871C144.911 97.9053 148.55 94.9533 149.903 92.022C152.43 86.5512 149.691 80.4133 146.561 75.9592C137.145 62.5584 119.366 54.4328 103.41 60.2924C95.7143 63.1186 88.9212 70.6324 92.9074 79.2541C96.8413 87.7629 107.987 87.379 115.148 83.8797C124.285 79.4151 129.081 69.5562 125.508 59.7379C121.245 48.0223 107.206 43.3892 96.6775 49.9482C86.5203 56.2758 79.1247 70.2096 81.0266 82.2322C83.2028 95.9888 99.785 93.9395 109.081 89.2498C115.484 86.0197 123.018 79.0343 121.421 70.9534C120.635 66.9739 116.956 65.5327 113.406 64.9813C106.639 63.9305 99.0053 64.7897 92.5272 66.9298C81.7224 70.4992 72.1595 80.5991 71.6012 92.418C71.0143 104.839 84.2944 108.952 94.5231 107.103C97.9204 106.489 103.211 104.439 105.58 101.558C109.418 96.8925 106.568 91.0554 103.362 87.1746C94.6553 76.6344 77.3929 68.4012 64.0133 74.3275C59.6346 76.267 56.7296 78.699 53.6057 82.2956C50.6555 85.6921 45.738 92.3911 49.8831 97.0594C54.1971 101.918 63.4617 101.5 68.5755 98.6277C76.4905 94.1823 74.5589 85.6841 69.526 79.666C65.0197 74.2775 56.8899 69.1888 50.4217 66.7714C45.2158 64.8257 33.7651 61.9023 29.559 68.0545C27.4285 71.1708 30.1278 75.4372 32.3946 77.5116C35.7634 80.5946 40.4262 81.305 44.7981 81.3293C51.4004 81.366 65.2262 80.0023 67.2765 71.7138C67.7589 69.7638 66.6295 67.2447 65.1855 66.011C60.8276 62.2878 53.9024 62.2117 48.6316 62.9061C38.4855 64.2429 27.4094 69.8173 23.1434 79.6976C21.9282 82.5122 21.9323 85.6729 23.777 88.1884C26.56 91.9834 31.6265 92.9932 36.0063 93.511C40.6968 94.0657 48.2776 94.0428 52.8929 93.7011C58.3909 93.2941 66.9807 92.8973 71.3319 88.6954C74.6089 85.5307 71.9348 81.2741 69.3042 78.8105C64.6623 74.4633 58.1112 72.4767 51.9583 71.7454C46.1728 71.0578 41.7144 71.2412 36.038 72.4741C32.445 73.2545 25.3116 75.1041 24.4107 79.8244C23.6457 83.8321 28.0783 87.2831 30.9689 88.8221C37.1085 92.091 44.4232 92.5352 51.2137 91.6735C61.4077 90.3799 77.5759 85.7536 77.7 72.9335C77.7952 63.0914 67.7185 54.6665 59.2927 51.4689C48.6989 47.4486 38.6916 53.4833 33.4084 62.7002C31.5785 65.8925 29.1076 71.7342 31.6659 75.3889C35.3324 80.6268 44.7862 80.8814 50.1207 80.8382C63.3789 80.7308 82.6986 77.1223 88.9788 63.4764C93.3758 53.9224 88.0055 40.3951 76.9396 39.0178C68.5535 37.9741 55.8558 41.791 53.4632 51.0095C52.4591 54.8783 53.7771 59.6828 57.2967 61.9557C61.848 64.8948 68.2176 62.984 72.5991 60.9735C81.8965 56.7074 91.2864 47.6145 89.8342 36.4516C88.5831 26.8348 80.0861 17.204 69.7477 18.2819C56.1003 19.7049 43.8264 36.8507 51.1187 49.9798C55.2761 57.4651 64.652 58.5766 71.918 55.9994C79.3617 53.3592 82.2776 47.4132 77.7633 40.3485C74.7878 35.6918 67.6528 29.9004 62.8411 27.4856C55.4444 23.7735 47.2071 23.2242 39.9032 27.2796C31.9025 31.722 27.4582 43.7888 37.8597 48.3641C42.2154 50.2799 46.4918 50.7194 51.2454 50.8036C57.8936 50.9214 65.84 50.2737 71.5853 46.4315C74.7736 44.2992 75.779 41.0031 73.9139 37.6714C71.9839 34.2235 68.1259 32.2485 64.2667 31.8894C53.2209 30.8614 41.7651 38.3447 34.6281 46.0988C32.2358 48.698 30.2645 51.1972 29.6857 54.7638C28.929 59.4274 31.6908 63.7177 35.5311 66.1694C43.1184 71.0133 55.5995 70.5762 63.3004 66.3436C66.1069 64.8011 69.3405 61.7445 67.5934 58.1221C64.9741 52.6917 57.3441 48.7563 52.3701 46.4156C41.5378 41.318 23.4866 36.4302 15.0328 48.5542C9.36339 56.6849 12.7879 70.2627 21.4642 74.8186C24.5013 76.4134 29.203 77.2433 32.5213 77.3849C38.3977 77.6355 45.3315 76.937 50.2791 73.4088C53.3372 71.228 55.1217 67.2854 52.386 63.9833C49.0236 59.9249 42.3659 59.3417 37.6221 59.6429C27.4887 60.2863 15.045 65.4823 12.7833 76.5611C10.7707 86.4201 15.1498 97.7215 23.9196 102.841C32.5732 107.894 47.0496 108.784 55.4591 102.509C59.2502 99.6797 59.8708 95.1638 57.9937 91.0398C55.3567 85.2465 49.5939 81.2831 43.6734 79.3808C34.6959 76.4964 22.1226 78.6146 17.3931 87.7291C14.6353 93.0437 15.6868 99.6198 18.8029 104.568C23.1914 111.537 30.8076 115.247 38.4458 117.383C45.211 119.276 51.0808 119.971 58.1046 119.855C64.93 119.742 74.1632 118.873 79.2524 113.439C83.1725 109.254 81.7643 103.425 78.6504 99.3722C73.6243 92.83 65.1153 89.4453 56.8848 90.2478C52.1082 90.7135 43.8191 93.5831 41.614 98.802C40.5266 101.376 40.7896 104.585 41.82 107.182C45.2788 115.9 54.2604 120.867 62.2233 124.29C74.5917 129.607 86.197 131.676 99.6556 131.466C105.392 131.377 111.196 130.816 116.732 129.312C121.237 128.088 130.707 123.858 131.813 117.558C132.591 113.125 126.794 109.283 123.956 107.895C116.846 104.419 107.547 103.238 99.7348 103.697C93.9162 104.038 87.2895 105.513 83.181 110.081C80.6455 112.899 80.1337 116.897 82.6582 119.855C88.7171 126.952 102.563 121.345 108.558 117.146C113.662 113.572 116.881 108.391 116.954 102.113C117.019 96.5469 114.567 91.0688 110.649 87.1429C104.428 80.909 94.7509 79.7979 87.9649 85.7806C84.1289 89.1626 81.3121 94.6178 81.5018 99.8475C81.7014 105.351 85.8142 107.938 90.7055 109.004C95.9269 110.142 100.865 109.977 106.15 109.32C111.597 108.644 119.853 107.327 123.069 101.938C124.697 99.2093 124.467 94.6273 123.829 91.8002C122.352 85.2578 118.673 78.6092 113.913 73.8998C106.461 66.5279 95.2879 66.5863 87.8065 74.1533C83.3272 78.6839 81.8316 85.0738 83.8463 91.1032C86.6732 99.5634 94.2711 105.192 102.38 108.18C108.056 110.271 116.843 111.41 122.847 111.285C131.862 111.096 142.273 109.145 148.921 102.477C161.197 90.1654 145.338 74.5686 133.666 69.797C123.56 65.6652 114.945 72.7268 108.495 80.0145C105.909 82.9365 100.407 89.054 101.081 93.6378C101.714 97.9385 109.98 96.3129 112.107 95.9189C122.564 93.9819 137.346 88.7798 140.209 77.068C142.247 68.7276 138.315 56.145 130.958 51.1521C124.108 46.5033 113.729 51.9372 108.923 57.14C105.802 60.518 104.321 64.8154 104.218 69.3693C104.156 72.0936 104.564 75.9854 107.069 77.7017C108.842 78.9163 110.61 78.8701 112.598 78.0977C118.092 75.9624 120.422 69.9043 120.281 64.3002C120.066 55.7548 115.839 46.2764 107.608 42.6613C100.816 39.6782 92.5352 42.4814 88.5352 48.6492C86.6369 51.5764 85.9949 56.1912 88.5986 59.0726C93.5 64.4968 103.071 63.1465 108.986 61.0844C114.219 59.26 120.042 55.4904 120.249 49.2195C120.456 42.9583 115.919 36.9595 111.33 33.2992C102.219 26.0318 88.5263 25.9245 80.0444 34.5507C73.3895 41.3188 77.1673 52.4149 83.672 57.8053C90.5883 63.5369 99.9334 58.1387 105.137 52.6095C108.748 48.7723 110.39 44.2709 107.513 39.4139C103.526 32.6842 95.3468 28.6349 88.155 26.4717C77.3989 23.2365 62.6621 24.1421 60.0847 37.6238C58.5061 45.881 63.0615 52.504 70.8249 55.4925C81.6805 59.6714 95.3257 58.5482 105.992 54.5262C112.128 52.2124 117.223 49.3328 120.249 43.3266C123.629 36.6166 119.739 30.5218 114.293 26.5985C107.847 21.9557 99.1313 19.3794 91.3708 18.3294C83.8799 17.316 76.8039 18.0599 70.223 22.0362C66.729 24.1474 61.932 28.5885 59.4194 31.7626C56.7014 35.1962 52.4195 41.4363 54.7146 46.1938C56.0443 48.9503 58.8303 49.6011 61.5579 50.0432C68.5224 51.172 76.197 49.7718 82.7691 47.4453C92.1241 44.1337 102.881 37.0854 99.7982 25.6163C98.0277 19.0284 92.7421 15.0877 86.6977 12.4999C78.6307 9.04628 69.255 7.36652 60.5124 7.25655C56.926 7.21143 52.7177 7.25669 49.5346 9.36341C45.9447 11.7393 46.6751 16.1656 48.3307 19.47C53.1674 29.1236 64.6556 33.8007 74.8169 34.5823C77.9341 34.8221 82.2192 34.667 85.3037 33.9487C88.4391 33.2185 92.9632 31.586 94.3647 28.2935C96.0474 24.3406 91.0234 20.9499 88.2818 19.47C78.9284 14.421 67.8481 12.3918 57.3759 11.6762C49.3581 11.1283 42.3983 11.358 34.5173 12.7851C28.8973 13.8027 19.6274 15.7453 18.3594 22.9233C17.7607 26.3124 19.9818 32.4087 21.6543 34.9625C27.4285 43.7791 37.1752 48.8264 47.1901 51.1046C52.5819 52.3311 59.5027 53.2257 64.8687 50.6927C72.7514 46.9717 63.2656 41.8398 59.7045 41.299C42.7878 38.7297 15.199 53.6375 24.1889 73.9315C27.8791 82.2619 36.2001 84.8441 44.3387 81.6778C56.0566 77.119 63.3064 61.8873 52.085 52.5303C47.5385 48.7391 43.2233 47.4373 37.337 46.5582C26.1844 44.8925 13.7351 46.0898 3.02526 49.5997C-3.7245 51.8117 -11.5526 55.7882 -11.6911 63.9358C-11.7894 69.7193 -7.83263 75.0592 -3.21612 78.1452C3.508 82.6402 13.0495 82.1125 19.7851 78.0027C22.257 76.4943 23.8688 74.9833 25.3611 72.5375C26.1558 71.2351 27.8525 67.5702 25.6146 66.3595C24.3542 65.6777 21.9487 66.4504 20.9573 66.9614C16.2968 69.3642 12.5355 73.8552 9.94779 78.2878C6.70257 83.8467 4.00952 91.1978 5.02123 97.7881C5.99907 104.158 11.1995 106.822 16.8862 108.132C26.7273 110.4 41.7389 109.112 46.4931 98.3267C49.3156 91.9237 46.2091 84.8299 42.3269 79.7452C38.2616 74.4206 31.9118 69.2964 24.7275 69.7178C14.7646 70.3021 10.5221 82.4429 12.2131 90.7547C15.1763 105.321 31.5977 106.339 43.4516 103.459C48.9773 102.117 53.2896 100.583 57.4868 96.6159C62.602 91.7805 64.4601 84.656 62.2074 77.9234C58.3916 66.5195 45.7021 61.3617 34.6123 63.7457C25.0938 65.792 15.8307 72.9253 14.7476 83.1827C14.2309 88.0761 15.6824 93.2341 20.1177 95.8714C25.0395 98.7978 31.8009 98.2414 36.9568 96.3308C46.8907 92.6496 55.4626 81.9537 51.3721 71.0009C48.528 63.3855 41.1921 57.5082 33.8519 54.5104C28.1729 52.191 19.7165 51.0792 15.5555 56.9341C12.221 61.626 12.5078 66.8468 14.2249 72.1256C17.2995 81.5778 24.9678 87.4917 35.1509 86.6677C42.6005 86.0649 53.2086 81.2593 53.5582 72.4425C53.9184 63.3576 44.506 55.3397 37.4954 51.3739C26.7128 45.2743 11.7231 46.6081 4.11829 57.1083C-2.51848 66.2719 -1.2713 80.9505 6.16178 89.2973C12.422 96.3271 22.3136 101.774 30.8738 104.917C47.7305 111.105 67.5916 114.169 85.4462 111.221C92.566 110.046 103.662 106.398 101.43 96.6159C99.8016 89.4819 92.028 83.8351 85.8423 81.155C79.8018 78.5379 74.8655 77.7418 68.2745 77.8442C65.2217 77.8917 61.8982 77.4478 59.1659 78.8105C50.8723 82.947 59.115 92.5218 62.049 95.8872C67.1937 101.788 73.1906 106.969 79.49 111.617C87.7148 117.687 100.506 126.457 112.186 126.128C113.376 126.094 114.937 124.013 114.134 123.134C110.451 119.101 104.058 124.327 102.507 126.841C99.9504 130.984 99.7714 137.441 104.503 140.432C111.47 144.836 120.273 138.239 123.861 132.797C131.147 121.747 123.802 105.696 110.396 104.964C103.795 104.604 95.6552 108.651 95.8221 116.164C96.0019 124.255 104.992 124.721 111.125 124.021C118.733 123.152 132.678 119.4 133.017 109.542C133.356 99.6914 118.878 103.694 114.071 105.962C107.377 109.121 98.8488 118.418 104.234 126.302C107.358 130.876 114.057 131.675 119.077 131.086C125.02 130.389 130.397 127.341 133.793 122.405C139.574 114.004 134.382 105.767 126.934 100.703C123.299 98.2313 118.853 96.3666 114.388 96.5684C112.212 96.6667 111.872 97.366 110.269 98.2633" stroke="#F4456E" stroke-width="3" stroke-linecap="round"/>
</g>
<path d="M129.712 24.7156C133.76 21.1927 137.798 17.6599 141.827 14.115" stroke="#F4456E" stroke-width="3" stroke-linecap="round"/>
<path d="M111.034 13.6102L115.578 2" stroke="#F4456E" stroke-width="3" stroke-linecap="round"/>
<path d="M31.2778 25.7251L25.7251 14.115" stroke="#F4456E" stroke-width="3" stroke-linecap="round"/>
<path d="M8.56226 29.2587L2 26.23" stroke="#F4456E" stroke-width="3" stroke-linecap="round"/>
<mask id="mask1_398_2069" style="mask-type:alpha" maskUnits="userSpaceOnUse" x="106" y="84" width="55" height="48">
<path d="M110.601 91.7049C107.26 98.2095 106.389 102.611 109.901 108.964C110.206 112.441 111.822 114.578 111.89 118.086C111.951 121.232 110.212 127.812 112.352 130.441C113.234 131.525 121.796 127.709 123.238 127.105C126.567 125.709 129.981 125.755 133.318 124.695C138.397 123.082 142.991 121.513 147.964 119.592C151.921 118.063 156.182 116.821 158.364 112.851C161.085 107.902 159.22 103.487 154.614 100.72C153.159 99.8451 149.582 96.7506 148.173 97.3477C144.671 98.8323 141.784 100.203 138.585 102.46C136.365 104.028 135.773 105.749 136.285 103.319C137.077 99.5641 137.313 95.7807 135.688 91.8794C135.035 90.3127 131.303 88.9539 129.901 88.1115C125.304 85.3495 121.004 84.617 116.003 86.6506C113.226 87.7801 111.974 89.0323 110.601 91.7049Z" fill="#D9D9D9"/>
<path d="M109.901 108.964C106.389 102.611 107.26 98.2095 110.601 91.7049C111.974 89.0323 113.226 87.7801 116.003 86.6506C121.004 84.617 125.304 85.3495 129.901 88.1115C131.303 88.9539 135.035 90.3127 135.688 91.8794C137.313 95.7807 137.077 99.5641 136.285 103.319C135.773 105.749 136.365 104.028 138.585 102.46C141.784 100.203 144.671 98.8323 148.173 97.3477C149.582 96.7506 153.159 99.8451 154.614 100.72C159.22 103.487 161.085 107.902 158.364 112.851C156.182 116.821 151.921 118.063 147.964 119.592C142.991 121.513 138.397 123.082 133.318 124.695C129.981 125.755 126.567 125.709 123.238 127.105C121.796 127.709 113.234 131.525 112.352 130.441C110.212 127.812 111.951 121.232 111.89 118.086C111.822 114.578 110.206 112.441 109.901 108.964ZM109.901 108.964C109.755 107.306 109.618 101.602 109.747 99.9308" stroke="#F4456E" stroke-width="2" stroke-linecap="round"/>
</mask>
<g mask="url(#mask1_398_2069)">
<path d="M136.557 97.4439C137.324 98.1947 141.717 104.735 142.867 103.188C143.459 102.391 142.587 100.105 142.363 99.5831C141.808 98.2885 140.193 96.0048 138.491 96.0411C136.482 96.084 137.235 99.2448 137.394 99.9373C137.793 101.683 138.438 103.376 139.194 105C139.913 106.544 140.774 108.035 141.797 109.397C142.176 109.902 142.913 110.983 143.33 110.509C143.792 109.983 142.98 109.1 142.523 108.57C140.635 106.376 137.777 104.361 134.775 104.105C130.195 103.715 127.627 107.706 128.155 111.842C128.524 114.738 129.918 117.003 132.729 118.102C136.711 119.659 140.945 116.827 141.82 112.798C142.901 107.82 138.68 104.231 134.815 102.254C131.347 100.48 126.521 99.1583 122.903 101.47C117.98 104.615 119.087 111.921 122.659 115.525C124.694 117.578 127.884 118.968 130.826 118.385C133.771 117.802 135.664 115.242 136.611 112.597C138.319 107.822 136.856 102.428 132.245 99.9059C128.343 97.7723 123.149 98.1767 120.608 102.12C115.236 110.454 130.936 120.979 136.095 111.847C138.108 108.283 136.705 103.84 134.004 101.087C130.817 97.8389 125.829 98.003 123.637 102.303C121.706 106.09 123.257 110.841 126.361 113.52C130.166 116.803 137.134 116.844 140.25 112.544C142.872 108.926 141.522 104.122 138.99 100.896C137.514 99.0157 134.21 95.9018 131.641 97.8206C128.855 99.9023 129.032 103.528 130.741 106.199C131.825 107.893 133.474 109.489 135.593 109.688C137.592 109.876 139.536 108.81 140.96 107.525C143.431 105.295 144.684 101.845 143.202 98.6805C141.396 94.8241 137.339 95.2885 134.121 96.9753C131.836 98.173 128.067 100.805 129.304 103.909C130.967 108.085 138.153 109.607 141.996 108.444C146.288 107.146 148.078 102.095 147.141 97.9852C146.52 95.2562 144.825 92.4241 143.069 90.3324C141.902 88.9416 140.579 87.6748 139.178 86.5203C137.39 85.0476 134.733 82.9727 132.088 83.1887C130.187 83.3439 129.614 84.8862 129.602 86.4987C129.579 89.4567 131.786 92.3173 134.294 93.6919C136.593 94.9516 139.103 94.552 140.872 92.6677C142.437 91.0006 142.37 89.0166 140.682 87.4244C136.889 83.8448 129.438 82.524 124.7 84.702C122.37 85.7732 120.758 88.1467 120.695 90.7459C120.619 93.8971 122.513 96.5826 125.06 98.2301C127.011 99.4921 128.927 100.081 131.232 100.254C133.348 100.413 136.646 100.017 137.519 97.5627C138.529 94.7213 135.764 91.3849 134.123 89.5502C131.793 86.9458 128.47 83.9983 124.799 83.5653C119.221 82.9072 114.743 89.3295 114.488 94.2604C114.176 100.287 119.505 105.663 124.885 107.504C126.506 108.058 128.784 108.295 130.425 107.521C132.666 106.466 133.376 103.911 132.47 101.745C131.243 98.808 128.052 96.5767 125.298 95.2534C122.237 93.7824 118.661 93.0486 115.406 94.3721C109.302 96.8544 109.026 104.34 112.2 109.279C114.629 113.058 118.614 116.065 122.777 117.654C124.686 118.382 128.587 119.395 129.533 116.46C130.082 114.758 129.262 111.769 128.645 110.356C126.713 105.93 123.271 102.122 119.459 99.238C116.603 97.077 112.602 94.6606 108.794 95.0404C106.078 95.3113 104.479 97.606 103.945 100.051C102.395 107.161 107.982 114.828 112.799 119.4C115.257 121.733 118.611 124.045 121.799 125.287C124.611 126.382 129.128 127.379 131.758 125.165C133.035 124.09 133.2 122.826 132.728 121.288C131.724 118.017 128.309 115.779 125.41 114.403C122.322 112.938 118.391 111.795 114.974 112.755C112.256 113.518 110.44 115.873 110.436 118.746C110.433 121.005 111.609 123.917 112.885 125.692C113.763 126.914 114.847 127.989 115.986 128.972C117.444 130.228 121.579 133.355 123.964 133.373C124.63 133.378 125.467 132.654 125.407 131.991C125.189 129.579 121.417 124.755 120.07 123.291C119.424 122.588 118.723 121.747 117.786 121.564C116.313 121.277 118.347 124.603 119.199 125.839C121.104 128.605 123.046 130.363 125.764 132.368C127.096 133.351 128.478 134.279 129.938 135.058C131.669 135.982 135.682 137.627 137.834 137.525C142.903 137.283 143.404 131.882 142.587 128.054C141.781 124.275 138.793 118.139 133.681 119.718C131.583 120.366 129.525 123.286 129.213 125.339C128.455 130.308 132.739 133.703 136.837 135.203C139.578 136.206 142.623 136.758 145.312 135.194C148.946 133.081 147.986 128.057 146.677 124.942C145.532 122.218 142.943 118.669 140.895 116.568C138.663 114.279 135.359 111.608 131.9 111.9C129.313 112.119 127.614 114.272 127.389 116.779C127.098 120.032 128.971 122.962 131.175 125.131C134.859 128.754 141.543 132.357 146.862 130.336C151.624 128.527 152.591 120.805 150.044 116.917C147.81 113.506 142.752 113.614 139.435 115.079C137.631 115.876 135.92 117.372 135.716 119.485C135.484 121.884 137.072 123.896 139.016 125.047C143.086 127.457 149.069 126.751 152.924 124.198C156.912 121.557 156.737 116.651 154.373 112.962C151.968 109.209 147.792 107.152 143.628 109.502C139.255 111.97 136.828 117.823 141.184 121.565C145.286 125.089 151.485 125.15 155.875 122.201C160.786 118.901 161.436 112.45 157.484 108.056C155.126 105.435 151.191 104.906 148.438 107.263C145.63 109.667 144.639 114.473 148.525 116.291C152.072 117.951 157.756 118.708 160.696 115.499C162.77 113.235 162.494 109.49 160.923 107.031C159.345 104.563 156.161 104.393 153.534 104.707C151.696 104.926 147.116 106.434 149.715 108.977C152.348 111.554 156.756 110.728 159.11 108.201C160.689 106.505 162.902 102.733 161.693 100.269C160.588 98.0153 156.457 98.5237 154.65 98.9944C153.013 99.4209 150.902 100.444 150.034 102.058C148.882 104.201 150.47 106.172 152.455 106.757C156.617 107.985 160.412 104.295 160.427 100.274C160.445 95.633 157.362 90.9641 153.298 88.8223C149.77 86.9628 145.094 87.7163 143.633 91.8C140.903 99.4281 153.901 102.173 155.812 94.831C158.126 85.9414 141.72 78.4249 137.551 87.1889C136.128 90.1808 138.172 92.1503 140.783 93.4372C143.221 94.6391 150.958 96.951 151.236 91.9666C151.323 90.4228 150.445 88.3589 149.712 87.1459C147.674 83.7762 144.657 80.9246 141.341 78.8433C136.868 76.0366 130.542 74.3195 125.982 77.9979C121.688 81.4617 124.418 86.73 127.22 90.1113C129.294 92.6132 132.096 95.2609 135.404 95.9857C137.333 96.4082 139.467 95.7716 140.068 93.735C141.415 89.1643 135.306 84.7238 131.898 83.2181C128.69 81.8006 125.066 81.3934 121.873 83.0514C119.543 84.2614 117.908 86.5639 117.528 89.1683C116.939 93.2127 119.343 97.3692 123.072 98.959C126.677 100.496 130.62 97.9825 128.848 93.884C126.767 89.0682 120.352 85.2174 115.085 86.0352C109.974 86.8287 104.394 92.9477 107.606 98.212C109.473 101.273 112.743 103.084 116.012 104.21C117.634 104.769 119.362 105.304 121.072 105.155C124.266 104.876 124.221 102.29 123.151 100.069C122.385 98.478 121.166 97.1267 119.942 95.8535C117.752 93.5748 114.663 90.9839 111.268 90.6991C106.288 90.2814 104.002 95.7431 103.678 99.795C103.426 102.948 104.44 106.328 106.078 108.989C108.275 112.557 112.059 115.958 116.061 117.332C118.292 118.097 121.32 118.03 122.241 115.313C123.359 112.017 121.134 108.181 119.241 105.749C117.046 102.929 114.829 100.976 111.678 99.2711C108.638 97.6264 104.17 96.2401 100.961 98.4878C97.8721 100.652 97.6105 105.258 97.9062 108.557C98.4072 114.147 100.589 119.453 103.885 123.978C106.457 127.509 113.24 135.35 118.498 132.07C123.707 128.821 119.539 121.091 116.745 117.771C115.093 115.809 112.626 113.853 110.307 112.717C108.378 111.771 104.888 110.554 102.978 112.332C100.812 114.349 101.722 118.482 102.677 120.764C104.882 126.031 109.233 130.172 113.657 133.582C116.346 135.655 119.168 137.547 122.376 138.725C124.798 139.614 127.496 139.787 129.132 137.387C130.804 134.933 130.52 131.578 129.704 128.917C128.482 124.932 125.972 121.092 122.782 118.394C120.918 116.817 118.288 115.397 115.843 114.971C113.249 114.519 109.701 115.037 108.203 117.51C106.61 120.139 108.238 123.452 109.922 125.558C112.88 129.256 117.338 132.017 121.601 133.914C125.688 135.734 134.641 138.221 135.323 131.097C135.807 126.035 132.159 120.267 127.529 118.346C123.884 116.834 118.543 118.084 117.487 122.428C116.646 125.89 118.838 129.486 120.794 132.071C123.884 136.156 128.076 139.866 133.021 141.523C135.178 142.246 138.603 142.601 140.839 141.666C144.218 140.252 144.867 136.482 144.398 133.306C143.806 129.292 141.698 125.382 138.86 122.503C136.897 120.513 134.102 118.752 131.182 119.307C129.358 119.653 128.204 120.507 127.203 122.074C124.995 125.531 126.212 129.655 128.105 132.98C129.204 134.912 130.554 136.703 131.986 138.403C135.051 142.042 138.822 145.931 143.419 147.694C145.262 148.401 147.356 148.915 149.287 148.502C152.952 147.719 155.462 143.581 156.034 140.268C157.453 132.053 149.598 123.252 141.152 125.297C139.307 125.744 137.445 126.755 137.149 128.854C136.705 132.003 140.775 133.543 143.081 134.017C147.932 135.013 153.658 133.288 155.718 128.451C158.393 122.168 153.241 116.731 147.055 116.365C142.342 116.087 137.834 118.903 137.387 123.935C137.071 127.487 139.167 130.547 141.484 132.98C144.112 135.742 147.593 138.364 151.485 138.951C153.072 139.191 155.474 138.851 156.857 137.911C159.438 136.157 159.859 132.702 159.657 129.89C159.052 121.43 153.327 113.082 144.682 111.427C140.513 110.629 135.493 112.153 134.963 117.043C134.44 121.869 139.49 124.671 143.602 125.027C148.848 125.483 153.606 122.386 154.639 117.075C155.871 110.737 150.875 104.937 144.453 105.04C138.257 105.14 131.258 109.352 128.896 115.196C126.192 121.882 134.099 125.395 139.476 125.793C143.18 126.067 148.387 124.976 149.834 120.963C150.546 118.987 149.298 117.366 147.869 116.174C145.145 113.903 141.528 112.249 138.082 111.471C132.334 110.173 125.395 112.106 121.995 117.203C118.422 122.56 123.22 127.927 128.253 129.835C129.925 130.468 132.82 130.969 134.64 130.323C137.587 129.275 137.88 125.924 137.492 123.347C136.438 116.346 130.971 108.088 123.452 107.15C120.991 106.843 119.053 107.147 116.707 107.911C114.492 108.631 110.523 110.293 111.117 113.471C111.736 116.778 115.96 119.064 118.996 119.153C123.695 119.29 125.104 115.003 124.475 110.989C123.912 107.396 121.661 102.969 119.434 100.171C117.643 97.9187 113.34 93.5671 109.832 95.1761C108.055 95.9911 108.115 98.6048 108.568 100.13C109.241 102.397 111.121 103.956 113.056 105.133C115.976 106.91 122.477 109.992 125.598 106.86C126.332 106.123 126.502 104.704 126.19 103.771C125.249 100.956 122.195 99.0752 119.671 97.9777C114.811 95.865 108.407 95.3853 103.879 98.6331C102.589 99.5583 101.748 100.962 101.896 102.571C102.119 104.998 104.098 106.797 105.904 108.195C107.838 109.692 111.209 111.704 113.349 112.783C115.898 114.069 119.817 116.184 122.869 115.479C125.167 114.948 125.115 112.346 124.605 110.551C123.704 107.383 121.326 104.754 118.79 102.788C116.405 100.94 114.377 99.8325 111.529 98.8658C109.726 98.254 106.066 97.1724 104.408 99.0273C102.999 100.602 104.046 103.316 104.919 104.77C106.772 107.859 109.9 110.007 113.144 111.435C118.014 113.58 126.425 115.839 129.899 110.181C132.566 105.838 130.34 99.4109 127.453 95.7443C123.823 91.1345 117.772 91.1441 112.968 93.8261C111.305 94.7551 108.65 96.689 108.811 98.9935C109.041 102.296 113.17 104.931 115.549 106.334C121.463 109.823 131 113.374 137.428 108.992C141.927 105.924 143.151 98.4869 138.607 94.9242C135.163 92.2243 128.509 90.532 124.988 93.9857C123.511 95.4351 122.814 97.9192 123.77 99.8668C125.007 102.385 128.344 103.236 130.825 103.512C136.089 104.098 142.682 102.566 145.015 97.2242C147.024 92.6219 145.821 86.0808 140.945 83.802C134.508 80.7938 124.487 85.1308 124.222 92.9034C124.071 97.3346 127.936 100.329 131.849 101.123C135.857 101.936 138.737 100.074 138.618 95.7345C138.539 92.874 136.916 88.4004 135.425 86.0452C133.131 82.4248 129.622 79.9841 125.298 79.8362C120.562 79.6742 115.371 83.845 118.768 88.6499C120.19 90.662 121.971 91.9976 124.059 93.3028C126.978 95.1282 130.678 96.96 134.253 96.7869C136.237 96.6908 137.562 95.4958 137.623 93.5196C137.686 91.4744 136.5 89.5688 134.883 88.3802C130.254 84.9779 123.173 85.2442 117.938 86.7826C116.182 87.2982 114.641 87.8818 113.433 89.3106C111.853 91.1787 111.935 93.8197 112.985 95.9321C115.061 100.106 120.718 103.241 125.265 103.416C126.922 103.48 129.173 102.985 129.363 100.911C129.649 97.8024 127.312 94.0206 125.728 91.6551C122.28 86.5034 115.571 79.5194 108.585 82.6463C103.9 84.7432 101.799 91.6833 104.435 96.0196C105.357 97.5375 107.223 99.1598 108.658 100.108C111.2 101.786 114.464 103.325 117.601 103.079C119.54 102.926 121.383 101.652 121.05 99.4571C120.64 96.7589 117.84 94.7244 115.654 93.5929C110.985 91.1759 104.075 90.1634 100.117 94.4778C96.594 98.3172 95.5237 104.501 98.0508 109.113C100.544 113.663 106.733 117.92 112.139 117.377C114.576 117.132 116.056 115.293 116.323 112.962C116.697 109.687 115.197 106.391 113.076 103.968C109.86 100.293 103.715 97.8801 99.1844 100.664C96.5429 102.288 95.2557 105.487 95.3191 108.515C95.4085 112.778 97.7996 116.456 100.62 119.442C103.118 122.086 105.538 123.96 108.687 125.782C111.747 127.552 116.077 129.629 119.785 128.574C122.641 127.762 123.571 124.8 123.269 122.17C122.783 117.926 119.909 114.154 116.042 112.315C113.797 111.248 109.353 110.311 106.982 112.039C105.813 112.892 105.074 114.386 104.839 115.814C104.049 120.606 106.711 125.206 109.332 128.849C113.404 134.508 118.004 138.522 124.033 142.018C126.604 143.508 129.329 144.807 132.188 145.616C134.514 146.274 139.846 146.922 142.017 144.421C143.544 142.661 141.996 139.409 141.106 138.036C138.877 134.597 135.065 131.593 131.475 129.713C128.801 128.313 125.466 127.2 122.424 128.132C120.547 128.707 119.254 130.345 119.586 132.331C120.382 137.097 128.023 138.3 131.804 138.036C135.023 137.811 137.834 136.369 139.54 133.602C141.054 131.149 141.426 128.064 140.734 125.276C139.636 120.85 135.637 117.776 131.029 118.621C128.424 119.099 125.719 120.77 124.408 123.141C123.029 125.638 124.165 127.883 126.052 129.66C128.066 131.558 130.301 132.802 132.823 133.92C135.421 135.072 139.437 136.69 142.301 135.156C143.752 134.379 144.872 132.283 145.342 130.858C146.432 127.561 146.572 123.628 145.715 120.268C144.374 115.009 139.399 112.055 134.06 113.418C130.863 114.234 128.495 116.672 127.781 119.885C126.78 124.395 128.651 128.919 131.453 132.408C133.415 134.85 137.012 137.7 139.71 139.245C143.762 141.566 148.903 143.476 153.633 142.29C162.365 140.099 159.485 128.946 155.577 123.715C152.193 119.186 146.486 120.023 141.679 121.537C139.752 122.145 135.679 123.393 134.755 125.607C133.889 127.685 137.992 129.168 139.041 129.56C144.199 131.489 152.148 133.123 156.542 128.688C159.671 125.529 161.282 118.895 159.348 114.717C157.547 110.827 151.491 110.471 147.97 111.498C145.684 112.165 143.88 113.678 142.62 115.672C141.866 116.864 141.009 118.701 141.663 120.131C142.126 121.143 142.923 121.594 144.012 121.781C147.02 122.298 149.67 120.231 151.102 117.706C153.285 113.855 153.937 108.521 151.248 104.721C149.029 101.585 144.606 100.621 141.185 102.292C139.562 103.085 138.046 104.962 138.433 106.935C139.162 110.65 143.771 112.604 146.946 113.266C149.756 113.852 153.345 113.731 155.11 111.003C156.872 108.279 156.458 104.407 155.397 101.558C153.291 95.9023 147.242 92.2027 141.176 93.7694C136.417 94.9987 135.135 100.932 136.585 105.059C138.126 109.448 143.714 109.544 147.498 108.477C150.124 107.737 152.053 106.177 152.072 103.254C152.097 99.2037 149.546 95.2248 146.931 92.3466C143.02 88.0418 136.237 84.5134 131.497 89.8102C128.594 93.0543 128.85 97.209 131.499 100.606C135.203 105.356 141.559 108.497 147.366 109.556C150.707 110.166 153.737 110.247 156.682 108.388C159.972 106.311 159.87 102.568 158.499 99.3739C156.877 95.594 153.695 92.1259 150.53 89.5901C147.475 87.1424 144.136 85.5854 140.155 85.5952C138.041 85.6004 134.727 86.2923 132.765 87.0311C130.643 87.8302 127.078 89.4581 126.828 92.1819C126.683 93.7601 127.746 94.792 128.839 95.7157C131.629 98.0742 135.409 99.4995 138.947 100.22C143.982 101.245 150.637 100.985 152.327 95.0722C153.299 91.6757 152.003 88.5169 150.011 85.7562C147.351 82.0717 143.637 78.8256 139.786 76.4451C138.206 75.4685 136.326 74.3663 134.352 74.4524C132.124 74.5496 131.268 76.7091 131.122 78.6173C130.694 84.1923 134.546 89.3323 138.848 92.3893C140.167 93.3271 142.111 94.4011 143.671 94.9049C145.258 95.417 147.701 95.899 149.202 94.8113C151.003 93.5055 149.677 90.6606 148.855 89.2725C146.05 84.5368 141.673 80.6809 137.215 77.5703C133.803 75.1888 130.652 73.4345 126.773 71.966C124.007 70.9188 119.375 69.3088 116.897 72.1567C115.728 73.5013 115.088 76.7997 115.149 78.3793C115.36 83.8328 118.341 88.6726 122.178 92.3548C124.244 94.3372 127.078 96.5802 130.135 96.887C134.627 97.3377 131.785 92.5299 130.348 91.34C123.525 85.6879 107.303 84.9469 105.881 96.3525C105.297 101.034 108.302 104.4 112.759 105.165C119.176 106.267 126.456 101.439 123.971 94.2931C122.964 91.3978 121.396 89.6691 119.017 87.7089C114.511 83.9952 108.666 81.2063 102.976 79.9079C99.3902 79.0895 94.855 78.7668 92.6205 82.3464C91.0344 84.8873 91.3665 88.3128 92.5926 90.9138C94.3784 94.7023 98.7544 97.0129 102.84 96.9851C104.34 96.9748 105.458 96.734 106.773 96.0464C107.473 95.6802 109.204 94.506 108.533 93.3717C108.155 92.733 106.882 92.4344 106.305 92.3968C103.596 92.2203 100.728 93.2106 98.3977 94.488C95.4746 96.0899 92.3187 98.6346 91.0101 101.83C89.7453 104.918 91.343 107.487 93.5177 109.586C97.2812 113.217 104.288 116.649 109.275 113.129C112.235 111.04 112.748 107.063 112.381 103.771C111.997 100.323 110.545 96.3549 107.244 94.6258C102.666 92.228 97.5444 96.4855 96.0782 100.626C93.5087 107.881 100.526 112.713 106.556 114.596C109.366 115.474 111.69 115.944 114.611 115.302C118.171 114.52 120.896 111.853 121.691 108.264C123.039 102.185 118.782 96.5108 113.224 94.6113C108.453 92.9809 102.439 93.6767 99.2227 97.9408C97.6882 99.9751 96.9568 102.652 98.2222 105.005C99.6263 107.617 102.776 109.173 105.574 109.7C110.965 110.716 117.623 108.254 118.728 102.302C119.497 98.1628 117.808 93.5975 115.35 90.3092C113.447 87.7651 109.99 85.0162 106.582 86.5053C103.85 87.6986 102.585 90.0924 101.94 92.8935C100.783 97.909 102.61 102.579 107.35 104.929C110.817 106.649 116.807 107.345 119.314 103.524C121.897 99.5881 119.857 93.5188 117.803 89.8887C114.644 84.3055 107.635 80.8997 101.459 83.5323C96.0689 85.8297 92.7077 92.6777 93.7809 98.365C94.6847 103.155 97.6226 108.211 100.584 111.889C106.416 119.131 114.414 125.788 123.126 129.242C126.599 130.619 132.498 131.959 134.116 127.022C135.296 123.421 133.351 118.841 131.32 116.002C129.337 113.229 127.358 111.559 124.406 109.847C123.038 109.054 121.681 107.971 120.105 107.847C115.32 107.471 116.425 113.919 116.83 116.195C117.54 120.187 118.82 124.086 120.376 127.829C122.408 132.717 125.747 140.021 131.019 142.99C131.556 143.293 132.804 142.785 132.682 142.181C132.123 139.408 127.892 140.023 126.533 140.725C124.293 141.882 122.491 144.701 123.794 147.29C125.712 151.103 131.379 150.523 134.423 149.064C140.604 146.102 141.625 137.019 135.869 133.119C133.035 131.198 128.343 130.824 126.413 134.203C124.335 137.843 128.201 140.447 131.11 141.772C134.719 143.415 141.909 145.469 144.689 141.184C147.466 136.902 139.973 134.817 137.234 134.542C133.42 134.158 127.155 136.011 127.443 140.947C127.61 143.81 130.37 145.951 132.755 147.029C135.579 148.304 138.779 148.385 141.603 147.101C146.409 144.913 146.302 139.872 144.346 135.638C143.392 133.572 141.916 131.558 139.88 130.457C138.888 129.92 138.55 130.14 137.6 130.111" stroke="#F44548" stroke-linecap="round"/>
</g>
<path d="M165.845 102.651C168.582 102.167 171.317 101.676 174.05 101.176" stroke="#F44548" stroke-width="3" stroke-linecap="round"/>
<path d="M160.517 92.7398L165.63 88.7981" stroke="#F44548" stroke-width="3" stroke-linecap="round"/>
<path d="M121.884 76.846L122.516 70.2117" stroke="#F44548" stroke-width="3" stroke-linecap="round"/>
<path d="M110.859 72.3563L108.754 69.2617" stroke="#F44548" stroke-width="3" stroke-linecap="round"/>
</svg>
