<svg width="14" height="19" viewBox="0 0 14 19" fill="none" xmlns="http://www.w3.org/2000/svg">
<path d="M0.46766 8.09466C0.46766 5.56606 0.337804 2.52962 0.337804 0C0.958348 0.393714 1.3156 0.299273 1.69769 0.583818C2.01101 0.817154 2.45017 0.951319 2.80507 1.13182C3.29456 1.38077 3.75475 1.68345 4.18299 2.02725C5.34535 2.96041 6.40206 4.03143 7.54121 4.9929C8.78081 6.03914 10.1342 6.9774 11.4549 7.9299C12.0636 8.36885 12.6992 8.79815 13.291 9.25513C13.4617 9.38699 14.2696 9.76318 13.9078 9.94282C13.2417 10.2735 12.6516 10.7511 12.0213 11.1534C10.5426 12.0973 9.02701 12.9974 7.55925 13.9615C6.41441 14.7135 5.13589 15.2144 3.9846 15.9493C3.5155 16.2488 3.06652 16.5587 2.61029 16.877C2.3647 17.0484 2.08719 17.1681 1.84558 17.3426C1.59829 17.5212 0.0131636 19.3975 0.0131636 18.9235C0.0131636 18.7739 0.0905209 17.5312 0.0420208 17.3928C-0.0308218 17.1848 0.0131636 16.9144 0.0131636 16.6979V14.8068C0.0131636 12.5597 0.46766 10.3377 0.46766 8.09466Z" fill="black"/>
</svg>
