<svg width="254" height="196" viewBox="0 0 254 196" fill="none" xmlns="http://www.w3.org/2000/svg">
<mask id="mask0_1_276" style="mask-type:alpha" maskUnits="userSpaceOnUse" x="0" y="0" width="254" height="196">
<rect width="254" height="196" fill="#D9D9D9"/>
</mask>
<g mask="url(#mask0_1_276)">
<path d="M86 95H75.5142C69.935 95 65.9961 102.7 86 123" stroke="#37473C" stroke-width="2.52705"/>
<path d="M76.1828 95C75.3961 85.9393 76.7406 65.5635 88.4121 56.5469C114.73 60.0091 174.318 64.8564 202.123 56.5469L205.342 55C210.848 64.3554 218 79.5305 218 95" stroke="#37473C" stroke-width="2.52705"/>
<path d="M87.271 55.2529V30.5746L60.6705 24.023M60.6705 24.023L143.261 43.4597L205.043 28.543M60.6705 24.023C55.4738 22.8 55.645 22.3487 56.3801 22.2758L143.261 0L231 22.2758L205.043 28.543M205.043 28.543V57" stroke="#37473C" stroke-width="2.52705"/>
<path d="M227.642 26V36.2176M227.642 36.2176C224.286 40.191 217.486 48.5637 217.143 50.2666C216.714 52.3952 227.215 73.256 236 52.1824C235.144 49.2733 232.272 42.0076 227.642 36.2176ZM121.571 163.085C115.786 166.845 93.2857 180.752 83 208H206.429C202.357 188.842 180.071 168.194 168.929 163.085" stroke="#37473C" stroke-width="2.52705"/>
<path d="M172 104V112" stroke="#37473C" stroke-width="2.52705" stroke-linecap="round"/>
<path d="M119 104V112" stroke="#37473C" stroke-width="2.52705" stroke-linecap="round"/>
<path d="M137 131C139.25 134.773 146 140.056 155 131" stroke="#37473C" stroke-width="2.52705" stroke-linecap="round"/>
<path d="M204 95H215.168C221.11 95 227.666 100.2 206.362 121" stroke="#37473C" stroke-width="2.52705"/>
<path d="M96.3533 73C82.9933 98.7156 70.5146 153.165 141.123 166.937C169.904 168.423 229.598 143.983 193.995 73" stroke="#37473C" stroke-width="2.52705"/>
<path d="M97 74.0884C99.8425 79.9359 109.407 88.8324 124.927 77.6386C131.963 86.9669 149.742 100.026 164.58 77.6386C170.478 82.8596 184.62 89.459 194 74.0884C194 73.253 194 72.3481 194 72" stroke="#37473C" stroke-width="2.52705"/>
<path d="M88.4408 55C88.4005 54.7015 87.9834 54.671 88.0005 54.6619C92.0468 52.5311 95.9966 50.2017 100 48" stroke="#37473C" stroke-width="0.50541" stroke-linecap="round"/>
<path d="M87 53.9993C87.0075 54.0593 91.3496 50.4785 91.6666 50.2324C93.3149 48.953 95.7947 47.8366 97 46" stroke="#37473C" stroke-width="0.50541" stroke-linecap="round"/>
<path d="M87 50C88.5307 49.8634 90.02 48.586 91.2068 47.8947C92.8385 46.9445 94.4607 46.0441 96 45" stroke="#37473C" stroke-width="0.50541" stroke-linecap="round"/>
<path d="M86.1454 48.7788C85.2781 49.6548 88.5246 47.6858 89.6852 47.0973C90.2236 46.8243 95.3856 44.3439 94.977 44" stroke="#37473C" stroke-width="0.50541" stroke-linecap="round"/>
<path d="M87.1998 45.9917C86.483 46.0667 87.896 45.6138 88.2823 45.408C90.8996 44.0132 93.6124 42.6631 96 41" stroke="#37473C" stroke-width="0.50541" stroke-linecap="round"/>
<path d="M88.2335 44.5792C88.086 45.2238 87.6084 45.11 88.6837 44.3603C91.1721 42.6252 93.6228 40.8771 96 39" stroke="#37473C" stroke-width="0.50541" stroke-linecap="round"/>
<path d="M88 42C90.6575 39.6525 93.329 37.3272 96 35" stroke="#37473C" stroke-width="0.50541" stroke-linecap="round"/>
<path d="M88 39C89.3045 38.6443 90.9859 36.0371 92 35" stroke="#37473C" stroke-width="0.50541" stroke-linecap="round"/>
<path d="M88.0053 35C87.8654 34.9833 90.5475 33.2746 91 33" stroke="#37473C" stroke-width="0.50541" stroke-linecap="round"/>
<path d="M87.0934 54.7488C86.4222 55.5321 89.586 54.2345 89.6136 54.2227C93.4478 52.579 97.2146 50.7573 101 49" stroke="#37473C" stroke-width="0.50541" stroke-linecap="round"/>
<path d="M88 54.9789C88.0725 55.1612 96.0852 54.1046 97 54" stroke="#37473C" stroke-width="0.50541" stroke-linecap="round"/>
<path d="M90.0299 58C89.7424 58 91.6187 57.5522 91.8056 57.4862C94.5785 56.5068 97.4998 55.421 100 54" stroke="#37473C" stroke-width="0.50541" stroke-linecap="round"/>
<path d="M91.0594 57.7081C90.6368 58.4206 92.601 57.6125 92.8029 57.5506C96.5561 56.4003 100.259 55.1642 104 54" stroke="#37473C" stroke-width="0.50541" stroke-linecap="round"/>
<path d="M96.1053 58.7743C95.4541 59.5347 98.0007 58.1668 98.8844 57.7133C101.261 56.4941 103.548 55.0022 106 54" stroke="#37473C" stroke-width="0.50541" stroke-linecap="round"/>
<path d="M99.546 57.7117C96.7837 59.0485 105.263 55.3795 108 54" stroke="#37473C" stroke-width="0.50541" stroke-linecap="round"/>
<path d="M101.116 58.7605C100.573 59.3463 102.105 58.6784 102.206 58.636C105.816 57.1118 109.373 55.4902 113 54" stroke="#37473C" stroke-width="0.50541" stroke-linecap="round"/>
<path d="M104 59C104.509 58.9159 104.928 58.6797 105.404 58.4607C108.608 56.9862 111.802 55.4886 115 54" stroke="#37473C" stroke-width="0.50541" stroke-linecap="round"/>
<path d="M108 57.967C108.153 58.3583 117.547 55.1463 118 55" stroke="#37473C" stroke-width="0.50541" stroke-linecap="round"/>
<path d="M76.567 91.8327C75.8029 91.921 75.7586 92.2507 76.7577 91.6347C79.9549 89.6629 83.0274 87.3171 86 85" stroke="#37473C" stroke-width="0.50541" stroke-linecap="round"/>
<path d="M76.0052 90.8269C75.935 91.436 76.5956 90.2637 76.9153 89.9817C80.4949 86.8239 84.262 83.9251 88 81" stroke="#37473C" stroke-width="0.50541" stroke-linecap="round"/>
<path d="M77.8796 88.1766C74.8329 90.852 80.6322 86.1937 81.219 85.7077C83.4924 83.8254 85.8208 82.0209 88 80" stroke="#37473C" stroke-width="0.50541" stroke-linecap="round"/>
<path d="M77.6045 85.3777C75.7696 87.1506 78.6464 84.6101 79.1884 84.2371C82.1547 82.1968 85.0866 80.1284 88 78" stroke="#37473C" stroke-width="0.50541" stroke-linecap="round"/>
<path d="M77.9999 84.5247C73.1974 87.1816 87.0419 78.0145 91 74" stroke="#37473C" stroke-width="0.50541" stroke-linecap="round"/>
<path d="M82.096 79.3706C79.1347 81.3297 83.0321 78.1494 83.7622 77.4932C86.1784 75.3218 88.6487 73.2923 91 71" stroke="#37473C" stroke-width="0.50541" stroke-linecap="round"/>
<path d="M81.9312 75.5243C79.1434 77.0939 83.4566 74.3069 83.9465 73.9483C86.2688 72.2481 88.6168 70.6007 91 69" stroke="#37473C" stroke-width="0.50541" stroke-linecap="round"/>
<path d="M81.9123 73.445C79.3373 75.1628 82.9699 72.3867 83.5597 71.9284C86.0701 69.9778 88.5631 68.1074 91 66" stroke="#37473C" stroke-width="0.50541" stroke-linecap="round"/>
<path d="M83 70.9394C83.5171 71.2699 83.9834 70.1604 84.4602 69.7423C86.6409 67.8299 88.8207 65.9153 91 64" stroke="#37473C" stroke-width="0.50541" stroke-linecap="round"/>
<path d="M82.5622 65.5099C82.4556 65.6093 81.613 66.233 82.2148 65.9061C85.2563 64.2539 88.133 61.9419 91 60" stroke="#37473C" stroke-width="0.50541" stroke-linecap="round"/>
<path d="M81.0442 64.885C80.7636 65.2196 81.8956 64.7362 82.2805 64.5459C85.22 63.092 88.1098 61.5525 91 60" stroke="#37473C" stroke-width="0.50541" stroke-linecap="round"/>
<path d="M73.1125 102.01C72.9503 102.126 71.1886 103.341 72.4551 102.906C75.3923 101.898 78.2137 100.235 81 99" stroke="#37473C" stroke-width="0.50541" stroke-linecap="round"/>
<path d="M72 104C75.2024 103.54 78.3039 101.973 81 101" stroke="#37473C" stroke-width="0.50541" stroke-linecap="round"/>
<path d="M73.7549 106.492C73.4677 106.813 72.4643 107.231 73.3716 106.845C75.81 105.807 78.477 104.947 81 104" stroke="#37473C" stroke-width="0.50541" stroke-linecap="round"/>
<path d="M73 108C75.7098 107.552 78.6045 105.931 81 105" stroke="#37473C" stroke-width="0.50541" stroke-linecap="round"/>
<path d="M73.3309 108.551C71.3921 110.347 78.4995 106.26 81 105" stroke="#37473C" stroke-width="0.50541" stroke-linecap="round"/>
<path d="M74.7352 109.409C74.6498 109.471 73.5566 110.204 74.2039 109.944C76.5033 109.02 78.7375 107.972 81 107" stroke="#37473C" stroke-width="0.50541" stroke-linecap="round"/>
<path d="M76.2674 111.696C75.4973 112.389 76.6098 111.7 76.8644 111.562C78.5439 110.656 80.2742 109.842 82 109" stroke="#37473C" stroke-width="0.50541" stroke-linecap="round"/>
<path d="M78.0326 113.918C77.8348 114.2 78.5921 113.68 78.842 113.483C80.2573 112.367 81.6173 111.181 83 110" stroke="#37473C" stroke-width="0.50541" stroke-linecap="round"/>
<path d="M81.0126 114C80.879 114 81.8492 114 82 114" stroke="#37473C" stroke-width="0.50541" stroke-linecap="round"/>
<path d="M81 116.998C81.0111 117.091 84.5911 114.327 85 114" stroke="#37473C" stroke-width="0.50541" stroke-linecap="round"/>
<path d="M82.1455 117.878C81.2701 118.382 84.6156 117.175 85 117" stroke="#37473C" stroke-width="0.50541" stroke-linecap="round"/>
<path d="M87.8755 205.234C87.3491 205.865 86.8383 206.525 86.1621 206.931C85.3913 207.392 87.6168 205.4 87.6777 205.352C92.5285 201.676 97.9349 199.194 103 196" stroke="#37473C" stroke-width="0.50541" stroke-linecap="round"/>
<path d="M82.9632 204.436C82.7671 204.542 81.3821 205.353 82.3266 204.82C88.2007 201.506 94.0514 198.18 100 195" stroke="#37473C" stroke-width="0.50541" stroke-linecap="round"/>
<path d="M85.0945 201C84.9086 201 85.0248 201.005 85.2031 200.96C87.1815 200.464 89.1263 199.32 90.908 198.51C94.2592 196.987 97.6415 195.513 101 194" stroke="#37473C" stroke-width="0.50541" stroke-linecap="round"/>
<path d="M86 204.725C86.0895 205.513 87.2669 204.373 87.4848 204.22C91.5802 201.351 95.816 198.713 100 196" stroke="#37473C" stroke-width="0.50541" stroke-linecap="round"/>
<path d="M90.0248 195C89.9161 194.979 90.194 194.85 90.2968 194.809C91.5786 194.291 92.7992 193.673 94.0246 193.032C97.7229 191.094 101.345 189.015 105 187" stroke="#37473C" stroke-width="0.50541" stroke-linecap="round"/>
<path d="M91.2048 191.992C90.4064 192.089 92.1785 191.314 92.4882 191.122C96.5606 188.582 101.022 186.64 105 184" stroke="#37473C" stroke-width="0.50541" stroke-linecap="round"/>
<path d="M96.2296 189.41C92.923 191.11 97.2389 188.646 98.0875 188.159C101.937 185.945 106.035 184.037 110 182" stroke="#37473C" stroke-width="0.50541" stroke-linecap="round"/>
<path d="M97 186.936C97 187.268 98.3895 186.205 98.5918 186.085C102.833 183.549 106.905 180.753 111 178" stroke="#37473C" stroke-width="0.50541" stroke-linecap="round"/>
<path d="M99.9623 182.53C95.2175 184.926 109.318 177.504 114 175" stroke="#37473C" stroke-width="0.50541" stroke-linecap="round"/>
<path d="M104.897 179.589C100.471 181.686 113.628 175.189 118 173" stroke="#37473C" stroke-width="0.50541" stroke-linecap="round"/>
<path d="M106 175.888C106 176.069 105.979 176.012 106.298 175.852C108.288 174.861 110.222 173.675 112.156 172.565C114.778 171.06 117.392 169.535 120 168" stroke="#37473C" stroke-width="0.50541" stroke-linecap="round"/>
<path d="M106 175C109.744 171.633 114.784 169.551 119 167" stroke="#37473C" stroke-width="0.50541" stroke-linecap="round"/>
<path d="M113 171C114.927 169.501 116.974 168.28 119 167" stroke="#37473C" stroke-width="0.50541" stroke-linecap="round"/>
<path d="M91 194C91.0259 194.679 91.2017 195.336 91.3025 195.945C91.5767 197.598 91.7958 199.283 92 201" stroke="#37473C" stroke-width="0.50541" stroke-linecap="round"/>
<path d="M92 194C92.4727 196.068 96 197.858 96 200" stroke="#37473C" stroke-width="0.50541" stroke-linecap="round"/>
<path d="M95 192.378C95 191.513 95.2784 192.346 95.3889 192.762C95.9391 194.836 96.4832 196.916 97 199" stroke="#37473C" stroke-width="0.50541" stroke-linecap="round"/>
<path d="M96 190.193C96 189.294 97.0618 191.827 97.0833 191.872C97.355 192.419 99.6041 196 98.8439 196" stroke="#37473C" stroke-width="0.50541" stroke-linecap="round"/>
<path d="M97.1435 188.06C97.1435 186.075 96.7587 187.209 97.2493 188.763C97.9133 190.867 99.0274 192.944 100 195" stroke="#37473C" stroke-width="0.50541" stroke-linecap="round"/>
<path d="M99.1032 187.269C99.1032 186.759 98.871 185.731 99.1032 185.241C99.686 184.011 99.7725 187.832 100.031 189.14C100.158 189.789 100.572 194 101 194" stroke="#37473C" stroke-width="0.50541" stroke-linecap="round"/>
<path d="M101 183C101 185.777 101 188.243 101 191" stroke="#37473C" stroke-width="0.50541" stroke-linecap="round"/>
<path d="M101 182.685C101 181.941 101.186 181.644 101.333 182.617C101.709 185.108 102.404 187.549 103 190" stroke="#37473C" stroke-width="0.50541" stroke-linecap="round"/>
<path d="M103 181.574C103.048 180.726 103.221 180.877 103.349 181.641C103.764 184.112 104.448 186.559 105 189" stroke="#37473C" stroke-width="0.50541" stroke-linecap="round"/>
<path d="M105 178.237C105 177.299 105.034 179.441 105.044 179.579C105.231 182.086 105.631 184.547 106 187" stroke="#37473C" stroke-width="0.50541" stroke-linecap="round"/>
<path d="M106.081 177.387C105.956 176.24 105.991 177.979 106.081 178.276C106.669 180.189 107.377 182.091 108 184" stroke="#37473C" stroke-width="0.50541" stroke-linecap="round"/>
<path d="M108.029 177.39C107.711 175.477 110.064 181.126 111 183" stroke="#37473C" stroke-width="0.50541" stroke-linecap="round"/>
<path d="M111 174.528C111 173.587 111.025 174.063 111.139 174.721C111.444 176.478 111.726 178.235 112 180" stroke="#37473C" stroke-width="0.50541" stroke-linecap="round"/>
<path d="M112.321 173.622C111.895 172.84 111.945 172.713 112.172 173.718C112.65 175.841 113.357 177.918 114 180" stroke="#37473C" stroke-width="0.50541" stroke-linecap="round"/>
<path d="M114 171C114 172.717 114 175.2 114 177" stroke="#37473C" stroke-width="0.50541" stroke-linecap="round"/>
<path d="M115 169.599C115 168.712 115 168.869 115 169.683C115 171.458 115 173.263 115 175" stroke="#37473C" stroke-width="0.50541" stroke-linecap="round"/>
<path d="M115.918 168.754C115.736 167.641 114.717 167.812 115.076 168.928C115.733 170.971 116.644 172.944 117 175" stroke="#37473C" stroke-width="0.50541" stroke-linecap="round"/>
<path d="M117 167.564C117.411 166.336 117.386 167.385 117.519 168.147C117.805 169.791 117.915 171.331 118 173" stroke="#37473C" stroke-width="0.50541" stroke-linecap="round"/>
<path d="M118.015 166.667C118.015 166.2 117.957 165.538 118.07 166.471C118.335 168.659 118.683 170.828 119 173" stroke="#37473C" stroke-width="0.50541" stroke-linecap="round"/>
<path d="M119 164.372C119 163.595 118.992 164.208 119.056 164.644C119.367 166.764 119.717 168.866 120 171" stroke="#37473C" stroke-width="0.50541" stroke-linecap="round"/>
<path d="M121 164C121 165.691 121.619 167.347 122 169" stroke="#37473C" stroke-width="0.50541" stroke-linecap="round"/>
<path d="M122 164.266C122.073 163.535 122.649 164.519 122.822 164.745C123.661 165.837 123.776 166.796 124 168" stroke="#37473C" stroke-width="0.50541" stroke-linecap="round"/>
<path d="M90 196.764C90.0145 195.954 90.119 195.674 90.2556 196.49C90.6448 198.819 90.8156 201.453 91 204" stroke="#37473C" stroke-width="0.50541" stroke-linecap="round"/>
<path d="M91 194C91 196.367 91 198.661 91 201" stroke="#37473C" stroke-width="0.50541" stroke-linecap="round"/>
<path d="M91 194C91.2305 196.483 94.7503 198.645 96 201" stroke="#37473C" stroke-width="0.50541" stroke-linecap="round"/>
<path d="M92 192C94.6207 193.672 95.1179 196.973 96 199" stroke="#37473C" stroke-width="0.50541" stroke-linecap="round"/>
<path d="M95.4121 192.665C95.3887 192.407 94.9856 191.574 95.0004 192.274C95.0513 194.706 96.3974 197.718 97 200" stroke="#37473C" stroke-width="0.50541" stroke-linecap="round"/>
<path d="M74.2379 98.4765C74.2236 98.397 73.6628 97.7542 74.3147 98.1029C76.4237 99.2315 76.5688 102.351 77 104" stroke="#37473C" stroke-width="0.50541" stroke-linecap="round"/>
<path d="M76 95C76.9959 95.3897 77.5999 101.539 78 103" stroke="#37473C" stroke-width="0.50541" stroke-linecap="round"/>
<path d="M78.0523 96.7134C77.9762 94.3051 77.833 94.5287 78.8943 96.8007C79.8304 98.8044 80.545 100.878 81 103" stroke="#37473C" stroke-width="0.50541" stroke-linecap="round"/>
<path d="M76.3519 95.3498C75.5853 94.1414 76.2936 96.4131 76.4042 96.8962C77.0067 99.5299 77.7073 102.231 78 105" stroke="#37473C" stroke-width="0.50541" stroke-linecap="round"/>
<path d="M74 95C74.0861 95.9793 74.5838 96.9302 74.9074 97.8351C75.7516 100.196 76.4123 102.568 77 105" stroke="#37473C" stroke-width="0.50541" stroke-linecap="round"/>
<path d="M73.412 98.195C72.4688 97.3392 73.4319 99.5674 73.4918 99.7278C74.3848 102.12 75.4566 104.504 76 107" stroke="#37473C" stroke-width="0.50541" stroke-linecap="round"/>
<path d="M72 99C73.9792 101.15 74.9072 104.45 76 107" stroke="#37473C" stroke-width="0.50541" stroke-linecap="round"/>
<path d="M73 101C74.4678 103.615 75.754 106.286 77 109" stroke="#37473C" stroke-width="0.50541" stroke-linecap="round"/>
<path d="M77.8031 85.4019C76.7889 84.7787 76.8357 84.8664 77.3887 85.7619C78.4796 87.5285 79.8659 89.244 81 91" stroke="#37473C" stroke-width="0.50541" stroke-linecap="round"/>
<path d="M77 83.2931C77 82.347 77.3526 83.9763 77.4443 84.18C78.4848 86.4916 79.7792 88.7415 81 91" stroke="#37473C" stroke-width="0.50541" stroke-linecap="round"/>
<path d="M77.642 82.3795C77.3578 82.0025 77.1936 81.5803 77.0314 81.1279C76.7766 80.4168 78.1546 82.8958 78.2355 83.0422C79.4383 85.2177 80.165 87.7348 81 90" stroke="#37473C" stroke-width="0.50541" stroke-linecap="round"/>
<path d="M77 78.048C77 77.6824 77.6977 79.5197 77.7778 79.6822C78.975 82.1116 80.3177 84.3822 81 87" stroke="#37473C" stroke-width="0.50541" stroke-linecap="round"/>
<path d="M78 77.5368C78 76.34 78.2663 77.4233 78.6445 78.094C80.0771 80.6346 81.0025 83.3426 82 86" stroke="#37473C" stroke-width="0.50541" stroke-linecap="round"/>
<path d="M78 74C79.8084 77.5996 81.594 81.2435 83 85" stroke="#37473C" stroke-width="0.50541" stroke-linecap="round"/>
<path d="M81.0003 72.0001C80.9807 71.9746 81.9393 75.8072 82.1748 76.4227C83.0323 78.6632 83.9399 80.8517 85 83" stroke="#37473C" stroke-width="0.50541" stroke-linecap="round"/>
<path d="M81 72C83.0112 74.8662 83.614 78.3159 86 81" stroke="#37473C" stroke-width="0.50541" stroke-linecap="round"/>
<path d="M83.03 69.015C82.8466 68.7658 83.5607 71.6969 83.66 71.9816C84.3682 74.0117 85.1647 76.0148 86 78" stroke="#37473C" stroke-width="0.50541" stroke-linecap="round"/>
<path d="M83 66.106C83 65.3081 84.1813 69.2671 84.2963 69.5594C85.2617 72.0154 86.4064 74.4327 87 77" stroke="#37473C" stroke-width="0.50541" stroke-linecap="round"/>
<path d="M85.0133 64.3513C84.9424 63.2516 85.1742 65.0549 85.2541 65.3888C85.9286 68.2053 86.7091 70.9922 87 74" stroke="#37473C" stroke-width="0.50541" stroke-linecap="round"/>
<path d="M85 63.0916C85 62.6505 85.1613 63.9236 85.2425 64.3392C85.8086 67.2376 86.4214 70.1094 87 73" stroke="#37473C" stroke-width="0.50541" stroke-linecap="round"/>
<path d="M86.3299 63.343C85.8009 61.7978 85.9315 61.3618 86.5542 63.241C87.4306 65.8848 88.9138 68.4103 90 71" stroke="#37473C" stroke-width="0.50541" stroke-linecap="round"/>
<path d="M86.4373 60.9964C85.9265 60.0258 85.7041 59.4509 86.6712 60.774C88.9086 63.8349 89.9602 67.4722 91 71" stroke="#37473C" stroke-width="0.50541" stroke-linecap="round"/>
<path d="M87.5412 58.443C87.0375 57.7443 86.7833 57.9003 87.2339 58.7129C88.5704 61.1235 89.8494 63.531 91 66" stroke="#37473C" stroke-width="0.50541" stroke-linecap="round"/>
<path d="M88.486 58.4157C88.366 57.9621 87.8634 56.6532 88.0356 57.0868C88.5239 58.3164 89.1222 59.4946 89.6274 60.7169C90.3687 62.5104 91.0996 64.2995 92 66" stroke="#37473C" stroke-width="0.50541" stroke-linecap="round"/>
<path d="M90.0793 57.0475C89.8506 56.7211 90.1779 58.1649 90.2927 58.6777C90.7842 60.8734 91.3896 62.9354 92 65" stroke="#37473C" stroke-width="0.50541" stroke-linecap="round"/>
<path d="M91.5059 59.3151C91.402 58.8964 90.8248 58.8746 91.0529 59.3728C91.7753 60.951 93.6729 62.517 95 64" stroke="#37473C" stroke-width="0.50541" stroke-linecap="round"/>
<path d="M92.2279 58C90.969 59.1442 95.3042 63.083 96 64" stroke="#37473C" stroke-width="0.50541" stroke-linecap="round"/>
<path d="M95.1022 58C94.6339 58.1166 95.9226 62.6752 96 63" stroke="#37473C" stroke-width="0.50541" stroke-linecap="round"/>
<path d="M96 58.3444C96 56.6965 96.7348 61.4122 97 63" stroke="#37473C" stroke-width="0.50541" stroke-linecap="round"/>
<path d="M99 59C99.053 60.4651 99.5819 61.6968 100 63" stroke="#37473C" stroke-width="0.50541" stroke-linecap="round"/>
<path d="M87 54.7436C87 52.0519 86.8352 57.7859 86.8352 54.7713C86.8352 53.4547 86.697 54.0201 86.5881 55.006C86.4388 56.3568 86.7393 56.8936 86.5423 55.2961C86.2795 53.165 86.2605 58.6335 86.7528 55.959C86.8411 55.4795 86.7973 53.9915 86.5881 55.2547C86.3934 56.4297 86.3409 57.8511 86.3409 55.7381C86.3409 53.8947 86.3409 56.5981 86.3409 57.1192C86.3409 57.689 86.0936 55.1827 86.2586 55.2822C86.6665 55.5285 86.4719 57.8506 86.2586 57.2711C86.1764 57.0479 86.0386 54.5277 86.0115 56.2905C85.9979 57.1676 85.9657 58.1207 86.1396 56.6772C86.3365 55.0428 86.2522 56.1209 86.0938 56.9811C85.8629 58.2354 86.1761 56.4666 86.1761 56.5529C86.1761 57.278 86.0093 58.9922 86.1761 57.2297" stroke="#37473C" stroke-width="0.50541" stroke-linecap="round"/>
<path d="M88 48.0848C88 47.6684 88.3461 48.9144 88.4075 49.0378C89.2411 50.7146 90.2359 52.3054 91 54" stroke="#37473C" stroke-width="0.50541" stroke-linecap="round"/>
<path d="M88.0787 45.3563C88.0154 44.6437 87.8928 45.1291 88.1968 45.6883C89.1777 47.4937 90.1504 49.0691 91 51" stroke="#37473C" stroke-width="0.50541" stroke-linecap="round"/>
<path d="M88 44.2741C88 43.5888 88.4249 44.3728 88.5927 44.634C89.8956 46.6626 90.9052 48.8693 92 51" stroke="#37473C" stroke-width="0.50541" stroke-linecap="round"/>
<path d="M90 41.0018C90.0148 40.937 91.0633 42.6849 91.0937 42.7332C92.4166 44.818 93.7494 46.8842 95 49" stroke="#37473C" stroke-width="0.50541" stroke-linecap="round"/>
<path d="M90.7036 40.5796C89.5217 39.0827 90.0844 40.8796 90.5517 41.5568C92.0371 43.7086 93.6378 45.8091 95 48" stroke="#37473C" stroke-width="0.50541" stroke-linecap="round"/>
<path d="M88.077 35C87.4573 36.0601 90.7646 39.3347 91.327 40.0731C92.5705 41.7059 93.8122 43.3444 95 45" stroke="#37473C" stroke-width="0.50541" stroke-linecap="round"/>
<path d="M90.0112 35C89.837 35.1051 91.7545 42.8889 92 44" stroke="#37473C" stroke-width="0.50541" stroke-linecap="round"/>
<path d="M91.5435 34.2105C90.7869 32.2043 90.8515 32.96 91.5435 34.5349C92.6479 37.048 93.8544 39.5105 95 42" stroke="#37473C" stroke-width="0.50541" stroke-linecap="round"/>
<path d="M91.5998 32.3644C89.1969 30.2304 94.7035 38.0386 96 41" stroke="#37473C" stroke-width="0.50541" stroke-linecap="round"/>
<path d="M92 33C92.3723 35.2333 95.5724 38.033 97 40" stroke="#37473C" stroke-width="0.50541" stroke-linecap="round"/>
<path d="M96.391 33.7026C96.1922 33.3267 95.7508 32.4817 96.184 33.4448C97.1625 35.6202 98.1123 37.7894 99 40" stroke="#37473C" stroke-width="0.50541" stroke-linecap="round"/>
<path d="M97.2425 33C96.028 33.1283 99.7575 39.5107 100 40" stroke="#37473C" stroke-width="0.50541" stroke-linecap="round"/>
<path d="M99.2399 35.4827C99.1474 35.4369 98.9085 34.5929 99.0373 35.2484C99.3583 36.8845 99.7471 38.2968 100 40" stroke="#37473C" stroke-width="0.50541" stroke-linecap="round"/>
<path d="M99.3038 33.2227C98.2139 31.8592 100.358 37.126 101 39" stroke="#37473C" stroke-width="0.50541" stroke-linecap="round"/>
<path d="M101 33.3919C101 31.4735 101 37.1228 101 39" stroke="#37473C" stroke-width="0.50541" stroke-linecap="round"/>
<path d="M101 35.0057C101 34.9189 101 35.8481 101 36" stroke="#37473C" stroke-width="0.50541" stroke-linecap="round"/>
<path d="M100 51C100.902 53.0561 102.284 54.8518 103 57" stroke="#37473C" stroke-width="0.50541" stroke-linecap="round"/>
<path d="M101 49C102.14 51.4177 103.007 54.4256 104 57" stroke="#37473C" stroke-width="0.50541" stroke-linecap="round"/>
<path d="M103 50C104.038 52.2951 104.934 54.7316 106 57" stroke="#37473C" stroke-width="0.50541" stroke-linecap="round"/>
<path d="M105 51.1289C105 50.5787 105.428 51.9561 105.542 52.1539C106.457 53.7458 107.316 55.2785 108 57" stroke="#37473C" stroke-width="0.50541" stroke-linecap="round"/>
<path d="M106.413 51.2775C104.689 49.73 108.844 55.0731 110 57" stroke="#37473C" stroke-width="0.50541" stroke-linecap="round"/>
<path d="M110 54.2193C110 53.7284 110.258 54.1816 110.395 54.4179C110.905 55.2962 111.429 56.1501 112 57" stroke="#37473C" stroke-width="0.50541" stroke-linecap="round"/>
<path d="M111.265 51.4715C110.723 50.8133 111.128 50.8475 111.455 51.5534C112.298 53.3709 113.161 55.1902 114 57" stroke="#37473C" stroke-width="0.50541" stroke-linecap="round"/>
<path d="M113 51.4649C113.062 50.4368 113.298 51.3678 113.444 51.834C113.98 53.5404 114.482 55.279 115 57" stroke="#37473C" stroke-width="0.50541" stroke-linecap="round"/>
<path d="M114.609 50.7878C114.516 50.6313 113.717 49.5252 114.106 50.2361C115.048 51.9553 116.668 53.4806 118 55" stroke="#37473C" stroke-width="0.50541" stroke-linecap="round"/>
<path d="M117.071 50.3329C117.041 49.9291 116.909 49.8262 117.107 50.4021C117.653 51.9884 118.366 53.4878 119 55" stroke="#37473C" stroke-width="0.50541" stroke-linecap="round"/>
<path d="M118 51.087C118.047 50.6466 118.473 52.0174 118.5 52.0944C119.059 53.6678 119.511 55.3716 120 57" stroke="#37473C" stroke-width="0.50541" stroke-linecap="round"/>
<path d="M120 54C120.278 54.9731 121.46 56.1159 122 57" stroke="#37473C" stroke-width="0.50541" stroke-linecap="round"/>
<path d="M122 55C122.276 55.6756 123.387 56.3646 124 57" stroke="#37473C" stroke-width="0.50541" stroke-linecap="round"/>
<path d="M122.034 55C121.597 55.0342 125.527 57.6818 126 58" stroke="#37473C" stroke-width="0.50541" stroke-linecap="round"/>
<path d="M124 55.2105C124 54.2032 125.893 57.0887 127 58" stroke="#37473C" stroke-width="0.50541" stroke-linecap="round"/>
<path d="M126 55C126.143 56.3149 126.74 57.6975 127 59" stroke="#37473C" stroke-width="0.50541" stroke-linecap="round"/>
<path d="M72 25C75.0734 25 78.1869 24.387 81 24" stroke="#37473C" stroke-width="0.50541" stroke-linecap="round"/>
<path d="M72 26C73.7025 25.4866 75.3531 24.6877 77 24" stroke="#37473C" stroke-width="0.50541" stroke-linecap="round"/>
<path d="M70.8542 24.5418C70.4279 24.7191 69.3903 25.3124 70.4876 24.7889C72.9354 23.6211 75.4605 22.8497 78 22" stroke="#37473C" stroke-width="0.50541" stroke-linecap="round"/>
<path d="M70.6747 23.6107C67.2833 25.3606 77.6073 20.7453 81 19" stroke="#37473C" stroke-width="0.50541" stroke-linecap="round"/>
<path d="M68.116 23.8667C66.5038 24.3031 66.7663 23.6161 68.0876 22.5598C69.9874 21.0414 71.9808 20.0186 74 19" stroke="#37473C" stroke-width="0.50541" stroke-linecap="round"/>
<path d="M62 25C65.3136 24.6869 68.8964 22.3066 72 21" stroke="#37473C" stroke-width="0.50541" stroke-linecap="round"/>
<path d="M73 27C75.553 26.8517 78.6647 25.5878 81 25" stroke="#37473C" stroke-width="0.50541" stroke-linecap="round"/>
<path d="M74 26.9369C74.3368 27.4966 84.4804 24.1522 85 24" stroke="#37473C" stroke-width="0.50541" stroke-linecap="round"/>
<path d="M78.0437 27C77.8291 27 78.4644 26.9482 78.6698 26.9111C81.2123 26.451 83.5907 25.6541 86 25" stroke="#37473C" stroke-width="0.50541" stroke-linecap="round"/>
<path d="M81.9431 27.3576C80.8691 27.9233 80.4332 28.3264 82.1626 27.6341C84.146 26.8402 86.0709 25.9137 88 25" stroke="#37473C" stroke-width="0.50541" stroke-linecap="round"/>
<path d="M82.6498 27.4821C80.993 28.4372 82.9417 27.826 83.6667 27.5782C85.1226 27.0802 86.5547 26.5219 88 26" stroke="#37473C" stroke-width="0.50541" stroke-linecap="round"/>
<path d="M84.0847 28.9608C82.5751 30.1754 82.5704 30.2974 84.519 29.4725C86.7643 28.5222 88.8796 27.2374 91 26" stroke="#37473C" stroke-width="0.50541" stroke-linecap="round"/>
<path d="M84.2336 30.1325C83.9442 30.3201 81.9605 31.4397 83.7191 30.8096C86.1719 29.9309 88.5792 28.9413 91 28" stroke="#37473C" stroke-width="0.50541" stroke-linecap="round"/>
<path d="M86.8601 31.223C85.9795 31.922 85.4388 32.3712 86.948 31.5839C90.2274 29.8736 93.6136 28.4657 97 27" stroke="#37473C" stroke-width="0.50541" stroke-linecap="round"/>
<path d="M91.8224 32.4894C91.659 32.5956 90.7868 33.0651 91.0487 32.9924C94.3962 32.0615 97.6867 30.9908 101 30" stroke="#37473C" stroke-width="0.50541" stroke-linecap="round"/>
<path d="M97.887 32.2141C94.9713 34.368 100.101 31.4614 101 31" stroke="#37473C" stroke-width="0.50541" stroke-linecap="round"/>
<path d="M96.6047 34.4418C95.8066 34.9428 95.6866 35.2203 96.9315 34.781C99.0006 34.0508 101.003 32.9705 103 32" stroke="#37473C" stroke-width="0.50541" stroke-linecap="round"/>
<path d="M96 36C98.386 35.6436 100.919 33.9497 103 33" stroke="#37473C" stroke-width="0.50541" stroke-linecap="round"/>
<path d="M91 30C94.3713 29.7446 97.9581 27.3526 101 26" stroke="#37473C" stroke-width="0.50541" stroke-linecap="round"/>
<path d="M86 28C90.2366 26.525 94.756 25.4777 99 24" stroke="#37473C" stroke-width="0.50541" stroke-linecap="round"/>
<path d="M83 26C84.9839 25.8216 87.2332 24.3925 88.9929 23.6111C92.6383 21.9924 96.2957 20.4526 100 19" stroke="#37473C" stroke-width="0.50541" stroke-linecap="round"/>
<path d="M81 25C85.4716 22.5548 90.4012 21.0958 95 19" stroke="#37473C" stroke-width="0.50541" stroke-linecap="round"/>
<path d="M76 24C82.3757 21.893 88.639 19.1937 95 17" stroke="#37473C" stroke-width="0.50541" stroke-linecap="round"/>
<path d="M74 21.8035C74.5125 22.4396 77.2322 21.3337 77.4667 21.2656C80.7028 20.3256 83.8326 19.1508 87 18" stroke="#37473C" stroke-width="0.50541" stroke-linecap="round"/>
<path d="M72 22C72.9493 22 73.8458 21.6205 74.7459 21.3229C79.1597 19.8635 83.5737 18.4121 88 17" stroke="#37473C" stroke-width="0.50541" stroke-linecap="round"/>
<path d="M77 25C80.6758 23.6957 84.3333 22.3315 88 21" stroke="#37473C" stroke-width="0.50541" stroke-linecap="round"/>
<path d="M77.7806 25.1974C76.1071 26.4032 77.4336 26.0238 78.8687 25.5203C81.9487 24.4398 84.9676 23.2076 88 22" stroke="#37473C" stroke-width="0.50541" stroke-linecap="round"/>
<path d="M83.0824 27.8498C82.5767 28.3828 84.5351 27.3486 85.2402 27.0536C89.1863 25.4026 93.119 23.7536 97 22" stroke="#37473C" stroke-width="0.50541" stroke-linecap="round"/>
<path d="M86 30C90.4027 28.1399 94.678 26.0191 99 24" stroke="#37473C" stroke-width="0.50541" stroke-linecap="round"/>
<path d="M90 31C93.4912 29.717 96.7127 27.7402 100 26" stroke="#37473C" stroke-width="0.50541" stroke-linecap="round"/>
<path d="M95 31C97.0551 30.6522 99.1792 28.9745 101 28" stroke="#37473C" stroke-width="0.50541" stroke-linecap="round"/>
<path d="M99.1607 32.333C98.9744 32.7368 98.8167 33.1792 99.4935 32.9253C101.014 32.3555 102.498 31.6205 104 31" stroke="#37473C" stroke-width="0.50541" stroke-linecap="round"/>
<path d="M73.2884 19.2726C73.2776 19.1537 72.8455 18 73.0593 18C73.2945 18 73.7539 18.8254 73.8447 18.9545C75.2484 20.9501 76.6173 22.983 78 25" stroke="#37473C" stroke-width="0.50541" stroke-linecap="round"/>
<path d="M77 17C78.5396 19.9011 81.055 22.4065 83 25" stroke="#37473C" stroke-width="0.50541" stroke-linecap="round"/>
<path d="M81.2853 18.2596C80.5442 15.9592 81.3563 17.2278 82.4671 18.7524C83.9829 20.8326 85.4373 22.9629 87 25" stroke="#37473C" stroke-width="0.50541" stroke-linecap="round"/>
<path d="M83 16.0949C83.0888 15.5706 84.1972 17.3865 84.2525 17.4596C86.2539 20.1037 88.7296 22.5189 91 25" stroke="#37473C" stroke-width="0.50541" stroke-linecap="round"/>
<path d="M87 16.0005C87.0364 15.9345 91.4852 23.1131 92 24" stroke="#37473C" stroke-width="0.50541" stroke-linecap="round"/>
<path d="M91 14C93.3989 16.9794 94.4935 21.17 97 24" stroke="#37473C" stroke-width="0.50541" stroke-linecap="round"/>
<path d="M92.007 15C91.7567 15.0494 98.337 22.8571 99 24" stroke="#37473C" stroke-width="0.50541" stroke-linecap="round"/>
<path d="M96 14C97.2529 16.3547 98.4384 18.8373 100 21" stroke="#37473C" stroke-width="0.50541" stroke-linecap="round"/>
<path d="M99 14C99.2626 14.0895 99.5884 15.404 99.6852 15.6414C100.135 16.7435 100.658 17.8345 101 19" stroke="#37473C" stroke-width="0.50541" stroke-linecap="round"/>
<path d="M100.125 14.7399C100.106 14.3535 99.8197 13.5524 100.183 14.3225C101.202 16.4807 102.048 18.7961 103 21" stroke="#37473C" stroke-width="0.50541" stroke-linecap="round"/>
<path d="M101 12C101.228 14.3447 103.073 16.8846 104 19" stroke="#37473C" stroke-width="0.50541" stroke-linecap="round"/>
<path d="M104 14.0502C104.03 13.815 104.15 14.4697 104.204 14.6939C104.469 15.7961 104.734 16.8982 105 18" stroke="#37473C" stroke-width="0.50541" stroke-linecap="round"/>
<path d="M104 13.3243C104 12.6842 104.052 13.1271 104.185 13.4971C104.625 14.7243 105.355 15.8455 106 17" stroke="#37473C" stroke-width="0.50541" stroke-linecap="round"/>
<path d="M105 12C105.449 13.346 107.132 14.6983 108 16" stroke="#37473C" stroke-width="0.50541" stroke-linecap="round"/>
<path d="M106 12.2057C106 11.2166 107.349 14.0659 108 15" stroke="#37473C" stroke-width="0.50541" stroke-linecap="round"/>
<path d="M108.069 10.4659C107.587 8.50668 109.79 13.3174 110 14" stroke="#37473C" stroke-width="0.50541" stroke-linecap="round"/>
<path d="M110 9.28814C110 7.92903 110.683 11.7508 111 13" stroke="#37473C" stroke-width="0.50541" stroke-linecap="round"/>
<path d="M111 9.26899C111 7.97055 111.772 11.7268 112 13" stroke="#37473C" stroke-width="0.50541" stroke-linecap="round"/>
<path d="M112 9.01656C112 8.77218 112.719 11.3023 113 12" stroke="#37473C" stroke-width="0.50541" stroke-linecap="round"/>
<path d="M113 9C113.921 9 113.662 9 114 9" stroke="#37473C" stroke-width="0.50541" stroke-linecap="round"/>
<path d="M221 55C221.638 55 221.653 54.7383 222.152 54.3333C224.405 52.508 226.747 50.8261 229 49" stroke="#37473C" stroke-width="0.50541" stroke-linecap="round"/>
<path d="M221 54C223.305 51.6945 226.434 50.0262 229 48" stroke="#37473C" stroke-width="0.50541" stroke-linecap="round"/>
<path d="M221 55C223.15 53.0974 225.011 50.2309 227 48" stroke="#37473C" stroke-width="0.50541" stroke-linecap="round"/>
<path d="M220.423 53.41C218.282 56.2844 224.858 47.8742 227 45" stroke="#37473C" stroke-width="0.50541" stroke-linecap="round"/>
<path d="M220.35 50.5217C219.839 51.0478 219.88 51.2227 220.523 50.6185C222.431 48.8273 224.237 46.9278 226 45" stroke="#37473C" stroke-width="0.50541" stroke-linecap="round"/>
<path d="M220 50C221.854 47.6231 224.577 45.8405 227 44" stroke="#37473C" stroke-width="0.50541" stroke-linecap="round"/>
<path d="M221 48C222.627 46.6308 224.337 45.3333 226 44" stroke="#37473C" stroke-width="0.50541" stroke-linecap="round"/>
<path d="M221 55C222.017 54.6549 223.2 52.1209 224 51" stroke="#37473C" stroke-width="0.50541" stroke-linecap="round"/>
<path d="M221.265 56.3911C220.645 57.2419 221.234 57.0793 221.796 56.6407C224.201 54.7661 226.587 52.8584 229 51" stroke="#37473C" stroke-width="0.50541" stroke-linecap="round"/>
<path d="M222.25 57.5154C220.696 59.4047 226.799 55.2455 229 54" stroke="#37473C" stroke-width="0.50541" stroke-linecap="round"/>
<path d="M223 57.8866C223.642 58.2919 224.434 57.503 224.932 57.2081C226.896 56.0458 228.945 55.0206 231 54" stroke="#37473C" stroke-width="0.50541" stroke-linecap="round"/>
<path d="M224 59C226.265 58.791 229.24 56.0667 231 55" stroke="#37473C" stroke-width="0.50541" stroke-linecap="round"/>
<path d="M227 58.9319C227.227 59.5926 232.68 55.2337 233 55" stroke="#37473C" stroke-width="0.50541" stroke-linecap="round"/>
<path d="M220 46C220.557 46.2087 220.734 48.2177 220.864 48.8751C221.266 50.8899 221.754 52.9159 222 55" stroke="#37473C" stroke-width="0.50541" stroke-linecap="round"/>
<path d="M222 44C222.728 44.2832 222.902 46.1451 223.048 46.6666C223.441 48.069 224 49.5418 224 51" stroke="#37473C" stroke-width="0.50541" stroke-linecap="round"/>
<path d="M224 45.0197C224.049 44.8274 224.544 46.1063 224.557 46.1372C225.16 47.75 225.595 49.355 226 51" stroke="#37473C" stroke-width="0.50541" stroke-linecap="round"/>
<path d="M226 42.1113C226.044 41.5826 226.233 43.0807 226.309 43.5942C226.576 45.3855 226.799 47.1808 227 49" stroke="#37473C" stroke-width="0.50541" stroke-linecap="round"/>
<path d="M227 42.0006C227 41.9357 227 47.1788 227 48" stroke="#37473C" stroke-width="0.50541" stroke-linecap="round"/>
<path d="M227 40.5254C227 37.9571 229.664 45.5084 231 48" stroke="#37473C" stroke-width="0.50541" stroke-linecap="round"/>
</g>
</svg>
