<svg width="236" height="161" viewBox="0 0 236 161" fill="none" xmlns="http://www.w3.org/2000/svg">
<path d="M2.33008 31.3672C5.58628 32.8473 11.1402 42.7676 11.1402 46.5946C11.1402 52.0384 12.4118 63.0319 16.5242 52.5224C18.7291 46.8877 23.1167 42.5695 27.2378 38.2195C29.7325 35.5862 34.1416 36.2676 35.6128 33.325" stroke="black" stroke-width="3" stroke-linecap="round"/>
<path d="M97.2837 2C97.4634 3.61703 98.9355 4.13122 99.7853 5.42617C100.923 7.1599 102.257 16.2167 103.701 16.6292C106.047 17.2994 110.145 11.6463 111.913 10.3207C114.369 8.47825 114.8 6.97824 117.841 5.69808C120.035 4.77406 122.334 2.9789 124.693 2.9789" stroke="black" stroke-width="3" stroke-linecap="round"/>
<path d="M74.7686 85.2068C77.9229 88.8285 79.1715 94.2709 82.5998 97.4975C83.8698 98.6928 84.7536 94.1734 85.1014 93.5275C87.1831 89.6616 91.7137 86.5571 93.3677 83.249" stroke="black" stroke-width="3" stroke-linecap="round"/>
<path d="M171.681 24.5149C172.684 27.2242 174.029 29.7958 175.379 32.3461C177.532 36.4131 183.211 25.2619 184.243 23.971C187.059 20.4515 192.249 17.6571 196.153 15.7047" stroke="black" stroke-width="3" stroke-linecap="round"/>
<path d="M205.942 70.5233C208.348 73.2026 215.839 82.8935 220.19 79.2246C222.517 77.2633 223.836 73.613 225.466 71.0671C227.878 67.2971 231.072 64.7537 234.33 61.7131" stroke="black" stroke-width="3" stroke-linecap="round"/>
<path d="M172.433 151.442C174.63 153.692 176.683 155.966 178.428 158.583C178.732 159.039 178.854 159.143 179.387 159.356" stroke="#F6AC27" stroke-width="2" stroke-linecap="round"/>
<circle cx="155.33" cy="78.8823" r="22" fill="#F6AC27"/>
<path d="M174.795 63.9858C178.077 63.7123 181.24 61.2822 184.148 59.9357C186.794 58.7101 189.549 57.8234 192.301 56.7915" stroke="#F6AC27" stroke-width="2" stroke-linecap="round"/>
<path d="M180.311 77.6553C182.79 78.7042 185.958 78.4754 188.611 78.8543C188.994 78.9091 189.27 79.0941 189.663 79.0941" stroke="#F6AC27" stroke-width="2" stroke-linecap="round"/>
<path d="M165.682 102.835C166.252 106.764 166.881 110.418 166.881 114.346" stroke="#F6AC27" stroke-width="2" stroke-linecap="round"/>
<path d="M145.778 102.595C145.459 104.715 145.048 106.752 144.579 108.831" stroke="#F6AC27" stroke-width="2" stroke-linecap="round"/>
<path d="M139.782 96.6003C136.203 97.6231 132.674 99.4301 129.391 101.183C127.767 102.051 126.172 102.965 124.674 104.034" stroke="#F6AC27" stroke-width="2" stroke-linecap="round"/>
<path d="M128.032 84.6096C125.221 84.6569 122.441 84.8959 119.638 85.0892" stroke="#F6AC27" stroke-width="2" stroke-linecap="round"/>
<path d="M130.19 74.058C126.801 70.7965 123.223 67.7882 119.105 65.4781C118.451 65.1114 117.703 64.6414 117 64.4656" stroke="#F6AC27" stroke-width="2" stroke-linecap="round"/>
<path d="M137.624 63.2667C137.319 61.743 135.312 60.4135 134.267 59.4297" stroke="#F6AC27" stroke-width="2" stroke-linecap="round"/>
<path d="M149.375 56.7915C148.011 53.6876 146.528 50.702 144.925 47.7186C144.619 47.1498 144.339 46.6458 144.339 46" stroke="#F6AC27" stroke-width="2" stroke-linecap="round"/>
<path d="M165.442 56.312C166.249 54.9183 167.334 53.5133 167.84 51.9954" stroke="#F6AC27" stroke-width="2" stroke-linecap="round"/>
</svg>
