<svg width="30" height="15" viewBox="0 0 30 15" fill="none" xmlns="http://www.w3.org/2000/svg">
<path fill-rule="evenodd" clip-rule="evenodd" d="M0.0330811 6.46853V7.97301H20.6592C22.7939 7.97301 24.2453 7.54845 26.2589 7.54845V7.64627C22.2305 9.34641 20.5382 11.2441 19.1693 13.0098L20.7395 14.2198C22.7543 11.3419 25.0496 9.21629 29.1187 7.61303V6.79621C25.0507 5.19295 22.7543 3.10054 20.7395 0.222656L19.1693 1.40041C20.5382 3.19837 22.2305 5.09512 26.2589 6.79526V6.89403C24.2453 6.89403 22.7939 6.46853 20.6592 6.46853H0.0330811Z" fill="#F6AC27"/>
<path fill-rule="evenodd" clip-rule="evenodd" d="M20.5552 7.91735C21.4625 7.92969 21.7023 7.93444 21.5111 7.98858C21.3199 8.04082 20.6831 8.09021 19.8629 8.08926C19.4964 8.09116 19.3007 8.10541 19.2577 8.11965C18.9341 8.11965 18.6129 8.12155 18.321 8.1225C17.864 8.12155 17.6004 8.08641 17.1445 8.06931C16.9103 8.05982 16.5947 8.05982 16.304 8.06266C15.6955 8.04974 15.0868 8.04563 14.4781 8.05032C13.3231 8.05982 11.7756 8.09876 10.6715 8.06266C9.4237 8.02087 9.25741 8.04082 7.91914 8.03702C7.2121 8.03417 6.13402 8.04367 5.61025 8.01138C5.11024 7.98003 4.46203 7.84611 6.53448 7.87461C6.78514 7.88212 7.03612 7.87514 7.28564 7.85371C8.58997 7.83471 9.73932 7.86321 11.0561 7.86891C11.6202 7.86685 12.1843 7.86463 12.7485 7.86226L13.8786 7.84326C14.1433 7.85276 14.4137 7.86036 14.6535 7.86701C15.0347 7.8765 15.4963 7.86036 15.8775 7.86036C16.2056 7.85941 16.6965 7.8727 17.0506 7.86226L20.2045 7.9031C20.2781 7.90975 20.3855 7.9145 20.5552 7.91735Z" fill="#F6AC27"/>
<path fill-rule="evenodd" clip-rule="evenodd" d="M5.91992 6.41656C6.17784 6.39282 6.39165 6.37098 6.90863 6.36528C7.36453 6.35958 7.77065 6.37097 8.22654 6.37382C8.68357 6.37952 9.16209 6.36338 9.61798 6.39567C10.0739 6.42036 10.3827 6.38332 10.8397 6.36528C11.2968 6.34628 11.8386 6.36623 12.2957 6.38522L13.0785 6.40707C13.307 6.41467 13.5231 6.41941 13.7516 6.41656C14.2075 6.41467 14.6679 6.38807 15.1238 6.37382C15.5808 6.35958 15.8817 6.37667 16.3376 6.38712L17.0854 6.40042C17.3139 6.40517 17.6114 6.38142 17.8399 6.38142C18.2969 6.37952 18.8501 6.39187 19.3072 6.38237L20.6081 6.35768C21.048 6.35619 21.4876 6.37967 21.9237 6.42796L23.3627 6.59323C23.8118 6.65306 24.2462 6.7167 24.6964 6.76134C25.1489 6.80598 25.5822 6.83163 26.0392 6.83258L26.1173 6.83448L26.0517 6.88861C26.072 6.81263 26.0245 6.80313 25.9159 6.74994L25.6399 6.61887C25.4363 6.53244 25.1976 6.41467 24.9985 6.32064C24.5798 6.13094 24.1711 5.92623 23.7733 5.70707C23.3948 5.50923 23.0341 5.28828 22.6941 5.04601C22.3457 4.79336 22.1896 4.6129 21.8683 4.34031C21.5402 4.07056 21.1217 3.6726 20.8219 3.38291C20.5278 3.08847 20.211 2.77124 19.9418 2.45971L19.573 2.05414L19.2121 1.63338L18.9859 1.33895L18.9485 1.28766C18.9531 1.27341 18.9802 1.26106 18.9938 1.24682L19.099 1.16703C19.1443 1.13379 19.1895 1.10055 19.237 1.06351L19.7235 0.717779L20.2891 0.316964L20.4373 0.204888L20.6805 0.0149288C20.7054 -0.0183142 20.719 0.0111296 20.7337 0.0339247L20.7789 0.0966114L20.866 0.220085L20.9712 0.371103C21.1896 0.705432 21.392 0.991321 21.6387 1.3114C21.7631 1.47097 21.8604 1.59634 21.9939 1.74926C22.1262 1.90503 22.2156 2.0342 22.3649 2.17857L22.6274 2.41602C22.8763 2.67626 23.1353 2.93746 23.4102 3.1863C23.5188 3.29173 23.6172 3.40571 23.7326 3.50733L24.1964 3.9186C24.3525 4.05537 24.5562 4.21683 24.727 4.34126C24.8967 4.46758 25.046 4.5882 25.2213 4.70978C25.5788 4.95863 25.9793 5.23597 26.3662 5.45442C26.7338 5.66338 27.175 5.88848 27.5619 6.06894C27.9646 6.24465 28.2463 6.35388 28.6536 6.51914C28.7735 6.57043 28.8911 6.61887 29.011 6.67111L29.0834 6.70245C29.1027 6.7148 29.0891 6.7452 29.0925 6.76514V6.89336L29.0891 7.03868L29.08 7.69404L28.3583 8.01318L27.7248 8.30761C27.3436 8.48807 27.0144 8.62295 26.6456 8.8262C26.2632 9.02566 25.8673 9.27641 25.5143 9.51101C25.1512 9.74846 24.7326 10.0239 24.4114 10.3012C24.0901 10.57 23.8141 10.8379 23.5211 11.1276C23.2134 11.441 23.0233 11.6319 22.7326 11.9292C22.4498 12.2265 22.1715 12.5276 21.8989 12.8334C21.7665 12.9882 21.633 13.124 21.5052 13.2827C21.443 13.3624 21.3547 13.5097 21.2959 13.5913C21.2382 13.673 21.0764 13.8981 21.0312 13.9865C21.0233 13.9998 21.0244 14.0054 21.0244 14.0054L20.7156 14.4756C20.6251 14.4281 20.5199 14.3312 20.4294 14.2666L20.2495 14.1299L20.2099 14.0976C20.0339 13.9528 19.8524 13.8128 19.6658 13.6778L19.2529 13.3501L18.97 13.1221L19.1838 12.8438C19.3954 12.5741 19.625 12.3044 19.8716 12.0299C20.0108 11.8798 20.2382 11.6139 20.3366 11.4923C20.461 11.328 20.6183 11.1561 20.7846 10.9727C20.9995 10.7638 21.2201 10.5501 21.4384 10.3592C21.5312 10.2727 21.6274 10.1939 21.7224 10.1151C22.2541 9.68672 22.8106 9.33149 23.1862 9.13964C23.2926 9.0874 23.4555 8.98102 23.65 8.87084C24.1761 8.55266 24.658 8.26297 25.1127 8.01033C25.2406 7.94479 25.3684 7.8802 25.4996 7.82037L25.7078 7.72254C25.7417 7.71304 25.7813 7.68644 25.744 7.66745L25.6286 7.67695L25.572 7.6817L25.4012 7.69119L25.0607 7.71304C24.615 7.74153 24.2202 7.76433 23.7711 7.81372L23.6941 7.82322C22.6647 7.89635 23.5358 7.67125 24.9351 7.49364L25.1139 7.48034C25.3639 7.46514 25.4906 7.44805 25.8888 7.449L26.2236 7.50598C26.2757 7.51358 26.2429 7.61996 26.2463 7.64465C26.2372 7.66555 26.1852 7.70829 26.1558 7.73963C25.6784 7.99703 25.4204 8.08536 25.1173 8.25062C24.7035 8.41556 24.3069 8.60937 23.9317 8.83C23.7779 8.92118 23.5901 9.02756 23.4973 9.10259C22.8665 9.55605 22.2567 10.0297 21.6692 10.5225L21.6319 10.5558C21.4079 10.7505 21.1568 10.968 20.823 11.2605C20.6511 11.4087 20.4011 11.6879 20.2619 11.8656L19.5492 12.8087L19.323 13.086C19.3411 13.1012 19.3196 13.0851 19.3716 13.1278L19.5051 13.2342L19.7834 13.4527L20.3321 13.8706L20.6036 14.0757C20.6647 14.1185 20.6341 14.1042 20.65 14.1014C20.659 14.0919 20.6579 14.1346 20.6737 14.1251C20.6624 14.1479 20.7597 14.0083 20.8423 13.8915C20.9248 13.7708 21.012 13.6521 21.047 13.6141C21.1172 13.5372 21.0934 13.5951 21.1556 13.5144L21.3457 13.258L21.805 12.6596C22.0504 12.3348 22.1375 12.1505 22.4124 11.8399C22.6873 11.5293 22.995 11.2548 23.3095 10.9727C23.6184 10.6878 24.0663 10.2984 24.4091 10.041C24.7632 9.7855 25.055 9.59649 25.4182 9.35239C25.7745 9.11114 26.1535 8.86609 26.5302 8.64669C26.8922 8.42824 27.1897 8.25727 27.5709 8.05972C27.9329 7.87545 28.3492 7.70449 28.7373 7.54682C28.7859 7.52498 28.7735 7.56297 28.7836 7.49933L28.8063 7.28468C28.8153 7.19255 28.8221 7.03773 28.8244 6.88197C28.8244 6.83448 28.8289 6.84397 28.7271 6.80313L28.4952 6.71385C28.1512 6.59006 27.8138 6.45379 27.4838 6.30544C27.3866 6.2608 27.2972 6.21046 27.2123 6.16582C26.8322 5.96541 26.5076 5.7726 26.1388 5.557C25.7598 5.32145 25.4431 5.08875 25.0799 4.838L24.5528 4.47138L24.038 4.08196C23.8698 3.95764 23.7064 3.82872 23.5482 3.69539C23.3853 3.55862 23.1636 3.35157 23.012 3.2053C22.8661 3.05523 22.7247 2.88617 22.5844 2.73325C22.4486 2.57748 22.4136 2.48915 22.2869 2.32864L21.8796 1.83379C21.7461 1.67707 21.6375 1.50516 21.5086 1.34655C21.2586 1.02551 21.0278 0.75957 20.7902 0.43094L20.6737 0.275173C20.6647 0.253328 20.6511 0.260926 20.6352 0.279922L20.5866 0.324563L20.099 0.741524C19.937 0.877691 19.7695 1.00916 19.5968 1.13569L19.3524 1.31615C19.3354 1.33895 19.3094 1.30665 19.3728 1.39498L19.6873 1.85279C19.8049 2.01615 20.1058 2.33433 20.2348 2.48915C20.4904 2.80259 20.7167 3.06568 21.0029 3.36012C21.2948 3.6498 21.6251 3.99648 21.9645 4.25198C22.2971 4.50842 22.5606 4.66039 22.917 4.89499C23.2688 5.13244 23.7507 5.41453 24.115 5.63868C24.4849 5.85713 24.6648 6.0186 25.0516 6.21806C25.244 6.32064 25.4736 6.44411 25.6738 6.53339L25.9589 6.66446L26.1241 6.73855L26.1716 6.76039C26.1761 6.77274 26.1727 6.78889 26.1739 6.80218V6.93705H26.1173L26.0562 6.93515C25.5866 6.93426 25.1173 6.91398 24.6501 6.87437C24.1953 6.83543 23.7179 6.76704 23.2677 6.71575C22.8163 6.66256 22.4826 6.65876 22.0312 6.63122C21.5787 6.60462 21.0561 6.57423 20.6047 6.57233L19.116 6.57043C18.6578 6.55998 18.3139 6.53719 17.8558 6.53529H17.1431L16.5277 6.55998C16.0706 6.57233 15.7516 6.55334 15.2946 6.53909C14.8398 6.52484 14.1679 6.53054 13.7108 6.52959C13.4835 6.52674 13.3805 6.52009 13.1531 6.52674L12.3952 6.54859C11.9393 6.56758 11.2922 6.58278 10.8352 6.56283C10.3793 6.54384 9.84763 6.49825 9.39173 6.52294C8.93584 6.55429 8.67226 6.54479 8.21523 6.55049C7.75933 6.55334 7.33625 6.57423 6.88035 6.56948C6.51517 6.56741 6.15008 6.55918 5.7853 6.54479C5.54548 6.53149 5.58394 6.5049 5.50475 6.4859C5.39389 6.45836 5.67104 6.43841 5.91992 6.41656Z" fill="#F6AC27"/>
<mask id="mask0_1_1566" style="mask-type:luminance" maskUnits="userSpaceOnUse" x="0" y="6" width="1" height="2">
<path d="M0.501221 7.99658V6.44936H7.61151e-05V7.99658H0.501221Z" fill="#F6AC27"/>
</mask>
<g mask="url(#mask0_1_1566)">
<path fill-rule="evenodd" clip-rule="evenodd" d="M0.123837 7.65471L0.112524 7.82947L0.0966868 7.9311C0.213206 7.9482 0.35235 7.97194 0.174743 7.98809L0.0141054 7.99854C-0.00512585 7.6984 -0.00512588 7.2292 0.0107117 6.92811C0.0288117 6.57669 0.0763243 6.2908 0.104606 6.55294C0.131809 6.91974 0.13785 7.28742 0.122706 7.65471" fill="#F6AC27"/>
</g>
<path fill-rule="evenodd" clip-rule="evenodd" d="M0.10491 6.53036C-0.0534654 6.48952 -0.00821541 6.45628 0.848142 6.44203C1.58572 6.43158 2.19659 6.43538 2.58235 6.47337C2.93643 6.50757 2.73733 6.53986 2.05293 6.55601C1.27915 6.575 0.328898 6.5883 0.10491 6.53036ZM1.32779 7.92941C1.16829 7.9693 1.21467 8.0035 2.06989 8.01774C2.80747 8.02819 3.41948 8.02439 3.80523 7.9864C4.15932 7.95221 3.95908 7.91991 3.27581 7.90377C2.50203 7.88477 1.55178 7.87148 1.32779 7.92941Z" fill="#F6AC27"/>
</svg>
